<svg width="21" height="23" viewBox="0 0 21 23" fill="none" xmlns="http://www.w3.org/2000/svg">
<g clip-path="url(#clip0_2153_3196)">
<path d="M10.0078 6.11758C7.16853 6.11758 4.87835 8.52227 4.87835 11.5035C4.87835 14.4848 7.16853 16.8895 10.0078 16.8895C12.8471 16.8895 15.1373 14.4848 15.1373 11.5035C15.1373 8.52227 12.8471 6.11758 10.0078 6.11758ZM10.0078 15.0051C8.17299 15.0051 6.67299 13.4348 6.67299 11.5035C6.67299 9.57227 8.16853 8.00195 10.0078 8.00195C11.8471 8.00195 13.3426 9.57227 13.3426 11.5035C13.3426 13.4348 11.8426 15.0051 10.0078 15.0051ZM16.5435 5.89727C16.5435 6.5957 16.0078 7.15352 15.3471 7.15352C14.6819 7.15352 14.1507 6.59102 14.1507 5.89727C14.1507 5.20352 14.6864 4.64102 15.3471 4.64102C16.0078 4.64102 16.5435 5.20352 16.5435 5.89727ZM19.9408 7.17227C19.865 5.48945 19.4989 3.99883 18.3248 2.7707C17.1551 1.54258 15.7355 1.1582 14.1328 1.07383C12.481 0.975391 7.53013 0.975391 5.87835 1.07383C4.28013 1.15352 2.86049 1.53789 1.68638 2.76602C0.512277 3.99414 0.15067 5.48477 0.0703125 7.16758C-0.0234375 8.90195 -0.0234375 14.1004 0.0703125 15.8348C0.146205 17.5176 0.512277 19.0082 1.68638 20.2363C2.86049 21.4645 4.27567 21.8488 5.87835 21.9332C7.53013 22.0316 12.481 22.0316 14.1328 21.9332C15.7355 21.8535 17.1551 21.4691 18.3248 20.2363C19.4944 19.0082 19.8605 17.5176 19.9408 15.8348C20.0346 14.1004 20.0346 8.90664 19.9408 7.17227ZM17.8069 17.6957C17.4587 18.6145 16.7846 19.3223 15.9051 19.6926C14.5882 20.241 11.4632 20.1145 10.0078 20.1145C8.55246 20.1145 5.42299 20.2363 4.11049 19.6926C3.23549 19.327 2.56138 18.6191 2.20871 17.6957C1.68638 16.3129 1.80692 13.0316 1.80692 11.5035C1.80692 9.97539 1.69085 6.68945 2.20871 5.31133C2.55692 4.39258 3.23103 3.68477 4.11049 3.31445C5.42746 2.76602 8.55246 2.89258 10.0078 2.89258C11.4632 2.89258 14.5926 2.7707 15.9051 3.31445C16.7801 3.68008 17.4542 4.38789 17.8069 5.31133C18.3292 6.69414 18.2087 9.97539 18.2087 11.5035C18.2087 13.0316 18.3292 16.3176 17.8069 17.6957Z" fill="white"/>
</g>
<defs>
<clipPath id="clip0_2153_3196">
<rect width="20.0112" height="23.007" fill="white"/>
</clipPath>
</defs>
</svg>
