<svg width="22" height="22" viewBox="0 0 22 22" fill="none" xmlns="http://www.w3.org/2000/svg">
<g clip-path="url(#clip0_2153_3190)">
<path fill-rule="evenodd" clip-rule="evenodd" d="M21 21H17V14.001C17 12.081 16.153 11.0098 14.634 11.0098C12.981 11.0098 12 12.126 12 14.001V21H8V8H12V9.46191C12 9.46191 13.255 7.25977 16.083 7.25977C18.912 7.25977 21 8.98611 21 12.5581V21ZM3.442 5.9209C2.093 5.9209 1 4.81896 1 3.45996C1 2.10196 2.093 1 3.442 1C4.79 1 5.883 2.10196 5.883 3.45996C5.884 4.81896 4.79 5.9209 3.442 5.9209ZM1 21H6V8H1V21Z" fill="white"/>
</g>
<defs>
<clipPath id="clip0_2153_3190">
<rect width="20" height="20" fill="white" transform="translate(1 1)"/>
</clipPath>
</defs>
</svg>
