<svg width="24" height="26" viewBox="0 0 24 26" fill="none" xmlns="http://www.w3.org/2000/svg">
<g clip-path="url(#clip0_2153_3201)">
<g clip-path="url(#clip1_2153_3201)">
<path d="M2.10096 16.9519L1.13856 17.3286C0.118292 17.5583 -0.325556 18.6941 0.264044 19.5969C0.84449 20.4858 2.10993 20.8027 3.08021 20.9924C3.14027 21.269 3.22725 21.6264 3.44203 21.9387C3.77492 22.4225 4.30226 22.6357 4.92647 22.5388C7.03859 22.212 7.27645 22.381 8.06509 22.9409C8.45565 23.2181 9.08755 23.644 9.51803 23.8474C10.2772 24.1608 11.1382 24.3169 11.9987 24.3169C13.6383 24.3169 14.6964 23.7498 14.701 23.7484C15.6457 23.2048 16.8877 21.9607 18.7887 22.4586C19.3472 22.6048 19.8199 22.5577 20.1944 22.3186C20.7314 21.9757 20.8618 21.3743 20.9334 20.9869C22.0135 20.7654 23.4161 20.4401 23.8801 19.3217C24.0528 18.9056 24.0383 18.4496 23.8404 18.0709C23.652 17.7098 23.3108 17.446 22.8985 17.3398L21.9031 16.9534C20.7644 16.5113 19.8943 15.6229 19.4294 14.4563H20.485C21.6481 14.4563 22.5944 13.5081 22.5944 12.3426C22.5944 11.1772 21.6481 10.2291 20.485 10.2291H19.0815L19.1424 9.55945C19.5204 5.39318 16.1974 1.7749 12.0004 1.7749C7.8157 1.7749 4.47914 5.37997 4.85835 9.55964L4.91933 10.2291H3.51564C2.35255 10.2291 1.40626 11.1772 1.40626 12.3428C1.40626 13.5081 2.35255 14.4557 3.51564 14.4557H4.58424C4.11861 15.6158 3.24446 16.5043 2.10096 16.9519ZM3.51564 13.0473C3.128 13.0473 2.81251 12.7312 2.81251 12.3428C2.81251 11.9542 3.128 11.6381 3.51564 11.6381H6.4598L6.25893 9.43195C5.94802 6.00484 8.70943 3.1839 12.0004 3.1839C15.2897 3.1839 18.0528 6.00374 17.7419 9.43176L17.5412 11.6381H20.485C20.8728 11.6381 21.1881 11.9542 21.1881 12.3428C21.1881 12.7312 20.8728 13.0473 20.485 13.0473H17.6194L17.7981 13.8971C18.2309 15.955 19.542 17.5478 21.395 18.2672L22.4863 18.691C22.5383 18.7062 22.5352 18.6945 22.5938 18.7229C22.5951 18.7271 22.5954 18.7473 22.5815 18.7809C22.3854 19.2537 21.1742 19.5001 20.5234 19.6325C20.4425 19.649 20.3643 19.6648 20.2898 19.6804C19.7198 19.8 19.6156 20.3734 19.5596 20.6814C19.5372 20.8041 19.4918 21.054 19.4369 21.1287C19.4109 21.1336 19.3239 21.1424 19.1443 21.0953C16.6275 20.4363 14.9165 21.9842 14.0305 22.5092C12.8432 23.0301 11.3031 23.049 10.0857 22.5577C9.55026 22.2685 9.19357 22.0154 8.87807 21.7914C7.84389 21.0571 7.27865 20.7493 4.71169 21.1465C4.65272 21.1555 4.62086 21.1529 4.60823 21.1509C4.5359 21.0738 4.47035 20.7673 4.44179 20.6344C4.37349 20.315 4.25905 19.7804 3.71101 19.6778L3.66011 19.6683C3.04304 19.5531 1.75929 19.3133 1.44087 18.8255C1.40223 18.7664 1.40443 18.7281 1.40827 18.7192C1.41468 18.7044 1.50916 18.6936 1.52601 18.6897L2.61256 18.2644C4.45113 17.5449 5.77681 15.9414 6.21004 13.9296L6.40084 13.0473H3.51564Z" fill="white"/>
</g>
</g>
<defs>
<clipPath id="clip0_2153_3201">
<rect width="24" height="26" fill="white"/>
</clipPath>
<clipPath id="clip1_2153_3201">
<rect width="24" height="24" fill="white" transform="translate(0 1)"/>
</clipPath>
</defs>
</svg>
