<svg width="30" height="32" viewBox="0 0 30 32" fill="none" xmlns="http://www.w3.org/2000/svg">
<g clip-path="url(#clip0_2153_3204)">
<path d="M20.199 14.9358L13.0118 11.1888C12.8385 11.098 12.648 11.0538 12.4568 11.0538C12.2408 11.0538 12.0255 11.1108 11.835 11.227C11.4773 11.4438 11.2568 11.8338 11.2568 12.2523V19.7463C11.2568 20.1655 11.4773 20.5548 11.835 20.773C12.0255 20.8878 12.2415 20.9463 12.4568 20.9463C12.6473 20.9463 12.8378 20.902 13.0118 20.8098L20.199 17.0628C20.5958 16.8565 20.844 16.4463 20.844 15.9985C20.844 15.5538 20.5958 15.1435 20.199 14.9358ZM12.4568 19.747V12.253L19.644 16L12.4568 19.747ZM26.7893 11.0028C26.4128 7.79729 25.1415 7.35403 22.6118 7.18153C20.8148 7.05928 17.907 6.99854 14.9993 6.99854C12.093 6.99854 9.18829 7.05928 7.38829 7.18153C4.85854 7.35328 3.58879 7.79654 3.21079 11.0028C2.93104 13.384 2.93104 18.61 3.21079 20.9988C3.58879 24.2043 4.85929 24.646 7.38829 24.8185C9.18679 24.9408 12.0945 25.0015 15.0008 25.0015C17.907 25.0015 20.8155 24.9408 22.6118 24.8185C25.1415 24.6468 26.4128 24.205 26.7893 20.9988C27.069 18.616 27.0705 13.3908 26.7893 11.0028ZM25.5975 20.8585C25.4138 22.4328 25.0365 22.8925 24.7695 23.101C24.342 23.4363 23.5658 23.5518 22.5315 23.6223C20.8673 23.734 18.0525 23.8023 15.0008 23.8023C11.9498 23.8023 9.13429 23.734 7.47004 23.6223C6.43729 23.551 5.66029 23.4363 5.23204 23.101C4.96504 22.8925 4.58854 22.432 4.40254 20.8585C4.13554 18.589 4.13554 13.4118 4.40254 11.1438C4.58854 9.56804 4.96504 9.10979 5.23204 8.89979C5.66029 8.56604 6.43729 8.45054 7.47004 8.38004C9.13429 8.26829 11.9498 8.20004 15 8.20004C18.0518 8.20004 20.868 8.26829 22.5315 8.38004C23.5658 8.45129 24.342 8.56604 24.7695 8.89979C25.0365 9.10979 25.4138 9.56879 25.5975 11.1438C25.8645 13.4133 25.8645 18.5883 25.5975 20.8585Z" fill="white"/>
</g>
<defs>
<clipPath id="clip0_2153_3204">
<rect width="30" height="32" fill="white"/>
</clipPath>
</defs>
</svg>
