<svg width="60" height="60" viewBox="0 0 60 60" fill="none" xmlns="http://www.w3.org/2000/svg">
<g clip-path="url(#clip0_440_2)">
<path d="M21.5517 36.4443C23.62 36.4443 25.2967 38.1211 25.2967 40.1894V56.2548C25.2967 58.3231 23.62 59.9996 21.5517 59.9996C19.4836 59.9996 17.8068 58.3231 17.8068 56.2548V40.1894C17.8068 38.1214 19.4836 36.4446 21.5517 36.4446V36.4443Z" fill="#A4C639"/>
<path d="M13.0019 17.1294C12.9896 17.2714 12.9788 17.415 12.9788 17.5602V41.9007C12.9788 44.5184 15.0508 46.6272 17.623 46.6272H42.3757C44.9481 46.6272 47.0201 44.5181 47.0201 41.9007V17.5602C47.0201 17.415 47.0149 17.2709 47.0028 17.1294H13.0019Z" fill="#A4C639"/>
<path d="M38.4475 36.4446C40.5159 36.4446 42.1926 38.1213 42.1926 40.1896V56.2551C42.1926 58.3234 40.5159 59.9999 38.4475 59.9999C36.3795 59.9999 34.7027 58.3234 34.7027 56.2551V40.1896C34.7027 38.1216 36.3795 36.4448 38.4475 36.4448V36.4446ZM6.96158 19.2957C9.02964 19.2957 10.7064 20.9725 10.7064 23.0408V39.1062C10.7064 41.1745 9.02964 42.8513 6.96158 42.8513C4.89325 42.8513 3.21649 41.1745 3.21649 39.1064V23.041C3.21623 20.9727 4.89298 19.2957 6.96158 19.2957ZM53.0379 19.2957C55.106 19.2957 56.7827 20.9725 56.7827 23.0408V39.1062C56.7827 41.1745 55.106 42.8513 53.0379 42.8513C50.9696 42.8513 49.2928 41.1745 49.2928 39.1064V23.041C49.2928 20.9727 50.9696 19.2957 53.0379 19.2957ZM13.1113 15.5306C13.2155 8.05413 19.741 1.92408 28.1175 1.11621H31.8812C40.2582 1.92435 46.7832 8.05465 46.8873 15.5306H13.1113Z" fill="#A4C639"/>
<path d="M14.4139 0.394531L18.3644 7.23725M45.5856 0.394531L41.6349 7.23725" stroke="#A4C639" stroke-width="3.52" stroke-linecap="round" stroke-linejoin="round"/>
<path d="M24.9686 8.83028C24.9717 9.87536 24.1068 10.725 23.0364 10.7279C21.9666 10.7306 21.0967 9.88588 21.0936 8.8408V8.83028C21.0907 7.78494 21.9556 6.93552 23.0257 6.93262C24.0955 6.92973 24.9654 7.77416 24.9686 8.81976V8.83028ZM39.4314 8.83028C39.4345 9.87536 38.5696 10.725 37.4992 10.7279C36.4294 10.7306 35.5595 9.88588 35.5564 8.8408V8.83028C35.5535 7.78494 36.4184 6.93552 37.4885 6.93262C38.5583 6.92973 39.4282 7.77416 39.4314 8.81976V8.83028Z" fill="white"/>
</g>
<defs>
<clipPath id="clip0_440_2">
<rect width="60" height="60" fill="white"/>
</clipPath>
</defs>
</svg>
