<svg width="32" height="32" viewBox="0 0 32 32" fill="none" xmlns="http://www.w3.org/2000/svg">
<path d="M15.9835 1.99951C14.426 1.99951 12.8682 2.40927 11.4734 3.2286C9.47298 4.40376 8.04392 6.30168 7.38525 8.48266H7.29546C6.03539 8.48266 5 9.53818 5 10.8191V12.2885C5 13.5694 6.03539 14.6251 7.29546 14.6251H8.52849C9.13369 14.6251 9.68809 14.3779 10.1027 13.9831C10.7122 15.1626 11.6408 16.1287 12.7842 16.7759C12.6424 16.8378 12.5072 16.9165 12.3682 16.986C12.2976 17.02 12.2286 17.0587 12.1587 17.0957C11.8265 17.2722 11.5027 17.4665 11.1891 17.6827C11.1708 17.694 11.1504 17.7053 11.1322 17.7166C11.1298 17.7183 11.1286 17.7204 11.1263 17.7242C10.1348 18.4184 9.23607 19.2911 8.47167 20.2949C6.58888 22.7674 5.44039 25.9981 5.43998 29.218V29.9999H6.20015H26.593V29.218C26.5926 25.9982 25.4441 22.7674 23.5613 20.2949C22.7969 19.2911 21.9012 18.4184 20.9097 17.7242C20.9072 17.7225 20.9062 17.7204 20.9038 17.7166C20.8863 17.7053 20.8674 17.694 20.8499 17.6827C20.53 17.462 20.1985 17.2658 19.8593 17.0862C19.8005 17.056 19.742 17.0251 19.6827 16.9952C19.5387 16.9227 19.3989 16.8402 19.2517 16.7763C20.3869 16.1336 21.3116 15.1762 21.9213 14.0079C22.3302 14.387 22.8676 14.6254 23.4596 14.6254H24.6926C25.9527 14.6254 27 13.5699 27 12.2889V10.8196C27 9.53864 25.9527 8.483 24.6926 8.483H24.5819C23.9228 6.30256 22.4937 4.40381 20.4937 3.22894C19.0989 2.40954 17.541 1.99951 15.9835 1.99951ZM15.9835 3.55709C17.2762 3.55709 18.5684 3.89837 19.7275 4.57925C21.2569 5.47772 22.2815 6.93239 22.8729 8.57089C22.6985 8.61814 22.5349 8.68841 22.3791 8.77459C21.84 7.06522 20.6654 5.65887 19.1289 4.82874C19.1262 4.82719 19.1227 4.82725 19.1199 4.82574C18.848 4.67909 18.5711 4.54714 18.2789 4.43946C18.1398 4.38654 17.9946 4.3495 17.851 4.30566C17.6396 4.24405 17.4328 4.17609 17.2135 4.13565C16.8876 4.07328 16.5506 4.04265 16.2079 4.03207C16.1428 4.03014 16.082 4.00935 16.0164 4.00935C15.9528 4.00935 15.894 4.02826 15.8308 4.02826C15.4826 4.0396 15.1411 4.06945 14.8103 4.13484C14.6028 4.17604 14.4062 4.238 14.2057 4.2962C14.0476 4.34345 13.8886 4.38615 13.7359 4.44511C13.4554 4.54942 13.1895 4.67609 12.9278 4.81593C12.9039 4.82727 12.8798 4.83859 12.856 4.85711C11.3377 5.69424 10.1842 7.09685 9.65379 8.79685C9.47988 8.69669 9.29439 8.61812 9.09713 8.56559C9.68869 6.92977 10.7112 5.478 12.2396 4.58017C13.3986 3.89929 14.6908 3.55709 15.9835 3.55709ZM16.0164 5.57419C16.3737 5.57419 16.7272 5.6082 17.0639 5.68077C17.0805 5.68421 17.0952 5.69212 17.1118 5.69968C17.4317 5.76923 17.7418 5.86523 18.0366 5.99185C18.068 6.00318 18.0952 6.02579 18.1264 6.03902C18.3979 6.16223 18.6602 6.30172 18.9045 6.46821C18.9777 6.52112 19.0405 6.58205 19.111 6.63534C19.3004 6.77972 19.4876 6.92633 19.6557 7.09451C19.7663 7.20563 19.8575 7.33525 19.9579 7.45657C20.0674 7.58848 20.1846 7.71286 20.2812 7.8552C20.4256 8.06874 20.5456 8.30079 20.6582 8.53664C20.6862 8.5956 20.7222 8.64781 20.748 8.70677C20.858 8.96037 20.9384 9.22718 21.0084 9.50078C21.0241 9.56125 21.0486 9.61827 21.0622 9.68025C21.1206 9.94709 21.1468 10.2266 21.164 10.5077C21.1674 10.5606 21.1772 10.612 21.179 10.6661C21.1755 10.719 21.164 10.7685 21.164 10.8214V11.174C21.1547 11.326 21.1408 11.4768 21.1191 11.6245C21.0954 11.7817 21.0727 11.9389 21.0353 12.0931C21.0072 12.2103 20.9693 12.3225 20.9336 12.437C20.9239 12.4673 20.9109 12.4975 20.9006 12.5282C18.7663 13.626 18.1921 13.8908 15.9908 14.0182C14.8927 13.9955 14.9819 15.7091 16.0716 15.5697C17.6586 15.4779 17.7209 15.3626 19.3504 14.8403C18.4654 15.5993 17.3378 16.0763 16.0882 16.0937C16.0639 16.0935 16.0408 16.0861 16.0164 16.0861C15.993 16.0861 15.971 16.0937 15.9476 16.0937C13.8344 16.0635 12.0381 14.7701 11.2609 12.9116C11.2533 12.8813 11.2443 12.8586 11.234 12.8326C11.1098 12.5264 11.0153 12.2086 10.9497 11.8864C10.8838 11.5496 10.8479 11.2001 10.8479 10.8428C10.8479 7.92578 13.1498 5.57419 16.0164 5.57419ZM7.29547 10.0463H8.5285C8.96621 10.0463 9.29764 10.3744 9.29764 10.8191V12.2885C9.29764 12.296 9.29484 12.2999 9.29465 12.3112C9.29113 12.4167 9.26222 12.5232 9.17494 12.6733C9.15653 12.7073 9.14047 12.7409 9.12705 12.7768C8.98839 12.9552 8.7795 13.0717 8.52849 13.0717H7.29546C6.85775 13.0717 6.52632 12.7349 6.52632 12.2898V10.8204C6.52632 10.3753 6.85775 10.0463 7.29547 10.0463ZM23.4595 10.0463H24.6925C25.1302 10.0463 25.4617 10.3744 25.4617 10.8191V12.2885C25.4617 12.7335 25.1302 13.0704 24.6925 13.0704H23.4595C23.2478 13.0704 23.0633 12.9921 22.9268 12.8606C22.9068 12.8077 22.8817 12.7624 22.8519 12.7174C22.7384 12.5515 22.6933 12.423 22.6933 12.2883V11.4577C22.6936 11.435 22.6926 11.4047 22.6903 11.3787V11.1867C22.6962 11.0696 22.7262 10.9588 22.7262 10.8401C22.7262 10.8099 22.7176 10.7811 22.7171 10.7547C22.7453 10.4474 22.9175 10.206 23.169 10.1006C23.2582 10.0665 23.3554 10.0463 23.4595 10.0463ZM15.8788 17.646C15.9258 17.647 15.9692 17.6649 16.0164 17.6649C16.0626 17.6649 16.1052 17.6536 16.1511 17.646C16.3512 17.6498 16.6152 17.6688 16.9232 17.7051C17.6548 17.8128 18.3619 18.0611 19.0391 18.4047C19.017 18.5011 18.906 18.6054 18.6531 18.718C17.8011 19.2155 16.9748 19.6383 16.0164 19.6398C15.058 19.6383 14.2857 19.1301 13.4845 18.6329C13.2909 18.527 13.1748 18.4314 13.1104 18.3467C13.9891 17.9193 14.9178 17.6675 15.8788 17.646ZM11.4854 19.3893C12.7146 20.5375 14.3315 21.1878 16.0164 21.1903C17.7014 21.1878 19.3183 20.5375 20.5475 19.3893C21.1985 19.9162 21.8095 20.5355 22.3522 21.2481C23.8571 23.2244 24.6124 25.8644 24.7943 28.4341H7.2386C7.42052 25.8644 8.17874 23.2244 9.6837 21.2481C10.2261 20.5359 10.8348 19.9161 11.4854 19.3893Z" fill="white"/>
</svg>
