<svg width="80" height="79" viewBox="0 0 80 79" fill="none" xmlns="http://www.w3.org/2000/svg">
<rect width="80" height="79" fill="white"/>
<path d="M24.4715 55.7569C24.6069 55.762 24.7419 55.7386 24.8678 55.6884C24.9937 55.6382 25.1077 55.5622 25.2025 55.4652C25.2972 55.3683 25.3706 55.2526 25.418 55.1256C25.4653 54.9986 25.4856 54.8631 25.4774 54.7278C25.4785 54.5959 25.4523 54.4652 25.4006 54.3438C25.3489 54.2225 25.2727 54.1131 25.1768 54.0225C25.0822 53.9254 24.9689 53.8486 24.8436 53.7969C24.7183 53.7452 24.5838 53.7197 24.4483 53.7219C24.3162 53.7219 24.1854 53.7479 24.0634 53.7984C23.9413 53.849 23.8304 53.9231 23.737 54.0165C23.6436 54.1099 23.5695 54.2208 23.519 54.3429C23.4684 54.4649 23.4424 54.5957 23.4424 54.7278C23.4322 54.8694 23.4539 55.0115 23.5059 55.1436C23.558 55.2756 23.639 55.3944 23.743 55.4909C23.9431 55.6691 24.2036 55.7642 24.4715 55.7569Z" fill="#DE1515"/>
<path d="M27.871 53.2709C28.0508 53.6477 28.276 54.0011 28.5417 54.3231C28.8253 54.6443 29.1522 54.9245 29.5129 55.1556C29.873 55.3667 30.2628 55.5226 30.6692 55.6181C31.1408 55.7152 31.6214 55.7617 32.1029 55.7569C32.7236 55.7719 33.341 55.6618 33.9182 55.4331C34.4007 55.2409 34.8349 54.9448 35.1901 54.5659C35.5009 54.2517 35.7516 53.8834 35.9301 53.4791C36.0786 53.1602 36.1575 52.8133 36.1614 52.4616C36.1663 52.3453 36.1462 52.2294 36.1023 52.1216C36.0584 52.0139 35.9918 51.9169 35.907 51.8372C35.8273 51.7556 35.7319 51.691 35.6266 51.6473C35.5213 51.6035 35.4082 51.5816 35.2942 51.5828C35.18 51.5713 35.0648 51.5874 34.9582 51.6296C34.8516 51.6719 34.7566 51.7391 34.6813 51.8256C34.5415 52.024 34.4324 52.2423 34.3576 52.4731C34.1961 52.9772 33.8807 53.4179 33.4557 53.7334C33.0251 54.0305 32.5101 54.1806 31.9873 54.1613C31.4974 54.1729 31.0148 54.0402 30.5998 53.7797C30.1786 53.5 29.8552 53.0958 29.6748 52.6234C29.4384 52.008 29.3283 51.3513 29.351 50.6925C29.2902 49.746 29.5465 48.8062 30.0795 48.0216C30.3109 47.7188 30.6107 47.4751 30.9543 47.3103C31.298 47.1456 31.6757 47.0644 32.0567 47.0734C32.5233 47.0609 32.9828 47.1899 33.3748 47.4434C33.7714 47.7491 34.0886 48.1457 34.2998 48.5997C34.4082 48.8293 34.5526 49.0401 34.7276 49.2241C34.8069 49.2917 34.8988 49.3428 34.9981 49.3746C35.0973 49.4064 35.2019 49.4181 35.3057 49.4091C35.4173 49.4091 35.5275 49.3854 35.6292 49.3395C35.7309 49.2937 35.8216 49.2267 35.8954 49.1431C36.0528 48.9781 36.1399 48.7584 36.1382 48.5303C36.1101 48.0472 35.9368 47.5837 35.641 47.2006C35.2578 46.706 34.7624 46.3096 34.1957 46.0444C33.5285 45.7115 32.7906 45.5449 32.0451 45.5588C31.4068 45.5523 30.7738 45.6742 30.1835 45.9172C29.6063 46.1457 29.0856 46.4968 28.6573 46.9462C28.2144 47.4089 27.8753 47.9608 27.6629 48.565C27.4124 49.2264 27.2832 49.9275 27.2814 50.6347C27.2788 51.1046 27.3253 51.5735 27.4201 52.0338C27.5192 52.4631 27.6706 52.8786 27.871 53.2709Z" fill="#DE1515"/>
<path d="M38.844 55.7569C38.9692 55.7618 39.0939 55.7396 39.2097 55.6917C39.3255 55.6438 39.4295 55.5713 39.5146 55.4794C39.7029 55.2358 39.7936 54.9307 39.769 54.6238V47.7672L41.3646 54.0919C41.3646 54.3 41.4687 54.5081 41.5149 54.6931C41.5669 54.8785 41.6406 55.057 41.7346 55.225C41.8299 55.3805 41.9606 55.5113 42.1162 55.6066C42.3263 55.722 42.5649 55.7756 42.8042 55.7613C43.0436 55.747 43.274 55.6653 43.469 55.5256C43.6275 55.3826 43.7503 55.2044 43.8274 55.0053C43.8968 54.8088 43.9777 54.5081 44.0818 54.0919L45.6774 47.7672V54.6238C45.6528 54.9307 45.7435 55.2358 45.9318 55.4794C46.0156 55.5698 46.1177 55.6414 46.2314 55.6892C46.345 55.7371 46.4676 55.7601 46.5908 55.7569C46.7177 55.7612 46.844 55.7388 46.9615 55.6909C47.0791 55.6431 47.1852 55.571 47.273 55.4794C47.4556 55.2329 47.5457 54.93 47.5274 54.6238V46.7612C47.5482 46.5991 47.5273 46.4344 47.4666 46.2826C47.4059 46.1309 47.3074 45.9971 47.1805 45.8941C46.9081 45.7226 46.5883 45.6416 46.2671 45.6628H45.6427C45.3689 45.6493 45.0948 45.6845 44.8333 45.7669C44.7483 45.7968 44.6704 45.8441 44.6047 45.9058C44.539 45.9675 44.4869 46.0423 44.4518 46.1253C44.3355 46.4062 44.2427 46.6963 44.1743 46.9925L42.729 52.4269L41.2952 46.9925C41.2296 46.6941 41.1327 46.4034 41.0061 46.1253C40.9735 46.0427 40.9236 45.968 40.8598 45.9062C40.796 45.8443 40.7198 45.7969 40.6361 45.7669C40.371 45.6831 40.0929 45.6479 39.8152 45.6628H39.1908C38.8697 45.6432 38.5505 45.724 38.2774 45.8941C38.1543 45.9997 38.0592 46.1342 38.0007 46.2855C37.9422 46.4368 37.9221 46.6003 37.9421 46.7612V54.6238C37.9163 54.9308 38.0071 55.2363 38.1965 55.4794C38.279 55.5684 38.3792 55.639 38.4908 55.6868C38.6023 55.7346 38.7226 55.7585 38.844 55.7569Z" fill="#DE1515"/>
<path d="M54.5458 53.8722C54.1207 54.1706 53.6075 54.3172 53.0889 54.2884C52.7306 54.3007 52.3744 54.2294 52.0483 54.0803C51.7971 53.9609 51.5818 53.7775 51.4239 53.5484C51.255 53.3035 51.1153 53.0396 51.0077 52.7622C50.9263 52.5558 50.7999 52.3701 50.6377 52.2187C50.4911 52.0803 50.2958 52.0055 50.0943 52.0106C49.9764 52.0091 49.8594 52.031 49.75 52.075C49.6406 52.1191 49.5411 52.1844 49.4572 52.2673C49.3733 52.3501 49.3067 52.4488 49.2612 52.5575C49.2158 52.6663 49.1924 52.783 49.1924 52.9009C49.2102 53.3643 49.3585 53.8131 49.6202 54.1959C49.9086 54.6433 50.3066 55.0095 50.7764 55.2597C51.5225 55.6562 52.3603 55.8477 53.2046 55.8147C53.9311 55.8372 54.6536 55.699 55.3205 55.41C55.8798 55.1682 56.3547 54.7658 56.6849 54.2537C56.9969 53.7723 57.1579 53.2086 57.1474 52.635C57.1585 52.1962 57.0674 51.7607 56.8814 51.3631C56.7023 51.0224 56.4447 50.7291 56.1299 50.5075C55.7743 50.2601 55.3849 50.0654 54.9736 49.9294C54.5227 49.7791 54.0139 49.6287 53.4589 49.5016C52.9039 49.3744 52.6843 49.305 52.4877 49.2356C52.291 49.1745 52.1011 49.0931 51.9211 48.9928C51.743 48.9079 51.5882 48.781 51.4702 48.6228C51.3618 48.4756 51.305 48.2968 51.3083 48.1141C51.3129 47.947 51.3586 47.7837 51.4412 47.6385C51.5239 47.4933 51.6411 47.3707 51.7824 47.2816C52.1589 47.0448 52.5983 46.9279 53.0427 46.9462C53.4711 46.9087 53.8995 47.0189 54.2568 47.2584C54.5352 47.5023 54.7597 47.8016 54.9158 48.1372C55.0143 48.3439 55.1428 48.5348 55.2974 48.7037C55.4457 48.8278 55.6363 48.89 55.8293 48.8772C55.9501 48.8795 56.07 48.8548 56.18 48.8048C56.2901 48.7548 56.3875 48.6807 56.4652 48.5881C56.6252 48.41 56.7155 48.18 56.7196 47.9406C56.7149 47.6582 56.6436 47.3809 56.5114 47.1312C56.3519 46.8275 56.1315 46.5598 55.8639 46.345C55.5244 46.0666 55.1306 45.8619 54.7077 45.7437C54.1996 45.5816 53.6685 45.5035 53.1352 45.5125C52.4523 45.4977 51.773 45.6155 51.1349 45.8594C50.6214 46.0565 50.1729 46.3928 49.8399 46.8306C49.5482 47.26 49.3949 47.7684 49.4005 48.2875C49.3812 48.8014 49.5271 49.3079 49.8168 49.7328C50.1201 50.1288 50.5175 50.4428 50.973 50.6462C51.5515 50.8962 52.1513 51.0936 52.7652 51.2359C53.2001 51.3234 53.6289 51.4392 54.0486 51.5828C54.3391 51.6752 54.6042 51.8335 54.8233 52.0453C54.9261 52.1525 55.0057 52.2797 55.0575 52.4189C55.1092 52.5581 55.1318 52.7064 55.1239 52.8547C55.117 53.0584 55.0608 53.2574 54.9601 53.4346C54.8594 53.6118 54.7173 53.762 54.5458 53.8722Z" fill="#DE1515"/>
<path d="M67.75 41.8125H64.2812V21C64.2812 21 64.2812 21 64.2812 20.9306C64.2867 20.8498 64.2867 20.7687 64.2812 20.6878C64.2812 20.6878 64.2812 20.63 64.2812 20.5953C64.2351 20.4733 64.1687 20.3599 64.0847 20.26L51.3659 6.385C51.2649 6.29024 51.1522 6.20865 51.0306 6.14219H50.9497C50.8614 6.13028 50.772 6.13028 50.6838 6.14219L50.4062 5.96875H19.6731C18.6244 5.96875 17.6185 6.38537 16.877 7.12696C16.1354 7.86855 15.7188 8.87436 15.7188 9.92313V41.8125H12.25C11.9433 41.8125 11.6492 41.9343 11.4324 42.1512C11.2156 42.368 11.0938 42.6621 11.0938 42.9688V59.1562C11.0938 59.1562 11.0938 59.1562 11.0938 59.2372C11.0938 59.3181 11.0938 59.3875 11.0938 59.4684L11.1631 59.665C11.1988 59.731 11.2414 59.793 11.2903 59.85L11.4406 60.0234H11.4984L15.7188 63.2031V69.0769C15.7188 70.1256 16.1354 71.1315 16.877 71.873C17.6185 72.6146 18.6244 73.0312 19.6731 73.0312H60.3269C60.8462 73.0312 61.3604 72.929 61.8402 72.7302C62.3199 72.5315 62.7558 72.2402 63.123 71.873C63.4902 71.5058 63.7815 71.0699 63.9802 70.5902C64.179 70.1104 64.2812 69.5962 64.2812 69.0769V63.2031L68.4437 60.0812L68.5941 59.9078C68.6429 59.8509 68.6856 59.7888 68.7213 59.7228L68.7906 59.5262C68.7906 59.4453 68.7906 59.3759 68.7906 59.295C68.7906 59.2141 68.7906 59.295 68.7906 59.2141V42.9688C68.7921 42.6811 68.6862 42.4033 68.4938 42.1895C68.3014 41.9757 68.0362 41.8413 67.75 41.8125ZM51.5625 10.0966L60.5003 19.8438H51.5625V10.0966ZM27.2812 8.28125H49.25V21C49.25 21.3067 49.3718 21.6008 49.5887 21.8176C49.8055 22.0344 50.0996 22.1562 50.4062 22.1562H61.9688V41.8125H27.2812V8.28125ZM18.0312 9.92313C18.0343 9.48861 18.2082 9.07275 18.5155 8.76549C18.8227 8.45823 19.2386 8.28428 19.6731 8.28125H24.9688V41.8125H18.0312V9.92313ZM24.9688 70.7188H19.6731C19.2386 70.7157 18.8227 70.5418 18.5155 70.2345C18.2082 69.9273 18.0343 69.5114 18.0312 69.0769V60.3125H24.9688V70.7188ZM61.9688 69.0769C61.9657 69.5114 61.7918 69.9273 61.4845 70.2345C61.1773 70.5418 60.7614 70.7157 60.3269 70.7188H27.2812V60.3125H61.9688V69.0769ZM66.5938 58H13.4062V44.125H66.5938V58Z" fill="#DE1515"/>
</svg>
