<svg width="40" height="40" viewBox="0 0 40 40" fill="none" xmlns="http://www.w3.org/2000/svg">
<g clip-path="url(#clip0_375_6020)">
<path fill-rule="evenodd" clip-rule="evenodd" d="M24.9327 11.4821H15.044C13.8255 11.4821 12.8179 10.4745 12.8179 9.256V2.22613C12.8179 1.00762 13.8255 0 15.044 0H24.9327C26.1746 0 27.1588 1.00762 27.1588 2.22613V9.256C27.1588 10.4745 26.1746 11.4821 24.9327 11.4821ZM15.044 1.10135C14.4347 1.10135 13.9192 1.59344 13.9192 2.22613V9.256C13.9192 9.88869 14.4347 10.3808 15.044 10.3808H24.9327C25.5654 10.3808 26.0809 9.88869 26.0809 9.256V2.22613C26.0809 1.59344 25.5654 1.10135 24.9327 1.10135H15.044Z" fill="white"/>
<path fill-rule="evenodd" clip-rule="evenodd" d="M19.9883 14.0598C19.6602 14.0598 19.3556 13.9192 19.1213 13.6849L16.7545 11.3182C16.5905 11.1541 16.5436 10.9198 16.6374 10.7324C16.7077 10.5215 16.9186 10.3809 17.1295 10.3809H22.8471C23.0814 10.3809 23.2689 10.5215 23.3626 10.7324C23.4329 10.9198 23.3861 11.1541 23.2455 11.3182L20.8787 13.6849C20.6444 13.9192 20.3163 14.0598 19.9883 14.0598ZM18.4651 11.4822L19.8945 12.9116C19.918 12.9585 19.9648 12.9585 19.9883 12.9585C20.0117 12.9585 20.0586 12.9585 20.1054 12.9116L21.5349 11.4822H18.4651Z" fill="white"/>
<path fill-rule="evenodd" clip-rule="evenodd" d="M19.9884 9.16224C19.8478 9.16224 19.7072 9.11537 19.6135 8.99821C18.9574 8.34209 18.3013 7.92029 17.7154 7.54537C16.6844 6.84238 15.7236 6.20969 15.7236 4.73342C15.7236 3.39774 16.8015 2.31982 18.1372 2.31982C19.0277 2.31982 19.5901 2.69475 19.9884 3.21028C20.4102 2.69475 20.9726 2.31982 21.8631 2.31982C23.1987 2.31982 24.2766 3.39774 24.2766 4.73342C24.2766 6.20969 23.2925 6.86581 22.2614 7.54537C21.699 7.92029 21.0195 8.34209 20.3868 8.99821C20.2696 9.11537 20.129 9.16224 19.9884 9.16224ZM18.1372 3.42117C17.4108 3.42117 16.8015 4.00699 16.8015 4.73342C16.8015 5.577 17.2702 5.92849 18.3247 6.63148C18.8168 6.93611 19.4026 7.33447 19.9884 7.84999C20.5977 7.33447 21.1835 6.93611 21.6756 6.63148C22.7066 5.92849 23.1753 5.577 23.1753 4.73342C23.1753 4.00699 22.5895 3.42117 21.8631 3.42117C21.2304 3.42117 20.9023 3.67893 20.4805 4.52252C20.3868 4.70998 20.1993 4.82715 19.9884 4.82715C19.7775 4.82715 19.5901 4.70998 19.4963 4.52252C19.098 3.67893 18.7699 3.42117 18.1372 3.42117Z" fill="white"/>
<path fill-rule="evenodd" clip-rule="evenodd" d="M19.0041 40C18.3714 40 17.809 39.7423 17.3637 39.3205L16.3327 38.2894C16.1218 38.0785 16.1218 37.7271 16.3327 37.5162C16.5436 37.3053 16.8951 37.3053 17.106 37.5162L18.137 38.5472C18.6057 38.9924 19.4024 38.9924 19.8476 38.5472C20.3163 38.0785 20.3163 37.3053 19.8476 36.8366C19.6367 36.6257 19.6367 36.2742 19.8476 36.0633C20.0585 35.8524 20.41 35.8524 20.6209 36.0633L22.4956 37.9379C22.9642 38.4066 23.7375 38.4066 24.2062 37.9379C24.6748 37.4693 24.6748 36.7194 24.2062 36.2273L23.2688 35.3135C23.1517 35.1963 23.1048 35.0557 23.1048 34.9151C23.1048 34.7745 23.1517 34.6339 23.2688 34.5402C23.4797 34.3058 23.8312 34.3058 24.0421 34.5402C24.4874 34.9854 25.2841 34.9854 25.7293 34.5402C25.9636 34.3058 26.0808 34.0012 26.0808 33.6732C26.0808 33.3451 25.9636 33.0405 25.7293 32.8296L23.8547 30.9549C23.7609 30.8378 23.7141 30.6972 23.7141 30.5566C23.7141 30.416 23.7609 30.2754 23.8547 30.1817C24.089 29.9708 24.4171 29.9708 24.628 30.1817C25.0966 30.6503 25.8699 30.6503 26.3386 30.1817C26.5729 29.9473 26.6901 29.6427 26.6901 29.3146C26.6901 29.01 26.5729 28.7054 26.3386 28.471L22.8705 25.0264C22.6596 24.8155 22.6596 24.464 22.8705 24.2531C23.0814 24.0422 23.4329 24.0422 23.6438 24.2531L27.1118 27.6978C27.5571 28.143 27.7914 28.7054 27.7914 29.3146C27.7914 29.9473 27.5571 30.5097 27.1118 30.9549C26.8072 31.2596 26.4323 31.4705 26.0105 31.5642L26.5026 32.0563C26.9478 32.4781 27.1821 33.0639 27.1821 33.6732C27.1821 34.2824 26.9478 34.8682 26.5026 35.3135C26.1745 35.6181 25.7762 35.8524 25.3309 35.9227C25.8465 36.8132 25.7293 37.9614 24.9794 38.7112C24.0656 39.6017 22.6127 39.6017 21.7223 38.7112L21.2302 38.2191C21.1364 38.6175 20.9256 39.0159 20.6209 39.3205C20.1991 39.7423 19.6133 40 19.0041 40ZM9.60745 31.2596C9.46685 31.2596 9.30282 31.1893 9.18566 31.0487C8.10774 29.6896 7.52192 27.979 7.54535 26.2215C7.56879 25.9169 7.80312 25.6591 8.10774 25.6825C8.41237 25.6825 8.6467 25.9169 8.6467 26.2215C8.62327 27.7446 9.11536 29.1975 10.0527 30.3691C10.2401 30.6034 10.1933 30.9549 9.95895 31.1424C9.86521 31.2127 9.74805 31.2596 9.60745 31.2596ZM19.2149 21.2537C19.1212 21.2537 19.0041 21.2303 18.9103 21.16C17.7621 20.3398 16.3561 19.8946 14.9736 19.918C14.669 19.918 14.4112 19.6837 14.4112 19.3791C14.4112 19.0744 14.6455 18.8167 14.9502 18.8167C16.5905 18.7933 18.2308 19.3088 19.543 20.2695C19.8008 20.457 19.8476 20.785 19.6602 21.0428C19.5664 21.1834 19.379 21.2537 19.2149 21.2537Z" fill="white"/>
<path fill-rule="evenodd" clip-rule="evenodd" d="M24.2532 31.1193C24.1126 31.1193 23.972 31.049 23.8548 30.9552L20.6445 27.7215C20.4336 27.5106 20.4336 27.1591 20.6445 26.9482C20.8554 26.7373 21.2069 26.7373 21.4178 26.9482L24.6281 30.182C24.8624 30.3929 24.8624 30.7443 24.6281 30.9552C24.5344 31.049 24.3938 31.1193 24.2532 31.1193Z" fill="white"/>
<path fill-rule="evenodd" clip-rule="evenodd" d="M23.644 35.4545C23.5034 35.4545 23.3628 35.4076 23.2691 35.3139L18.6294 30.6741C18.4185 30.4632 18.4185 30.1117 18.6294 29.9008C18.8403 29.69 19.1918 29.69 19.4027 29.9008L24.0424 34.5406C24.2533 34.7515 24.2533 35.0795 24.0424 35.3139C23.9252 35.4076 23.7846 35.4545 23.644 35.4545Z" fill="white"/>
<path fill-rule="evenodd" clip-rule="evenodd" d="M20.246 37.001C20.1054 37.001 19.9648 36.9542 19.8477 36.837L18.8166 35.806C18.6057 35.5951 18.6057 35.2436 18.8166 35.0327C19.0275 34.8218 19.379 34.8218 19.5899 35.0327L20.621 36.0637C20.8319 36.2746 20.8319 36.6261 20.621 36.837C20.5038 36.9542 20.3866 37.001 20.246 37.001Z" fill="white"/>
<path fill-rule="evenodd" clip-rule="evenodd" d="M26.3386 35.1965C26.198 35.1965 26.0574 35.1497 25.9637 35.0325C25.7528 34.8216 25.7528 34.4701 25.9637 34.2592L29.9707 30.2288C31.072 29.1274 31.775 27.6746 31.9391 26.1046C31.9625 25.7999 32.2437 25.5891 32.5249 25.6359C32.8295 25.6593 33.0638 25.9405 33.017 26.2217C32.8295 28.0261 32.0094 29.7367 30.744 31.0021L26.737 35.0325C26.6198 35.1497 26.4792 35.1965 26.3386 35.1965ZM19.215 21.254C19.0744 21.254 18.9338 21.2071 18.8401 21.0899C18.6292 20.879 18.6292 20.551 18.8401 20.3166L19.4493 19.7074C20.7147 18.442 22.4253 17.6219 24.2296 17.4344C24.5108 17.411 24.792 17.6219 24.8155 17.9265C24.8623 18.2077 24.6514 18.4889 24.3468 18.5123C22.7768 18.6998 21.3239 19.3793 20.2226 20.4807L19.6133 21.0899C19.4962 21.2071 19.3556 21.254 19.215 21.254Z" fill="white"/>
<path fill-rule="evenodd" clip-rule="evenodd" d="M10.3106 34.0485C10.006 34.0485 9.72479 33.9313 9.51389 33.7204L8.48285 32.6894C8.27195 32.4785 8.15479 32.1739 8.15479 31.8692C8.15479 31.5881 8.27195 31.2834 8.48285 31.0725L11.8338 27.7216C12.2555 27.2998 13.0054 27.2998 13.4272 27.7216L14.4582 28.7527C14.9035 29.1979 14.9035 29.9243 14.4582 30.3695L11.1073 33.7204C10.8964 33.9313 10.6152 34.0485 10.3106 34.0485ZM12.2087 28.12L12.607 28.4949L9.25613 31.8458C9.2327 31.8692 9.2327 31.8927 9.25613 31.9161L10.3106 32.9472C10.334 32.9472 10.334 32.9472 10.334 32.9472L13.685 29.5963C13.7084 29.5728 13.7084 29.5494 13.685 29.526L12.6539 28.4949L12.2087 28.12Z" fill="white"/>
<path fill-rule="evenodd" clip-rule="evenodd" d="M12.1619 35.8996C11.8573 35.8996 11.5761 35.7824 11.3652 35.5715L10.3342 34.5405C9.88894 34.0952 9.88894 33.3688 10.3342 32.947L13.6851 29.5961C14.1303 29.1509 14.8567 29.1509 15.3019 29.5961L16.333 30.6037C16.5439 30.8381 16.6611 31.1193 16.6611 31.4239C16.6611 31.7285 16.5439 32.0097 16.333 32.2206L12.9821 35.5715C12.7478 35.7824 12.4666 35.8996 12.1619 35.8996ZM14.0834 29.9711L14.4584 30.3694L11.1074 33.7203C11.1074 33.7203 11.1074 33.7438 11.1074 33.7672L12.1619 34.7982C12.1854 34.7982 12.1854 34.7982 12.2088 34.7982L15.5597 31.4473C15.5597 31.4239 15.5597 31.4005 15.5597 31.377L14.5287 30.3694L14.0834 29.9711Z" fill="white"/>
<path fill-rule="evenodd" clip-rule="evenodd" d="M14.0364 37.7511C13.7318 37.7511 13.4506 37.634 13.2163 37.4231L12.2087 36.392C11.9743 36.1811 11.8572 35.8999 11.8572 35.5953C11.8572 35.2907 11.9743 35.0095 12.2087 34.7986L15.5596 31.4477C15.9814 31.0259 16.7312 31.0259 17.153 31.4477L18.1841 32.4787C18.395 32.6896 18.5121 32.9708 18.5121 33.2755C18.5121 33.5801 18.395 33.8613 18.1841 34.0722L14.8332 37.4231C14.6223 37.634 14.3411 37.7511 14.0364 37.7511ZM15.9345 31.8226L16.3329 32.221L12.982 35.5719C12.9585 35.5719 12.9585 35.6188 12.982 35.6188L14.0364 36.6732L14.0599 36.6498L17.4108 33.2989C17.4342 33.2989 17.4108 33.252 17.4108 33.252L16.3797 32.221L15.9345 31.8226Z" fill="white"/>
<path fill-rule="evenodd" clip-rule="evenodd" d="M16.0516 38.9461C15.7939 38.9461 15.5361 38.8524 15.3721 38.6649L14.3879 37.6807C14.013 37.3058 14.013 36.6966 14.3879 36.3216L17.317 33.3925C17.6919 33.0176 18.3246 33.0176 18.6995 33.3925L19.6603 34.3533C20.0352 34.7282 20.0352 35.3609 19.6603 35.7358L16.7312 38.6649C16.5437 38.8524 16.3094 38.9461 16.0516 38.9461ZM15.2549 37.0012L16.0516 37.7979L18.7933 35.0563L18.02 34.2595L15.2549 37.0012Z" fill="white"/>
<path fill-rule="evenodd" clip-rule="evenodd" d="M17.5513 27.065C16.9421 27.065 16.3797 26.8307 15.9579 26.4089C15.5361 25.9871 15.3018 25.4013 15.3018 24.8155C15.3018 24.2062 15.5361 23.6438 15.9579 23.1986L18.9807 20.1758C19.1916 19.9649 19.5431 19.9649 19.754 20.1758C19.9649 20.3866 19.9649 20.7381 19.754 20.949L16.7312 23.9719C16.4968 24.2062 16.3797 24.4874 16.3797 24.8155C16.3797 25.1201 16.4968 25.4247 16.7312 25.6356C17.1764 26.0808 17.9497 26.0808 18.3715 25.6356L19.6603 24.3468C19.8712 24.1359 20.2227 24.1359 20.4336 24.3468C20.6445 24.5577 20.6445 24.9092 20.4336 25.1201L19.1448 26.4089C18.723 26.8307 18.1606 27.065 17.5513 27.065Z" fill="white"/>
<path fill-rule="evenodd" clip-rule="evenodd" d="M21.5115 25.4954C20.5273 25.4954 19.8712 25.2376 19.8478 25.2376C19.5666 25.1205 19.426 24.8158 19.5431 24.5346C19.6603 24.2534 19.9649 24.1129 20.2461 24.23C20.3633 24.2769 23.105 25.2611 25.2842 22.3319C25.4717 22.0976 25.8232 22.0508 26.0575 22.2148C26.2918 22.4022 26.3621 22.7537 26.1747 22.9881C24.6281 25.0502 22.8003 25.4954 21.5115 25.4954Z" fill="white"/>
<path fill-rule="evenodd" clip-rule="evenodd" d="M34.5636 28.2838C34.0715 28.2838 33.6263 28.0963 33.2748 27.7448L23.1283 17.5984C22.4253 16.8954 22.4253 15.7237 23.1283 15.0207L26.4089 11.7401C26.737 11.4121 27.2056 11.2246 27.6977 11.2246C28.1898 11.2246 28.6351 11.4121 28.9865 11.7401L39.133 21.8866C39.4611 22.2381 39.6485 22.7067 39.6485 23.1754C39.6485 23.6675 39.4611 24.1362 39.133 24.4876L35.8524 27.7448C35.5243 28.0963 35.0557 28.2838 34.5636 28.2838ZM27.6977 12.3025C27.4868 12.3025 27.2994 12.3963 27.1822 12.5134L23.9016 15.794C23.6204 16.0752 23.6204 16.5439 23.9016 16.8251L34.0481 26.9715C34.3293 27.2527 34.7979 27.2527 35.0791 26.9715L38.3597 23.7144C38.5003 23.5738 38.5706 23.3863 38.5706 23.1754C38.5706 22.9879 38.5003 22.8005 38.3597 22.6599L28.2133 12.5134C28.0727 12.3963 27.8852 12.3025 27.6977 12.3025Z" fill="white"/>
<path fill-rule="evenodd" clip-rule="evenodd" d="M5.41307 28.9166C4.94441 28.9166 4.47575 28.7291 4.12426 28.3776L0.867085 25.1205C0.164097 24.394 0.164097 23.2458 0.867085 22.5194L11.0135 12.3964C11.3416 12.0449 11.8103 11.8574 12.3024 11.8574C12.7944 11.8574 13.2397 12.0449 13.5912 12.3964L16.8483 15.6536C17.1998 16.005 17.3873 16.4503 17.3873 16.9424C17.3873 17.4345 17.1998 17.9031 16.8483 18.2312L6.72532 28.3776C6.37382 28.7291 5.90516 28.9166 5.41307 28.9166ZM12.3024 12.9588C12.1149 12.9588 11.9274 13.0291 11.7868 13.1697L1.64037 23.2927C1.49977 23.4333 1.42947 23.6207 1.42947 23.8316C1.42947 24.0191 1.49977 24.2066 1.64037 24.3472L4.89755 27.6043C5.17874 27.8855 5.67083 27.8855 5.95203 27.6043L16.0751 17.4579C16.2156 17.3173 16.3094 17.1533 16.3094 16.9424C16.3094 16.7549 16.2156 16.5674 16.0751 16.4268L12.8179 13.1697C12.6773 13.0291 12.4898 12.9588 12.3024 12.9588Z" fill="white"/>
</g>
<defs>
<clipPath id="clip0_375_6020">
<rect width="40" height="40" fill="white"/>
</clipPath>
</defs>
</svg>
