<svg width="60" height="60" viewBox="0 0 60 60" fill="none" xmlns="http://www.w3.org/2000/svg">
<g clip-path="url(#clip0_440_11)">
<path d="M20.6934 9.35297L52.6906 9.2171V30.889L35.0674 30.9636V34.8628H52.8264C54.9439 34.8628 56.6654 33.1403 56.6654 31.0236V9.2171C56.6654 7.10056 54.9437 5.37793 52.8264 5.37793H20.6934C18.576 5.37793 16.8544 7.10056 16.8544 9.2171V16.0422H20.7361L20.6934 9.35297Z" fill="#34C759"/>
<path d="M58.7462 35.7827H35.0674V40.3233H56.714C58.5287 40.3233 60 38.8521 60 37.0364C60 36.3445 59.4391 35.7827 58.7462 35.7827Z" fill="#34C759"/>
<path d="M27.9541 19.0234H13.9955C11.7169 19.0234 9.8634 20.877 9.8634 23.1556V28.9006H12.1283C12.7318 28.9006 13.3026 29.0249 13.8382 29.2217V23.1556C13.8382 23.0693 13.9079 22.9984 13.9955 22.9984H27.9541C28.0416 22.9984 28.1114 23.0692 28.1114 23.1556V42.5303H17.101V48.1491H27.9543C30.2329 48.1491 32.0865 46.2955 32.0865 44.0169V23.1556C32.0863 20.8771 30.2328 19.0234 27.9541 19.0234ZM20.9748 46.3326C20.4723 46.3326 20.0471 46.0366 19.8316 45.6163C19.7404 45.4389 19.6763 45.2457 19.6763 45.0333C19.6763 44.316 20.2588 43.7349 20.9748 43.7349C21.6911 43.7349 22.2733 44.316 22.2733 45.0333C22.2733 45.2458 22.2093 45.4389 22.1181 45.6163C21.9026 46.0366 21.4775 46.3326 20.9748 46.3326Z" fill="#34C759"/>
<path d="M12.1284 31.3848H2.4882C1.11594 31.3848 0 32.5017 0 33.8738V52.1335C0 53.5059 1.11594 54.6219 2.4882 54.6219H12.1283C13.5006 54.6219 14.6166 53.5059 14.6166 52.1335V33.8738C14.6167 32.5017 13.5007 31.3848 12.1284 31.3848ZM2.98116 34.3659H11.6355V50.15H2.98116V34.3659ZM7.30918 53.4127C7.03558 53.4127 6.79109 53.302 6.60458 53.1313C6.39319 52.9392 6.25719 52.6694 6.25719 52.3617C6.25719 51.7813 6.72701 51.3117 7.30918 51.3117C7.8875 51.3117 8.35744 51.7813 8.35744 52.3617C8.35744 52.6694 8.22145 52.939 8.0118 53.1313C7.82553 53.302 7.58105 53.4127 7.30918 53.4127Z" fill="#34C759"/>
</g>
<defs>
<clipPath id="clip0_440_11">
<rect width="60" height="60" fill="white"/>
</clipPath>
</defs>
</svg>
