<svg width="80" height="79" viewBox="0 0 80 79" fill="none" xmlns="http://www.w3.org/2000/svg">
<g clip-path="url(#clip0_375_16394)">
<rect width="80" height="79" fill="white"/>
<path d="M39.3549 9.5C31.7922 9.5 25.6481 15.642 25.6481 23.2093V26.4273H22.719C20.9635 26.4273 19.3969 27.2075 18.3304 28.3567C17.2638 29.507 16.6412 30.9812 16.3606 32.5326L10.9054 62.815C10.5533 64.7133 11.3647 66.479 12.6047 67.6425C13.8346 68.806 15.5084 69.5 17.2638 69.5H62.7268C64.4976 69.5 66.156 68.806 67.3961 67.6425C68.6259 66.479 69.4373 64.7133 69.1005 62.815L63.6454 32.5326C63.3596 30.9812 62.7268 29.507 61.6603 28.3567C60.5937 27.2075 59.0424 26.4273 57.2717 26.4273H53.0718V23.2093C53.0718 15.642 46.9278 9.5 39.3549 9.5ZM39.3549 12.7401C45.1876 12.7401 49.8314 17.3818 49.8314 23.2095V26.4274H28.8886V23.2095C28.8886 17.3818 33.5374 12.7401 39.3549 12.7401ZM22.719 29.6679H25.6481V34.3907C25.6481 35.2848 26.3778 36.0094 27.2709 36.0094C28.1588 36.0094 28.8886 35.2848 28.8886 34.3907V29.6679H49.8314V34.3907C49.8314 35.2848 50.5612 36.0094 51.4542 36.0094C52.3421 36.0094 53.0718 35.2848 53.0718 34.3907V29.6679H57.2717C58.1494 29.6679 58.7413 29.973 59.2823 30.5589C59.8385 31.1447 60.2671 32.0576 60.4457 33.1078L65.9111 63.3918C66.0336 64.096 65.7784 64.7084 65.1712 65.285C64.5639 65.8566 63.6045 66.2495 62.7268 66.2495H17.2638C16.3861 66.2495 15.4267 65.8566 14.8195 65.285C14.2122 64.7084 13.9571 64.096 14.0897 63.3918L19.5449 33.1078C19.7337 32.0576 20.1674 31.1447 20.7084 30.5589C21.2595 29.973 21.8412 29.6679 22.719 29.6679Z" fill="#DE1515"/>
<path d="M55.4905 40.0035L47.443 40.2143C47.0153 40.2283 46.6106 40.4109 46.317 40.7223C46.0235 41.0337 45.8651 41.4486 45.8764 41.8763C45.8878 42.3052 46.0687 42.712 46.3796 43.0076C46.6906 43.3032 47.106 43.4635 47.5349 43.4532L51.3315 43.3547L37.8952 54.2145L33.6699 50.1208C33.3676 49.8278 32.9631 49.6639 32.5421 49.6639C32.1211 49.6639 31.7167 49.8278 31.4144 50.1208L20.9225 60.2993C20.7694 60.4471 20.6468 60.6236 20.5619 60.8187C20.477 61.0138 20.4313 61.2237 20.4275 61.4365C20.4237 61.6493 20.4619 61.8607 20.5398 62.0587C20.6177 62.2568 20.7339 62.4375 20.8817 62.5906C21.0296 62.7445 21.2063 62.8677 21.4019 62.9531C21.5975 63.0385 21.808 63.0844 22.0214 63.0882C22.2348 63.092 22.4468 63.0536 22.6453 62.9752C22.8438 62.8968 23.0249 62.78 23.1781 62.6314L32.5473 53.5393L36.6654 57.5386C36.9497 57.8147 37.3253 57.977 37.7212 57.9949C38.1171 58.0127 38.5058 57.8849 38.8138 57.6356L53.3268 45.896L52.8982 49.2069C52.8414 49.6321 52.9557 50.0626 53.2159 50.4037C53.4761 50.7449 53.861 50.9689 54.2862 51.0266C54.4973 51.0549 54.712 51.0414 54.9178 50.9867C55.1237 50.932 55.3168 50.8372 55.486 50.7078C55.6552 50.5784 55.7972 50.4169 55.9039 50.2326C56.0107 50.0482 56.08 49.8446 56.108 49.6335L57.149 41.8371C57.1801 41.6038 57.16 41.3667 57.0901 41.142C57.0203 40.9173 56.9023 40.7106 56.7445 40.5361C56.5867 40.3616 56.3928 40.2236 56.1762 40.1316C55.9597 40.0396 55.7257 39.9959 55.4905 40.0035Z" fill="#DE1515"/>
</g>
<defs>
<clipPath id="clip0_375_16394">
<rect width="80" height="79" fill="white"/>
</clipPath>
</defs>
</svg>
