<svg width="64" height="64" viewBox="0 0 64 64" fill="none" xmlns="http://www.w3.org/2000/svg">
<path d="M34.2133 5.81347C33.5185 5.49654 32.7637 5.33252 32 5.33252C31.2363 5.33252 30.4815 5.49654 29.7867 5.81347L6.93332 16.2135C6.46012 16.4221 6.0578 16.7639 5.77535 17.1971C5.49291 17.6303 5.34253 18.1363 5.34253 18.6535C5.34253 19.1706 5.49291 19.6766 5.77535 20.1099C6.0578 20.5431 6.46012 20.8848 6.93332 21.0935L29.8133 31.5201C30.5082 31.8371 31.2629 32.0011 32.0267 32.0011C32.7904 32.0011 33.5451 31.8371 34.24 31.5201L57.12 21.1201C57.5932 20.9115 57.9955 20.5697 58.278 20.1365C58.5604 19.7033 58.7108 19.1973 58.7108 18.6801C58.7108 18.163 58.5604 17.657 58.278 17.2238C57.9955 16.7905 57.5932 16.4488 57.12 16.2401L34.2133 5.81347Z" stroke="#DE1515" stroke-width="2" stroke-linecap="round" stroke-linejoin="round"/>
<path d="M58.6666 47.0669L34.2133 58.1602C33.5184 58.4772 32.7636 58.6412 31.9999 58.6412C31.2362 58.6412 30.4814 58.4772 29.7866 58.1602L5.33325 47.0669" stroke="#DE1515" stroke-width="2" stroke-linecap="round" stroke-linejoin="round"/>
<path d="M58.6666 33.7334L34.2133 44.8267C33.5184 45.1437 32.7636 45.3077 31.9999 45.3077C31.2362 45.3077 30.4814 45.1437 29.7866 44.8267L5.33325 33.7334" stroke="#DE1515" stroke-width="2" stroke-linecap="round" stroke-linejoin="round"/>
</svg>
