<svg width="64" height="64" viewBox="0 0 64 64" fill="none" xmlns="http://www.w3.org/2000/svg">
<path d="M5.33325 18.6666L17.0933 6.90659C17.5894 6.40747 18.1794 6.01149 18.8293 5.74146C19.4792 5.47143 20.1762 5.3327 20.8799 5.33325H43.1199C43.8237 5.3327 44.5206 5.47143 45.1705 5.74146C45.8204 6.01149 46.4104 6.40747 46.9066 6.90659L58.6666 18.6666" stroke="#DE1515" stroke-width="2" stroke-linecap="round" stroke-linejoin="round"/>
<path d="M10.6667 32V53.3333C10.6667 54.7478 11.2287 56.1044 12.2288 57.1046C13.229 58.1048 14.5856 58.6667 16.0001 58.6667H48.0001C49.4146 58.6667 50.7711 58.1048 51.7713 57.1046C52.7715 56.1044 53.3334 54.7478 53.3334 53.3333V32" stroke="#DE1515" stroke-width="2" stroke-linecap="round" stroke-linejoin="round"/>
<path d="M40 58.6667V48.0001C40 46.5856 39.4381 45.229 38.4379 44.2288C37.4377 43.2287 36.0812 42.6667 34.6667 42.6667H29.3333C27.9188 42.6667 26.5623 43.2287 25.5621 44.2288C24.5619 45.229 24 46.5856 24 48.0001V58.6667" stroke="#DE1515" stroke-width="2" stroke-linecap="round" stroke-linejoin="round"/>
<path d="M5.33325 18.6667H58.6666" stroke="#DE1515" stroke-width="2" stroke-linecap="round" stroke-linejoin="round"/>
<path d="M58.6666 18.6667V26.6667C58.6666 28.0812 58.1047 29.4378 57.1045 30.438C56.1043 31.4382 54.7477 32.0001 53.3332 32.0001C51.7752 31.9143 50.2872 31.3247 49.0932 30.3201C48.7751 30.0901 48.3925 29.9664 47.9999 29.9664C47.6073 29.9664 47.2248 30.0901 46.9066 30.3201C45.7126 31.3247 44.2246 31.9143 42.6666 32.0001C41.1085 31.9143 39.6205 31.3247 38.4266 30.3201C38.1084 30.0901 37.7258 29.9664 37.3333 29.9664C36.9407 29.9664 36.5581 30.0901 36.2399 30.3201C35.046 31.3247 33.558 31.9143 31.9999 32.0001C30.4419 31.9143 28.9539 31.3247 27.7599 30.3201C27.4417 30.0901 27.0592 29.9664 26.6666 29.9664C26.274 29.9664 25.8914 30.0901 25.5733 30.3201C24.3793 31.3247 22.8913 31.9143 21.3333 32.0001C19.7752 31.9143 18.2872 31.3247 17.0933 30.3201C16.7751 30.0901 16.3925 29.9664 15.9999 29.9664C15.6073 29.9664 15.2248 30.0901 14.9066 30.3201C13.7126 31.3247 12.2246 31.9143 10.6666 32.0001C9.2521 32.0001 7.89554 31.4382 6.89535 30.438C5.89515 29.4378 5.33325 28.0812 5.33325 26.6667V18.6667" stroke="#DE1515" stroke-width="2" stroke-linecap="round" stroke-linejoin="round"/>
</svg>
