<svg width="64" height="64" viewBox="0 0 64 64" fill="none" xmlns="http://www.w3.org/2000/svg">
<path d="M42.6666 53.3333V10.6666C42.6666 9.2521 42.1047 7.89554 41.1045 6.89535C40.1043 5.89515 38.7477 5.33325 37.3333 5.33325H26.6666C25.2521 5.33325 23.8955 5.89515 22.8954 6.89535C21.8952 7.89554 21.3333 9.2521 21.3333 10.6666V53.3333" stroke="#DE1515" stroke-width="2" stroke-linecap="round" stroke-linejoin="round"/>
<path d="M53.3332 16H10.6666C7.72107 16 5.33325 18.3878 5.33325 21.3333V48C5.33325 50.9455 7.72107 53.3333 10.6666 53.3333H53.3332C56.2788 53.3333 58.6666 50.9455 58.6666 48V21.3333C58.6666 18.3878 56.2788 16 53.3332 16Z" stroke="#DE1515" stroke-width="2" stroke-linecap="round" stroke-linejoin="round"/>
</svg>
