<svg width="40" height="40" viewBox="0 0 40 40" fill="none" xmlns="http://www.w3.org/2000/svg">
<path d="M34.9 30.1L32.1 13.85C31.9088 12.4666 31.234 11.1956 30.1953 10.2621C29.1566 9.32861 27.8209 8.79294 26.425 8.75H26.25C26.25 7.0924 25.5916 5.50269 24.4195 4.33058C23.2473 3.15848 21.6576 2.5 20 2.5C18.3424 2.5 16.7527 3.15848 15.5806 4.33058C14.4085 5.50269 13.75 7.0924 13.75 8.75H13.575C12.1791 8.79294 10.8435 9.32861 9.80479 10.2621C8.76606 11.1956 8.09129 12.4666 7.90003 13.85L5.10003 30.1C4.92806 31.0427 4.96544 32.0118 5.20953 32.9384C5.45362 33.8651 5.89846 34.7268 6.51253 35.4625C7.02994 36.0941 7.68005 36.6041 8.41672 36.9563C9.15339 37.3084 9.95855 37.494 10.775 37.5H29.225C30.0415 37.494 30.8467 37.3084 31.5833 36.9563C32.32 36.6041 32.9701 36.0941 33.4875 35.4625C34.1016 34.7268 34.5464 33.8651 34.7905 32.9384C35.0346 32.0118 35.072 31.0427 34.9 30.1ZM20 5C20.9946 5 21.9484 5.39509 22.6517 6.09835C23.3549 6.80161 23.75 7.75544 23.75 8.75H16.25C16.25 7.75544 16.6451 6.80161 17.3484 6.09835C18.0516 5.39509 19.0055 5 20 5ZM31.575 33.85C31.2926 34.2034 30.9353 34.4897 30.529 34.6886C30.1227 34.8874 29.6774 34.9938 29.225 35H10.775C10.3227 34.9938 9.87738 34.8874 9.47105 34.6886C9.06472 34.4897 8.70749 34.2034 8.42503 33.85C8.04411 33.3942 7.76914 32.8595 7.61999 32.2845C7.47083 31.7095 7.45121 31.1085 7.56253 30.525L10.3625 14.275C10.4556 13.473 10.8289 12.7297 11.4167 12.1762C12.0045 11.6228 12.7689 11.2947 13.575 11.25H26.425C27.2311 11.2947 27.9956 11.6228 28.5833 12.1762C29.1711 12.7297 29.5445 13.473 29.6375 14.275L32.4375 30.525C32.5489 31.1085 32.5292 31.7095 32.3801 32.2845C32.2309 32.8595 31.956 33.3942 31.575 33.85Z" fill="white"/>
</svg>
