<svg width="100" height="100" viewBox="0 0 100 100" fill="none" xmlns="http://www.w3.org/2000/svg">
<path d="M72.4481 37.3794V26.7069C73.8598 26.0459 75.0552 24.9982 75.8955 23.6853C76.7358 22.3724 77.1866 20.8481 77.1956 19.2894V19.0381C77.1897 16.8595 76.3218 14.7718 74.7817 13.2309C73.2415 11.6901 71.1542 10.8213 68.9756 10.8144H68.7243C66.5457 10.8203 64.458 11.6881 62.9172 13.2283C61.3763 14.7684 60.5075 16.8558 60.5006 19.0344V19.2856C60.5075 20.8357 60.9517 22.3524 61.7823 23.6613C62.6129 24.9701 63.796 26.018 65.1956 26.6844L65.2443 26.7069V37.4019C61.1638 38.0253 57.3218 39.7205 54.1106 42.3144L54.1556 42.2806L24.8006 19.4206C25.3589 17.3266 25.1736 15.1037 24.2762 13.131C23.3788 11.1583 21.825 9.558 19.8796 8.60291C17.9342 7.64781 15.7177 7.39708 13.6082 7.89348C11.4986 8.38987 9.62649 9.60265 8.31112 11.325C6.99576 13.0474 6.31855 15.1727 6.39499 17.3385C6.47143 19.5044 7.29677 21.5767 8.73028 23.202C10.1638 24.8274 12.1167 25.9052 14.256 26.2516C16.3954 26.5981 18.5886 26.1917 20.4618 25.1019L20.4168 25.1244L49.2768 47.5906C46.7252 51.4162 45.3702 55.9147 45.3843 60.5131C45.3843 65.5494 46.9781 70.2181 49.6856 74.0356L49.6368 73.9644L40.8543 82.7469C40.1513 82.5199 39.4181 82.3998 38.6793 82.3906H38.6718C37.164 82.3906 35.69 82.8377 34.4363 83.6754C33.1826 84.5132 32.2054 85.7038 31.6284 87.0969C31.0514 88.4899 30.9004 90.0228 31.1946 91.5017C31.4887 92.9805 32.2148 94.339 33.281 95.4052C34.3472 96.4714 35.7057 97.1975 37.1845 97.4916C38.6634 97.7858 40.1963 97.6348 41.5893 97.0578C42.9824 96.4808 44.1731 95.5036 45.0108 94.2499C45.8485 92.9962 46.2956 91.5222 46.2956 90.0144C46.2866 89.256 46.1614 88.5035 45.9243 87.7831L45.9393 87.8356L54.6281 79.1469C57.4599 81.3091 60.7475 82.7969 64.2409 83.4972C67.7343 84.1974 71.3414 84.0916 74.7877 83.1878C78.2341 82.2839 81.4289 80.6059 84.129 78.2814C86.8291 75.9568 88.9635 73.047 90.3696 69.7734C91.7758 66.4997 92.4167 62.9484 92.2436 59.3897C92.0705 55.8311 91.088 52.3587 89.3708 49.237C87.6535 46.1152 85.2469 43.4263 82.3339 41.3748C79.4209 39.3233 76.0784 37.9632 72.5606 37.3981L72.4256 37.3794H72.4481ZM68.8331 72.5431C66.4566 72.5372 64.1351 71.827 62.1619 70.5024C60.1888 69.1777 58.6525 67.298 57.7472 65.1007C56.8418 62.9033 56.608 60.487 57.0753 58.1568C57.5425 55.8266 58.6899 53.6872 60.3725 52.0089C62.0551 50.3305 64.1973 49.1884 66.5286 48.727C68.8599 48.2655 71.2757 48.5053 73.4708 49.4162C75.6659 50.327 77.5418 51.868 78.8615 53.8444C80.1812 55.8208 80.8856 58.1441 80.8856 60.5206V60.5281C80.8856 63.7167 79.6189 66.7746 77.3643 69.0293C75.1096 71.284 72.0517 72.5506 68.8631 72.5506L68.8331 72.5431Z" fill="#DE1515"/>
</svg>
