<svg width="100" height="100" viewBox="0 0 100 100" fill="none" xmlns="http://www.w3.org/2000/svg">
<path d="M50 6.25C25.8691 6.25 6.25 25.8691 6.25 50C6.25 74.1309 25.8691 93.75 50 93.75C74.1309 93.75 93.75 74.1309 93.75 50C93.75 25.8691 74.1309 6.25 50 6.25Z" fill="#FDDD4C"/>
<path d="M30.8401 61.407C29.8835 59.9585 32.2897 57.7666 31.311 55.926C30.7468 54.8648 29.8247 54.2032 28.7173 54.0645C27.6544 53.931 26.5596 54.3201 25.8617 55.0804C24.7599 56.2795 24.5885 57.9116 24.8016 58.4891C24.8796 58.7007 25.0022 58.7585 25.09 58.771C25.6901 58.8501 26.0278 57.3098 26.235 56.9888C26.8079 56.1048 28.1086 55.8373 29.007 56.4182C30.7104 57.5201 29.2334 59.3007 29.3608 60.8045C29.4848 62.2688 30.3972 62.8576 31.2162 62.9195C32.0131 62.9495 32.5703 62.507 32.711 62.1838C33.0481 61.4123 31.6272 62.5985 30.8401 61.407Z" fill="black"/>
<path d="M66.4303 48.1119C65.9834 48.0504 65.4953 48.0516 64.9872 48.1119C64.6015 47.6254 64.2559 46.8372 64.0609 45.9175C63.714 44.2813 63.7503 43.096 64.7184 42.9419C65.6865 42.7882 66.1543 43.7782 66.5012 45.4144C66.734 46.5144 66.6893 47.525 66.4303 48.1119Z" fill="black"/>
<path d="M55.8269 49.0857C55.8653 49.456 55.8788 49.831 55.8678 50.1763C56.8047 50.2313 57.4682 50.676 57.6447 50.9585C57.7353 51.1041 57.6991 51.1991 57.67 51.2429C57.5728 51.3938 57.365 51.3707 56.9297 51.3216C56.5494 51.2791 56.14 51.2416 55.7144 51.261C55.4828 51.9713 54.7963 52.0379 54.3138 51.5126C53.9769 51.6151 53.315 52.0379 53.1175 51.5785C53.116 51.3507 53.3544 51.0191 53.786 50.7266C53.4913 50.1644 53.2938 49.5629 53.1772 48.9397C52.5653 49.0501 52.0147 49.2213 51.5832 49.3557C51.3807 49.4188 50.5791 49.781 50.485 49.3729C50.4222 49.091 50.861 48.6263 51.325 48.2907C51.8432 47.9229 52.4182 47.6613 53.0144 47.5104C53.0016 46.6229 53.2278 46.0035 53.8728 45.901C54.6722 45.7738 55.1678 46.3894 55.5107 47.5291C56.4769 47.7976 57.4419 48.4632 57.8678 49.1513C58.0335 49.4182 58.0657 49.6244 57.9582 49.7332C57.6903 50.0107 56.2069 49.206 55.8269 49.0857Z" fill="black"/>
<path d="M62.1804 53.0745C62.7932 53.3713 63.4676 53.2545 63.6876 52.8132C63.9076 52.3716 63.5888 51.7735 62.9757 51.4766C62.3629 51.1798 61.6888 51.2967 61.4685 51.7379C61.2485 52.1792 61.5676 52.7773 62.1804 53.0745Z" fill="black"/>
<path d="M65.1975 50.8825C65.2084 50.2075 65.6222 49.6685 66.1197 49.6766C66.6169 49.6863 67.0109 50.2391 67 50.9129C66.9888 51.5866 66.575 52.1257 66.0778 52.1172C65.5803 52.1091 65.1863 51.5563 65.1975 50.8825Z" fill="black"/>
<path fill-rule="evenodd" clip-rule="evenodd" d="M78.6828 59.1503C78.6788 59.1362 78.6925 59.185 78.6828 59.1503C79.6816 59.1503 81.25 60.2834 81.25 63.0209C81.25 65.745 80.105 68.8303 79.8347 69.5153C75.7103 79.2722 65.8663 84.7034 54.14 84.3597C43.2081 84.0394 33.885 78.3453 29.8051 69.0628C27.3381 69.0656 24.7946 67.9944 22.8611 66.3031C20.8232 64.5212 19.5668 62.2153 19.3216 59.8103C19.1308 57.9378 19.3634 56.1956 19.9582 54.6763L17.6668 52.7594C7.18053 44.02 39.9778 8.0364 50.4669 17.0674C50.5197 17.1127 54.0356 20.5172 54.0441 20.5255C59.1016 18.4058 72.6528 14.37 72.6678 23.765C72.6734 26.8848 70.6594 30.5231 67.4319 33.8244C71.1619 37.2387 70.1781 42.0891 70.7722 46.5391L72.0675 46.8937C74.5372 47.5772 76.2938 48.4887 77.1534 49.3797C78.0128 50.2694 78.4391 51.1316 78.5938 52.1422C78.7384 52.9575 78.7191 54.3972 77.6297 56.0072C78.0219 57.0459 78.38 58.0816 78.6828 59.1503ZM29.6198 66.5316C29.9862 66.5397 30.3497 66.5162 30.7063 66.4559C34.5384 65.8109 35.5413 61.7025 34.9103 57.6681C34.1972 53.1128 31.0754 51.5069 28.9568 51.3928C28.3675 51.3625 27.8201 51.4147 27.3688 51.5041C23.5869 52.2562 21.4515 55.4325 21.8721 59.5575C22.2524 63.2906 26.0775 66.4378 29.6198 66.5316ZM21.0545 52.6234C22.3235 50.8044 24.3976 49.4884 26.7517 49.0359C29.7479 41.0969 34.7516 33.7819 41.3738 28.7479C46.2881 24.7013 51.5881 21.7987 51.5881 21.7987C51.5881 21.7987 48.7341 18.5317 47.8719 18.2911C42.5688 16.8776 31.1158 24.6738 23.8028 34.9753C20.8441 39.1428 16.6081 46.5237 18.6335 50.3203C18.8828 50.7906 20.2967 51.9991 21.0545 52.6234ZM64.0484 64.7081C64.0566 64.7934 64.0037 64.8816 63.9272 64.9131C63.9272 64.9131 59.6659 66.8697 52.8975 64.8031C53.1409 66.8319 55.6013 67.6006 57.3203 67.8791C65.7072 69.3034 73.5484 64.5694 75.3131 63.3772C75.6163 63.1725 75.3094 63.6987 75.2547 63.7759C73.0941 66.5272 67.2856 69.7131 59.7288 69.7119C56.4328 69.7103 53.1388 68.565 51.9294 66.8037C50.0531 64.0716 51.8363 60.0828 54.9634 60.4978C60.2494 61.0872 65.6684 60.6444 70.5619 58.4025C74.8284 56.4472 76.44 54.2969 76.1978 52.5547C75.8219 49.8547 71.8191 49.4325 69.7956 48.7762C68.9153 48.4887 68.4806 48.2591 68.3819 46.6244C68.3388 45.9106 68.2131 43.4206 68.1672 42.3906C68.0866 40.5881 67.8663 38.1228 66.3175 37.1053C65.9134 36.8397 65.465 36.7119 64.9928 36.6872C64.6163 36.6691 64.3928 36.7209 64.2728 36.7487C64.2459 36.755 64.2241 36.76 64.2072 36.7628C63.3706 36.9031 62.8581 37.3262 62.2538 37.8253C62.2191 37.8541 62.1838 37.8831 62.1484 37.9122C60.2163 39.5019 58.585 39.7616 56.77 39.6847C56.2047 39.6609 55.6222 39.6047 55.0075 39.545C54.4422 39.4903 53.85 39.4328 53.2194 39.3959L52.4491 39.3519C49.4097 39.1978 46.15 41.7884 45.6081 45.4678C45.0028 49.575 47.2984 52.0906 48.7913 53.7266C49.1603 54.1309 49.4803 54.4812 49.6953 54.7891C49.8331 54.9747 49.9934 55.2359 49.9934 55.4847C49.9934 55.7819 49.7981 56.0169 49.6075 56.2175C46.5066 59.365 45.515 64.3659 46.6838 68.5334C46.83 69.0531 47.015 69.5509 47.2338 70.0266C49.9753 76.3503 58.4806 79.2956 66.7881 76.6169C72.6106 74.7397 77.755 70.2031 78.8025 63.945C79.0519 62.3144 78.6856 61.6847 78.1869 61.3806C77.6591 61.0603 77.0266 61.1716 77.0266 61.1716C77.0266 61.1716 76.7381 59.2234 75.9219 57.4525C73.4997 59.3387 70.3822 60.6644 68.0084 61.3366C64.2056 62.4137 60.0975 62.8328 56.1678 62.325C54.5738 62.1191 53.5028 61.9806 53.0438 63.4528C58.2856 65.3475 63.8338 64.5362 63.8338 64.5362C63.9409 64.5253 64.0372 64.6022 64.0484 64.7081ZM48.925 27.9394C46.0581 29.3873 42.8572 31.9653 40.2578 34.9312C40.1659 35.0372 40.3025 35.1828 40.4153 35.1019C42.6606 33.4891 45.7391 31.9903 49.7719 31.0194C54.2891 29.9318 58.6381 30.3883 61.2944 30.9892C61.4281 31.0194 61.5116 30.7926 61.3934 30.7266C59.6381 29.7544 56.9441 29.0944 55.0331 29.0807C54.9397 29.0793 54.8869 28.9721 54.9425 28.8978C55.2725 28.4592 55.7253 28.0261 56.1391 27.7126C56.2309 27.6411 56.1753 27.494 56.0581 27.5008C53.6809 27.6449 48.2506 30.1209 48.2703 30.0308C48.4094 29.3708 48.8481 28.4991 49.0753 28.0921C49.1297 27.9958 49.0238 27.8899 48.925 27.9394Z" fill="black"/>
</svg>
