<svg width="80" height="80" viewBox="0 0 80 80" fill="none" xmlns="http://www.w3.org/2000/svg">
<path d="M29.1719 40.9845C29.1719 41.2455 29.2756 41.4959 29.4602 41.6805C29.6448 41.8652 29.8952 41.9688 30.1562 41.9688H38.0312C38.2923 41.9688 38.5427 41.8652 38.7273 41.6805C38.9119 41.4959 39.0156 41.2455 39.0156 40.9845V33.1095C39.0112 32.0283 38.651 30.9788 37.9906 30.1228C37.3302 29.2669 36.4062 28.6521 35.3616 28.3736C36.1749 27.5426 36.7249 26.4901 36.9425 25.348C37.1601 24.2058 37.0358 23.0247 36.5851 21.953C36.1344 20.8811 35.3773 19.9662 34.4087 19.3228C33.4402 18.6794 32.3034 18.3362 31.1406 18.3362C29.9779 18.3362 28.841 18.6794 27.8725 19.3228C26.904 19.9662 26.1469 20.8811 25.6961 21.953C25.2455 23.0247 25.1212 24.2058 25.3387 25.348C25.5564 26.4901 26.1063 27.5426 26.9196 28.3736C25.875 28.6521 24.9511 29.2669 24.2907 30.1228C23.6302 30.9788 23.2701 32.0283 23.2656 33.1095V36.4937C23.2656 36.7548 23.3694 37.0052 23.5539 37.1898C23.7385 37.3745 23.9889 37.4781 24.25 37.4781C24.5111 37.4781 24.7615 37.3745 24.9461 37.1898C25.1306 37.0052 25.2344 36.7548 25.2344 36.4937V33.1095C25.2344 32.3263 25.5455 31.5751 26.0993 31.0213C26.6532 30.4675 27.4043 30.1563 28.1875 30.1563H34.0938C34.8769 30.1563 35.6281 30.4675 36.1819 31.0213C36.7357 31.5751 37.0469 32.3263 37.0469 33.1095V40.0001H30.1562C29.8952 40.0001 29.6448 40.1038 29.4602 40.2884C29.2756 40.473 29.1719 40.7234 29.1719 40.9845ZM31.1406 20.3126C31.9194 20.3126 32.6807 20.5435 33.3282 20.9762C33.9757 21.4089 34.4804 22.0238 34.7784 22.7433C35.0765 23.4628 35.1544 24.2544 35.0024 25.0183C34.8505 25.7821 34.4755 26.4836 33.9248 27.0343C33.3742 27.585 32.6726 27.96 31.9088 28.112C31.145 28.2639 30.3533 28.1859 29.6338 27.8878C28.9144 27.5899 28.2993 27.0852 27.8667 26.4377C27.4341 25.7901 27.2031 25.0288 27.2031 24.2501C27.2031 23.2058 27.6179 22.2043 28.3564 21.4659C29.0948 20.7274 30.0963 20.3126 31.1406 20.3126Z" fill="black"/>
<path d="M34.0938 35.0781C34.3548 35.0781 34.6052 34.9744 34.7898 34.7898C34.9744 34.6052 35.0781 34.3548 35.0781 34.0938C35.0781 33.8327 34.9744 33.5823 34.7898 33.3977C34.6052 33.2131 34.3548 33.1094 34.0938 33.1094H32.125C31.8639 33.1094 31.6135 33.2131 31.4289 33.3977C31.2444 33.5823 31.1406 33.8327 31.1406 34.0938C31.1406 34.3548 31.2444 34.6052 31.4289 34.7898C31.6135 34.9744 31.8639 35.0781 32.125 35.0781H34.0938Z" fill="black"/>
<path d="M68.6662 60.3135L56.833 48.4803C56.3946 48.0637 55.8416 47.7879 55.2452 47.6883C54.6488 47.5887 54.0361 47.6698 53.4861 47.9212L48.2689 42.704C50.5111 39.3851 51.7408 35.4863 51.8085 31.4814C51.8764 27.4767 50.7792 23.5385 48.6506 20.1457C46.5219 16.7528 43.4534 14.0514 39.8181 12.3699C36.1829 10.6884 32.1374 10.0992 28.1735 10.6739C24.2096 11.2486 20.498 12.9625 17.49 15.6072C14.482 18.252 12.3071 21.7136 11.2297 25.5713C10.1523 29.429 10.2188 33.5166 11.4211 37.3373C12.6235 41.1578 14.9099 44.5469 18.0023 47.0923C18.1021 47.1745 18.2172 47.2364 18.3408 47.2741C18.4645 47.3119 18.5943 47.3249 18.7231 47.3125C18.8518 47.3 18.9768 47.2623 19.0909 47.2016C19.2051 47.1409 19.3061 47.0583 19.3883 46.9585C19.4705 46.8587 19.5324 46.7437 19.5701 46.62C19.6079 46.4963 19.6209 46.3665 19.6084 46.2377C19.596 46.1091 19.5583 45.984 19.4976 45.8699C19.4369 45.7558 19.3543 45.6547 19.2545 45.5725C16.4128 43.2451 14.3185 40.1334 13.232 36.6247C12.1456 33.116 12.1151 29.3652 13.1444 25.8393C14.1736 22.3134 16.2172 19.168 19.0206 16.7948C21.824 14.4216 25.2635 12.9253 28.911 12.4921C32.5584 12.059 36.2527 12.7082 39.534 14.3589C42.8152 16.0095 45.5386 18.5888 47.3649 21.7756C49.1913 24.9624 50.0401 28.616 49.8056 32.2816C49.5712 35.9472 48.2637 39.4628 46.0462 42.391C45.81 42.704 45.5698 43.0121 45.3148 43.3084C45.2932 43.335 45.2685 43.3586 45.2459 43.3852C44.6732 44.044 44.0551 44.6621 43.3963 45.2348C43.3657 45.2614 43.3372 45.2909 43.3057 45.3175C43.0104 45.5685 42.7092 45.8097 42.4011 46.0391C39.1652 48.5055 35.2094 49.8421 31.1408 49.8437C30.8287 49.8437 30.5187 49.8279 30.2106 49.8112C29.9495 49.7968 29.6934 49.8868 29.4987 50.0612C29.3039 50.2357 29.1864 50.4804 29.172 50.7414C29.1577 51.0025 29.2476 51.2586 29.4221 51.4533C29.5965 51.6481 29.8412 51.7656 30.1023 51.7799C30.4478 51.7986 30.7913 51.8154 31.1408 51.8154C35.2624 51.8198 39.2902 50.5851 42.7013 48.2716L48.4806 54.0509C48.6651 54.2355 48.9155 54.3391 49.1765 54.3391C49.4376 54.3391 49.6879 54.2355 49.8725 54.0509L54.0492 49.8742C54.2371 49.6956 54.4864 49.596 54.7456 49.596C55.0048 49.596 55.2541 49.6956 55.4421 49.8742L67.2743 61.7083C67.4585 61.8929 67.562 62.143 67.562 62.4038C67.562 62.6646 67.4585 62.9147 67.2743 63.0993L63.0985 67.276C63.0071 67.3675 62.8985 67.4401 62.779 67.4897C62.6595 67.5392 62.5314 67.5647 62.4021 67.5647C62.2727 67.5647 62.1447 67.5392 62.0252 67.4897C61.9057 67.4401 61.7971 67.3675 61.7056 67.276L53.9507 59.5211C53.7651 59.3417 53.5164 59.2425 53.2583 59.2448C53.0002 59.247 52.7533 59.3506 52.5708 59.5331C52.3883 59.7156 52.2848 59.9625 52.2825 60.2206C52.2802 60.4787 52.3795 60.7273 52.5588 60.913L60.3137 68.6679C60.588 68.9421 60.9135 69.1598 61.2718 69.3081C61.6301 69.4566 62.0142 69.533 62.4021 69.533C62.7899 69.533 63.174 69.4566 63.5323 69.3081C63.8907 69.1598 64.2162 68.9421 64.4904 68.6679L68.6662 64.4922C68.9404 64.2179 69.158 63.8924 69.3065 63.5341C69.4548 63.1758 69.5313 62.7916 69.5313 62.4038C69.5313 62.016 69.4548 61.6319 69.3065 61.2735C69.158 60.9152 68.9404 60.5897 68.6662 60.3155V60.3135ZM47.0768 44.2928L51.9603 49.1763L49.1765 51.9611L44.292 47.0766C45.306 46.2386 46.2384 45.3065 47.0768 44.2928Z" fill="black"/>
<path d="M31.1406 45.9063C30.8796 45.9063 30.6291 46.01 30.4446 46.1946C30.26 46.3792 30.1562 46.6296 30.1562 46.8906C30.1562 47.1517 30.26 47.4021 30.4446 47.5867C30.6291 47.7713 30.8796 47.875 31.1406 47.875C33.6968 47.8833 36.2207 47.304 38.5173 46.1819C40.8141 45.0597 42.8221 43.4246 44.3865 41.4031C45.9508 39.3815 47.0297 37.0274 47.5397 34.5226C48.0496 32.0178 47.9771 29.4294 47.3277 26.957C47.2624 26.7042 47.0994 26.4876 46.8745 26.355C46.6495 26.2223 46.3811 26.1845 46.1282 26.2498C45.8753 26.315 45.6588 26.478 45.5262 26.703C45.3935 26.928 45.3557 27.1963 45.421 27.4492C45.9956 29.6306 46.061 31.9149 45.6118 34.1256C45.1628 36.3363 44.2112 38.414 42.8308 40.1981C41.4504 41.9822 39.6781 43.4249 37.651 44.4147C35.624 45.4045 33.3964 45.9149 31.1406 45.9063Z" fill="black"/>
<path d="M39.2373 16.4981C35.6422 14.5052 31.4392 13.9062 27.4305 14.8153C23.4218 15.7245 19.8883 18.0781 17.5047 21.4269C15.1211 24.7757 14.0543 28.8851 14.508 32.9704C14.9616 37.0558 16.904 40.831 19.9642 43.5753C20.06 43.664 20.1725 43.7328 20.2951 43.7776C20.4177 43.8225 20.548 43.8424 20.6784 43.8364C20.8088 43.8304 20.9368 43.7985 21.0547 43.7426C21.1727 43.6867 21.2783 43.6079 21.3656 43.5107C21.4528 43.4136 21.5198 43.3001 21.5627 43.1768C21.6056 43.0535 21.6237 42.9228 21.6156 42.7926C21.6076 42.6623 21.5738 42.5349 21.516 42.4178C21.4583 42.3006 21.3779 42.1963 21.2793 42.1105C18.5816 39.6886 16.8698 36.3583 16.4707 32.7549C16.0715 29.1515 17.0129 25.5274 19.1152 22.5737C21.2175 19.6201 24.3336 17.5438 27.869 16.7409C31.4044 15.9381 35.1116 16.4648 38.2834 18.2207C38.5119 18.3472 38.7812 18.3777 39.0321 18.3057C39.2832 18.2336 39.4952 18.0648 39.6217 17.8363C39.7482 17.6079 39.7788 17.3386 39.7066 17.0876C39.6346 16.8366 39.4658 16.6246 39.2373 16.4981Z" fill="black"/>
<path d="M19.3281 62.6406C19.0671 62.6406 18.8166 62.7444 18.6321 62.9289C18.4475 63.1135 18.3438 63.3639 18.3438 63.625C18.3438 63.8861 18.4475 64.1365 18.6321 64.3211C18.8166 64.5056 19.0671 64.6094 19.3281 64.6094H25.2344C25.4954 64.6094 25.7459 64.5056 25.9304 64.3211C26.115 64.1365 26.2188 63.8861 26.2188 63.625C26.2188 63.3639 26.115 63.1135 25.9304 62.9289C25.7459 62.7444 25.4954 62.6406 25.2344 62.6406H19.3281Z" fill="black"/>
<path d="M38.0312 53.7812H27.2031V40.9843C27.2039 40.767 27.1326 40.5555 27.0006 40.383C26.8686 40.2103 26.6832 40.0862 26.4733 40.0301C26.2633 39.9739 26.0408 39.9887 25.8402 40.0723C25.6395 40.1559 25.4722 40.3035 25.3643 40.4921L17.7728 53.7812H16.375C15.5918 53.7812 14.8406 54.0924 14.2868 54.6462C13.733 55.2 13.4219 55.9511 13.4219 56.7343V66.5781C13.4219 67.3612 13.733 68.1124 14.2868 68.6662C14.8406 69.22 15.5918 69.5312 16.375 69.5312H38.0312C38.8144 69.5312 39.5656 69.22 40.1194 68.6662C40.6732 68.1124 40.9844 67.3612 40.9844 66.5781V64.6093C40.9844 64.3483 40.8806 64.0978 40.6961 63.9133C40.5115 63.7287 40.2611 63.6249 40 63.6249C39.7389 63.6249 39.4885 63.7287 39.3039 63.9133C39.1194 64.0978 39.0156 64.3483 39.0156 64.6093V66.5781C39.0156 66.8391 38.9119 67.0895 38.7273 67.2741C38.5427 67.4587 38.2923 67.5624 38.0312 67.5624H16.375C16.1139 67.5624 15.8635 67.4587 15.6789 67.2741C15.4943 67.0895 15.3906 66.8391 15.3906 66.5781V56.7343C15.3906 56.4733 15.4943 56.2228 15.6789 56.0383C15.8635 55.8537 16.1139 55.7499 16.375 55.7499H18.3438C18.5169 55.7502 18.687 55.705 18.837 55.6185C18.987 55.5321 19.1117 55.4077 19.1982 55.2578L25.2344 44.6915V54.7656C25.2344 55.0266 25.3381 55.2771 25.5227 55.4616C25.7073 55.6462 25.9577 55.7499 26.2188 55.7499H38.0312C38.2923 55.7499 38.5427 55.8537 38.7273 56.0383C38.9119 56.2228 39.0156 56.4733 39.0156 56.7343V58.7031C39.0156 58.9641 39.1194 59.2145 39.3039 59.3991C39.4885 59.5837 39.7389 59.6874 40 59.6874C40.2611 59.6874 40.5115 59.5837 40.6961 59.3991C40.8806 59.2145 40.9844 58.9641 40.9844 58.7031V56.7343C40.9844 55.9511 40.6732 55.2 40.1194 54.6462C39.5656 54.0924 38.8144 53.7812 38.0312 53.7812Z" fill="black"/>
<path d="M29.1719 59.6875C29.1719 59.4264 29.0681 59.176 28.8836 58.9914C28.699 58.8069 28.4486 58.7031 28.1875 58.7031H21.2969C21.0358 58.7031 20.7854 58.8069 20.6008 58.9914C20.4163 59.176 20.3125 59.4264 20.3125 59.6875C20.3125 59.9486 20.4163 60.199 20.6008 60.3836C20.7854 60.5681 21.0358 60.6719 21.2969 60.6719H28.1875C28.4486 60.6719 28.699 60.5681 28.8836 60.3836C29.0681 60.199 29.1719 59.9486 29.1719 59.6875Z" fill="black"/>
<path d="M37.0469 59.6875C37.0469 59.4264 36.9431 59.176 36.7586 58.9914C36.574 58.8069 36.3236 58.7031 36.0625 58.7031H32.125C31.8639 58.7031 31.6135 58.8069 31.4289 58.9914C31.2444 59.176 31.1406 59.4264 31.1406 59.6875C31.1406 59.9486 31.2444 60.199 31.4289 60.3836C31.6135 60.5681 31.8639 60.6719 32.125 60.6719H36.0625C36.3236 60.6719 36.574 60.5681 36.7586 60.3836C36.9431 60.199 37.0469 59.9486 37.0469 59.6875Z" fill="black"/>
<path d="M29.1719 64.6094H33.1094C33.3704 64.6094 33.6209 64.5056 33.8054 64.3211C33.99 64.1365 34.0938 63.8861 34.0938 63.625C34.0938 63.3639 33.99 63.1135 33.8054 62.9289C33.6209 62.7444 33.3704 62.6406 33.1094 62.6406H29.1719C28.9108 62.6406 28.6604 62.7444 28.4758 62.9289C28.2913 63.1135 28.1875 63.3639 28.1875 63.625C28.1875 63.8861 28.2913 64.1365 28.4758 64.3211C28.6604 64.5056 28.9108 64.6094 29.1719 64.6094Z" fill="black"/>
<path d="M53.7812 18.3438H62.6406C62.9017 18.3438 63.1521 18.24 63.3367 18.0554C63.5212 17.8708 63.625 17.6205 63.625 17.3594C63.625 17.0983 63.5212 16.8479 63.3367 16.6633C63.1521 16.4787 62.9017 16.375 62.6406 16.375H53.7812C53.5202 16.375 53.2698 16.4787 53.0852 16.6633C52.9006 16.8479 52.7969 17.0983 52.7969 17.3594C52.7969 17.6205 52.9006 17.8708 53.0852 18.0554C53.2698 18.24 53.5202 18.3438 53.7812 18.3438Z" fill="black"/>
<path d="M53.7812 23.2656H62.6406C62.9017 23.2656 63.1521 23.1619 63.3367 22.9773C63.5212 22.7927 63.625 22.5423 63.625 22.2812C63.625 22.0202 63.5212 21.7698 63.3367 21.5852C63.1521 21.4006 62.9017 21.2969 62.6406 21.2969H53.7812C53.5202 21.2969 53.2698 21.4006 53.0852 21.5852C52.9006 21.7698 52.7969 22.0202 52.7969 22.2812C52.7969 22.5423 52.9006 22.7927 53.0852 22.9773C53.2698 23.1619 53.5202 23.2656 53.7812 23.2656Z" fill="black"/>
<path d="M62.6406 26.2188H57.7188C57.4577 26.2188 57.2073 26.3225 57.0227 26.5071C56.8381 26.6916 56.7344 26.9421 56.7344 27.2031C56.7344 27.4642 56.8381 27.7146 57.0227 27.8992C57.2073 28.0837 57.4577 28.1875 57.7188 28.1875H62.6406C62.9017 28.1875 63.1521 28.0837 63.3367 27.8992C63.5212 27.7146 63.625 27.4642 63.625 27.2031C63.625 26.9421 63.5212 26.6916 63.3367 26.5071C63.1521 26.3225 62.9017 26.2188 62.6406 26.2188Z" fill="black"/>
<path d="M62.6406 31.1406H57.7188C57.4577 31.1406 57.2073 31.2444 57.0227 31.4289C56.8381 31.6135 56.7344 31.8639 56.7344 32.125C56.7344 32.3861 56.8381 32.6365 57.0227 32.8211C57.2073 33.0056 57.4577 33.1094 57.7188 33.1094H62.6406C62.9017 33.1094 63.1521 33.0056 63.3367 32.8211C63.5212 32.6365 63.625 32.3861 63.625 32.125C63.625 31.8639 63.5212 31.6135 63.3367 31.4289C63.1521 31.2444 62.9017 31.1406 62.6406 31.1406Z" fill="black"/>
<path d="M55.75 39.0156C55.4889 39.0156 55.2385 39.1194 55.0539 39.3039C54.8694 39.4885 54.7656 39.7389 54.7656 40C54.7656 40.2611 54.8694 40.5115 55.0539 40.6961C55.2385 40.8806 55.4889 40.9844 55.75 40.9844H61.6562C62.1784 40.9844 62.6791 40.777 63.0484 40.4077C63.4176 40.0385 63.625 39.5377 63.625 39.0156V37.0469C63.625 36.5248 63.4176 36.024 63.0484 35.6548C62.6791 35.2855 62.1784 35.0781 61.6562 35.0781H55.75C55.4889 35.0781 55.2385 35.1819 55.0539 35.3664C54.8694 35.551 54.7656 35.8014 54.7656 36.0625C54.7656 36.3236 54.8694 36.574 55.0539 36.7586C55.2385 36.9431 55.4889 37.0469 55.75 37.0469H61.6562V39.0156H55.75Z" fill="black"/>
</svg>
