<svg width="80" height="79" viewBox="0 0 80 79" fill="none" xmlns="http://www.w3.org/2000/svg">
<rect width="80" height="79" fill="white"/>
<g clip-path="url(#clip0_375_7500)">
<path d="M50.6452 59.8225V61.758H68.0645V64.6612C68.0645 66.2619 66.7619 67.5644 65.1613 67.5644H14.8387C13.2381 67.5644 11.9355 66.2619 11.9355 64.6612V61.758H29.3548V59.8225H10V64.6612C10 67.3293 12.1706 69.4999 14.8387 69.4999H65.1613C67.8294 69.4999 70 67.3293 70 64.6612V59.8225H50.6452Z" fill="#001023"/>
<path d="M34.1938 65.629H45.8067C47.4073 65.629 48.7099 64.3264 48.7099 62.7257V59.8225H31.2905V62.7257C31.2905 64.3264 32.5931 65.629 34.1938 65.629ZM33.226 61.758H46.7744V62.7257C46.7744 63.2599 46.3399 63.6935 45.8067 63.6935H34.1938C33.6605 63.6935 33.226 63.2599 33.226 62.7257V61.758Z" fill="#001023"/>
<path d="M13.871 26.9193C13.871 25.3186 15.1736 24.0161 16.7743 24.0161H23.5485V22.0806H16.7743C14.1062 22.0806 11.9355 24.2512 11.9355 26.9193V57.887H13.871V26.9193Z" fill="#001023"/>
<path d="M66.1291 26.9193V57.887H68.0646V26.9193C68.0646 24.2512 65.8939 22.0806 63.2259 22.0806H56.4517V24.0161H63.2259C64.8265 24.0161 66.1291 25.3186 66.1291 26.9193Z" fill="#001023"/>
<path d="M15.8066 27.8871V57.8871H17.7421V27.8871H25.4841V25.9517H17.7421C16.6747 25.9517 15.8066 26.8197 15.8066 27.8871Z" fill="#001023"/>
<path d="M64.1935 57.8871V27.8871C64.1935 26.8197 63.3255 25.9517 62.258 25.9517H54.5161V27.8871H62.258V57.8871H64.1935Z" fill="#001023"/>
<path d="M44.8388 38.5322H42.9033V52.0806H44.8388V38.5322Z" fill="#001023"/>
<path d="M37.0966 38.5322H35.1611V52.0806H37.0966V38.5322Z" fill="#001023"/>
<path d="M54.5159 46.2741V44.3386H50.6449C50.1117 44.3386 49.6772 43.9051 49.6772 43.3709V37.5645H47.7417V43.3709C47.7417 44.9715 49.0443 46.2741 50.6449 46.2741H54.5159Z" fill="#001023"/>
<path d="M32.2581 43.3709V37.5645H30.3226V43.3709C30.3226 43.9051 29.8881 44.3386 29.3549 44.3386H25.4839V46.2741H29.3549C30.9555 46.2741 32.2581 44.9715 32.2581 43.3709Z" fill="#001023"/>
<path d="M44.8388 54.0161H42.9033V55.9516H44.8388V54.0161Z" fill="#001023"/>
<path d="M37.0966 54.0161H35.1611V55.9516H37.0966V54.0161Z" fill="#001023"/>
<path d="M58.3871 44.3386H56.4517V46.2741H58.3871V44.3386Z" fill="#001023"/>
<path d="M23.5483 44.3386H21.6128V46.2741H23.5483V44.3386Z" fill="#001023"/>
<path d="M27.5297 26.0213C27.4561 26.3165 27.4194 26.6174 27.4194 26.9194C27.4194 28.3255 28.1878 29.6019 29.381 30.2803C29.3655 30.4487 29.3549 30.6181 29.3549 30.7903C29.3549 33.9926 31.959 36.5968 35.1613 36.5968C37.18 36.5968 38.9587 35.5603 40 33.9935C41.0413 35.5613 42.82 36.5968 44.8387 36.5968C48.041 36.5968 50.6452 33.9926 50.6452 30.7903C50.6452 30.6181 50.6345 30.4487 50.619 30.2803C51.8123 29.6019 52.5807 28.3255 52.5807 26.9194C52.5807 26.6174 52.5439 26.3174 52.4703 26.0213C53.7352 25.1252 54.5161 23.659 54.5161 22.0806C54.5161 20.5168 53.7468 19.0545 52.4887 18.1516C52.5449 17.8565 52.5807 17.5535 52.5807 17.2419C52.5807 14.7752 50.7187 12.7574 48.3303 12.4632C47.5958 10.7242 45.8742 9.5 43.871 9.5C42.2829 9.5 40.8826 10.28 40 11.4655C39.1174 10.28 37.7171 9.5 36.129 9.5C34.1258 9.5 32.4042 10.7242 31.6697 12.4632C29.2813 12.7574 27.4194 14.7752 27.4194 17.2419C27.4194 17.5535 27.4552 17.8565 27.5113 18.1516C26.2532 19.0545 25.4839 20.5168 25.4839 22.0806C25.4839 23.659 26.2649 25.1252 27.5297 26.0213ZM40.9678 14.3387C40.9678 12.7381 42.2703 11.4355 43.871 11.4355C45.4716 11.4355 46.7742 12.7381 46.7742 14.3387C46.7742 15.9394 45.4716 17.2419 43.871 17.2419V19.1774C46.48 19.1774 48.5984 17.0977 48.6923 14.5119C49.8255 14.9077 50.6452 15.9752 50.6452 17.2419C50.6452 18.8426 49.3426 20.1452 47.742 20.1452V22.0806C49.3803 22.0806 50.8261 21.2571 51.702 20.0077C52.2536 20.5477 52.5807 21.2919 52.5807 22.0806C52.5807 23.209 51.9129 24.2426 50.8784 24.7148L49.9542 25.1368L50.4197 26.0397C50.5687 26.329 50.6452 26.6252 50.6452 26.9194C50.6452 27.4429 50.4168 27.9171 50.0626 28.2723C49.1229 26.33 47.1381 24.9839 44.8387 24.9839V26.9194C46.9736 26.9194 48.7097 28.6555 48.7097 30.7903C48.7097 32.9252 46.9736 34.6613 44.8387 34.6613C42.7039 34.6613 40.9678 32.9252 40.9678 30.7903V14.3387ZM28.2981 20.0077C29.1739 21.2571 30.6197 22.0806 32.2581 22.0806V20.1452C30.6574 20.1452 29.3549 18.8426 29.3549 17.2419C29.3549 15.9752 30.1745 14.9077 31.3078 14.5119C31.4016 17.0977 33.52 19.1774 36.129 19.1774V17.2419C34.5284 17.2419 33.2258 15.9394 33.2258 14.3387C33.2258 12.7381 34.5284 11.4355 36.129 11.4355C37.7297 11.4355 39.0323 12.7381 39.0323 14.3387V30.7903C39.0323 32.9252 37.2961 34.6613 35.1613 34.6613C33.0265 34.6613 31.2903 32.9252 31.2903 30.7903C31.2903 28.6555 33.0265 26.9194 35.1613 26.9194V24.9839C32.862 24.9839 30.8771 26.33 29.9374 28.2723C29.5832 27.9171 29.3549 27.4429 29.3549 26.9194C29.3549 26.6242 29.4303 26.329 29.5803 26.0397L30.0458 25.1368L29.1216 24.7139C28.0871 24.2426 27.4194 23.209 27.4194 22.0806C27.4194 21.2919 27.7465 20.5477 28.2981 20.0077Z" fill="#001023"/>
<path d="M15.8066 63.6936H13.8711V65.6291H15.8066V63.6936Z" fill="#001023"/>
<path d="M19.6772 63.6936H17.7417V65.6291H19.6772V63.6936Z" fill="#001023"/>
<path d="M23.5483 63.6936H21.6128V65.6291H23.5483V63.6936Z" fill="#001023"/>
</g>
<defs>
<clipPath id="clip0_375_7500">
<rect width="60" height="60" fill="white" transform="translate(10 9.5)"/>
</clipPath>
</defs>
</svg>
