<svg width="80" height="79" viewBox="0 0 80 79" fill="none" xmlns="http://www.w3.org/2000/svg">
<rect width="80" height="79" fill="white"/>
<g clip-path="url(#clip0_375_7646)">
<path d="M39.9998 30.7991C35.2017 30.7991 31.2988 34.7029 31.2988 39.5C31.2988 44.2972 35.2017 48.201 39.9998 48.201C44.7979 48.201 48.7008 44.2972 48.7008 39.5C48.7008 34.7029 44.7979 30.7991 39.9998 30.7991ZM39.9998 40.4668C39.4661 40.4668 39.033 40.0327 39.033 39.5C39.033 38.9674 39.4661 38.5333 39.9998 38.5333C40.5335 38.5333 40.9666 38.9674 40.9666 39.5C40.9666 40.0327 40.5335 40.4668 39.9998 40.4668ZM40.9666 46.1901V42.2225C42.089 41.8222 42.9001 40.7588 42.9001 39.5C42.9001 37.901 41.5989 36.5997 39.9998 36.5997C38.4008 36.5997 37.0995 37.901 37.0995 39.5C37.0995 40.7588 37.9106 41.8222 39.033 42.2225V46.1901C35.7595 45.7183 33.2324 42.9021 33.2324 39.5C33.2324 35.7683 36.269 32.7326 39.9998 32.7326C43.7306 32.7326 46.7672 35.7683 46.7672 39.5C46.7672 42.9021 44.2401 45.7183 40.9666 46.1901Z" fill="#001023"/>
<path d="M51.4744 44.6056C51.5643 44.4055 51.6484 44.2044 51.7258 44.0043L56.4349 43.2192V35.7809L51.7258 34.9958C51.5798 34.6178 51.4106 34.2379 51.2211 33.8618L49.4935 34.73C49.7333 35.2066 49.9343 35.6881 50.09 36.1598L50.2727 36.7138L54.5014 37.4186V41.5815L50.2737 42.2863L50.091 42.8403C49.9353 43.312 49.7342 43.7935 49.4945 44.2701L49.2325 44.7922L51.7267 48.2832L48.7829 51.2261L45.2919 48.7318L44.7698 48.9948C44.2951 49.2345 43.8137 49.4356 43.3409 49.5913L42.787 49.774L42.0803 54.0017H37.9183L37.2135 49.774L36.6596 49.5913C36.1878 49.4356 35.7063 49.2345 35.2307 48.9948L34.7086 48.7318L31.2176 51.2261L27.6937 47.7031L26.3267 49.0702L31.0078 53.7513L34.8952 50.9747C35.0953 51.0646 35.2954 51.1487 35.4965 51.2261L36.2796 55.9352H43.718L44.503 51.227C44.7041 51.1487 44.9042 51.0656 45.1043 50.9757L48.9917 53.7522L54.252 48.492L51.4744 44.6056Z" fill="#001023"/>
<path d="M28.7778 45.1384L30.5054 44.2702C30.2657 43.7936 30.0646 43.3121 29.9089 42.8403L29.7262 42.2864L25.4985 41.5816V37.4187L29.7262 36.7139L29.9089 36.1599C30.0646 35.6881 30.2657 35.2067 30.5054 34.7301L30.7674 34.208L28.2731 30.717L31.217 27.7741L34.708 30.2684L35.2301 30.0054C35.7047 29.7657 36.1862 29.5646 36.6589 29.4089L37.2129 29.2262L37.9196 24.9985H42.0816L42.7864 29.2262L43.3403 29.4089C43.8121 29.5646 44.2936 29.7657 44.7692 30.0054L45.2913 30.2684L48.7823 27.7741L52.3062 31.297L53.6732 29.93L48.9921 25.2489L45.1047 28.0245C44.9046 27.9346 44.7044 27.8505 44.5034 27.7731L43.7203 23.0649H36.2819L35.4969 27.7731C35.2958 27.8514 35.0957 27.9346 34.8955 28.0245L31.0081 25.2479L25.7479 30.5091L28.5255 34.3955C28.4356 34.5957 28.3514 34.7968 28.2741 34.9969L23.5649 35.7809V43.2193L28.2741 44.0043C28.4201 44.3833 28.5893 44.7623 28.7778 45.1384Z" fill="#001023"/>
<path d="M40.9668 26.9319H39.0332V28.8654H40.9668V26.9319Z" fill="#001023"/>
<path d="M31.7964 29.9297L30.4292 31.2969L31.7964 32.6641L33.1636 31.2969L31.7964 29.9297Z" fill="#001023"/>
<path d="M29.3657 38.5332H27.4321V40.4668H29.3657V38.5332Z" fill="#001023"/>
<path d="M31.7968 49.0699L33.1641 47.7026L31.7968 46.3354L30.4296 47.7026L31.7968 49.0699Z" fill="#001023"/>
<path d="M40.9668 50.1345H39.0332V52.0681H40.9668V50.1345Z" fill="#001023"/>
<path d="M48.2026 49.0703L49.5698 47.7031L48.2026 46.3359L46.8354 47.7031L48.2026 49.0703Z" fill="#001023"/>
<path d="M52.5683 38.5332H50.6348V40.4668H52.5683V38.5332Z" fill="#001023"/>
<path d="M48.2032 29.9304L46.8359 31.2976L48.2032 32.6648L49.5704 31.2976L48.2032 29.9304Z" fill="#001023"/>
<path d="M69.941 39.2651C69.8908 39.065 64.6392 19.1978 40 19.1978C15.3608 19.1978 10.1092 39.065 10.059 39.2651L10 39.5L10.0599 39.735C10.1092 39.9351 15.3608 59.8023 40 59.8023C64.6392 59.8023 69.8908 39.9351 69.941 39.735L70 39.5L69.941 39.2651ZM12.0003 39.5049C12.5059 37.8285 16.08 27.4714 28.0961 23.089C23.0186 26.7831 19.6977 32.7539 19.6977 39.5C19.6977 46.2916 23.0621 52.2992 28.1986 55.9874C16.0008 51.6756 12.5165 41.2973 12.0003 39.5049ZM21.6313 39.5C21.6313 29.3711 29.8711 21.1313 40 21.1313C50.1289 21.1313 58.3687 29.3711 58.3687 39.5C58.3687 49.6289 50.1289 57.8688 40 57.8688C29.8711 57.8688 21.6313 49.6289 21.6313 39.5ZM51.9039 55.911C56.9814 52.217 60.3023 46.2462 60.3023 39.5C60.3023 32.7084 56.9379 26.7009 51.8014 23.0126C63.9992 27.3245 67.4825 37.7028 67.9997 39.4942C67.4941 41.1716 63.92 51.5277 51.9039 55.911Z" fill="#001023"/>
<path d="M39.0332 64.6362C39.0332 65.1689 38.6001 65.6029 38.0664 65.6029H22.4201C22.0199 64.4805 20.9564 63.6694 19.6977 63.6694C18.0986 63.6694 16.7974 64.9707 16.7974 66.5697C16.7974 68.1688 18.0986 69.47 19.6977 69.47C20.9564 69.47 22.0199 68.6589 22.4201 67.5365H38.0664C39.6655 67.5365 40.9667 66.2352 40.9667 64.6362V61.7358H39.0332V64.6362ZM19.6977 67.5365C19.164 67.5365 18.7309 67.1024 18.7309 66.5697C18.7309 66.037 19.164 65.6029 19.6977 65.6029C20.2313 65.6029 20.6645 66.037 20.6645 66.5697C20.6645 67.1024 20.2313 67.5365 19.6977 67.5365Z" fill="#001023"/>
<path d="M22.5979 57.8689V56.9021H20.6643V57.8689C20.6643 58.4016 20.2312 58.8356 19.6975 58.8356H15.6525C15.2523 57.7132 14.1889 56.9021 12.9301 56.9021C11.3311 56.9021 10.0298 58.2034 10.0298 59.8024C10.0298 61.4015 11.3311 62.7028 12.9301 62.7028C14.1889 62.7028 15.2523 61.8916 15.6525 60.7692H19.6975C21.2966 60.7692 22.5979 59.4679 22.5979 57.8689ZM12.9301 60.7692C12.3965 60.7692 11.9633 60.3351 11.9633 59.8024C11.9633 59.2697 12.3965 58.8356 12.9301 58.8356C13.4638 58.8356 13.8969 59.2697 13.8969 59.8024C13.8969 60.3351 13.4638 60.7692 12.9301 60.7692Z" fill="#001023"/>
<path d="M40.9668 14.3639C40.9668 13.8312 41.3999 13.3971 41.9335 13.3971H57.5798C57.9801 14.5196 59.0435 15.3307 60.3023 15.3307C61.9013 15.3307 63.2026 14.0294 63.2026 12.4304C63.2026 10.8313 61.9013 9.53003 60.3023 9.53003C59.0435 9.53003 57.9801 10.3412 57.5798 11.4636H41.9335C40.3345 11.4636 39.0332 12.7649 39.0332 14.3639V17.2642H40.9668V14.3639ZM60.3023 11.4636C60.8359 11.4636 61.269 11.8977 61.269 12.4304C61.269 12.963 60.8359 13.3971 60.3023 13.3971C59.7686 13.3971 59.3355 12.963 59.3355 12.4304C59.3355 11.8977 59.7686 11.4636 60.3023 11.4636Z" fill="#001023"/>
<path d="M57.4019 21.1312V22.098H59.3354V21.1312C59.3354 20.5985 59.7685 20.1645 60.3022 20.1645H64.3472C64.7474 21.2869 65.8109 22.098 67.0696 22.098C68.6687 22.098 69.9699 20.7967 69.9699 19.1977C69.9699 17.5986 68.6687 16.2974 67.0696 16.2974C65.8109 16.2974 64.7474 17.1085 64.3472 18.2309H60.3022C58.7031 18.2309 57.4019 19.5322 57.4019 21.1312ZM67.0696 18.2309C67.6033 18.2309 68.0364 18.665 68.0364 19.1977C68.0364 19.7304 67.6033 20.1645 67.0696 20.1645C66.5359 20.1645 66.1028 19.7304 66.1028 19.1977C66.1028 18.665 66.5359 18.2309 67.0696 18.2309Z" fill="#001023"/>
</g>
<defs>
<clipPath id="clip0_375_7646">
<rect width="60" height="60" fill="white" transform="translate(10 9.5)"/>
</clipPath>
</defs>
</svg>
