<svg width="80" height="79" viewBox="0 0 80 79" fill="none" xmlns="http://www.w3.org/2000/svg">
<rect width="80" height="79" fill="white"/>
<path d="M9 59.5C9 62.257 11.243 64.5 14 64.5H26V68.5H22V70.5H58V68.5H54V64.5H66C68.757 64.5 71 62.257 71 59.5V56.5H9V59.5ZM52 68.5H28V64.5H52V68.5ZM11 58.5H69V59.5C69 61.154 67.654 62.5 66 62.5H14C12.346 62.5 11 61.154 11 59.5V58.5Z" fill="#001023"/>
<path d="M11 23.5C11 21.846 12.346 20.5 14 20.5H21V18.5H14C11.243 18.5 9 20.743 9 23.5V54.5H11V23.5Z" fill="#001023"/>
<path d="M66 18.5V20.5C67.654 20.5 69 21.846 69 23.5V54.5H71V23.5C71 20.743 68.757 18.5 66 18.5Z" fill="#001023"/>
<path d="M27 40.923L35 39.319V36.5H33V37.681L25 39.284V54.5H27V40.923Z" fill="#001023"/>
<path d="M55 54.5V39.721L47 37.719V36.5H45V39.281L53 41.283V54.5H55Z" fill="#001023"/>
<path d="M23 41.5V39.5H19C17.897 39.5 17 40.397 17 41.5V49.5C17 50.603 17.897 51.5 19 51.5V54.5H21V51.5H23V49.5H19V41.5H23Z" fill="#001023"/>
<path d="M59 54.5H61V51.5C62.103 51.5 63 50.603 63 49.5V41.5C63 40.397 62.103 39.5 61 39.5H57V41.5H61V49.5H57V51.5H59V54.5Z" fill="#001023"/>
<path d="M29.406 28.44C30.712 33.152 35.047 36.5 40 36.5C44.953 36.5 49.288 33.152 50.594 28.44C51.965 28.163 53 26.951 53 25.5V18.5C53 16.932 51.787 15.656 50.253 15.526C48.621 11.297 44.589 8.5 40 8.5C35.411 8.5 31.379 11.297 29.747 15.526C28.213 15.656 27 16.932 27 18.5V25.5C27 26.951 28.035 28.163 29.406 28.44ZM40 34.5C36.159 34.5 32.775 32.038 31.522 28.5H48.477C47.225 32.038 43.841 34.5 40 34.5ZM40 10.5C43.478 10.5 46.566 12.462 48.064 15.5H31.936C33.434 12.462 36.522 10.5 40 10.5ZM29 18.5C29 17.949 29.448 17.5 30 17.5H50C50.552 17.5 51 17.949 51 18.5V25.5C51 26.051 50.552 26.5 50 26.5H30C29.448 26.5 29 26.051 29 25.5V18.5Z" fill="#001023"/>
<path d="M35.5 24.5C36.879 24.5 38 23.378 38 22C38 20.622 36.879 19.5 35.5 19.5C34.121 19.5 33 20.622 33 22C33 23.378 34.121 24.5 35.5 24.5ZM35.5 21.5C35.775 21.5 36 21.724 36 22C36 22.276 35.775 22.5 35.5 22.5C35.225 22.5 35 22.276 35 22C35 21.724 35.225 21.5 35.5 21.5Z" fill="#001023"/>
<path d="M44.5 24.5C45.879 24.5 47 23.378 47 22C47 20.622 45.879 19.5 44.5 19.5C43.121 19.5 42 20.622 42 22C42 23.378 43.121 24.5 44.5 24.5ZM44.5 21.5C44.775 21.5 45 21.724 45 22C45 22.276 44.775 22.5 44.5 22.5C44.225 22.5 44 22.276 44 22C44 21.724 44.225 21.5 44.5 21.5Z" fill="#001023"/>
<path d="M49 54.5V48.5C49 46.846 47.654 45.5 46 45.5H34C32.346 45.5 31 46.846 31 48.5V54.5H33V48.5C33 47.949 33.448 47.5 34 47.5H46C46.552 47.5 47 47.949 47 48.5V54.5H49Z" fill="#001023"/>
<path d="M35 54.5H37C37 52.846 38.346 51.5 40 51.5C41.654 51.5 43 52.846 43 54.5H45C45 51.743 42.757 49.5 40 49.5C37.243 49.5 35 51.743 35 54.5Z" fill="#001023"/>
<path d="M55 26.618V14H67V24H60.236L55 26.618ZM57 16V23.382L59.764 22H65V16H57Z" fill="#001023"/>
<path d="M63 17.5H59V19.5H63V17.5Z" fill="#001023"/>
<path d="M25 37.5001H13V27.5001H19.764L25 24.8821V37.5001ZM15 35.5001H23V28.1181L20.236 29.5001H15V35.5001Z" fill="#001023"/>
<path d="M21 31.5H17V33.5H21V31.5Z" fill="#001023"/>
</svg>
