<svg width="40" height="40" viewBox="0 0 40 40" fill="none" xmlns="http://www.w3.org/2000/svg">
<path d="M27.1474 14.2503L19.2102 22.1875C19.4456 22.5245 19.6457 22.8884 19.8064 23.2741L21.7868 28.0427L27.1474 14.2493V14.2503ZM17.8135 20.7909L25.7517 12.8526L11.9584 18.2132L16.7269 20.1947C17.1097 20.3534 17.474 20.5533 17.8135 20.7909V20.7909ZM29.8598 12.6391L23.6106 28.7166C23.2166 29.7327 22.0792 30.2543 21.0714 29.882C20.8259 29.7913 20.6018 29.6508 20.4132 29.4693C20.2246 29.2879 20.0755 29.0694 19.9754 28.8276L17.995 24.059C17.6096 23.1298 16.8713 22.3914 15.942 22.0061L11.1724 20.0256C10.1833 19.614 9.73121 18.4704 10.1646 17.4688C10.2709 17.224 10.4245 17.0027 10.6167 16.8177C10.8089 16.6326 11.0359 16.4874 11.2844 16.3904L27.362 10.1392C27.7113 9.9984 28.0944 9.96347 28.4634 10.0387C28.8325 10.114 29.1712 10.2961 29.4376 10.5624C29.7039 10.8288 29.886 11.1675 29.9613 11.5366C30.0365 11.9056 30.0016 12.2887 29.8608 12.638L29.8598 12.6391Z" fill="white"/>
</svg>
