<svg width="80" height="79" viewBox="0 0 80 79" fill="none" xmlns="http://www.w3.org/2000/svg">
<rect width="80" height="79" fill="white"/>
<path d="M69 59.5H65V32.5C64.9984 31.1744 64.4711 29.9036 63.5338 28.9662C62.5964 28.0289 61.3256 27.5016 60 27.5H53C52.7348 27.5 52.4804 27.6054 52.2929 27.7929C52.1054 27.9804 52 28.2348 52 28.5C52 28.7652 52.1054 29.0196 52.2929 29.2071C52.4804 29.3946 52.7348 29.5 53 29.5H60C60.7956 29.5 61.5587 29.8161 62.1213 30.3787C62.6839 30.9413 63 31.7044 63 32.5V59.5H47C46.7348 59.5 46.4804 59.6054 46.2929 59.7929C46.1054 59.9804 46 60.2348 46 60.5V62.5H34V60.5C34 60.2348 33.8946 59.9804 33.7071 59.7929C33.5196 59.6054 33.2652 59.5 33 59.5H11C10.7348 59.5 10.4804 59.6054 10.2929 59.7929C10.1054 59.9804 10 60.2348 10 60.5V64.5C10.0016 65.8256 10.5289 67.0964 11.4662 68.0338C12.4036 68.9711 13.6744 69.4984 15 69.5H29C29.2652 69.5 29.5196 69.3946 29.7071 69.2071C29.8946 69.0196 30 68.7652 30 68.5C30 68.2348 29.8946 67.9804 29.7071 67.7929C29.5196 67.6054 29.2652 67.5 29 67.5H15C14.2043 67.5 13.4413 67.1839 12.8787 66.6213C12.3161 66.0587 12 65.2956 12 64.5V61.5H32V63.5C32 63.7652 32.1054 64.0196 32.2929 64.2071C32.4804 64.3946 32.7348 64.5 33 64.5H47C47.2652 64.5 47.5196 64.3946 47.7071 64.2071C47.8946 64.0196 48 63.7652 48 63.5V61.5H68V64.5C68 65.2956 67.6839 66.0587 67.1213 66.6213C66.5587 67.1839 65.7956 67.5 65 67.5H33C32.7348 67.5 32.4804 67.6054 32.2929 67.7929C32.1054 67.9804 32 68.2348 32 68.5C32 68.7652 32.1054 69.0196 32.2929 69.2071C32.4804 69.3946 32.7348 69.5 33 69.5H65C66.3256 69.4984 67.5964 68.9711 68.5338 68.0338C69.4711 67.0964 69.9984 65.8256 70 64.5V60.5C70 60.2348 69.8946 59.9804 69.7071 59.7929C69.5196 59.6054 69.2652 59.5 69 59.5Z" fill="#001023"/>
<path d="M65 65.5C65.5523 65.5 66 65.0523 66 64.5C66 63.9477 65.5523 63.5 65 63.5C64.4477 63.5 64 63.9477 64 64.5C64 65.0523 64.4477 65.5 65 65.5Z" fill="#001023"/>
<path d="M61 65.5C61.5523 65.5 62 65.0523 62 64.5C62 63.9477 61.5523 63.5 61 63.5C60.4477 63.5 60 63.9477 60 64.5C60 65.0523 60.4477 65.5 61 65.5Z" fill="#001023"/>
<path d="M19 65.5C19.5523 65.5 20 65.0523 20 64.5C20 63.9477 19.5523 63.5 19 63.5C18.4477 63.5 18 63.9477 18 64.5C18 65.0523 18.4477 65.5 19 65.5Z" fill="#001023"/>
<path d="M15 65.5C15.5523 65.5 16 65.0523 16 64.5C16 63.9477 15.5523 63.5 15 63.5C14.4477 63.5 14 63.9477 14 64.5C14 65.0523 14.4477 65.5 15 65.5Z" fill="#001023"/>
<path d="M44 44.5C44.5523 44.5 45 44.0523 45 43.5C45 42.9477 44.5523 42.5 44 42.5C43.4477 42.5 43 42.9477 43 43.5C43 44.0523 43.4477 44.5 44 44.5Z" fill="#001023"/>
<path d="M48 44.5C48.5523 44.5 49 44.0523 49 43.5C49 42.9477 48.5523 42.5 48 42.5C47.4477 42.5 47 42.9477 47 43.5C47 44.0523 47.4477 44.5 48 44.5Z" fill="#001023"/>
<path d="M52 44.5C52.5523 44.5 53 44.0523 53 43.5C53 42.9477 52.5523 42.5 52 42.5C51.4477 42.5 51 42.9477 51 43.5C51 44.0523 51.4477 44.5 52 44.5Z" fill="#001023"/>
<path d="M56 44.5C56.5523 44.5 57 44.0523 57 43.5C57 42.9477 56.5523 42.5 56 42.5C55.4477 42.5 55 42.9477 55 43.5C55 44.0523 55.4477 44.5 56 44.5Z" fill="#001023"/>
<path d="M53 50.5C52.7348 50.5 52.4804 50.6054 52.2929 50.7929C52.1054 50.9804 52 51.2348 52 51.5V55.5C52 55.7652 52.1054 56.0196 52.2929 56.2071C52.4804 56.3946 52.7348 56.5 53 56.5H59C59.2652 56.5 59.5196 56.3946 59.7071 56.2071C59.8946 56.0196 60 55.7652 60 55.5V51.5C60 51.2348 59.8946 50.9804 59.7071 50.7929C59.5196 50.6054 59.2652 50.5 59 50.5H53ZM58 54.5H54V52.5H58V54.5Z" fill="#001023"/>
<path d="M43 50.5C42.7348 50.5 42.4804 50.6054 42.2929 50.7929C42.1054 50.9804 42 51.2348 42 51.5V55.5C42 55.7652 42.1054 56.0196 42.2929 56.2071C42.4804 56.3946 42.7348 56.5 43 56.5H49C49.2652 56.5 49.5196 56.3946 49.7071 56.2071C49.8946 56.0196 50 55.7652 50 55.5V51.5C50 51.2348 49.8946 50.9804 49.7071 50.7929C49.5196 50.6054 49.2652 50.5 49 50.5H43ZM48 54.5H44V52.5H48V54.5Z" fill="#001023"/>
<path d="M67 9.5H30C29.2044 9.5 28.4413 9.81607 27.8787 10.3787C27.3161 10.9413 27 11.7043 27 12.5V22.5C27 23.2956 27.3161 24.0587 27.8787 24.6213C28.4413 25.1839 29.2044 25.5 30 25.5H39.526L41.162 27.5H20C18.6744 27.5016 17.4036 28.0289 16.4662 28.9662C15.5289 29.9036 15.0016 31.1744 15 32.5V56.5C15 56.7652 15.1054 57.0196 15.2929 57.2071C15.4804 57.3946 15.7348 57.5 16 57.5C16.2652 57.5 16.5196 57.3946 16.7071 57.2071C16.8946 57.0196 17 56.7652 17 56.5V32.5C17 31.7044 17.3161 30.9413 17.8787 30.3787C18.4413 29.8161 19.2044 29.5 20 29.5H42.8L48.227 36.133C48.3207 36.2476 48.4386 36.3399 48.5723 36.4034C48.7059 36.4668 48.852 36.4998 49 36.5C49.1146 36.5001 49.2283 36.4802 49.336 36.441C49.5302 36.3717 49.6982 36.2441 49.8171 36.0757C49.9359 35.9072 49.9998 35.7062 50 35.5V25.5H67C67.7956 25.5 68.5587 25.1839 69.1213 24.6213C69.6839 24.0587 70 23.2956 70 22.5V12.5C70 11.7043 69.6839 10.9413 69.1213 10.3787C68.5587 9.81607 67.7956 9.5 67 9.5ZM68 22.5C68 22.7652 67.8946 23.0196 67.7071 23.2071C67.5196 23.3946 67.2652 23.5 67 23.5H49C48.7348 23.5 48.4804 23.6054 48.2929 23.7929C48.1054 23.9804 48 24.2348 48 24.5V32.7L40.774 23.869C40.6804 23.7539 40.5624 23.6612 40.4286 23.5973C40.2947 23.5335 40.1483 23.5003 40 23.5H30C29.7348 23.5 29.4804 23.3946 29.2929 23.2071C29.1054 23.0196 29 22.7652 29 22.5V12.5C29 12.2348 29.1054 11.9804 29.2929 11.7929C29.4804 11.6054 29.7348 11.5 30 11.5H67C67.2652 11.5 67.5196 11.6054 67.7071 11.7929C67.8946 11.9804 68 12.2348 68 12.5V22.5Z" fill="#001023"/>
<path d="M38.4638 15.5C38.3312 15.2709 38.1131 15.1037 37.8575 15.0351C37.6018 14.9664 37.3293 15.002 37.0998 15.134L35.9998 15.768V14.5C35.9998 14.2348 35.8944 13.9804 35.7069 13.7929C35.5194 13.6054 35.265 13.5 34.9998 13.5C34.7346 13.5 34.4802 13.6054 34.2927 13.7929C34.1052 13.9804 33.9998 14.2348 33.9998 14.5V15.768L32.8998 15.134C32.6702 15.0035 32.3984 14.9691 32.1435 15.0382C31.8887 15.1074 31.6716 15.2746 31.5395 15.5033C31.4075 15.732 31.3713 16.0036 31.4388 16.2589C31.5063 16.5142 31.672 16.7325 31.8998 16.866L32.9998 17.5L31.8998 18.134C31.7852 18.1992 31.6845 18.2864 31.6037 18.3906C31.5229 18.4949 31.4635 18.614 31.429 18.7413C31.3944 18.8686 31.3854 19.0014 31.4024 19.1322C31.4194 19.263 31.4621 19.3891 31.528 19.5033C31.594 19.6175 31.6819 19.7176 31.7866 19.7977C31.8914 19.8778 32.011 19.9364 32.1385 19.9701C32.266 20.0038 32.3989 20.012 32.5295 19.9941C32.6602 19.9762 32.786 19.9327 32.8998 19.866L33.9998 19.232V20.5C33.9998 20.7652 34.1052 21.0196 34.2927 21.2071C34.4802 21.3946 34.7346 21.5 34.9998 21.5C35.265 21.5 35.5194 21.3946 35.7069 21.2071C35.8944 21.0196 35.9998 20.7652 35.9998 20.5V19.232L37.0998 19.866C37.2136 19.9327 37.3394 19.9762 37.4701 19.9941C37.6007 20.012 37.7336 20.0038 37.8611 19.9701C37.9886 19.9364 38.1082 19.8778 38.213 19.7977C38.3177 19.7176 38.4056 19.6175 38.4716 19.5033C38.5375 19.3891 38.5802 19.263 38.5972 19.1322C38.6142 19.0014 38.6052 18.8686 38.5706 18.7413C38.5361 18.614 38.4767 18.4949 38.3959 18.3906C38.3151 18.2864 38.2144 18.1992 38.0998 18.134L36.9998 17.5L38.0998 16.866C38.3291 16.7331 38.4963 16.5145 38.5646 16.2584C38.6328 16.0022 38.5966 15.7294 38.4638 15.5Z" fill="#001023"/>
<path d="M47.4638 15.5C47.3312 15.2709 47.1131 15.1037 46.8575 15.0351C46.6018 14.9664 46.3293 15.002 46.0998 15.134L44.9998 15.768V14.5C44.9998 14.2348 44.8944 13.9804 44.7069 13.7929C44.5194 13.6054 44.265 13.5 43.9998 13.5C43.7346 13.5 43.4802 13.6054 43.2927 13.7929C43.1052 13.9804 42.9998 14.2348 42.9998 14.5V15.768L41.8998 15.134C41.6702 15.0035 41.3984 14.9691 41.1435 15.0382C40.8887 15.1074 40.6716 15.2746 40.5395 15.5033C40.4075 15.732 40.3713 16.0036 40.4388 16.2589C40.5063 16.5142 40.672 16.7325 40.8998 16.866L41.9998 17.5L40.8998 18.134C40.7852 18.1992 40.6845 18.2864 40.6037 18.3906C40.5229 18.4949 40.4635 18.614 40.429 18.7413C40.3944 18.8686 40.3854 19.0014 40.4024 19.1322C40.4194 19.263 40.4621 19.3891 40.528 19.5033C40.594 19.6175 40.6819 19.7176 40.7866 19.7977C40.8914 19.8778 41.011 19.9364 41.1385 19.9701C41.266 20.0038 41.3989 20.012 41.5295 19.9941C41.6602 19.9762 41.786 19.9327 41.8998 19.866L42.9998 19.232V20.5C42.9998 20.7652 43.1052 21.0196 43.2927 21.2071C43.4802 21.3946 43.7346 21.5 43.9998 21.5C44.265 21.5 44.5194 21.3946 44.7069 21.2071C44.8944 21.0196 44.9998 20.7652 44.9998 20.5V19.232L46.0998 19.866C46.3294 19.9965 46.6012 20.0309 46.8561 19.9617C47.1109 19.8926 47.328 19.7254 47.4601 19.4967C47.5921 19.268 47.6283 18.9964 47.5608 18.7411C47.4933 18.4858 47.3276 18.2676 47.0998 18.134L45.9998 17.5L47.0998 16.866C47.3291 16.7331 47.4963 16.5145 47.5646 16.2584C47.6328 16.0022 47.5966 15.7294 47.4638 15.5Z" fill="#001023"/>
<path d="M56.4638 15.5C56.3312 15.2709 56.1131 15.1037 55.8575 15.0351C55.6018 14.9664 55.3293 15.002 55.0998 15.134L53.9998 15.768V14.5C53.9998 14.2348 53.8944 13.9804 53.7069 13.7929C53.5194 13.6054 53.265 13.5 52.9998 13.5C52.7346 13.5 52.4802 13.6054 52.2927 13.7929C52.1052 13.9804 51.9998 14.2348 51.9998 14.5V15.768L50.8998 15.134C50.786 15.0673 50.6602 15.0238 50.5295 15.0059C50.3989 14.988 50.266 14.9962 50.1385 15.0299C50.011 15.0636 49.8914 15.1222 49.7866 15.2023C49.6819 15.2824 49.594 15.3825 49.528 15.4967C49.4621 15.6109 49.4194 15.737 49.4024 15.8678C49.3854 15.9986 49.3944 16.1314 49.429 16.2587C49.4635 16.386 49.5229 16.5052 49.6037 16.6094C49.6845 16.7136 49.7852 16.8008 49.8998 16.866L50.9998 17.5L49.8998 18.134C49.7852 18.1992 49.6845 18.2864 49.6037 18.3906C49.5229 18.4949 49.4635 18.614 49.429 18.7413C49.3944 18.8686 49.3854 19.0014 49.4024 19.1322C49.4194 19.263 49.4621 19.3891 49.528 19.5033C49.594 19.6175 49.6819 19.7176 49.7866 19.7977C49.8914 19.8778 50.011 19.9364 50.1385 19.9701C50.266 20.0038 50.3989 20.012 50.5295 19.9941C50.6602 19.9762 50.786 19.9327 50.8998 19.866L51.9998 19.232V20.5C51.9998 20.7652 52.1052 21.0196 52.2927 21.2071C52.4802 21.3946 52.7346 21.5 52.9998 21.5C53.265 21.5 53.5194 21.3946 53.7069 21.2071C53.8944 21.0196 53.9998 20.7652 53.9998 20.5V19.232L55.0998 19.866C55.3294 19.9965 55.6012 20.0309 55.8561 19.9617C56.1109 19.8926 56.328 19.7254 56.4601 19.4967C56.5921 19.268 56.6283 18.9964 56.5608 18.7411C56.4933 18.4858 56.3276 18.2676 56.0998 18.134L54.9998 17.5L56.0998 16.866C56.3291 16.7331 56.4963 16.5145 56.5646 16.2584C56.6328 16.0022 56.5966 15.7294 56.4638 15.5Z" fill="#001023"/>
<path d="M65.4638 15.5C65.3312 15.2709 65.1131 15.1037 64.8575 15.0351C64.6018 14.9664 64.3293 15.002 64.0998 15.134L62.9998 15.768V14.5C62.9998 14.2348 62.8944 13.9804 62.7069 13.7929C62.5194 13.6054 62.265 13.5 61.9998 13.5C61.7346 13.5 61.4802 13.6054 61.2927 13.7929C61.1052 13.9804 60.9998 14.2348 60.9998 14.5V15.768L59.8998 15.134C59.786 15.0673 59.6602 15.0238 59.5295 15.0059C59.3989 14.988 59.266 14.9962 59.1385 15.0299C59.011 15.0636 58.8914 15.1222 58.7866 15.2023C58.6819 15.2824 58.594 15.3825 58.528 15.4967C58.4621 15.6109 58.4194 15.737 58.4024 15.8678C58.3854 15.9986 58.3944 16.1314 58.429 16.2587C58.4635 16.386 58.5229 16.5052 58.6037 16.6094C58.6845 16.7136 58.7852 16.8008 58.8998 16.866L59.9998 17.5L58.8998 18.134C58.7852 18.1992 58.6845 18.2864 58.6037 18.3906C58.5229 18.4949 58.4635 18.614 58.429 18.7413C58.3944 18.8686 58.3854 19.0014 58.4024 19.1322C58.4194 19.263 58.4621 19.3891 58.528 19.5033C58.594 19.6175 58.6819 19.7176 58.7866 19.7977C58.8914 19.8778 59.011 19.9364 59.1385 19.9701C59.266 20.0038 59.3989 20.012 59.5295 19.9941C59.6602 19.9762 59.786 19.9327 59.8998 19.866L60.9998 19.232V20.5C60.9998 20.7652 61.1052 21.0196 61.2927 21.2071C61.4802 21.3946 61.7346 21.5 61.9998 21.5C62.265 21.5 62.5194 21.3946 62.7069 21.2071C62.8944 21.0196 62.9998 20.7652 62.9998 20.5V19.232L64.0998 19.866C64.3294 19.9965 64.6012 20.0309 64.8561 19.9617C65.1109 19.8926 65.328 19.7254 65.4601 19.4967C65.5921 19.268 65.6283 18.9964 65.5608 18.7411C65.4933 18.4858 65.3276 18.2676 65.0998 18.134L63.9998 17.5L65.0998 16.866C65.3291 16.7331 65.4963 16.5145 65.5646 16.2584C65.6328 16.0022 65.5966 15.7294 65.4638 15.5Z" fill="#001023"/>
<path d="M39.9999 36.5H39.6569C38.6596 36.4947 37.6663 36.3715 36.6979 36.133C36.44 36.0709 36.168 36.1139 35.9417 36.2524C35.7154 36.3909 35.5535 36.6136 35.4914 36.8715C35.4293 37.1294 35.4723 37.4014 35.6108 37.6277C35.7493 37.8539 35.972 38.0159 36.2299 38.078C37.1386 38.2991 38.066 38.4347 38.9999 38.483V40.771C39.0046 42.7214 38.5682 44.6476 37.7233 46.4054C36.8784 48.1633 35.6469 49.7073 34.1209 50.922L29.9999 54.22L25.8789 50.92C24.4398 49.7685 23.262 48.3243 22.4236 46.683C21.5852 45.0417 21.1053 43.2409 21.0159 41.4C20.9982 41.1368 20.879 40.8907 20.6836 40.7135C20.4881 40.5364 20.2316 40.4419 19.9679 40.45C19.8365 40.4564 19.7077 40.4886 19.5888 40.5449C19.4699 40.6012 19.3633 40.6803 19.2751 40.7779C19.1868 40.8754 19.1187 40.9894 19.0745 41.1133C19.0304 41.2372 19.0112 41.3686 19.0179 41.5C19.1217 43.6239 19.6756 45.7016 20.6432 47.5953C21.6107 49.4889 22.9696 51.1553 24.6299 52.484L29.3749 56.284C29.5523 56.426 29.7727 56.5034 29.9999 56.5034C30.2271 56.5034 30.4475 56.426 30.6249 56.284L35.3699 52.484C37.1309 51.0826 38.552 49.301 39.527 47.2726C40.502 45.2442 41.0055 43.0215 40.9999 40.771V40.5H58.9999V46.5H42.2519C41.9867 46.5 41.7323 46.6053 41.5448 46.7929C41.3573 46.9804 41.2519 47.2348 41.2519 47.5C41.2519 47.7652 41.3573 48.0196 41.5448 48.2071C41.7323 48.3946 41.9867 48.5 42.2519 48.5H59.9999C60.2651 48.5 60.5195 48.3946 60.707 48.2071C60.8945 48.0196 60.9999 47.7652 60.9999 47.5V39.5C60.9999 39.2348 60.8945 38.9804 60.707 38.7929C60.5195 38.6053 60.2651 38.5 59.9999 38.5H40.9999V37.5C40.9999 37.2348 40.8945 36.9804 40.707 36.7929C40.5195 36.6053 40.2651 36.5 39.9999 36.5Z" fill="#001023"/>
<path d="M33.256 34.744C32.3272 34.2042 31.4706 33.5487 30.707 32.793C30.5195 32.6056 30.2652 32.5002 30 32.5002C29.7348 32.5002 29.4805 32.6056 29.293 32.793C28.1205 33.9722 26.7258 34.907 25.1895 35.5433C23.6531 36.1797 22.0059 36.5048 20.343 36.5H20C19.7348 36.5 19.4804 36.6054 19.2929 36.7929C19.1054 36.9805 19 37.2348 19 37.5C19 37.7652 19.1054 38.0196 19.2929 38.2071C19.4804 38.3947 19.7348 38.5 20 38.5H20.343C23.8978 38.5098 27.3331 37.2174 30 34.867C30.6964 35.4684 31.4469 36.004 32.242 36.467C32.3554 36.5372 32.4817 36.5839 32.6134 36.6045C32.7451 36.6251 32.8796 36.6192 33.009 36.5871C33.1384 36.5549 33.26 36.4972 33.3668 36.4174C33.4736 36.3376 33.5633 36.2372 33.6307 36.1222C33.6981 36.0072 33.7419 35.8798 33.7593 35.7476C33.7768 35.6155 33.7677 35.4811 33.7325 35.3526C33.6973 35.224 33.6368 35.1037 33.5544 34.9989C33.4721 34.894 33.3696 34.8067 33.253 34.742L33.256 34.744Z" fill="#001023"/>
<path d="M34.2929 40.7931L29.9999 45.0861L27.7069 42.7931C27.5183 42.611 27.2657 42.5102 27.0035 42.5125C26.7413 42.5147 26.4905 42.6199 26.3051 42.8053C26.1197 42.9907 26.0145 43.2415 26.0122 43.5037C26.01 43.7659 26.1108 44.0185 26.2929 44.2071L29.2929 47.2071C29.4804 47.3946 29.7347 47.4999 29.9999 47.4999C30.2651 47.4999 30.5194 47.3946 30.7069 47.2071L35.7069 42.2071C35.8891 42.0185 35.9899 41.7659 35.9876 41.5037C35.9853 41.2415 35.8801 40.9907 35.6947 40.8053C35.5093 40.6199 35.2585 40.5147 34.9963 40.5125C34.7341 40.5102 34.4815 40.611 34.2929 40.7931Z" fill="#001023"/>
</svg>
