<svg width="53" height="60" viewBox="0 0 53 60" fill="none" xmlns="http://www.w3.org/2000/svg">
<path d="M47.7023 18.1148C40.9266 9.95863 35.5152 9.19258 32.0592 7.27746C29.5809 5.88055 27.2844 3.42469 24.4196 0C24.2377 1.87006 24.0103 3.67252 22.828 5.06944C20.4178 7.7506 17.1892 9.37282 14.529 10.7247C7.75332 13.9916 0 21.6747 0 33.9314C0 39.8796 2.29644 46.2783 6.63921 51.19C11.2776 56.4397 18.2351 60.0446 26.4659 59.9996C33.8099 59.932 39.8807 57.5437 44.4736 53.6459C49.7713 49.0947 53 42.403 53 33.8864C53 27.6679 51.1128 22.2379 47.7023 18.1148ZM40.2218 54.5471C36.9931 57.2283 28.1712 58.8054 23.9876 55.3582C23.5783 54.9977 23.5783 54.4795 23.8057 54.1866C23.9876 53.9613 24.1695 53.8261 24.4423 53.7135C24.7379 53.5332 25.1471 53.6008 25.3745 53.8261C27.0116 55.3357 34.8559 56.62 39.5397 53.4656C39.7216 53.353 39.9489 53.2854 40.1308 53.353C40.2445 53.4206 40.3582 53.4656 40.3582 53.6459C40.4037 54.0064 40.4719 54.3669 40.2218 54.5471ZM29.2853 50.4465C29.2853 50.041 29.399 49.8157 29.6946 49.5678C31.2861 47.9907 32.9914 47.0669 34.9241 47.0669C37.9936 47.1345 38.1072 47.878 38.994 49.6354C39.1759 49.9959 39.0622 50.3339 38.9258 50.5141C38.8576 50.6268 38.5165 50.9197 38.4028 50.9197C38.1072 50.9197 37.9936 50.807 37.8799 50.5141C37.175 48.7116 36.0609 48.7116 34.6967 48.7116C32.5822 48.7116 31.6954 49.703 30.4676 50.7619C30.172 50.9873 29.8764 51.2351 29.6491 50.9873C29.399 50.8746 29.2853 50.6268 29.2853 50.4465ZM45.7014 49.8156C42.7683 49.5903 39.5169 42.9437 36.2883 42.9437C32.0592 43.0113 25.8293 50.1086 18.8717 49.9959C15.3475 49.9283 11.4595 48.644 11.3458 43.2817C11.2321 38.7981 15.6431 34.1342 21.2819 34.2469C28.7623 34.4271 32.4003 40.8934 36.1064 40.8934C39.7443 40.8934 44.0416 35.2382 47.7477 35.1706C49.6804 35.103 51.2265 36.9731 51.3857 39.6092C51.5903 43.5746 49.0438 50.041 45.7014 49.8156Z" fill="white"/>
</svg>
