<svg width="52" height="60" viewBox="0 0 52 60" fill="none" xmlns="http://www.w3.org/2000/svg">
<path d="M51.927 39.061C45.9797 32.0277 36.8647 46.8651 31.9517 50.0446C28.5578 52.2606 23.3862 52.4212 19.7661 50.3336C14.8208 47.4432 16.3399 40.5062 21.5439 38.8041C26.1983 37.2626 34.3436 42.1441 37.2849 37.2626C40.9374 31.2569 28.4932 29.8439 24.8084 30.0044C18.1823 30.2614 11.7825 32.4131 7.87145 37.391C3.6372 42.7543 4.60688 49.2417 9.26132 54.1233C14.0127 58.6837 20.8974 60.4501 27.7821 59.9041C29.5275 59.7756 32.5012 59.037 34.7638 57.7845C39.2889 55.3116 53.1229 40.4741 51.927 39.061ZM8.5179 33.8262C10.8128 34.2758 6.35229 21.5259 6.06139 19.7595C5.70584 17.6399 4.9301 14.6532 2.79682 14.332C0.340307 13.9787 -0.338466 16.7728 0.146372 19.2136C0.728177 21.7186 6.38462 33.3766 8.5179 33.8262ZM27.5559 27.2104C31.1113 27.7242 30.8851 10.735 30.8851 8.42272C30.8851 6.3352 31.6931 0.586503 28.8811 0.0726527C25.0024 -0.666007 24.6145 4.40827 24.5499 7.10598C24.6792 9.83581 23.8388 26.6965 27.5559 27.2104ZM36.0243 29.9402C39.903 31.546 42.8767 14.3962 43.3292 12.2124C43.7494 9.96427 43.8464 5.21116 39.9677 6.72059C38.0283 7.49137 37.6728 10.6066 37.3819 12.3408C36.8971 14.4926 33.0184 28.6877 36.0243 29.9402ZM17.3096 28.495C21.7055 28.8162 17.5682 11.5701 17.2127 9.25773C16.8571 6.91328 15.2733 2.2244 12.0087 4.95423C10.3603 6.3352 11.1037 9.51465 11.4269 11.3131C11.7178 13.6255 13.9481 28.2381 17.3096 28.495Z" fill="white"/>
</svg>
