<svg width="60" height="60" viewBox="0 0 60 60" fill="none" xmlns="http://www.w3.org/2000/svg">
<path fill-rule="evenodd" clip-rule="evenodd" d="M6.3242 15.8789C2.74609 15.0664 0.0761743 11.8653 0.0761743 8.0352C0.0761743 3.60162 3.66991 0 8.10154 0C12.0918 0.00196777 15.4004 2.91613 16.0195 6.73645C20.3515 5.71886 25.0878 6.90037 28.4667 10.2812L22.5488 16.209C20.623 14.2871 17.5078 14.2872 15.5839 16.211C13.6543 18.1427 13.6582 21.2716 15.5742 23.1895L28.1738 35.7909L22.2538 41.7207L9.65623 29.121C6.07616 25.539 4.96874 20.4179 6.3242 15.8789ZM30.7812 10.295L18.1875 22.8966L24.1093 28.8241L36.703 16.2227C38.6347 14.2931 41.7421 14.2949 43.6561 16.2129C45.58 18.1367 45.58 21.2579 43.6542 23.1817L49.578 29.1093C53.119 25.5585 54.244 20.5097 52.9549 16.0039C56.8905 15.4883 59.9217 12.1172 59.9217 8.0352C59.9217 3.59772 56.3319 0 51.8964 0C47.8436 0 44.4862 3.01765 43.9471 6.92779C39.4315 5.60163 34.3495 6.72468 30.7812 10.295ZM28.4687 50.2655L41.0429 37.6582L35.1288 31.7286L22.5488 44.3379C20.6308 46.2578 17.5058 46.2596 15.5781 44.3299C13.6523 42.4022 13.6523 39.2852 15.5742 37.3594L9.65623 31.4296C6.21483 34.8769 5.05468 39.7402 6.17186 44.1425C2.63476 44.9784 0 48.166 0 51.9648C0 56.4042 3.59374 60 8.02732 60C11.8398 59.9981 15.0312 57.3397 15.8515 53.7655C20.2285 54.8534 25.0527 53.6893 28.4687 50.2655ZM59.9979 51.9648C59.9979 56.4062 56.4061 60 51.9745 60C48.0858 60 44.8475 57.2381 44.1054 53.5682C39.5507 54.9706 34.3866 53.8651 30.7812 50.2577L36.703 44.3299C38.6249 46.2538 41.744 46.2538 43.6639 44.3299C45.5819 42.412 45.5897 39.3008 43.6542 37.3672L31.0761 24.7579L37.0019 18.834L49.578 31.4395C52.9842 34.8496 54.162 39.6446 53.0975 44.0078C56.9999 44.5547 59.9979 47.9121 59.9979 51.9648Z" fill="white"/>
</svg>
