<svg width="145" height="28" viewBox="0 0 145 28" fill="none" xmlns="http://www.w3.org/2000/svg">
<g clip-path="url(#clip0_518_506)">
<path d="M14.7478 14.5289C14.7478 16.6704 14.1038 18.4741 12.8113 19.9343C11.4624 21.4642 9.70966 22.2323 7.56411 22.2323C5.4129 22.2323 3.66582 21.4642 2.31692 19.9343C1.02382 18.4741 0.375 16.6704 0.375 14.5289C0.375 12.3816 1.02382 10.5784 2.31692 9.12352C3.68083 7.60788 5.43357 6.85048 7.56411 6.85048C9.70966 6.85048 11.4624 7.60788 12.8113 9.12352C14.1038 10.5784 14.7478 12.3816 14.7478 14.5289ZM10.476 14.5289C10.476 13.559 10.2412 12.7403 9.77111 12.0784C9.24521 11.326 8.50916 10.9522 7.56411 10.9522C6.61878 10.9522 5.88302 11.326 5.35654 12.0784C4.88161 12.7403 4.64655 13.559 4.64655 14.5289C4.64655 15.4935 4.88161 16.322 5.35654 17.0038C5.88302 17.7562 6.61878 18.1306 7.56411 18.1306C8.50916 18.1306 9.24521 17.7562 9.77111 17.0038C10.2412 16.322 10.476 15.4935 10.476 14.5289ZM30.1935 14.5289C30.1935 16.5292 29.6109 18.277 28.4407 19.7722C27.189 21.4088 25.5744 22.2323 23.6124 22.2323C22.2275 22.2323 21.0528 21.8333 20.0922 21.0454C20.0922 21.2268 20.1126 21.6664 20.1536 22.3692C20.1944 23.0756 20.2145 23.6516 20.2145 24.1063C20.2145 26.6176 19.4584 27.8701 17.9463 27.8701C17.3278 27.8701 16.8223 27.6528 16.4185 27.2233C16.02 26.7893 15.8206 26.2679 15.8206 25.6525V9.32064C15.8206 8.72452 16.0251 8.20904 16.4338 7.77504C16.8424 7.34552 17.3485 7.1288 17.9514 7.1288C18.8605 7.1288 19.5249 7.57736 19.9441 8.47224C20.8381 7.39116 22.0593 6.85048 23.6073 6.85048C25.5744 6.85048 27.1839 7.65828 28.4407 9.28032C29.6058 10.7808 30.1935 12.5286 30.1935 14.5289ZM25.9216 14.5289C25.9216 13.559 25.682 12.7403 25.2119 12.0784C24.6852 11.326 23.9497 10.9522 23.0043 10.9522C22.0593 10.9522 21.3235 11.326 20.7971 12.0784C20.3269 12.7403 20.0922 13.559 20.0922 14.5289C20.0922 15.4935 20.3269 16.322 20.7971 17.0038C21.3235 17.7562 22.0593 18.1306 23.0043 18.1306C23.9497 18.1306 24.6852 17.7562 25.2119 17.0038C25.682 16.322 25.9216 15.4935 25.9216 14.5289ZM45.7359 14.0748C45.7359 14.7812 45.5671 15.2662 45.2298 15.5394C44.8928 15.8068 44.3666 15.9432 43.6564 15.9432H35.9462C35.9462 16.7516 36.3296 17.3726 37.096 17.8066C37.7142 18.1457 38.4704 18.3179 39.3644 18.3179C40.0597 18.3179 40.8923 18.0897 41.8682 17.6408C42.8441 17.1858 43.4723 16.9632 43.7436 16.9632C44.2389 16.9632 44.6578 17.1402 45.0053 17.5039C45.3474 17.8629 45.5215 18.2972 45.5215 18.7975C45.5215 19.9536 44.6479 20.8538 42.8999 21.5001C41.5666 21.9848 40.2126 22.2323 38.8283 22.2323C36.6006 22.2323 34.802 21.5001 33.4276 20.0404C32.053 18.5802 31.3637 16.7465 31.3637 14.5289C31.3637 12.4169 32.0787 10.6137 33.5092 9.10896C34.9346 7.60284 36.708 6.85048 38.8229 6.85048C40.7901 6.85048 42.4352 7.5628 43.7538 8.98716C45.0715 10.4121 45.7359 12.1092 45.7359 14.0748ZM41.4647 13.0133C41.444 12.3665 41.1427 11.7807 40.5601 11.2498C39.9776 10.7198 39.3596 10.4574 38.7054 10.4574C38.0311 10.4574 37.4024 10.7198 36.8201 11.2498C36.2379 11.7807 35.9462 12.3665 35.9462 13.0133H41.4647ZM60.0881 19.7364C60.0881 20.3532 59.8887 20.8732 59.4905 21.3077C59.0867 21.7375 58.5809 21.9548 57.9627 21.9548C56.4707 21.9548 55.7245 20.7827 55.7245 18.4439C55.7245 17.9942 55.7554 17.2872 55.8165 16.3122C55.8831 15.342 55.914 14.63 55.914 14.1803C55.914 11.6995 55.1015 10.4574 53.4818 10.4574C51.8619 10.4574 51.0548 11.6995 51.0548 14.1803C51.0548 14.63 51.0803 15.342 51.1261 16.3122C51.1774 17.2872 51.2029 17.9942 51.2029 18.4439C51.2029 20.7827 50.4671 21.9548 48.9959 21.9548C48.3774 21.9548 47.8718 21.7375 47.4731 21.3077C47.0695 20.8732 46.8702 20.3532 46.8702 19.7364V9.31616C46.8702 8.7038 47.0695 8.1844 47.4731 7.76496C47.8718 7.34048 48.3827 7.1288 49.001 7.1288C50.0228 7.1288 50.7328 7.57736 51.1312 8.47224C51.8211 7.39116 53.042 6.85048 54.7896 6.85048C56.4093 6.85048 57.697 7.2744 58.6421 8.11804C59.6078 9.023 60.0881 10.2651 60.0881 11.8465V19.7364ZM73.4893 19.2875C73.4893 20.242 72.8623 20.9994 71.6046 21.5558C70.6034 22.0049 69.5459 22.2323 68.4318 22.2323C66.2803 22.2323 64.5333 21.4642 63.1844 19.9343C61.8918 18.4741 61.243 16.6704 61.243 14.5289C61.243 12.3816 61.902 10.5686 63.2251 9.0832C64.5485 7.59332 66.2803 6.85048 68.4318 6.85048C69.6734 6.85048 70.7413 7.0322 71.6306 7.39116C72.8713 7.87612 73.4893 8.63352 73.4893 9.6642C73.4893 10.1842 73.3267 10.6439 72.999 11.0432C72.6725 11.4372 72.2531 11.6393 71.7425 11.6393C71.3944 11.6393 70.894 11.5231 70.2401 11.2963C69.5864 11.0634 69.0656 10.9522 68.6825 10.9522C67.6655 10.9522 66.8734 11.3109 66.3064 12.028C65.7796 12.6748 65.5143 13.5033 65.5143 14.5289C65.5143 15.4935 65.7493 16.3122 66.2248 16.9739C66.7504 17.747 67.4916 18.1306 68.4366 18.1306C68.8561 18.1306 69.4279 18.0093 70.1582 17.7612C70.8895 17.5196 71.4159 17.3933 71.7425 17.3933C72.2183 17.3933 72.6261 17.5949 72.9741 17.9892C73.3165 18.3882 73.4893 18.8171 73.4893 19.2875ZM89.017 19.7364C89.017 20.3532 88.8182 20.8732 88.4192 21.3077C88.0159 21.7375 87.5053 21.9548 86.8859 21.9548C85.9561 21.9548 85.2926 21.5048 84.8939 20.6108C84.0001 21.6922 82.7786 22.2323 81.2306 22.2323C79.2488 22.2323 77.6237 21.4088 76.366 19.7722C75.2216 18.277 74.6453 16.5292 74.6453 14.5289C74.6453 12.5286 75.2216 10.7808 76.366 9.28032C77.6441 7.65828 79.2635 6.85048 81.2306 6.85048C82.7786 6.85048 84.0001 7.39116 84.8939 8.47224C85.2926 7.57736 85.9561 7.1288 86.8859 7.1288C87.4894 7.1288 87.9955 7.34552 88.4047 7.77504C88.8125 8.20904 89.017 8.71948 89.017 9.31616V19.7364ZM84.7457 14.5289C84.7457 13.559 84.511 12.7403 84.0408 12.0784C83.494 11.326 82.7582 10.9522 81.8338 10.9522C80.8882 10.9522 80.1528 11.326 79.626 12.0784C79.1516 12.7403 78.9166 13.559 78.9166 14.5289C78.9166 15.4935 79.1457 16.322 79.6002 17.0038C80.1426 17.7562 80.8882 18.1306 81.8338 18.1306C82.7786 18.1306 83.5141 17.7562 84.0408 17.0038C84.511 16.322 84.7457 15.4935 84.7457 14.5289ZM99.9155 9.03756C99.9155 9.94168 99.4712 10.563 98.5819 10.9012C97.7595 11.1745 96.9413 11.4528 96.1246 11.7398C95.2296 12.2455 94.7853 13.1849 94.7853 14.5491V19.7364C94.7853 20.3532 94.5808 20.8732 94.1832 21.3077C93.7788 21.7375 93.2679 21.9548 92.6499 21.9548C92.0272 21.9548 91.5154 21.7375 91.1175 21.3077C90.7131 20.8732 90.5143 20.3532 90.5143 19.7364V9.31616C90.5143 8.7038 90.7131 8.1844 91.1119 7.76496C91.5154 7.34048 92.0272 7.1288 92.6454 7.1288C93.6666 7.1288 94.3763 7.57736 94.7754 8.47224C95.6904 7.39116 96.6714 6.85048 97.7289 6.85048C98.3313 6.85048 98.8476 7.0672 99.2769 7.49672C99.7006 7.93128 99.9155 8.44648 99.9155 9.03756ZM111.059 9.22964C111.059 10.169 110.686 10.7601 109.946 11.0132C109.582 11.1392 108.821 11.2048 107.661 11.2048V19.7364C107.661 20.3532 107.457 20.8732 107.059 21.3077C106.654 21.7375 106.144 21.9548 105.525 21.9548C104.923 21.9548 104.411 21.7375 104.002 21.3077C103.595 20.8732 103.39 20.3532 103.39 19.7364V11.2048C102.511 11.2048 101.872 11.0936 101.469 10.8769C100.918 10.5736 100.645 10.0229 100.645 9.22964C100.645 8.43696 100.927 7.89628 101.494 7.60788C101.877 7.39564 102.511 7.28504 103.39 7.28504V5.47652C103.39 3.34992 104.1 2.28928 105.525 2.28928C106.946 2.28928 107.661 3.34992 107.661 5.47652V7.28504C108.821 7.28504 109.582 7.35056 109.946 7.47656C110.686 7.72912 111.059 8.31572 111.059 9.22964ZM145.375 6.66444C145.363 5.3678 142.94 4.77932 136.667 4.77932C121.947 4.77932 118.213 4.15772 114.216 0C115.897 2.49648 116.817 7.17892 132.375 6.94596C148.608 6.69872 138.705 11.0841 135.824 16.0387C141.02 11.4535 145.359 8.4312 145.375 6.6833V6.66444ZM124.691 19.9794C124.691 21.1921 123.695 22.1766 122.468 22.1766C121.236 22.1766 120.241 21.1921 120.241 19.9794C120.241 18.7617 121.236 17.7769 122.468 17.7769C123.695 17.7769 124.691 18.7617 124.691 19.9794ZM134.827 19.9794C134.827 21.1921 133.832 22.1766 132.605 22.1766C131.374 22.1766 130.378 21.1921 130.378 19.9794C130.378 18.7617 131.374 17.7769 132.605 17.7769C133.832 17.7769 134.827 18.7617 134.827 19.9794Z" fill="url(#paint0_linear_518_506)"/>
</g>
<defs>
<linearGradient id="paint0_linear_518_506" x1="7250.37" y1="2204.64" x2="7250.37" y2="0" gradientUnits="userSpaceOnUse">
<stop stop-color="white"/>
<stop offset="1" stop-color="white"/>
</linearGradient>
<clipPath id="clip0_518_506">
<rect width="145" height="28" fill="white"/>
</clipPath>
</defs>
</svg>
