<svg width="41" height="60" viewBox="0 0 41 60" fill="none" xmlns="http://www.w3.org/2000/svg">
<path d="M15.998 0.126674C26.2905 -1.19509 27.1228 8.26129 27.1279 8.32101L36.04 7.40792L40.126 44.9265L3.84766 48.6218L0 11.0603L7.36914 10.3425C7.37004 10.2764 7.50858 1.20972 15.998 0.126674ZM13.3896 1.3005C8.60755 3.01772 7.97754 10.1042 7.97754 10.1042L9.71582 9.90792C9.41233 4.89867 13.371 1.31739 13.3896 1.3005ZM24.1709 8.5173C24.1709 7.47393 21.4542 0.235563 16.1504 0.865932C10.6511 1.49639 10.2158 9.79953 10.2158 9.79953L24.1709 8.5173ZM18.498 0.387416C18.498 0.387416 23.0842 1.49615 24.9971 8.27804L26.4756 8.1257C26.4704 8.0988 24.986 0.430814 18.498 0.387416Z" fill="white"/>
<path fill-rule="evenodd" clip-rule="evenodd" d="M17.4107 29.841C17.4107 29.841 20.0626 29.4715 20.4539 32.0582L21.432 37.8402C21.432 37.8402 23.5188 35.9491 25.6055 38.0575C25.6055 38.0575 27.9096 35.8839 30.1268 38.4923C30.1268 38.4923 32.9308 36.1882 34.9306 40.2312C36.9304 44.2743 35.6045 50.8823 35.6045 50.8823C35.6045 50.8823 34.9958 54.208 35.061 56.3165C35.1263 58.425 33.3004 58.4684 33.3004 58.4684L23.4536 59.9248C23.4536 59.9248 22.3233 60.403 21.3451 58.9467C21.3451 58.9467 14.9545 49.752 9.8463 45.622C9.8463 45.622 8.67251 44.296 10.6288 42.644C12.5851 40.992 14.5849 42.3832 14.5849 42.3832L16.4543 43.9265L15.0414 34.0797C14.9979 34.0797 14.1719 30.5148 17.4107 29.841Z" fill="#3765AF"/>
<path fill-rule="evenodd" clip-rule="evenodd" d="M16.9108 46.2738L13.7154 43.5567C13.7154 43.5567 12.2156 42.6438 11.0418 44.2306L10.8896 44.5784C10.8896 44.5784 14.6936 48.2736 17.8454 51.9906C20.5843 55.2077 22.7362 58.5552 22.7362 58.5552L33.5612 57.0118C33.5612 57.0118 33.4742 53.6644 34.3002 49.8822C34.6263 48.4258 34.6915 46.6868 34.5611 45.0783C34.3654 42.5351 33.5829 40.0136 32.6482 39.6876C31.1484 39.1442 30.7137 39.7745 30.9528 40.9918L31.0397 42.4481H29.6703C29.6703 42.4481 29.5833 38.6225 27.627 38.6659C25.6924 38.7094 26.3663 42.0569 26.3663 42.0569H25.149C25.149 42.0569 25.3447 38.4703 23.3449 38.4703C21.3451 38.4703 21.8015 42.6003 21.8015 42.6003H20.6278L18.9975 32.3405C18.9975 32.3405 18.9105 31.1885 17.5629 31.3189C16.2152 31.471 16.3673 33.536 16.3673 33.536L18.628 48.7084L17.0412 48.6649L16.9108 46.2738Z" fill="white"/>
</svg>
