<svg width="60" height="60" viewBox="0 0 60 60" fill="none" xmlns="http://www.w3.org/2000/svg">
<g clip-path="url(#clip0_518_495)">
<path d="M4.24781 30.0001C4.24781 40.1872 10.1449 48.9909 18.6961 53.1628L6.46732 19.526C5.04488 22.7268 4.24781 26.269 4.24781 30.0001ZM47.1902 28.7014C47.1902 25.5207 46.0522 23.3179 45.0761 21.6034C43.7766 19.4834 42.5585 17.6881 42.5585 15.5681C42.5585 13.2023 44.3459 11 46.8634 11C46.9771 11 47.0849 11.0142 47.1956 11.0206C42.6346 6.82569 36.558 4.26446 29.8839 4.26446C20.9278 4.26446 13.0483 8.8776 8.46439 15.8649C9.06585 15.883 9.63268 15.8958 10.1141 15.8958C12.7956 15.8958 16.9463 15.5691 16.9463 15.5691C18.3283 15.4873 18.4912 17.525 17.1107 17.6891C17.1107 17.6891 15.722 17.8532 14.1766 17.9344L23.5122 45.8116L29.1224 28.9198L25.1283 17.9335C23.7478 17.8522 22.44 17.6881 22.44 17.6881C21.0585 17.6068 21.2205 15.4863 22.602 15.5681C22.602 15.5681 26.8356 15.8948 29.3546 15.8948C32.0356 15.8948 36.1868 15.5681 36.1868 15.5681C37.5698 15.4863 37.7322 17.5241 36.3512 17.6881C36.3512 17.6881 34.9595 17.8522 33.4171 17.9335L42.6815 45.5996L45.2385 37.0212C46.3468 33.4614 47.1902 30.9046 47.1902 28.7014ZM30.3337 32.2513L22.642 54.6897C24.9385 55.3675 27.3673 55.7382 29.8839 55.7382C32.8693 55.7382 35.7322 55.2201 38.3971 54.2793C38.3283 54.1692 38.2659 54.0521 38.2146 53.9248L30.3337 32.2513ZM52.3785 17.6524C52.4888 18.4722 52.5512 19.3522 52.5512 20.2988C52.5512 22.9105 52.0654 25.8463 50.602 29.5173L42.7712 52.2465C50.3927 47.7847 55.519 39.4953 55.519 30.0006C55.5195 25.5261 54.381 21.3184 52.3785 17.6524ZM29.8839 0C13.4063 0 0 13.4579 0 30.0001C0 46.5443 13.4063 60.0017 29.8839 60.0017C46.361 60.0017 59.7693 46.5443 59.7693 30.0001C59.7688 13.4579 46.361 0 29.8839 0ZM29.8839 58.6266C14.162 58.6266 1.37024 45.7847 1.37024 30.0001C1.37024 14.2165 14.1615 1.37562 29.8839 1.37562C45.6054 1.37562 58.3961 14.2165 58.3961 30.0001C58.3961 45.7847 45.6054 58.6266 29.8839 58.6266Z" fill="white"/>
</g>
<defs>
<clipPath id="clip0_518_495">
<rect width="60" height="60" fill="white"/>
</clipPath>
</defs>
</svg>
