<svg width="40" height="40" viewBox="0 0 40 40" fill="none" xmlns="http://www.w3.org/2000/svg">
<path d="M38.3333 21.6666H36.7316C38.0901 19.4085 38.5994 16.7401 38.1684 14.1404C37.7373 11.5406 36.3941 9.17947 34.3795 7.48054C32.3649 5.78164 29.8109 4.85615 27.1757 4.87009C24.5404 4.88404 21.9964 5.83651 19.9999 7.55664C18.0052 5.82809 15.4588 4.86855 12.8193 4.85084C10.1798 4.83312 7.62083 5.75839 5.60304 7.46001C3.58525 9.16164 2.24132 11.5278 1.81328 14.1324C1.38523 16.7369 1.90119 19.4087 3.26825 21.6666H1.66659C1.44557 21.6666 1.23361 21.7545 1.07733 21.9107C0.921052 22.067 0.833252 22.279 0.833252 22.5C0.833252 22.721 0.921052 22.933 1.07733 23.0892C1.23361 23.2455 1.44557 23.3333 1.66659 23.3333H4.50659C4.64159 23.4833 4.76909 23.6383 4.91325 23.7816L16.4816 35.35C16.9436 35.812 17.4921 36.1786 18.0958 36.4288C18.6994 36.6789 19.3465 36.8076 19.9999 36.8076C20.6533 36.8076 21.3004 36.6789 21.9041 36.4288C22.5078 36.1786 23.0563 35.812 23.5183 35.35L35.0832 23.7816C35.2274 23.6383 35.3549 23.4833 35.4899 23.3333H38.3333C38.5543 23.3333 38.7663 23.2455 38.9225 23.0892C39.0788 22.933 39.1666 22.721 39.1666 22.5C39.1666 22.279 39.0788 22.067 38.9225 21.9107C38.7663 21.7545 38.5543 21.6666 38.3333 21.6666ZM3.33325 15.9441C3.33452 14.082 3.8876 12.2621 4.92266 10.7141C5.95771 9.16605 7.42829 7.95957 9.14867 7.24691C10.869 6.53426 12.762 6.34744 14.5885 6.71003C16.415 7.07262 18.0931 7.96837 19.4108 9.28414C19.567 9.44039 19.7789 9.52814 19.9999 9.52814C20.2209 9.52814 20.4328 9.44039 20.5891 9.28414C22.2815 7.60588 24.5474 6.63184 26.9298 6.55846C29.312 6.48509 31.6336 7.31783 33.4261 8.88872C35.2186 10.4596 36.3487 12.6519 36.5885 15.0232C36.8283 17.3946 36.16 19.7686 34.7183 21.6666H26.6666C26.4999 21.6666 26.3371 21.7165 26.1991 21.81C26.0611 21.9034 25.9543 22.0361 25.8924 22.1908L25.0833 24.2091L22.0433 14.745C21.9888 14.5756 21.8817 14.4281 21.7374 14.3241C21.5932 14.2201 21.4194 14.1649 21.2416 14.1666C21.0638 14.1684 20.8911 14.2271 20.749 14.334C20.6068 14.4408 20.5026 14.5904 20.4516 14.7608L17.4241 24.8525L14.9499 18.0483C14.8923 17.8896 14.7877 17.7523 14.6502 17.6544C14.5127 17.5565 14.3487 17.5026 14.1799 17.5C14.0115 17.4994 13.8467 17.5489 13.7064 17.6422C13.5662 17.7356 13.4569 17.8686 13.3924 18.0241L11.9358 21.6666H5.28159C4.01574 20.0279 3.33039 18.0149 3.33325 15.9441ZM22.3399 34.1716C21.7095 34.7734 20.8714 35.1091 19.9999 35.1091C19.1284 35.1091 18.2903 34.7734 17.6599 34.1716L6.82159 23.3333H12.4999C12.6666 23.3334 12.8294 23.2835 12.9674 23.1901C13.1054 23.0966 13.2123 22.9639 13.2741 22.8091L14.1299 20.6666L16.7133 27.7816C16.7714 27.9436 16.8783 28.0835 17.0191 28.1823C17.1599 28.2811 17.3279 28.3338 17.4999 28.3333H17.5241C17.6992 28.3282 17.8683 28.2681 18.0073 28.1614C18.1463 28.0547 18.2481 27.907 18.2983 27.7391L21.2774 17.8083L24.2066 26.9216C24.2591 27.0848 24.3607 27.2278 24.4974 27.3311C24.6342 27.4345 24.7994 27.4931 24.9708 27.4991C25.1437 27.5132 25.3164 27.4695 25.4618 27.3747C25.6073 27.2801 25.7171 27.1397 25.7741 26.9758L27.2307 23.3333H33.1782L22.3399 34.1716Z" fill="white"/>
</svg>
