<?xml version="1.0" encoding="UTF-8" standalone="no"?> <svg id="Line" xmlns="http://www.w3.org/2000/svg" viewBox="0 0 64 64"><title>1</title><path d="M57.01807,46.51385V42.40137a1.00015,1.00015,0,0,0-.67871-.94727L50.40643,39.44a6.12433,6.12433,0,0,0-1.87223-6.61357l4.61521-3.28779a3.98205,3.98205,0,1,0,2.54092-7.022A3.9892,3.9892,0,0,0,51.981,27.9157L48.68726,30.262a7.40223,7.40223,0,0,0-7.18008-8.14511L44.458,19.26563a.99947.99947,0,0,0,.30517-.71875V14.43433a3.974,3.974,0,1,0-1.99989,0l-.00011,3.68872-4.06494,3.92773a7.40535,7.40535,0,0,0-9.83795-4.08314l.00006-4.45714a3.97445,3.97445,0,1,0-1.99989,0l-.00011,5.76733a7.36357,7.36357,0,0,0-2.40967,5.29444,6.12758,6.12758,0,0,0-4.84044.61745l-6.65272-7.04031V14.43433a3.974,3.974,0,1,0-1.99988,0l-.00012,4.11255a.99875.99875,0,0,0,.27295.68652L18.078,26.4801a6.07359,6.07359,0,0,0-1.36247,5.01209h-4.895a3.9742,3.9742,0,1,0,0,1.99989l2.647.00011a6.1241,6.1241,0,0,0,4.44133,10.11356l-.00017,6.12863-3.96777,1.98449a3.98359,3.98359,0,0,0-6.96529,2.60936c.14036,5.24231,7.82072,5.26033,7.96383-.00023a3.97331,3.97331,0,0,0-.08918-.82745L20.356,51.24707a1.0004,1.0004,0,0,0,.55273-.89453V43.61328h9.92725v5.90057a3.982,3.982,0,1,0,2,0V43.61328c.04553-.03,11.7885.02279,11.83046-.001a6.0962,6.0962,0,0,0,4.783-2.38446l5.56867,1.89038v3.39576a3.97446,3.97446,0,1,0,2-.00007ZM41.78125,10.5957a1.98215,1.98215,0,0,1,3.96386.00009A1.98215,1.98215,0,0,1,41.78125,10.5957ZM25.87842,9.67188a1.98213,1.98213,0,0,1,3.96386.00008A1.98213,1.98213,0,0,1,25.87842,9.67188ZM9.97559,10.5957a1.98215,1.98215,0,0,1,3.96386.00009A1.98215,1.98215,0,0,1,9.97559,10.5957Zm1.98193,45.71485a1.98214,1.98214,0,0,1,.00008-3.96387A1.98214,1.98214,0,0,1,11.95752,56.31055Zm21.86035-2.958a1.98213,1.98213,0,0,1-3.96386-.00009A1.98213,1.98213,0,0,1,33.81787,53.35254ZM55.69043,24.5166a1.98215,1.98215,0,0,1-.00009,3.96387A1.98215,1.98215,0,0,1,55.69043,24.5166Zm-47.7085,9.957A1.98164,1.98164,0,0,1,7.982,30.51075,1.98164,1.98164,0,0,1,7.98193,34.47363ZM44.61719,41.6123c-6.62035-.00568-18.963.00614-25.562.001a4.12681,4.12681,0,0,1-.72854-8.17878c1.424-.53009.14959-1.96127.28963-2.99893a4.11439,4.11439,0,0,1,4.10978-4.10938c.99171.03732,2.16477.22908,2.33878,1.35257a1,1,0,0,0,1.83405-.797,5.38738,5.38738,0,1,1,10.28274-2.81734.99451.99451,0,0,0,.25794.54639,1.0054,1.0054,0,0,0,1.22594.2036c5.56915-3.07065,10.94688,4.2663,6.32508,8.63974a.99994.99994,0,0,0,1.3595,1.46672,7.43388,7.43388,0,0,0,.68615-.7284,4.10177,4.10177,0,0,1-2.41906,7.4198ZM56.01807,52.335a1.98215,1.98215,0,0,1,.00008-3.96386A1.98215,1.98215,0,0,1,56.01807,52.335Z"/></svg>