<?xml version="1.0" encoding="UTF-8"?>
<!DOCTYPE svg PUBLIC "-//W3C//DTD SVG 1.1//EN" "http://www.w3.org/Graphics/SVG/1.1/DTD/svg11.dtd">
<!-- Creator: CorelDRAW -->
<svg xmlns="http://www.w3.org/2000/svg" xml:space="preserve" width="1.70666in" height="1.70666in" style="shape-rendering:geometricPrecision; text-rendering:geometricPrecision; image-rendering:optimizeQuality; fill-rule:evenodd; clip-rule:evenodd"
viewBox="0 0 1.70666 1.70666"
 xmlns:xlink="http://www.w3.org/1999/xlink">
 <defs>
  <style type="text/css">
   <![CDATA[
    .fil0 {fill:black}
   ]]>
  </style>
 </defs>
 <g id="Layer_x0020_1">
  <metadata id="CorelCorpID_0Corel-Layer"/>
  <g id="_215025136">
   <g>
    <g id="_465596600">
     <path id="_246192272" class="fil0" d="M1.06667 1.00274l-1.02296 0c-0.0240512,0 -0.043622,-0.0195669 -0.043622,-0.0436181l0 -0.263421c0,-0.0240512 0.0195709,-0.0436181 0.043622,-0.0436181l0.964531 0c0.0102126,0 0.0190394,0.00713386 0.0211811,0.017126 0.0116969,0.054563 0.0377323,0.105421 0.0752913,0.147071 0.00359055,0.00398031 0.0055748,0.00914961 0.0055748,0.0145079l0 0.128335c0,0.0240512 -0.019563,0.0436181 -0.0436142,0.0436181zm-1.02296 -0.307327c-0.000114173,0 -0.000295276,0.000177165 -0.000295276,0.000287402l0 0.263421c0,0.000110236 0.000181102,0.000287402 0.000291339,0.000287402l1.02296 0c0.000110236,0 0.000287402,-0.000177165 0.000287402,-0.000287402l0 -0.120154c-0.0357953,-0.0415906 -0.0617441,-0.0907835 -0.0757913,-0.143555l-0.947457 0z"/>
    </g>
    <g id="_465600632">
     <path id="_246192656" class="fil0" d="M0.186996 0.905252c-0.0429173,0 -0.0778346,-0.0349173 -0.0778346,-0.0778346 0,-0.0429173 0.0349173,-0.0778346 0.0778346,-0.0778346 0.0429173,0 0.0778346,0.0349173 0.0778346,0.0778346 0,0.0429213 -0.0349134,0.0778346 -0.0778346,0.0778346zm0 -0.112339c-0.0190236,0 -0.0345039,0.0154803 -0.0345039,0.0345079 0,0.0190236 0.0154764,0.0345 0.0345039,0.0345 0.0190236,0 0.0345039,-0.0154764 0.0345039,-0.0345 3.93701e-006,-0.0190276 -0.0154764,-0.0345079 -0.0345039,-0.0345079z"/>
    </g>
    <g id="_218569376">
     <path id="_246192080" class="fil0" d="M0.436575 0.905252c-0.0429173,0 -0.0778307,-0.0349173 -0.0778307,-0.0778346 0,-0.0429173 0.0349134,-0.0778346 0.0778307,-0.0778346 0.0429173,0 0.0778346,0.0349173 0.0778346,0.0778346 0,0.0429213 -0.0349173,0.0778346 -0.0778346,0.0778346zm0 -0.112339c-0.0190236,0 -0.0345039,0.0154803 -0.0345039,0.0345079 0,0.0190236 0.0154803,0.0345 0.0345039,0.0345 0.0190276,0 0.0345039,-0.0154764 0.0345039,-0.0345 0,-0.0190276 -0.0154803,-0.0345079 -0.0345039,-0.0345079z"/>
    </g>
    <g id="_218567432">
     <path id="_246192680" class="fil0" d="M0.979528 0.849083l-0.376 0c-0.0119646,0 -0.0216654,-0.00969685 -0.0216654,-0.0216614 0,-0.0119685 0.00970079,-0.0216654 0.0216654,-0.0216654l0.376 0c0.0119646,0 0.0216654,0.00969685 0.0216654,0.0216654 0,0.0119646 -0.00970079,0.0216614 -0.0216654,0.0216614z"/>
    </g>
    <g id="_215026336">
     <path id="_246191936" class="fil0" d="M0.862516 1.16143l-0.614661 0c-0.0119646,0 -0.0216654,-0.00969685 -0.0216654,-0.0216654l0 -0.158689c0,-0.0119685 0.00970079,-0.0216654 0.0216654,-0.0216654l0.614661 0c0.0119646,0 0.0216654,0.00969685 0.0216654,0.0216654l0 0.158689c0,0.0119685 -0.00970079,0.0216654 -0.0216654,0.0216654zm-0.592996 -0.0433268l0.571331 0 0 -0.115362 -0.571331 0 0 0.115362z"/>
    </g>
    <g>
     <g id="_462590968">
      <path id="_246191792" class="fil0" d="M1.06667 1.46876l-1.02297 0c-0.0240472,0 -0.0436142,-0.019563 -0.0436142,-0.0436102l0 -0.263433c0,-0.0240512 0.0195669,-0.0436142 0.0436181,-0.0436142l1.02297 0c0.0240472,0 0.0436181,0.019563 0.0436181,0.0436142l0 0.263433c0,0.0240472 -0.0195669,0.0436102 -0.0436181,0.0436102zm-1.02297 -0.307331c-0.000110236,0 -0.000287402,0.000177165 -0.000287402,0.000287402l0 0.263433c0,9.84252e-005 0.000169291,0.000279528 0.000287402,0.000279528l1.02297 0c0.00011811,0 0.000291339,-0.000185039 0.000291339,-0.000279528l0 -0.263433c0,-0.000110236 -0.000181102,-0.000287402 -0.000291339,-0.000287402l-1.02297 0z"/>
     </g>
     <g id="_462590848">
      <path id="_246191528" class="fil0" d="M0.186996 1.37126c-0.0429173,0 -0.0778346,-0.0349173 -0.0778346,-0.0778307 0,-0.0429213 0.0349173,-0.0778425 0.0778346,-0.0778425 0.0429173,0 0.0778346,0.0349213 0.0778346,0.0778425 0,0.0429173 -0.0349134,0.0778307 -0.0778346,0.0778307zm0 -0.112339c-0.0190236,0 -0.0345039,0.0154803 -0.0345039,0.0345118 0,0.0190236 0.0154764,0.0345 0.0345039,0.0345 0.0190236,0 0.0345039,-0.0154764 0.0345039,-0.0345 3.93701e-006,-0.0190315 -0.0154764,-0.0345118 -0.0345039,-0.0345118z"/>
     </g>
     <g id="_462590752">
      <path id="_246191288" class="fil0" d="M0.436575 1.37126c-0.0429173,0 -0.0778307,-0.0349173 -0.0778307,-0.0778307 0,-0.0429213 0.0349134,-0.0778425 0.0778307,-0.0778425 0.0429173,0 0.0778346,0.0349213 0.0778346,0.0778425 0,0.0429173 -0.0349173,0.0778307 -0.0778346,0.0778307zm0 -0.112339c-0.0190236,0 -0.0345039,0.0154803 -0.0345039,0.0345118 0,0.0190236 0.0154803,0.0345 0.0345039,0.0345 0.0190276,0 0.0345039,-0.0154764 0.0345039,-0.0345 0,-0.0190315 -0.0154803,-0.0345118 -0.0345039,-0.0345118z"/>
     </g>
     <g id="_462590728">
      <path id="_246191888" class="fil0" d="M0.979528 1.31509l-0.376 0c-0.0119646,0 -0.0216654,-0.00969685 -0.0216654,-0.0216614 0,-0.0119685 0.00970079,-0.0216654 0.0216654,-0.0216654l0.376 0c0.0119646,0 0.0216654,0.00969685 0.0216654,0.0216654 0,0.0119646 -0.00970079,0.0216614 -0.0216654,0.0216614z"/>
     </g>
    </g>
    <g id="_462590896">
     <path id="_246195152" class="fil0" d="M1.34276 0.965535c-0.20061,0 -0.363819,-0.163209 -0.363819,-0.363819 0,-0.20061 0.163209,-0.363823 0.363819,-0.363823 0.20061,0 0.363823,0.163209 0.363823,0.363823 0,0.20061 -0.163213,0.363819 -0.363823,0.363819zm0 -0.684311c-0.17672,0 -0.320492,0.143776 -0.320492,0.320492 0,0.17672 0.143776,0.320492 0.320492,0.320492 0.17672,0 0.320496,-0.143776 0.320496,-0.320492 0,-0.17672 -0.143776,-0.320492 -0.320496,-0.320492z"/>
    </g>
    <g id="_462590344">
     <path id="_246133536" class="fil0" d="M1.33009 0.501406c-0.0988543,0 -0.191335,-0.0389843 -0.260406,-0.109776 -0.00789764,-0.00809055 -0.00824409,-0.0208898 -0.000795276,-0.0293976 0.0691535,-0.0790157 0.168976,-0.124339 0.273874,-0.124339 0.0988465,0 0.191327,0.0389882 0.260402,0.109776 0.00789764,0.00809055 0.00824409,0.0208937 0.000799213,0.0293976 -0.0691535,0.0790197 -0.16898,0.124339 -0.273874,0.124339zm-0.21452 -0.125717c0.0589409,0.0532795 0.134354,0.0823898 0.214516,0.0823898 0.0855118,0 0.167197,-0.0341929 0.227189,-0.0944646 -0.0589449,-0.0532795 -0.134358,-0.0823898 -0.214516,-0.0823898 -0.0855079,0 -0.167197,0.034189 -0.227189,0.0944646z"/>
    </g>
    <g id="_462590944">
     <path id="_246132936" class="fil0" d="M1.34277 0.965539c-0.0988504,0 -0.191331,-0.0389843 -0.260406,-0.10978 -0.0078937,-0.00809055 -0.00824016,-0.0208937 -0.000795276,-0.0293976 0.0691535,-0.0790197 0.168976,-0.124339 0.273874,-0.124339 0.0988543,0 0.191335,0.0389843 0.260406,0.109776 0.00788976,0.00809449 0.00824016,0.0208937 0.000795276,0.0293976 -0.0691496,0.0790236 -0.168976,0.124343 -0.273874,0.124343zm-0.21452 -0.125717c0.0589449,0.0532756 0.134358,0.0823858 0.214516,0.0823858 0.0855118,0 0.167197,-0.0341929 0.227193,-0.0944646 -0.0589449,-0.0532756 -0.134358,-0.0823858 -0.21452,-0.0823858 -0.0855079,-3.93701e-006 -0.167197,0.034189 -0.227189,0.0944646z"/>
    </g>
    <g id="_462590488">
     <path id="_246133392" class="fil0" d="M1.33009 0.501406c-0.0988543,0 -0.191335,-0.0389843 -0.260406,-0.109776 -0.00789764,-0.00809055 -0.00824409,-0.0208898 -0.000795276,-0.0293976 0.0691535,-0.0790157 0.168976,-0.124339 0.273874,-0.124339 0.0988465,0 0.191327,0.0389882 0.260402,0.109776 0.00789764,0.00809055 0.00824409,0.0208937 0.000799213,0.0293976 -0.0691535,0.0790197 -0.16898,0.124339 -0.273874,0.124339zm-0.21452 -0.125717c0.0589409,0.0532795 0.134354,0.0823898 0.214516,0.0823898 0.0855118,0 0.167197,-0.0341929 0.227189,-0.0944646 -0.0589449,-0.0532795 -0.134358,-0.0823898 -0.214516,-0.0823898 -0.0855079,0 -0.167197,0.034189 -0.227189,0.0944646z"/>
    </g>
    <g id="_462590608">
     <path id="_246133176" class="fil0" d="M1.34277 0.965539c-0.0988504,0 -0.191331,-0.0389843 -0.260406,-0.10978 -0.0078937,-0.00809055 -0.00824016,-0.0208937 -0.000795276,-0.0293976 0.0691535,-0.0790197 0.168976,-0.124339 0.273874,-0.124339 0.0988543,0 0.191335,0.0389843 0.260406,0.109776 0.00788976,0.00809449 0.00824016,0.0208937 0.000795276,0.0293976 -0.0691496,0.0790236 -0.168976,0.124343 -0.273874,0.124343zm-0.21452 -0.125717c0.0589449,0.0532756 0.134358,0.0823858 0.214516,0.0823858 0.0855118,0 0.167197,-0.0341929 0.227193,-0.0944646 -0.0589449,-0.0532756 -0.134358,-0.0823858 -0.21452,-0.0823858 -0.0855079,-3.93701e-006 -0.167197,0.034189 -0.227189,0.0944646z"/>
    </g>
    <g id="_462590680">
     <path id="_246132888" class="fil0" d="M1.68492 0.623382l-0.684315 0c-0.0119646,0 -0.0216614,-0.00969685 -0.0216614,-0.0216654 0,-0.0119646 0.00969685,-0.0216654 0.0216614,-0.0216654l0.684315 0c0.0119646,0 0.0216654,0.00970079 0.0216654,0.0216654 0,0.0119685 -0.00970079,0.0216654 -0.0216654,0.0216654z"/>
    </g>
    <g id="_462591760">
     <path id="_246132600" class="fil0" d="M1.34276 0.965535c-0.108083,0 -0.192744,-0.159807 -0.192744,-0.363819 0,-0.204012 0.0846614,-0.363823 0.192744,-0.363823 0.108083,0 0.192744,0.159811 0.192744,0.363823 0,0.204012 -0.0846614,0.363819 -0.192744,0.363819zm0 -0.684311c-0.0365276,0 -0.0735512,0.0321654 -0.101594,0.0882402 -0.0308346,0.0616772 -0.0478189,0.144157 -0.0478189,0.232252 0,0.0880945 0.0169843,0.170579 0.0478189,0.232252 0.0280394,0.0560787 0.0650669,0.0882402 0.101594,0.0882402 0.0365276,0 0.0735551,-0.0321614 0.101594,-0.0882402 0.0308386,-0.0616732 0.0478228,-0.144157 0.0478228,-0.232252 0,-0.0880945 -0.0169843,-0.170575 -0.0478228,-0.232252 -0.0280394,-0.0560787 -0.0650709,-0.0882402 -0.101594,-0.0882402z"/>
    </g>
    <g id="_462591256">
     <path id="_246132312" class="fil0" d="M1.34276 0.965539c-0.0119646,0 -0.0216654,-0.00969685 -0.0216654,-0.0216654l0 -0.684315c0,-0.0119646 0.00970079,-0.0216654 0.0216654,-0.0216654 0.0119685,0 0.0216654,0.00970079 0.0216654,0.0216654l0 0.684315c0,0.0119685 -0.00969685,0.0216654 -0.0216654,0.0216654z"/>
    </g>
   </g>
  </g>
 </g>
</svg>
