<?xml version="1.0" encoding="iso-8859-1"?>
<!-- Generator: Adobe Illustrator 21.0.2, SVG Export Plug-In . SVG Version: 6.00 Build 0)  -->
<svg version="1.1" id="Layer_1_1_" xmlns="http://www.w3.org/2000/svg" xmlns:xlink="http://www.w3.org/1999/xlink" x="0px" y="0px"
	 viewBox="0 0 64 64" style="enable-background:new 0 0 64 64;" xml:space="preserve">
<g>
</g>
<path d="M11,41c0,11.58,9.421,21,21,21s21-9.42,21-21c0-4.666-1.549-8.967-4.133-12.457C49.842,27.528,55,21.925,55,17
	c0-5.009-2.617-8-7-8s-7,2.991-7,8c0,2.067,0.913,4.252,2.042,6.171c-2.639-1.64-5.653-2.731-8.896-3.062
	C36.005,17.896,39,13.753,39,10c0-5.009-2.617-8-7-8s-7,2.991-7,8c0,3.753,2.995,7.896,4.854,10.109
	c-3.243,0.331-6.257,1.422-8.896,3.062C22.087,21.252,23,19.067,23,17c0-5.009-2.617-8-7-8s-7,2.991-7,8
	c0,4.925,5.158,10.528,6.133,11.543C12.549,32.033,11,36.334,11,41z M40.957,40c-0.12-2.904-0.732-5.635-1.589-8.09
	c2.321-0.942,4.456-2.328,6.279-4.098c3.088,3.195,5.054,7.464,5.302,12.188H40.957z M32,59.416
	c-1.038-1.342-2.963-4.079-4.533-7.633c2.977-0.735,6.09-0.735,9.067,0C34.963,55.337,33.038,58.074,32,59.416z M38.488,52.379
	c2.006,0.735,3.909,1.815,5.616,3.254c-2.761,2.288-6.18,3.802-9.925,4.232C35.367,58.252,37.077,55.645,38.488,52.379z
	 M29.821,59.865c-3.745-0.43-7.164-1.944-9.925-4.232c1.707-1.44,3.61-2.52,5.616-3.254C26.923,55.645,28.633,58.252,29.821,59.865z
	 M26.701,49.914c-0.886-2.395-1.535-5.082-1.665-7.914h13.928c-0.129,2.832-0.778,5.518-1.665,7.914
	C33.827,49.004,30.173,49.004,26.701,49.914z M13.051,40c0.248-4.723,2.213-8.993,5.302-12.188c1.824,1.77,3.958,3.156,6.279,4.098
	c-0.857,2.455-1.469,5.186-1.589,8.09H13.051z M25.036,40c0.121-2.646,0.699-5.158,1.499-7.43c1.759,0.511,3.596,0.783,5.465,0.783
	s3.706-0.272,5.465-0.783c0.799,2.272,1.378,4.785,1.499,7.43H25.036z M27.262,30.678c1.604-3.782,3.655-6.693,4.738-8.094
	c1.083,1.401,3.135,4.312,4.738,8.094c-1.53,0.428-3.118,0.675-4.738,0.675S28.792,31.106,27.262,30.678z M38.65,30.024
	c-1.441-3.45-3.236-6.212-4.47-7.889c3.78,0.434,7.226,1.977,10.001,4.301C42.568,27.984,40.69,29.19,38.65,30.024z M25.35,30.024
	c-2.04-0.834-3.919-2.04-5.531-3.588c2.775-2.325,6.221-3.867,10.001-4.301C28.586,23.812,26.792,26.574,25.35,30.024z M13.051,42
	h9.992c0.127,3.072,0.801,5.958,1.735,8.519c-2.276,0.84-4.428,2.089-6.351,3.75C15.294,51.066,13.3,46.762,13.051,42z
	 M45.574,54.269c-1.923-1.661-4.075-2.91-6.351-3.75c0.934-2.562,1.608-5.447,1.735-8.519h9.992
	C50.7,46.762,48.706,51.066,45.574,54.269z M48,11c3.225,0,5,2.131,5,6c0,3.523-3.471,7.811-5,9.529c-1.529-1.718-5-6.006-5-9.529
	C43,13.131,44.775,11,48,11z M32,4c3.225,0,5,2.131,5,6c0,3.523-3.471,7.811-5,9.529c-1.529-1.718-5-6.006-5-9.529
	C27,6.131,28.775,4,32,4z M16,11c3.225,0,5,2.131,5,6c0,3.523-3.471,7.811-5,9.529c-1.529-1.718-5-6.006-5-9.529
	C11,13.131,12.775,11,16,11z"/>
<path d="M35,9c0-1.654-1.346-3-3-3s-3,1.346-3,3s1.346,3,3,3S35,10.654,35,9z M31,9c0-0.551,0.448-1,1-1s1,0.449,1,1s-0.448,1-1,1
	S31,9.551,31,9z"/>
<path d="M51,16c0-1.654-1.346-3-3-3s-3,1.346-3,3s1.346,3,3,3S51,17.654,51,16z M47,16c0-0.551,0.448-1,1-1s1,0.449,1,1
	s-0.448,1-1,1S47,16.551,47,16z"/>
<path d="M19,16c0-1.654-1.346-3-3-3s-3,1.346-3,3s1.346,3,3,3S19,17.654,19,16z M15,16c0-0.551,0.448-1,1-1s1,0.449,1,1
	s-0.448,1-1,1S15,16.551,15,16z"/>
<rect x="52" y="56" width="2" height="2"/>
<rect x="52" y="60" width="2" height="2"/>
<rect x="56" y="60" width="2" height="2"/>
<rect x="48" y="60" width="2" height="2"/>
<rect x="10" y="56" width="2" height="2"/>
<rect x="10" y="60" width="2" height="2"/>
<rect x="14" y="60" width="2" height="2"/>
<rect x="6" y="60" width="2" height="2"/>
</svg>
