<?xml version="1.0" encoding="UTF-8"?>
<!DOCTYPE svg PUBLIC "-//W3C//DTD SVG 1.1//EN" "http://www.w3.org/Graphics/SVG/1.1/DTD/svg11.dtd">
<!-- Creator: CorelDRAW -->
<svg xmlns="http://www.w3.org/2000/svg" xml:space="preserve" width="1.70666in" height="1.70666in" version="1.1" style="shape-rendering:geometricPrecision; text-rendering:geometricPrecision; image-rendering:optimizeQuality; fill-rule:evenodd; clip-rule:evenodd"
viewBox="0 0 1707 1707"
 xmlns:xlink="http://www.w3.org/1999/xlink">
 <defs>
  <style type="text/css">
   <![CDATA[
    .fil0 {fill:black;fill-rule:nonzero}
   ]]>
  </style>
 </defs>
 <g id="Layer_x0020_1">
  <metadata id="CorelCorpID_0Corel-Layer"/>
  <g id="_716544432">
   <g>
    <g>
     <g>
      <path class="fil0" d="M853 1188c-328,0 -594,-266 -594,-593 0,-328 266,-595 594,-595 327,0 595,266 595,595 0,327 -268,593 -595,593zm0 -1138c-301,0 -545,245 -545,546 0,300 244,544 545,544 301,0 546,-244 546,-545 0,-300 -245,-545 -546,-545z"/>
     </g>
     <g>
      <path class="fil0" d="M853 1188c-164,0 -292,-260 -292,-593 0,-333 128,-595 292,-595 163,0 292,260 292,595 0,333 -129,593 -292,593zm0 -1138c-132,0 -243,249 -243,546 0,295 111,545 243,545 133,-1 244,-250 244,-545 0,-297 -111,-546 -244,-546z"/>
     </g>
     <g>
      <path class="fil0" d="M853 887c-333,0 -594,-127 -594,-291 0,-164 261,-291 594,-291 332,0 595,127 595,291 0,164 -263,291 -595,291zm0 -535c-296,0 -545,111 -545,243 0,131 249,242 545,242 295,0 546,-111 546,-242 0,-132 -251,-243 -546,-243z"/>
     </g>
     <g>
      <path class="fil0" d="M853 1188c-14,0 -25,-11 -25,-25l0 -1137c0,-14 11,-25 25,-25 14,0 25,11 25,25l0 1139c0,14 -11,23 -25,23z"/>
     </g>
     <g>
      <path class="fil0" d="M1423 620l-1139 0c-14,0 -25,-11 -25,-25 0,-14 11,-25 25,-25l1139 0c14,0 25,11 25,25 0,14 -11,25 -25,25z"/>
     </g>
    </g>
    <g>
     <path class="fil0" d="M1172 1467l-127 0c-13,0 -25,-11 -25,-25l0 -311c0,-13 12,-25 25,-25 14,0 25,12 25,25l0 286 103 0c14,0 25,11 25,25 0,14 -13,25 -26,25z"/>
    </g>
    <g>
     <path class="fil0" d="M661 1467l-126 0c-14,0 -25,-11 -25,-25 0,-14 11,-25 25,-25l103 0 0 -286c0,-13 11,-25 25,-25 14,0 25,12 25,25l0 311c-3,14 -14,25 -27,25z"/>
    </g>
    <g>
     <path class="fil0" d="M853 1592c-14,0 -25,-11 -25,-25l0 -402c0,-14 11,-25 25,-25 14,0 25,11 25,25l0 403c0,13 -11,24 -25,24z"/>
    </g>
    <g>
     <path class="fil0" d="M1228 1524c-44,0 -81,-38 -81,-82 0,-44 36,-82 81,-82 46,0 82,36 82,82 2,46 -36,82 -82,82zm0 -114c-18,0 -33,15 -33,33 0,18 15,34 33,34 19,0 34,-16 34,-34 1,-19 -14,-33 -34,-33z"/>
    </g>
    <g>
     <path class="fil0" d="M853 1707c-45,0 -82,-36 -82,-82 0,-46 36,-82 82,-82 45,0 81,38 81,82 0,46 -36,82 -81,82zm0 -115c-18,0 -34,15 -34,33 0,18 16,33 34,33 19,0 33,-13 33,-33 0,-18 -15,-33 -33,-33z"/>
    </g>
    <g>
     <path class="fil0" d="M477 1524c-45,0 -82,-36 -82,-82 0,-46 36,-82 82,-82 46,0 82,38 82,82 0,44 -38,82 -82,82zm0 -115c-18,0 -33,15 -33,33 0,18 15,33 33,33 19,0 33,-14 33,-33 0,-18 -15,-33 -33,-33z"/>
    </g>
   </g>
  </g>
 </g>
</svg>
