<?xml version="1.0" encoding="UTF-8"?>
<!DOCTYPE svg PUBLIC "-//W3C//DTD SVG 1.1//EN" "http://www.w3.org/Graphics/SVG/1.1/DTD/svg11.dtd">
<!-- Creator: CorelDRAW -->
<svg xmlns="http://www.w3.org/2000/svg" xml:space="preserve" width="1.70666in" height="1.70666in" style="shape-rendering:geometricPrecision; text-rendering:geometricPrecision; image-rendering:optimizeQuality; fill-rule:evenodd; clip-rule:evenodd"
viewBox="0 0 1.70666 1.70666"
 xmlns:xlink="http://www.w3.org/1999/xlink">
 <defs>
  <style type="text/css">
   <![CDATA[
    .fil0 {fill:black}
   ]]>
  </style>
 </defs>
 <g id="Layer_x0020_1">
  <metadata id="CorelCorpID_0Corel-Layer"/>
  <g id="_469762264">
   <g>
    <g id="_469761304">
     <path id="_247229488" class="fil0" d="M1.39248 1.06878c-0.000125984,0 -0.000244094,0 -0.000366142,-3.93701e-006l-0.178594 -0.00302362c-0.0118189,-0.000200787 -0.0212992,-0.00984252 -0.0212992,-0.0216614l0 -0.259213c-0.0172559,0.0134528 -0.0394488,0.025622 -0.0661929,0.036122 -0.0642244,0.0252126 -0.14915,0.0391024 -0.239134,0.0391024 -0.0899882,0 -0.174913,-0.0138898 -0.239142,-0.0391024 -0.0267441,-0.0104961 -0.048937,-0.0226693 -0.0661929,-0.036122l0 0.24815c0,0.00581102 -0.00233071,0.011374 -0.00647638,0.0154488 -0.00414173,0.0040748 -0.00977953,0.0063937 -0.0155551,0.0062126l-0.245535 -0.00415354 -0.0257756 -1.9685e-005c-0.158878,-3.93701e-006 -0.288142,-0.129268 -0.288142,-0.288157 0,-0.158886 0.129268,-0.288154 0.288157,-0.288154 0.00682677,0 0.013685,0.000240157 0.0205236,0.000728346 0.0132756,-0.0597362 0.0454882,-0.114059 0.0920906,-0.154665 0.0524134,-0.0456654 0.119602,-0.070815 0.189193,-0.070815 0.0491969,0 0.0967953,0.012315 0.13928,0.0358504 0.0202205,-0.0622677 0.0585354,-0.118177 0.109894,-0.159654 0.0600866,-0.0485236 0.135799,-0.075248 0.213189,-0.075248 0.187217,0 0.339528,0.152311 0.339528,0.339531 0,0.000566929 0,0.00113386 -3.93701e-006,0.00170866 0.0817402,0.00588583 0.157772,0.0406969 0.216051,0.099378 0.0635866,0.0640276 0.0986024,0.148992 0.0986024,0.239244 0,0.0859646 -0.032185,0.167976 -0.0906299,0.230933 -0.0581181,0.0626142 -0.136874,0.100795 -0.22176,0.107516 -0.000566929,4.33071e-005 -0.00114173,6.69291e-005 -0.00170866,6.69291e-005zm-0.156929 -0.0459921l0.156236 0.00264567c0.152311,-0.0125787 0.271465,-0.142035 0.271465,-0.295169 0,-0.162118 -0.131866,-0.29498 -0.293949,-0.296181 -0.00598819,-4.33071e-005 -0.011685,-0.00256299 -0.015752,-0.00695669 -0.00406299,-0.00438976 -0.00612992,-0.0102717 -0.00570472,-0.0162402 0.0005,-0.00704331 0.000755906,-0.0140945 0.000755906,-0.0209567 0,-0.163327 -0.132874,-0.296205 -0.296197,-0.296205 -0.139173,0 -0.257937,0.0946181 -0.288803,0.230094 -0.00159843,0.00702756 -0.00659449,0.0127992 -0.0133189,0.0154016 -0.00672441,0.00258661 -0.0143031,0.00167717 -0.0202126,-0.00245276 -0.0412008,-0.0287756 -0.089622,-0.0439882 -0.140028,-0.0439882 -0.120614,0 -0.224732,0.0898346 -0.242193,0.208961 -0.00173228,0.011815 -0.0127008,0.0199961 -0.0245197,0.0183031 -0.0115827,-0.00166535 -0.0233898,-0.00251181 -0.0350984,-0.00251181 -0.134996,0 -0.244827,0.109831 -0.244827,0.244827 0,0.135 0.109831,0.244827 0.244827,0.244827l0.0259685 1.9685e-005c0.00011811,0 0.000232283,0 0.000350394,3.93701e-006l0.223681 0.00377953 0 -0.300929c0,-0.0119685 0.00970079,-0.0216654 0.0216654,-0.0216654 0.0119646,0 0.0216654,0.00969685 0.0216654,0.0216654 0,0.0503701 0.130579,0.106709 0.305335,0.106709 0.174752,0 0.305327,-0.0563386 0.305327,-0.106709 0,-0.0119685 0.00969685,-0.0216654 0.0216654,-0.0216654 0.0119646,0 0.0216654,0.00969685 0.0216654,0.0216654l-3.93701e-006 0.312728z"/>
    </g>
    <g id="_469762624">
     <path id="_247229920" class="fil0" d="M0.881941 1.6096c-0.0875433,0 -0.169035,-0.0128228 -0.229488,-0.0361063 -0.0944055,-0.0363622 -0.11422,-0.0883622 -0.11422,-0.125579l0 -0.737854c0,-0.0119685 0.00969685,-0.0216654 0.0216654,-0.0216654 0.0119646,0 0.0216654,0.00969685 0.0216654,0.0216654 0,0.0503701 0.130575,0.106709 0.305331,0.106709 0.0844488,0 0.163591,-0.0127598 0.222839,-0.0359213 0.0513071,-0.0200591 0.082126,-0.0463425 0.0824882,-0.0703425l0 -0.000444882c0,-0.0118937 0.00958661,-0.0215669 0.0214803,-0.0216654 0.0120039,1.1811e-005 0.0216417,0.00940551 0.0218425,0.0212953 3.93701e-006,0.000165354 7.87402e-006,0.000330709 7.87402e-006,0.000496063l0 0.000173228c0,0.000133858 0,0.00026378 -3.93701e-006,0.000393701l0 0.550346c0,0.00761811 -0.004,0.0146772 -0.0105354,0.0185906 -0.0547047,0.032748 -0.0873661,0.0903031 -0.0873661,0.153953 0,0.0325945 0.00883858,0.0645079 0.0255551,0.0922874 0.0030748,0.0051063 0.00390551,0.011252 0.00230709,0.0169921 -0.00159843,0.00573622 -0.00549213,0.010563 -0.0107638,0.0133425 -0.0642795,0.0338898 -0.163697,0.0533346 -0.272764,0.0533386 -7.87402e-006,-3.93701e-006 -2.75591e-005,-3.93701e-006 -3.93701e-005,-3.93701e-006zm-0.300382 -0.824724l0 0.663043c0,0.0428425 0.0470236,0.0699449 0.0864685,0.0851417 0.0555984,0.0214173 0.131571,0.0332126 0.213909,0.0332126 1.5748e-005,0 2.3622e-005,0 4.33071e-005,0 0.0899803,-3.93701e-006 0.174913,-0.0144213 0.232921,-0.039063 -0.0135197,-0.029185 -0.0205827,-0.0611063 -0.0205827,-0.0935669 0,-0.0736811 0.0372126,-0.143224 0.0978976,-0.184413l0 -0.463886c-0.0635079,0.0489488 -0.187169,0.0747559 -0.305323,0.0747559 -0.0899882,0 -0.174913,-0.0138858 -0.239142,-0.0390984 -0.0267402,-0.0105039 -0.0489331,-0.0226772 -0.0661929,-0.036126z"/>
    </g>
    <g id="_469762000">
     <path id="_247229944" class="fil0" d="M0.886886 0.860094c-0.0899843,0 -0.174909,-0.0138898 -0.239134,-0.0391024 -0.070626,-0.0277283 -0.10952,-0.067126 -0.10952,-0.110937 0,-0.043815 0.0388937,-0.0832126 0.10952,-0.110937 0.0642244,-0.0252165 0.14915,-0.0390984 0.239134,-0.0390984 0.0899882,0 0.174917,0.0138858 0.239142,0.0390984 0.070626,0.0277283 0.109524,0.067126 0.109524,0.110941 0,0.043811 -0.0388976,0.0832087 -0.109524,0.110937 -0.0642205,0.0252126 -0.149154,0.0390984 -0.239142,0.0390984zm0 -0.256748c-0.174748,0 -0.305327,0.0563346 -0.305327,0.106709 0,0.0503701 0.130579,0.106709 0.305327,0.106709 0.17476,0 0.305335,-0.0563386 0.305335,-0.106709 3.93701e-006,-0.050374 -0.130575,-0.106709 -0.305335,-0.106709z"/>
    </g>
    <g id="_469762696">
     <path id="_247229752" class="fil0" d="M0.886894 1.05473c-0.0902244,0 -0.175382,-0.0152756 -0.239791,-0.0430118 -0.0702087,-0.0302362 -0.108874,-0.0726654 -0.108874,-0.119472 0,-0.0119685 0.00970079,-0.0216654 0.0216654,-0.0216654 0.0119685,0 0.0216654,0.00969685 0.0216654,0.0216654 0,0.0563583 0.125398,0.119154 0.305335,0.119154 0.179933,0 0.305323,-0.0627953 0.305323,-0.119154 0,-0.0119685 0.00969685,-0.0216654 0.0216654,-0.0216654 0.0119646,0 0.0216654,0.00969685 0.0216654,0.0216654 0,0.0468071 -0.0386654,0.0892362 -0.108874,0.119472 -0.0644016,0.0277362 -0.149555,0.0430118 -0.23978,0.0430118z"/>
    </g>
    <g id="_469761976">
     <path id="_247229272" class="fil0" d="M0.886894 1.23646c-0.0902244,0 -0.175382,-0.0152756 -0.239791,-0.0430079 -0.0702087,-0.0302362 -0.108874,-0.0726654 -0.108874,-0.119469 0,-0.0119685 0.00970079,-0.0216654 0.0216654,-0.0216654 0.0119685,0 0.0216654,0.00969685 0.0216654,0.0216654 0,0.0563543 0.125398,0.119146 0.305335,0.119146 0.179933,0 0.305323,-0.0627953 0.305323,-0.119146 0,-0.0119685 0.00969685,-0.0216654 0.0216654,-0.0216654 0.0119646,0 0.0216654,0.00969685 0.0216654,0.0216654 0,0.0468031 -0.0386654,0.0892283 -0.108874,0.119469 -0.0644016,0.0277323 -0.149555,0.0430079 -0.23978,0.0430079z"/>
    </g>
    <g id="_469762576">
     <path id="_247229248" class="fil0" d="M0.886894 1.4182c-0.0902244,0 -0.175382,-0.0152756 -0.239791,-0.0430118 -0.0702087,-0.0302323 -0.108874,-0.0726654 -0.108874,-0.119469 0,-0.0119685 0.00970079,-0.0216654 0.0216654,-0.0216654 0.0119685,0 0.0216654,0.00969685 0.0216654,0.0216654 0,0.0563543 0.125398,0.11915 0.305335,0.11915 0.0924291,0 0.179484,-0.0171457 0.238843,-0.0470315 0.0106929,-0.00537795 0.0237126,-0.00107874 0.0290945,0.0096063 0.00537795,0.010689 0.00107874,0.0237126 -0.0096063,0.0290945 -0.0651969,0.0328307 -0.159354,0.0516614 -0.258331,0.0516614zm0.326748 -0.135283c-0.000653543,0 -0.00131102,-2.75591e-005 -0.00197638,-8.66142e-005 -0.0119173,-0.00107874 -0.0207047,-0.0116102 -0.019626,-0.0235276 0.00011811,-0.00135827 0.000185039,-0.00252756 0.000185039,-0.00358268 0,-0.0119646 0.00969685,-0.0216654 0.0216614,-0.0216654 0.0119685,0 0.0216654,0.00970079 0.0216654,0.0216654 0,0.00237008 -0.00011811,0.00481496 -0.000354331,0.00748031 -0.00101969,0.0112559 -0.0104724,0.0197165 -0.0215551,0.0197165z"/>
    </g>
    <g id="_469762192">
     <path id="_247229296" class="fil0" d="M0.828035 0.987913c-0.0287756,0 -0.052185,-0.0234016 -0.052185,-0.0521772 0,-0.0287795 0.0234094,-0.052189 0.052185,-0.052189 0.0287717,0 0.0521811,0.0234094 0.0521811,0.052189 0,0.0287717 -0.0234094,0.0521772 -0.0521811,0.0521772zm0 -0.0610394c-0.00488189,0 -0.00885433,0.00397244 -0.00885433,0.00885827 0,0.00488189 0.00397244,0.00885039 0.00885433,0.00885039 0.00487795,0 0.00885039,-0.0039685 0.00885039,-0.00885039 0,-0.00488189 -0.0039685,-0.00885827 -0.00885039,-0.00885827z"/>
    </g>
    <g id="_469762096">
     <path id="_247228960" class="fil0" d="M0.945756 0.987913c-0.0287717,0 -0.0521811,-0.0234016 -0.0521811,-0.0521772 0,-0.0287795 0.0234094,-0.052189 0.0521811,-0.052189 0.0287717,0 0.0521772,0.0234094 0.0521772,0.052189 3.93701e-006,0.0287717 -0.0234055,0.0521772 -0.0521772,0.0521772zm0 -0.0610394c-0.00488189,0 -0.00885039,0.00397244 -0.00885039,0.00885827 0,0.00488189 0.0039685,0.00885039 0.00885039,0.00885039 0.00488189,0 0.00885039,-0.0039685 0.00885039,-0.00885039 0,-0.00488189 -0.00397244,-0.00885827 -0.00885039,-0.00885827z"/>
    </g>
    <g id="_469762936">
     <path id="_247228792" class="fil0" d="M0.828035 1.17604c-0.0287756,0 -0.052185,-0.0234094 -0.052185,-0.0521811 0,-0.0287795 0.0234094,-0.052185 0.052185,-0.052185 0.0287717,0 0.0521811,0.0234055 0.0521811,0.052185 0,0.0287717 -0.0234094,0.0521811 -0.0521811,0.0521811zm0 -0.0610394c-0.00488189,0 -0.00885433,0.00397638 -0.00885433,0.00885827 0,0.00488189 0.00397244,0.00885039 0.00885433,0.00885039 0.00487795,0 0.00885039,-0.0039685 0.00885039,-0.00885039 0,-0.00488189 -0.0039685,-0.00885827 -0.00885039,-0.00885827z"/>
    </g>
    <g id="_469763272">
     <path id="_247228048" class="fil0" d="M0.945756 1.17604c-0.0287717,0 -0.0521811,-0.0234094 -0.0521811,-0.0521811 0,-0.0287795 0.0234094,-0.052185 0.0521811,-0.052185 0.0287717,0 0.0521772,0.0234055 0.0521772,0.052185 3.93701e-006,0.0287717 -0.0234055,0.0521811 -0.0521772,0.0521811zm0 -0.0610394c-0.00488189,0 -0.00885039,0.00397638 -0.00885039,0.00885827 0,0.00488189 0.0039685,0.00885039 0.00885039,0.00885039 0.00488189,0 0.00885039,-0.0039685 0.00885039,-0.00885039 0,-0.00488189 -0.00397244,-0.00885827 -0.00885039,-0.00885827z"/>
    </g>
    <g id="_469762888">
     <path id="_247228480" class="fil0" d="M0.828035 1.3578c-0.0287756,0 -0.052185,-0.0234055 -0.052185,-0.0521772 0,-0.0287756 0.0234094,-0.0521811 0.052185,-0.0521811 0.0287717,0 0.0521811,0.0234055 0.0521811,0.0521811 0,0.0287717 -0.0234094,0.0521772 -0.0521811,0.0521772zm0 -0.0610315c-0.00488189,0 -0.00885433,0.0039685 -0.00885433,0.00885433 0,0.00487795 0.00397244,0.00884646 0.00885433,0.00884646 0.00487795,0 0.00885039,-0.0039685 0.00885039,-0.00884646 0,-0.00488583 -0.0039685,-0.00885433 -0.00885039,-0.00885433z"/>
    </g>
    <g id="_469763248">
     <path id="_247228144" class="fil0" d="M0.945756 1.3578c-0.0287717,0 -0.0521811,-0.0234055 -0.0521811,-0.0521772 0,-0.0287756 0.0234094,-0.0521811 0.0521811,-0.0521811 0.0287717,0 0.0521772,0.0234055 0.0521772,0.0521811 0,0.0287717 -0.0234055,0.0521772 -0.0521772,0.0521772zm0 -0.0610315c-0.00488189,0 -0.00885039,0.0039685 -0.00885039,0.00885433 0,0.00487795 0.0039685,0.00884646 0.00885039,0.00884646 0.00488189,0 0.00885039,-0.0039685 0.00885039,-0.00884646 0,-0.00488583 -0.00397244,-0.00885433 -0.00885039,-0.00885433z"/>
    </g>
    <g id="_469762960">
     <path id="_247228312" class="fil0" d="M0.828035 1.54439c-0.0287756,0 -0.052185,-0.0234055 -0.052185,-0.052185 0,-0.0287717 0.0234094,-0.0521772 0.052185,-0.0521772 0.0287717,0 0.0521811,0.0234016 0.0521811,0.0521772 0,0.0287756 -0.0234094,0.052185 -0.0521811,0.052185zm0 -0.0610354c-0.00488189,0 -0.00885433,0.0039685 -0.00885433,0.00885039 0,0.00488189 0.00397244,0.00885433 0.00885433,0.00885433 0.00487795,0 0.00885039,-0.00397244 0.00885039,-0.00885433 0,-0.00487795 -0.0039685,-0.00885039 -0.00885039,-0.00885039z"/>
    </g>
    <g id="_469763152">
     <path id="_247228216" class="fil0" d="M0.945756 1.54439c-0.0287717,0 -0.0521811,-0.0234055 -0.0521811,-0.052185 0,-0.0287717 0.0234094,-0.0521772 0.0521811,-0.0521772 0.0287717,0 0.0521772,0.0234016 0.0521772,0.0521772 3.93701e-006,0.0287756 -0.0234055,0.052185 -0.0521772,0.052185zm0 -0.0610354c-0.00488189,0 -0.00885039,0.0039685 -0.00885039,0.00885039 0,0.00488189 0.0039685,0.00885433 0.00885039,0.00885433 0.00488189,0 0.00885039,-0.00397244 0.00885039,-0.00885433 0,-0.00487795 -0.00397244,-0.00885039 -0.00885039,-0.00885039z"/>
    </g>
    <g id="_469762984">
     <path id="_247228096" class="fil0" d="M1.31694 1.65626c-0.122752,0 -0.222618,-0.0998701 -0.222618,-0.222622 0,-0.122756 0.0998661,-0.222622 0.222618,-0.222622 0.122756,0 0.222622,0.0998661 0.222622,0.222622 0,0.122752 -0.0998661,0.222622 -0.222622,0.222622zm0 -0.401917c-0.0988583,0 -0.179291,0.0804331 -0.179291,0.179291 0,0.0988622 0.0804331,0.179295 0.179291,0.179295 0.0988622,0 0.179295,-0.0804331 0.179295,-0.179295 0,-0.0988583 -0.0804331,-0.179291 -0.179295,-0.179291z"/>
    </g>
    <g id="_469762408">
     <path id="_247227304" class="fil0" d="M1.28643 1.50366c-0.00554331,0 -0.0110866,-0.00211811 -0.0153189,-0.00634252l-0.0356811 -0.0356811c-0.00846457,-0.00845669 -0.00846457,-0.0221772 -3.93701e-006,-0.0306378 0.00846457,-0.00846063 0.0221811,-0.00846457 0.0306378,-3.93701e-006l0.0203661 0.0203622 0.0813976 -0.0814055c0.00846457,-0.00846457 0.0221811,-0.00846063 0.0306378,-3.93701e-006 0.00846457,0.00846063 0.00846457,0.0221772 3.93701e-006,0.0306378l-0.0967205 0.0967283c-0.00422441,0.00422835 -0.00977559,0.00634646 -0.0153189,0.00634646z"/>
    </g>
   </g>
  </g>
 </g>
</svg>
