<?xml version="1.0" encoding="UTF-8"?>
<!DOCTYPE svg PUBLIC "-//W3C//DTD SVG 1.1//EN" "http://www.w3.org/Graphics/SVG/1.1/DTD/svg11.dtd">
<!-- Creator: CorelDRAW -->
<svg xmlns="http://www.w3.org/2000/svg" xml:space="preserve" width="1.70666in" height="1.70666in" style="shape-rendering:geometricPrecision; text-rendering:geometricPrecision; image-rendering:optimizeQuality; fill-rule:evenodd; clip-rule:evenodd"
viewBox="0 0 1.70666 1.70666"
 xmlns:xlink="http://www.w3.org/1999/xlink">
 <defs>
  <style type="text/css">
   <![CDATA[
    .fil0 {fill:black}
   ]]>
  </style>
 </defs>
 <g id="Layer_x0020_1">
  <metadata id="CorelCorpID_0Corel-Layer"/>
  <g id="_488545936">
   <g>
    <g id="_488546104">
     <path id="_459965736" class="fil0" d="M0.853335 0.997272c-0.274756,0 -0.498291,-0.223528 -0.498291,-0.498283 0,-0.274756 0.223535,-0.498291 0.498291,-0.498291 0.27476,0 0.498287,0.223535 0.498287,0.498291 0,0.274756 -0.223528,0.498283 -0.498287,0.498283zm0 -0.953276c-0.250882,0 -0.454992,0.20411 -0.454992,0.454992 0,0.250882 0.20411,0.454988 0.454992,0.454988 0.250882,0 0.454992,-0.204106 0.454992,-0.454988 0,-0.250882 -0.20411,-0.454992 -0.454992,-0.454992z"/>
    </g>
    <g id="_488545744">
     <path id="_459964512" class="fil0" d="M1.2971 0.694902l-0.887539 0c-0.00889764,0 -0.0168937,-0.00544488 -0.0201496,-0.0137323 -0.0228071,-0.0580276 -0.0343661,-0.119327 -0.0343661,-0.182185 0,-0.0628583 0.011563,-0.124157 0.0343661,-0.182185 0.00325984,-0.00828346 0.011248,-0.0137323 0.0201496,-0.0137323l0.887539 0c0.00889764,0 0.0168898,0.00544488 0.0201496,0.0137323 0.0228071,0.0580315 0.0343661,0.119327 0.0343661,0.182189 0,0.0628543 -0.011563,0.12415 -0.0343661,0.182181 -0.00325591,0.0082874 -0.011252,0.0137323 -0.0201496,0.0137323zm-0.872531 -0.0432992l0.857528 0c0.0174094,-0.0488701 0.0262283,-0.100138 0.0262283,-0.152614 0,-0.0524803 -0.0088189,-0.103748 -0.0262283,-0.152618l-0.857528 -3.93701e-006c-0.0174094,0.0488701 -0.0262283,0.100138 -0.0262283,0.152618 0,0.0524803 0.00881496,0.103748 0.0262283,0.152618z"/>
    </g>
    <g id="_488545624">
     <path id="_459964416" class="fil0" d="M0.853335 0.997272c-0.0891181,0 -0.163185,-0.122906 -0.193307,-0.320764 -0.00179921,-0.0118189 0.00632283,-0.0228583 0.0181457,-0.0246575 0.0117795,-0.00179528 0.0228622,0.00632283 0.0246614,0.0181457 0.0254488,0.167201 0.0873386,0.28398 0.1505,0.28398 0.0631535,0 0.125035,-0.11678 0.150488,-0.28398 0.00179921,-0.0118189 0.0128189,-0.0199409 0.0246575,-0.0181457 0.0118228,0.00179921 0.0199449,0.0128386 0.0181457,0.0246575 -0.0301102,0.197858 -0.104177,0.320764 -0.193291,0.320764zm0.171874 -0.650902c-0.0105197,0 -0.019748,-0.00767717 -0.021378,-0.0183937 -0.0254488,-0.167205 -0.0873346,-0.283984 -0.150496,-0.283984 -0.0631575,0 -0.125039,0.11678 -0.150492,0.283984 -0.00179921,0.0118189 -0.0128465,0.0199449 -0.0246614,0.0181457 -0.0118189,-0.00180315 -0.0199409,-0.0128386 -0.0181457,-0.0246614 0.0301181,-0.197854 0.104185,-0.320768 0.193299,-0.320768 0.0891181,0 0.163189,0.122909 0.193299,0.320768 0.00179921,0.0118228 -0.00632283,0.0228622 -0.0181457,0.0246614 -0.00110236,0.000169291 -0.00220079,0.000248031 -0.00327953,0.000248031z"/>
    </g>
    <g id="_488545696">
     <path id="_459964968" class="fil0" d="M0.853335 0.997272c-0.0119567,0 -0.0216496,-0.00968898 -0.0216496,-0.0216457l0 -0.30237c0,-0.0119567 0.00969291,-0.0216496 0.0216496,-0.0216496 0.0119567,0 0.0216496,0.00969291 0.0216496,0.0216496l0 0.30237c0,0.0119567 -0.00969291,0.0216457 -0.0216496,0.0216457zm0 -0.650906c-0.0119567,0 -0.0216496,-0.00968898 -0.0216496,-0.0216496l0 -0.30237c0,-0.0119567 0.00969291,-0.0216496 0.0216496,-0.0216496 0.0119567,0 0.0216496,0.00969291 0.0216496,0.0216496l0 0.302374c0,0.0119567 -0.00969291,0.0216457 -0.0216496,0.0216457z"/>
    </g>
    <g id="_488546800">
     <path id="_459964752" class="fil0" d="M0.853335 0.82772c-0.16198,0 -0.314236,-0.0518307 -0.407276,-0.138638 -0.00874016,-0.00815748 -0.0092126,-0.0218583 -0.00105906,-0.0306024 0.00816142,-0.00873622 0.0218622,-0.00921654 0.0306024,-0.00105906 0.0852283,0.0795236 0.226437,0.126996 0.377736,0.126996 0.151311,0 0.29252,-0.0474724 0.377736,-0.126996 0.00874016,-0.00815354 0.0224409,-0.0076811 0.0305984,0.00105906 0.00815748,0.00874409 0.00768504,0.0224409 -0.00105906,0.0305984 -0.0930354,0.086811 -0.245283,0.138642 -0.40728,0.138642zm0.392504 -0.481354c-0.00529134,0 -0.0105945,-0.00192913 -0.0147677,-0.00582283 -0.0852087,-0.0795197 -0.226417,-0.126996 -0.377732,-0.126996 -0.151311,0 -0.29252,0.0474764 -0.377744,0.126996 -0.00874409,0.00815748 -0.0224409,0.00768504 -0.0305984,-0.00105512 -0.00815354,-0.00874409 -0.00768504,-0.0224449 0.00105906,-0.0305984 0.0930354,-0.086815 0.245283,-0.138638 0.407283,-0.138638 0.162004,0 0.314256,0.0518268 0.407272,0.138638 0.00874409,0.00815748 0.00921654,0.0218583 0.00105512,0.0305984 -0.00425984,0.00457087 -0.0100354,0.00687795 -0.0158268,0.00687795z"/>
    </g>
    <g id="_488545576">
     <path id="_459976080" class="fil0" d="M0.481335 0.601669c-0.000937008,0 -0.00188583,-6.29921e-005 -0.00283465,-0.000188976 -0.0086811,-0.00114173 -0.0158189,-0.00740157 -0.0180866,-0.0158622l-0.0434213 -0.162063c-0.00309449,-0.0115472 0.00375984,-0.0234213 0.015311,-0.0265157 0.0115512,-0.00309055 0.0234213,0.00375984 0.0265118,0.015311l0.0298976 0.111575 0.0370984 -0.0642559c0.00386614,-0.00670079 0.0110157,-0.0108268 0.018748,-0.0108268 0.00773228,0 0.0148819,0.00412598 0.018748,0.0108268l0.0370984 0.0642559 0.0298976 -0.111579c0.00309843,-0.0115472 0.0149685,-0.0183976 0.0265157,-0.015311 0.0115512,0.00309449 0.0184055,0.0149685 0.015311,0.0265157l-0.0434252 0.162063c-0.00226772,0.00846063 -0.00940551,0.0147205 -0.0180827,0.0158661 -0.00868898,0.00112992 -0.0171969,-0.00305906 -0.0215787,-0.0106417l-0.0444843 -0.0770472 -0.0444764 0.0770472c-0.00390551,0.00675984 -0.0110906,0.0108307 -0.018748,0.0108307z"/>
    </g>
    <g id="_488546896">
     <path id="_459976056" class="fil0" d="M0.916555 0.601669c-0.00765748,0 -0.0148386,-0.00407087 -0.0187441,-0.0108268l-0.0444764 -0.0770433 -0.0444803 0.0770433c-0.00437795,0.00758661 -0.0129134,0.0117756 -0.0215748,0.0106417 -0.0086811,-0.00114173 -0.0158228,-0.00740551 -0.0180866,-0.0158622l-0.0434213 -0.162063c-0.00309449,-0.0115472 0.00375984,-0.0234252 0.015311,-0.0265157 0.0115512,-0.00309055 0.0234213,0.00375984 0.0265118,0.015311l0.0299016 0.111575 0.0370945 -0.0642598c0.00386614,-0.00669685 0.0110157,-0.0108228 0.018748,-0.0108228l0 0c0.00773228,0 0.0148819,0.00412598 0.018752,0.0108228l0.0370945 0.0642598 0.0299016 -0.111579c0.00309449,-0.0115472 0.0149685,-0.0183976 0.0265157,-0.0153071 0.0115512,0.00309449 0.0184016,0.0149685 0.0153071,0.0265157l-0.0434291 0.162063c-0.00226378,0.00845669 -0.00940157,0.0147165 -0.0180866,0.0158583 -0.000952756,0.000125984 -0.0018937,0.000188976 -0.00283858,0.000188976z"/>
    </g>
    <g id="_488546824">
     <path id="_459976320" class="fil0" d="M1.09888 0.601669c-0.000937008,0 -0.00188189,-6.29921e-005 -0.00283465,-0.000188976 -0.00867717,-0.00114173 -0.0158189,-0.00740157 -0.0180827,-0.0158622l-0.0434252 -0.162063c-0.00309843,-0.0115472 0.00375984,-0.0234213 0.0153071,-0.0265157 0.011563,-0.00309055 0.0234252,0.00375984 0.0265157,0.015311l0.0298976 0.111575 0.0371024 -0.0642559c0.00387008,-0.00670079 0.0110157,-0.0108268 0.018748,-0.0108268 0.00773228,0 0.0148819,0.00412598 0.018748,0.0108268l0.0371024 0.0642559 0.0299016 -0.111579c0.00309055,-0.0115472 0.0149724,-0.0183976 0.0265157,-0.0153071 0.0115512,0.00309449 0.0184016,0.0149685 0.0153071,0.0265157l-0.0434291 0.162063c-0.00226378,0.00846063 -0.00940157,0.0147205 -0.0180827,0.0158622 -0.00868898,0.00112598 -0.0171969,-0.00305906 -0.0215787,-0.0106417l-0.0444803 -0.0770472 -0.0444843 0.0770472c-0.00390551,0.00675984 -0.0110906,0.0108307 -0.018748,0.0108307z"/>
    </g>
    <g id="_488546392">
     <path id="_459976152" class="fil0" d="M1.46848 1.46938l-1.23029 0c-0.0467244,0 -0.0847441,-0.0380118 -0.0847441,-0.0847362l0 -0.741339c0,-0.0467244 0.0380197,-0.0847362 0.0847441,-0.0847362l0.145406 0c0.0105433,0 0.0195551,0.00759449 0.0213386,0.0179882 0.00437402,0.0254803 0.0109646,0.0506614 0.0196417,0.0750433l0.857516 0c0.00867717,-0.0243898 0.0152717,-0.0495709 0.0196417,-0.0750433 0.00178346,-0.0103898 0.0107913,-0.0179882 0.0213346,-0.0179882l0.145409 0c0.0467244,0 0.0847362,0.0380118 0.0847362,0.0847362l0 0.741335c7.87402e-006,0.0467283 -0.0380039,0.0847402 -0.0847323,0.0847402zm-1.23029 -0.867516c-0.0228543,0 -0.0414449,0.0185945 -0.0414449,0.0414409l0 0.741335c0,0.0228465 0.0185906,0.041437 0.0414449,0.041437l1.2303 3.93701e-006c0.0228465,0 0.041437,-0.0185945 0.041437,-0.0414409l0 -0.741335c0,-0.0228504 -0.0185906,-0.041437 -0.041437,-0.041437l-0.127504 -3.93701e-006c-0.00567323,0.0270197 -0.0136299,0.053622 -0.0237244,0.0793071 -0.00325984,0.00828346 -0.011252,0.0137283 -0.0201496,0.0137283l-0.887539 0c-0.00890157,0 -0.0168937,-0.00544488 -0.0201496,-0.0137283 -0.0100945,-0.0256772 -0.0180472,-0.0522795 -0.0237283,-0.0793071l-0.1275 0z"/>
    </g>
    <g id="_488546560">
     <path id="_459975504" class="fil0" d="M1.53157 1.26827l-1.35648 0c-0.0119567,0 -0.0216496,-0.00969291 -0.0216496,-0.0216496 0,-0.0119567 0.00969291,-0.0216496 0.0216496,-0.0216496l1.35648 0c0.0119567,0 0.0216496,0.00969291 0.0216496,0.0216496 0,0.0119567 -0.00969291,0.0216496 -0.0216496,0.0216496z"/>
    </g>
    <g id="_488546872">
     <path id="_459975240" class="fil0" d="M0.893256 1.36883l-0.0798465 0c-0.0119567,0 -0.0216496,-0.00968898 -0.0216496,-0.0216457 0,-0.0119606 0.00969291,-0.0216496 0.0216496,-0.0216496l0.0798465 0c0.0119567,0 0.0216496,0.00968898 0.0216496,0.0216496 0,0.0119567 -0.00969291,0.0216457 -0.0216496,0.0216457z"/>
    </g>
    <g id="_488546416">
     <path id="_459975816" class="fil0" d="M1.02782 1.70596l-0.348976 0c-0.0119567,0 -0.0216457,-0.00969291 -0.0216457,-0.0216496l0 -0.236583c0,-0.0119567 0.00968898,-0.0216457 0.0216457,-0.0216457l0.348976 -3.93701e-006c0.0119567,0 0.0216496,0.00969291 0.0216496,0.0216496l0 0.236583c-3.93701e-006,0.0119567 -0.00969291,0.0216496 -0.0216496,0.0216496zm-0.327327 -0.0432992l0.305677 0 0 -0.193283 -0.305677 0 0 0.193283z"/>
    </g>
    <g id="_488546632">
     <path id="_459975720" class="fil0" d="M1.1229 1.70596l-0.539134 0c-0.0119567,0 -0.0216496,-0.00969291 -0.0216496,-0.0216496 0,-0.0119567 0.00969291,-0.0216496 0.0216496,-0.0216496l0.539134 0c0.0119567,0 0.0216496,0.00969291 0.0216496,0.0216496 0,0.0119567 -0.00969685,0.0216496 -0.0216496,0.0216496z"/>
    </g>
   </g>
  </g>
 </g>
</svg>
