<svg width="60" height="60" viewBox="0 0 60 60" fill="none" xmlns="http://www.w3.org/2000/svg">
<g clip-path="url(#clip0_440_8)">
<path d="M47.88 0H12.12C5.4225 0 0 5.4225 0 12.12V47.8875C0 54.5775 5.4225 60 12.12 60H47.8875C54.5775 60 60.0075 54.5775 60.0075 47.88V12.12C60 5.4225 54.5775 0 47.88 0Z" fill="url(#paint0_linear_440_8)"/>
<path d="M29.745 13.7851L30.96 11.6851C31.71 10.3726 33.3825 9.93011 34.695 10.6801C36.0075 11.4301 36.45 13.1026 35.7 14.4151L23.9925 34.6801H32.46C35.205 34.6801 36.7425 37.9051 35.55 40.1401H10.725C9.21 40.1401 7.995 38.9251 7.995 37.4101C7.995 35.8951 9.21 34.6801 10.725 34.6801H17.685L26.595 19.2376L23.8125 14.4076C23.0625 13.0951 23.505 11.4376 24.8175 10.6726C26.13 9.92261 27.7875 10.3651 28.5525 11.6776L29.745 13.7851ZM19.215 42.9526L16.59 47.5051C15.84 48.8176 14.1675 49.2601 12.855 48.5101C11.5425 47.7601 11.1 46.0876 11.85 44.7751L13.8 41.4001C16.005 40.7176 17.7975 41.2426 19.215 42.9526ZM41.82 34.6951H48.9225C50.4375 34.6951 51.6525 35.9101 51.6525 37.4251C51.6525 38.9401 50.4375 40.1551 48.9225 40.1551H44.9775L47.64 44.7751C48.39 46.0876 47.9475 47.7451 46.635 48.5101C45.3225 49.2601 43.665 48.8176 42.9 47.5051C38.415 39.7276 35.0475 33.9076 32.8125 30.0301C30.525 26.0851 32.16 22.1251 33.7725 20.7826C35.565 23.8576 38.2425 28.5001 41.82 34.6951Z" fill="white"/>
</g>
<defs>
<linearGradient id="paint0_linear_440_8" x1="30.0037" y1="0" x2="30.0037" y2="60" gradientUnits="userSpaceOnUse">
<stop stop-color="#18BFFB"/>
<stop offset="1" stop-color="#2072F3"/>
</linearGradient>
<clipPath id="clip0_440_8">
<rect width="60" height="60" fill="white"/>
</clipPath>
</defs>
</svg>
