<svg width="72" height="72" viewBox="0 0 72 72" fill="none" xmlns="http://www.w3.org/2000/svg">
<g clip-path="url(#clip0_81_5687)">
<path d="M30.2832 7.87502C28.4837 7.87502 26.9006 8.82475 25.8812 10.1471C25.0496 11.2253 24.5443 12.568 24.3805 14.0272H4.50723L4.49991 14.0342V15.8241V29.5683L4.50723 64.1248H67.4858V29.5192L67.5001 29.5122V14.0342H67.4858L47.6125 14.0269C47.45 12.5702 46.9488 11.2328 46.119 10.1539C45.1017 8.83073 43.5168 7.87476 41.717 7.87476L30.2832 7.87502ZM30.2832 11.4543H41.717C42.2366 11.4543 42.7245 11.695 43.1962 12.3073C43.4948 12.696 43.5802 13.3993 43.725 14.0272H28.2752C28.4204 13.4004 28.5047 12.6961 28.804 12.3073C29.2771 11.6934 29.7633 11.4543 30.2832 11.4543ZM8.15888 17.6205H63.8413V27.0654L42.5745 35.1539C41.5979 33.2202 39.5759 31.8611 37.2364 31.8611H34.5923C32.3155 31.8611 30.3453 33.1495 29.3399 35L8.15888 27.1072V17.6205ZM63.8413 30.9035V60.5593H8.15174V30.9313L28.6253 38.5585V40.453C28.6253 43.6598 31.3145 46.3184 34.5923 46.3184H37.2364C40.5141 46.3184 43.2105 43.6598 43.2105 40.453V38.7612L63.8413 30.9035ZM34.5923 35.4474H37.2435C38.5673 35.4474 39.4709 36.327 39.5231 37.6147L39.559 38.5095V40.453C39.559 41.7856 38.5976 42.7251 37.2365 42.7251H34.5923C33.2313 42.7251 32.2698 41.7852 32.2698 40.453V38.2928L32.3413 37.5103C32.4529 36.2806 33.3169 35.4474 34.5923 35.4474Z" fill="white"/>
</g>
<defs>
<clipPath id="clip0_81_5687">
<rect width="72" height="72" fill="white"/>
</clipPath>
</defs>
</svg>
