<svg width="72" height="72" viewBox="0 0 72 72" fill="none" xmlns="http://www.w3.org/2000/svg">
<g clip-path="url(#clip0_81_5739)">
<path d="M41.625 13.5H45C45.2168 13.4999 45.4289 13.4371 45.6108 13.3193C45.7927 13.2014 45.9368 13.0335 46.0255 12.8358C46.1143 12.638 46.1441 12.4189 46.1112 12.2046C46.0784 11.9903 45.9843 11.7901 45.8404 11.628L36.8404 1.50305C36.7322 1.38901 36.6018 1.2982 36.4573 1.23615C36.3129 1.17409 36.1573 1.14209 36 1.14209C35.8428 1.14209 35.6872 1.17409 35.5427 1.23615C35.3982 1.2982 35.2679 1.38901 35.1597 1.50305L26.1597 11.628C26.0157 11.7901 25.9217 11.9903 25.8888 12.2046C25.856 12.4189 25.8858 12.638 25.9745 12.8358C26.0633 13.0335 26.2073 13.2014 26.3892 13.3193C26.5712 13.4371 26.7833 13.4999 27 13.5H30.375V24.75H32.625V12.375C32.625 12.0767 32.5065 11.7905 32.2955 11.5796C32.0845 11.3686 31.7984 11.25 31.5 11.25H29.5054L36 3.94317L42.4947 11.25H40.5C40.2017 11.25 39.9155 11.3686 39.7045 11.5796C39.4936 11.7905 39.375 12.0767 39.375 12.375V20.25H41.625V13.5Z" fill="white"/>
<path d="M41.625 22.5H39.375V24.75H41.625V22.5Z" fill="white"/>
<path d="M2.24998 21.375H5.62498V31.5H7.87498V20.25C7.87498 19.9516 7.75645 19.6655 7.54548 19.4545C7.3345 19.2435 7.04835 19.125 6.74998 19.125H4.72498L10.125 12.9589L15.525 19.125H13.5C13.2016 19.125 12.9155 19.2435 12.7045 19.4545C12.4935 19.6655 12.375 19.9516 12.375 20.25V27H14.625V21.375H18C18.216 21.375 18.4275 21.3128 18.6092 21.1957C18.7908 21.0787 18.9349 20.9119 19.0243 20.7152C19.1136 20.5185 19.1444 20.3002 19.113 20.0864C19.0816 19.8726 18.9893 19.6724 18.8471 19.5097L10.9721 10.5097C10.8637 10.3936 10.7325 10.3009 10.5868 10.2376C10.4411 10.1743 10.2839 10.1416 10.125 10.1416C9.96608 10.1416 9.80888 10.1743 9.66315 10.2376C9.51742 10.3009 9.38627 10.3936 9.27786 10.5097L1.40286 19.5097C1.26069 19.6724 1.16837 19.8726 1.13696 20.0864C1.10554 20.3002 1.13635 20.5185 1.22569 20.7152C1.31504 20.9119 1.45914 21.0787 1.64078 21.1957C1.82242 21.3128 2.03392 21.375 2.24998 21.375Z" fill="white"/>
<path d="M14.625 29.25H12.375V31.5H14.625V29.25Z" fill="white"/>
<path d="M70.5971 19.5097L62.7221 10.5097C62.6137 10.3936 62.4825 10.3009 62.3368 10.2376C62.1911 10.1743 62.0339 10.1416 61.875 10.1416C61.7161 10.1416 61.5589 10.1743 61.4132 10.2376C61.2674 10.3009 61.1363 10.3936 61.0279 10.5097L53.1529 19.5097C53.0107 19.6724 52.9184 19.8726 52.887 20.0864C52.8555 20.3002 52.8863 20.5185 52.9757 20.7152C53.065 20.9119 53.2091 21.0787 53.3908 21.1957C53.5724 21.3128 53.7839 21.375 54 21.375H57.375V31.5H59.625V20.25C59.625 19.9516 59.5065 19.6655 59.2955 19.4545C59.0845 19.2435 58.7983 19.125 58.5 19.125H56.475L61.875 12.9589L67.275 19.125H65.25C64.9516 19.125 64.6655 19.2435 64.4545 19.4545C64.2435 19.6655 64.125 19.9516 64.125 20.25V27H66.375V21.375H69.75C69.966 21.375 70.1775 21.3128 70.3592 21.1957C70.5408 21.0787 70.6849 20.9119 70.7743 20.7152C70.8636 20.5185 70.8944 20.3002 70.863 20.0864C70.8316 19.8726 70.7393 19.6724 70.5971 19.5097Z" fill="white"/>
<path d="M66.375 29.25H64.125V31.5H66.375V29.25Z" fill="white"/>
<path d="M36 28.125C31.7724 28.125 27.6398 29.3786 24.1247 31.7273C20.6096 34.0761 17.8699 37.4144 16.2521 41.3201C14.6343 45.2259 14.211 49.5237 15.0357 53.6701C15.8605 57.8164 17.8963 61.6251 20.8856 64.6144C23.875 67.6038 27.6836 69.6395 31.83 70.4643C35.9763 71.289 40.2741 70.8657 44.1799 69.2479C48.0856 67.6301 51.424 64.8904 53.7727 61.3753C56.1214 57.8602 57.375 53.7276 57.375 49.5C57.3688 43.8329 55.1147 38.3997 51.1075 34.3925C47.1003 30.3853 41.6671 28.1313 36 28.125ZM42.5835 59.6318C42.3969 59.7253 42.2399 59.8689 42.1303 60.0465C42.0206 60.2241 41.9625 60.4288 41.9625 60.6375V67.6609C38.0914 68.9464 33.9086 68.9464 30.0375 67.6609V61.65C30.0375 61.4408 29.9792 61.2358 29.8691 61.0579C29.759 60.8801 29.6015 60.7364 29.4143 60.6431L28.7269 60.3056C27.901 59.8963 27.2064 59.2635 26.7222 58.4792C26.2379 57.6948 25.9834 56.7904 25.9875 55.8686V51.3551C26.6447 51.6305 27.3683 51.7067 28.0684 51.5741C28.7685 51.4414 29.4141 51.1059 29.925 50.6093C30.3088 50.9816 30.7699 51.2649 31.2755 51.439C31.7812 51.613 32.319 51.6736 32.8506 51.6164C33.3823 51.5591 33.8949 51.3855 34.3519 51.1078C34.8089 50.8301 35.1991 50.4552 35.4949 50.0096C36.0937 50.4116 36.7987 50.6258 37.5199 50.625H40.95V51.4924C38.9458 51.6672 37.0875 52.6123 35.7657 54.129C34.4439 55.6456 33.7617 57.6157 33.8625 59.625H36.1125C36.1125 53.8706 41.4686 53.6625 42.075 53.6625C42.3734 53.6625 42.6595 53.544 42.8705 53.333C43.0815 53.122 43.2 52.8359 43.2 52.5375V49.5C43.2 49.2016 43.0815 48.9155 42.8705 48.7045C42.6595 48.4935 42.3734 48.375 42.075 48.375H37.5188C37.1458 48.375 36.7881 48.2268 36.5244 47.9631C36.2607 47.6994 36.1125 47.3417 36.1125 46.9688C36.1125 46.5958 36.2607 46.2381 36.5244 45.9744C36.7881 45.7107 37.1458 45.5625 37.5188 45.5625H42.075C43.1193 45.5625 44.1208 45.9773 44.8592 46.7158C45.5977 47.4542 46.0125 48.4557 46.0125 49.5V54.8561C46.0156 55.7771 45.7604 56.6805 45.276 57.4638C44.7916 58.247 44.0974 58.8789 43.272 59.2875L42.5835 59.6318ZM25.9875 47.9813V41.9062C25.9878 41.5332 26.1362 41.1755 26.4001 40.9118C26.664 40.6481 27.0218 40.5 27.3949 40.5C27.4441 40.4998 27.4933 40.5024 27.5423 40.5079C27.9041 40.5669 28.2319 40.7564 28.4636 41.0406C28.6953 41.3247 28.815 41.6839 28.8 42.0502V47.9813C28.8 48.3542 28.6519 48.7119 28.3881 48.9756C28.1244 49.2393 27.7667 49.3875 27.3938 49.3875C27.0208 49.3875 26.6631 49.2393 26.3994 48.9756C26.1357 48.7119 25.9875 48.3542 25.9875 47.9813ZM31.05 47.9813V37.8563C31.05 37.4833 31.1982 37.1256 31.4619 36.8619C31.7256 36.5982 32.0833 36.45 32.4563 36.45C32.8292 36.45 33.1869 36.5982 33.4506 36.8619C33.7143 37.1256 33.8625 37.4833 33.8625 37.8563V47.9813C33.8625 48.3542 33.7143 48.7119 33.4506 48.9756C33.1869 49.2393 32.8292 49.3875 32.4563 49.3875C32.0833 49.3875 31.7256 49.2393 31.4619 48.9756C31.1982 48.7119 31.05 48.3542 31.05 47.9813ZM36.1125 43.5938V37.8563C36.1125 37.4833 36.2607 37.1256 36.5244 36.8619C36.7881 36.5982 37.1458 36.45 37.5188 36.45C37.8917 36.45 38.2494 36.5982 38.5131 36.8619C38.7768 37.1256 38.925 37.4833 38.925 37.8563V43.3125H37.5188C37.0363 43.3115 36.5583 43.4059 36.1125 43.5904V43.5938ZM41.175 43.3159V40.8937C41.175 40.5208 41.3232 40.1631 41.5869 39.8994C41.8506 39.6357 42.2083 39.4875 42.5813 39.4875C42.9542 39.4875 43.3119 39.6357 43.5756 39.8994C43.8393 40.1631 43.9875 40.5208 43.9875 40.8937V43.6185C43.3702 43.4161 42.7247 43.3128 42.075 43.3125L41.175 43.3159ZM44.2125 66.7496V61.3328L44.2789 61.299C45.4786 60.7046 46.4878 59.7859 47.1919 58.6471C47.896 57.5083 48.2669 56.195 48.2625 54.8561V49.5C48.262 48.6399 48.0815 47.7894 47.7328 47.0032C47.3841 46.217 46.8747 45.5124 46.2375 44.9348V40.8937C46.238 40.2887 46.0882 39.693 45.8016 39.1601C45.515 38.6273 45.1005 38.174 44.5953 37.8409C44.0902 37.5079 43.5102 37.3055 42.9075 37.252C42.3048 37.1985 41.6983 37.2956 41.1424 37.5345C41.0856 36.848 40.8348 36.1918 40.4192 35.6424C40.0037 35.0929 39.4406 34.6729 38.7955 34.4313C38.1504 34.1897 37.4499 34.1365 36.7757 34.2778C36.1015 34.4191 35.4813 34.7491 34.9875 35.2294C34.4726 34.7296 33.8217 34.3928 33.1164 34.2612C32.411 34.1295 31.6824 34.2089 31.022 34.4893C30.3615 34.7697 29.7983 35.2387 29.4031 35.8376C29.0079 36.4365 28.7981 37.1387 28.8 37.8563V38.5571C28.4731 38.4072 28.1246 38.31 27.7673 38.2691C27.2583 38.2167 26.7439 38.2717 26.2575 38.4306C25.7711 38.5895 25.3235 38.8488 24.9436 39.1916C24.5638 39.5345 24.2601 39.9533 24.0524 40.4209C23.8446 40.8885 23.7373 41.3945 23.7375 41.9062V55.8686C23.7329 57.2078 24.1038 58.5215 24.8081 59.6606C25.5125 60.7996 26.5221 61.7184 27.7223 62.3126L27.7875 62.3452V66.7463C23.8673 64.8823 20.6979 61.7402 18.8 57.8363C16.902 53.9325 16.3886 49.4991 17.344 45.2648C18.2994 41.0305 20.6669 37.2472 24.0572 34.5366C27.4476 31.8259 31.6593 30.3493 36 30.3493C40.3408 30.3493 44.5524 31.8259 47.9428 34.5366C51.3332 37.2472 53.7006 41.0305 54.656 45.2648C55.6114 49.4991 55.098 53.9325 53.2001 57.8363C51.3022 61.7402 48.1327 64.8823 44.2125 66.7463V66.7496Z" fill="white"/>
<path d="M62.8425 53.5072L59.6047 58.1062L61.4441 59.4L64.0316 55.7201L65.8721 57.015C66.1161 57.1861 66.4181 57.2535 66.7117 57.2022C67.0053 57.151 67.2665 56.9853 67.4381 56.7416L70.6759 52.1426L68.8399 50.85L66.2524 54.5299L64.4119 53.235C64.291 53.1496 64.1545 53.089 64.0102 53.0565C63.8658 53.024 63.7165 53.0203 63.5707 53.0455C63.4249 53.0708 63.2856 53.1246 63.1606 53.2039C63.0356 53.2831 62.9275 53.3862 62.8425 53.5072Z" fill="white"/>
<path d="M6.12449 57.0161L7.96499 55.7212L10.5525 59.4011L12.3919 58.1062L9.15749 53.5072C8.9859 53.2632 8.72442 53.0973 8.43053 53.046C8.13665 52.9948 7.83444 53.0623 7.59036 53.2339L5.74986 54.5287L3.16011 50.85L1.32074 52.1437L4.55849 56.7427C4.73006 56.9864 4.99133 57.1521 5.28494 57.2034C5.57855 57.2546 5.88049 57.1873 6.12449 57.0161Z" fill="white"/>
</g>
<defs>
<clipPath id="clip0_81_5739">
<rect width="72" height="72" fill="white"/>
</clipPath>
</defs>
</svg>
