<svg width="72" height="72" viewBox="0 0 72 72" fill="none" xmlns="http://www.w3.org/2000/svg">
<g clip-path="url(#clip0_81_5799)">
<path d="M32.3192 6.28434C32.3192 5.68895 31.8373 5.20703 31.2419 5.20703H9.69578C9.10038 5.20703 8.61847 5.68895 8.61847 6.28434V51.6662C8.61847 58.1258 13.8736 63.3816 20.3331 63.3816H20.5873C27.0562 63.3816 32.3192 58.1193 32.3192 51.6504V6.28434ZM10.7731 20.2893H30.1646V40.399H10.7731V20.2893ZM30.1646 7.36164V18.1347H10.7731V7.36164H30.1646ZM20.5881 61.227H20.3338C15.0615 61.227 10.7731 56.9379 10.7731 51.6662V42.5537H30.1646V51.6504C30.1646 56.9314 25.8683 61.227 20.5881 61.227Z" fill="white"/>
<path d="M36.1717 50.0043C36.3814 50.2112 36.6543 50.3146 36.9279 50.3146C37.2066 50.3146 37.4838 50.2076 37.695 49.9943L59.4228 27.9655C59.8358 27.5461 59.8358 26.8724 59.4228 26.4529L44.7398 11.5653C44.3348 11.1545 43.6108 11.1552 43.205 11.5653L36.1609 18.7078C35.7429 19.1316 35.7479 19.8139 36.1717 20.2311C36.594 20.6484 37.277 20.6441 37.6957 20.2204L43.9728 13.8556L57.1432 27.2078L36.1609 48.4803C35.7429 48.904 35.7479 49.5863 36.1717 50.0043Z" fill="white"/>
<path d="M64.9975 41.1173H49.9152C49.3206 41.1173 48.8379 41.5999 48.8379 42.1946C48.8379 42.7893 49.3206 43.2719 49.9152 43.2719H63.9202V62.6634H31.9601C31.3647 62.6634 30.8828 63.1461 30.8828 63.7408C30.8828 64.3354 31.3647 64.8181 31.9601 64.8181H64.9975C65.5922 64.8181 66.0748 64.3354 66.0748 63.7408V42.1946C66.0748 41.5999 65.5922 41.1173 64.9975 41.1173Z" fill="white"/>
<path d="M20.4689 48.2993C18.2905 48.2993 16.5187 50.0718 16.5187 52.2494C16.5187 54.427 18.2905 56.1996 20.4689 56.1996C22.6472 56.1996 24.419 54.427 24.419 52.2494C24.419 50.0718 22.6472 48.2993 20.4689 48.2993ZM20.4689 54.045C19.4792 54.045 18.6734 53.2398 18.6734 52.2494C18.6734 51.259 19.4792 50.4539 20.4689 50.4539C21.4585 50.4539 22.2644 51.259 22.2644 52.2494C22.2644 53.2398 21.4585 54.045 20.4689 54.045Z" fill="white"/>
</g>
<defs>
<clipPath id="clip0_81_5799">
<rect width="72" height="72" fill="white"/>
</clipPath>
</defs>
</svg>
