<svg width="72" height="72" viewBox="0 0 72 72" fill="none" xmlns="http://www.w3.org/2000/svg">
<g clip-path="url(#clip0_81_5855)">
<g clip-path="url(#clip1_81_5855)">
<path fill-rule="evenodd" clip-rule="evenodd" d="M64.9688 56.6719H59.2031C58.6406 56.6719 58.2188 56.25 58.2188 55.6875C58.2188 55.125 58.6406 54.7031 59.2031 54.7031H64.9688C67.6406 54.7031 69.75 52.5938 69.75 50.0625V24.1875C69.75 21.6562 67.6406 19.5469 64.9688 19.5469H7.03125C4.35938 19.5469 2.25 21.6562 2.25 24.1875V50.0625C2.25 52.5938 4.35938 54.7031 7.03125 54.7031H12.6562C13.2188 54.7031 13.6406 55.125 13.6406 55.6875C13.6406 56.25 13.2188 56.6719 12.6562 56.6719H7.03125C3.375 56.6719 0.28125 53.7188 0.28125 50.0625V24.1875C0.28125 20.5312 3.375 17.5781 7.03125 17.5781H64.9688C68.7656 17.5781 71.7188 20.5312 71.7188 24.1875V50.0625C71.7188 53.7188 68.625 56.6719 64.9688 56.6719Z" fill="white"/>
<path fill-rule="evenodd" clip-rule="evenodd" d="M59.2031 72H12.7969C12.2344 72 11.8125 71.5781 11.8125 71.0156V35.8594C11.8125 35.2969 12.2344 34.875 12.7969 34.875H59.2031C59.7656 34.875 60.1875 35.2969 60.1875 35.8594V71.0156C60.1875 71.5781 59.7656 72 59.2031 72ZM13.7812 70.0312H58.2188V36.8438H13.7812V70.0312Z" fill="white"/>
<path fill-rule="evenodd" clip-rule="evenodd" d="M59.2031 19.5469C58.6406 19.5469 58.2188 19.125 58.2188 18.5625V1.96875H13.7812V18.5625C13.7812 19.125 13.3594 19.5469 12.7969 19.5469C12.2344 19.5469 11.8125 19.125 11.8125 18.5625V0.984375C11.8125 0.421875 12.2344 0 12.7969 0H59.2031C59.7656 0 60.1875 0.421875 60.1875 0.984375V18.5625C60.1875 19.125 59.7656 19.5469 59.2031 19.5469Z" fill="white"/>
<path fill-rule="evenodd" clip-rule="evenodd" d="M50.625 44.5781H21.375C20.8125 44.5781 20.3906 44.1562 20.3906 43.5938C20.3906 43.0312 20.8125 42.6094 21.375 42.6094H50.625C51.1875 42.6094 51.6094 43.0312 51.6094 43.5938C51.6094 44.1562 51.1875 44.5781 50.625 44.5781Z" fill="white"/>
<path fill-rule="evenodd" clip-rule="evenodd" d="M50.625 54.4219H21.375C20.8125 54.4219 20.3906 54 20.3906 53.4375C20.3906 52.875 20.8125 52.4531 21.375 52.4531H50.625C51.1875 52.4531 51.6094 52.875 51.6094 53.4375C51.6094 54 51.1875 54.4219 50.625 54.4219Z" fill="white"/>
<path fill-rule="evenodd" clip-rule="evenodd" d="M45.4219 64.4062H26.5781C26.0156 64.4062 25.5938 63.9844 25.5938 63.4219C25.5938 62.8594 26.0156 62.4375 26.5781 62.4375H45.4219C45.9844 62.4375 46.4062 62.8594 46.4062 63.4219C46.4062 63.9844 45.9844 64.4062 45.4219 64.4062Z" fill="white"/>
<path fill-rule="evenodd" clip-rule="evenodd" d="M17.0156 28.2656H11.25C10.6875 28.2656 10.2656 27.8438 10.2656 27.2812C10.2656 26.7188 10.6875 26.2969 11.25 26.2969H17.0156C17.5781 26.2969 18 26.7188 18 27.2812C18 27.8438 17.5781 28.2656 17.0156 28.2656Z" fill="white"/>
<path fill-rule="evenodd" clip-rule="evenodd" d="M59.2031 30.7969C57.2344 30.7969 55.6875 29.25 55.6875 27.2812C55.6875 25.1719 57.2344 23.625 59.2031 23.625C61.3125 23.625 62.8594 25.1719 62.8594 27.2812C62.8594 29.25 61.3125 30.7969 59.2031 30.7969ZM59.2031 25.5938C58.3594 25.5938 57.6562 26.2969 57.6562 27.2812C57.6562 28.125 58.3594 28.8281 59.2031 28.8281C60.1875 28.8281 60.8906 28.125 60.8906 27.2812C60.8906 26.2969 60.1875 25.5938 59.2031 25.5938Z" fill="white"/>
<path fill-rule="evenodd" clip-rule="evenodd" d="M49.0781 30.7969C47.1094 30.7969 45.4219 29.25 45.4219 27.2812C45.4219 25.3125 47.1094 23.625 49.0781 23.625C51.0469 23.625 52.7344 25.3125 52.7344 27.2812C52.7344 29.25 51.0469 30.7969 49.0781 30.7969ZM49.0781 25.5938C48.2344 25.5938 47.3906 26.2969 47.3906 27.2812C47.3906 28.125 48.2344 28.8281 49.0781 28.8281C49.9219 28.8281 50.7656 28.125 50.7656 27.2812C50.7656 26.2969 49.9219 25.5938 49.0781 25.5938Z" fill="white"/>
</g>
</g>
<defs>
<clipPath id="clip0_81_5855">
<rect width="72" height="72" fill="white"/>
</clipPath>
<clipPath id="clip1_81_5855">
<rect width="72" height="72" fill="white"/>
</clipPath>
</defs>
</svg>
