<svg width="72" height="72" viewBox="0 0 72 72" fill="none" xmlns="http://www.w3.org/2000/svg">
<g clip-path="url(#clip0_81_5893)">
<g clip-path="url(#clip1_81_5893)">
<mask id="mask0_81_5893" style="mask-type:luminance" maskUnits="userSpaceOnUse" x="0" y="0" width="72" height="72">
<path d="M72 0H0V72H72V0Z" fill="white"/>
</mask>
<g mask="url(#mask0_81_5893)">
<path d="M71.4465 31.65L63.6 18.069C63.3048 17.5566 62.9115 17.1075 62.4424 16.7472C61.9735 16.3869 61.4382 16.1226 60.867 15.9693C60.2958 15.816 59.7 15.7768 59.1138 15.8541C58.5274 15.9312 57.9621 16.1232 57.45 16.419L56.2185 17.1285C55.5993 17.4876 55.075 17.9896 54.6892 18.5926C54.3036 19.1958 54.0678 19.8823 54.0015 20.595L51.339 19.53C49.6804 18.8656 47.9101 18.525 46.1235 18.5265H41.1735C39.0486 18.5334 36.9532 19.0237 35.046 19.9605L26.538 18.9C24.4012 18.6333 22.2318 18.8616 20.1975 19.5675L17.9475 20.355C17.8507 19.6882 17.6049 19.0521 17.2279 18.4936C16.8511 17.9352 16.3531 17.4691 15.771 17.13L14.55 16.4205C14.0379 16.1247 13.4726 15.9327 12.8862 15.8556C12.2999 15.7783 11.7042 15.8175 11.133 15.9708C10.5618 16.1241 10.0265 16.3884 9.55751 16.7487C9.08856 17.109 8.69522 17.5581 8.39999 18.0705L0.553488 31.65C0.257684 32.1621 0.0657106 32.7274 -0.0114536 33.3138C-0.0886176 33.9 -0.04946 34.4958 0.103781 35.067C0.257021 35.6382 0.52134 36.1735 0.881622 36.6424C1.24191 37.1115 1.69109 37.5048 2.20349 37.8L3.43349 38.511C4.11494 38.9041 4.8878 39.111 5.67449 39.111C6.14964 39.1027 6.62048 39.0192 7.06949 38.8635L10.707 43.68C10.4693 44.3764 10.4011 45.1195 10.5079 45.8476C10.6147 46.5759 10.8936 47.268 11.3213 47.8668C11.749 48.4657 12.3133 48.954 12.9674 49.2912C13.6215 49.6284 14.3466 49.8049 15.0825 49.806C15.1575 49.806 15.2325 49.806 15.3105 49.797C15.4492 50.9134 15.9918 51.9406 16.8357 52.6848C17.6794 53.4288 18.7665 53.8384 19.8915 53.8365C19.9665 53.8365 20.0415 53.811 20.1165 53.808C20.2495 54.9285 20.7895 55.9609 21.6337 56.7094C22.4779 57.4581 23.5677 57.8704 24.696 57.8685C24.771 57.8685 24.846 57.8535 24.9195 57.8505C25.057 58.9678 25.5985 59.9964 26.4417 60.7423C27.2848 61.4883 28.3717 61.9002 29.4975 61.9005C29.634 61.9005 29.772 61.9005 29.91 61.881C30.5172 61.8303 31.1083 61.6596 31.6491 61.3786C32.1898 61.0977 32.6694 60.7122 33.06 60.2445L34.926 58.02L36.504 59.4615C37.1109 60.0238 37.8579 60.4125 38.6667 60.5868C39.4755 60.7612 40.3162 60.7147 41.1009 60.4525C41.8855 60.1902 42.5853 59.7217 43.1266 59.0961C43.668 58.4704 44.0311 57.7107 44.178 56.8965C44.407 56.9346 44.6388 56.9557 44.871 56.9595C45.8577 56.965 46.8198 56.6524 47.6146 56.0679C48.4096 55.4835 48.9949 54.6583 49.284 53.715C49.818 53.9209 50.3856 54.0262 50.958 54.0255C51.0285 54.0255 51.1005 54.0255 51.171 54.0255C51.7794 53.9982 52.3765 53.8512 52.9281 53.593C53.4798 53.3349 53.9751 52.9705 54.3858 52.5208C54.7966 52.0713 55.1148 51.5451 55.3222 50.9724C55.5295 50.3998 55.6221 49.7919 55.5945 49.1835C55.5658 48.7218 55.4688 48.2667 55.3065 47.8335C56.167 47.5467 56.9209 47.0065 57.4692 46.2838C58.0173 45.5611 58.3342 44.6895 58.3785 43.7835L63.1455 37.7835C63.8449 38.485 64.7565 38.9362 65.7385 39.067C66.7206 39.1977 67.7184 39.0007 68.577 38.5065L69.807 37.7955C70.3194 37.5003 70.7686 37.107 71.1288 36.6379C71.4891 36.169 71.7534 35.6337 71.9067 35.0625C72.06 34.4913 72.0991 33.8955 72.0219 33.3093C71.9448 32.7229 71.7528 32.1576 71.457 31.6455L71.4465 31.65ZM6.97949 35.364C6.78057 35.7085 6.45294 35.9599 6.06869 36.0628C5.68443 36.1657 5.27501 36.1119 4.93049 35.913L3.70049 35.2035C3.52919 35.1051 3.37899 34.9738 3.25854 34.8174C3.13809 34.6608 3.04976 34.482 2.99861 34.2912C2.94746 34.1004 2.9345 33.9013 2.96048 33.7054C2.98646 33.5097 3.05087 33.3208 3.14999 33.15L10.9935 19.563C11.0924 19.3918 11.2241 19.2418 11.3811 19.1217C11.5382 19.0015 11.7174 18.9138 11.9085 18.8631C12.0996 18.8125 12.2989 18.8002 12.4948 18.8268C12.6907 18.8535 12.8793 18.9186 13.05 19.0185L14.2815 19.7295C14.626 19.9284 14.8774 20.256 14.9803 20.6403C15.0832 21.0246 15.0294 21.4339 14.8305 21.7785L6.97949 35.364ZM14.0295 46.4265C13.865 46.2885 13.7293 46.1193 13.6301 45.9288C13.531 45.7383 13.4703 45.5301 13.4517 45.3162C13.433 45.1021 13.4567 44.8866 13.5213 44.6818C13.586 44.4771 13.6904 44.2869 13.8285 44.1225L17.337 39.9405C17.4727 39.7693 17.6413 39.6271 17.833 39.5223C18.0246 39.4174 18.2353 39.352 18.4527 39.3298C18.67 39.3078 18.8895 39.3295 19.0983 39.3936C19.3071 39.4578 19.501 39.5632 19.6684 39.7035C19.8358 39.8439 19.9734 40.0164 20.073 40.2108C20.1726 40.4052 20.2323 40.6176 20.2485 40.8354C20.2647 41.0532 20.2371 41.272 20.1672 41.479C20.0974 41.686 19.9869 41.877 19.842 42.0405L16.3365 46.221C16.1983 46.3857 16.0293 46.5216 15.8386 46.6209C15.648 46.7202 15.4398 46.7809 15.2257 46.7997C15.0115 46.8186 14.7959 46.795 14.5909 46.7304C14.3859 46.6659 14.1957 46.5616 14.031 46.4235L14.0295 46.4265ZM18.8295 50.457C18.6646 50.3191 18.5287 50.1502 18.4293 49.9597C18.3298 49.7692 18.2691 49.561 18.2502 49.347C18.2314 49.1329 18.255 48.9174 18.3196 48.7125C18.3843 48.5076 18.4887 48.3175 18.627 48.153L23.136 42.78C23.4171 42.4503 23.8167 42.2445 24.2482 42.2068C24.6799 42.1692 25.1091 42.3028 25.443 42.579C25.7748 42.858 25.9824 43.2573 26.0203 43.6891C26.0583 44.121 25.9236 44.5503 25.6455 44.883L21.15 50.25C21.012 50.4154 20.8428 50.5521 20.652 50.6521C20.4612 50.7522 20.2525 50.8135 20.0379 50.8327C19.8234 50.8519 19.6071 50.8287 19.4016 50.7642C19.1959 50.6997 19.0051 50.5953 18.84 50.457H18.8295ZM23.6295 54.4905C23.2975 54.2112 23.0899 53.8117 23.052 53.3796C23.014 52.9474 23.1489 52.5178 23.427 52.185L26.9325 48.009C27.0694 47.8441 27.2379 47.7081 27.4279 47.6089C27.618 47.5098 27.8259 47.4495 28.0395 47.4315C28.089 47.4315 28.1385 47.4315 28.1895 47.4315C28.5009 47.4318 28.8057 47.5209 29.0682 47.6883C29.3305 47.8557 29.5399 48.0946 29.6713 48.3768C29.8029 48.6591 29.8512 48.9729 29.8105 49.2816C29.7699 49.5903 29.6421 49.881 29.442 50.1195L25.95 54.288C25.6707 54.6195 25.2715 54.8268 24.8398 54.8647C24.408 54.9027 23.9788 54.7681 23.646 54.4905H23.6295ZM30.75 58.32C30.6126 58.4853 30.4437 58.6216 30.2532 58.7211C30.0627 58.8205 29.8542 58.881 29.64 58.899C29.2057 58.9365 28.7743 58.8006 28.44 58.521C28.2753 58.3833 28.1392 58.2144 28.0399 58.024C27.9405 57.8337 27.8797 57.6256 27.8608 57.4117C27.8421 57.1978 27.8656 56.9824 27.9303 56.7775C27.9949 56.5728 28.0993 56.3829 28.2375 56.2185L30.75 53.25C30.8874 53.0847 31.0563 52.9483 31.2468 52.8489C31.4374 52.7496 31.6458 52.689 31.86 52.671C31.9095 52.671 31.9575 52.671 32.01 52.671C32.3214 52.6708 32.6262 52.7596 32.8888 52.9269C33.1513 53.0941 33.3607 53.3329 33.4923 53.6151C33.6238 53.8972 33.6721 54.2112 33.6315 54.5199C33.5907 54.8284 33.4627 55.1191 33.2625 55.3575L30.75 58.32ZM54.9735 44.577C54.8292 44.7364 54.6547 44.8656 54.46 44.9568C54.2652 45.0478 54.0543 45.0993 53.8395 45.108C53.4459 45.1299 53.0587 45 52.758 44.745L48.687 40.95L48.6195 40.887C48.3289 40.6153 47.9422 40.4701 47.5446 40.4835C47.1469 40.4968 46.7709 40.6677 46.4992 40.9582C46.2276 41.2488 46.0824 41.6355 46.0957 42.0331C46.1091 42.4308 46.2799 42.8068 46.5705 43.0785L52.062 48.1935C52.3032 48.4111 52.4742 48.6958 52.5531 49.011C52.632 49.3263 52.6153 49.6578 52.5051 49.9635C52.3948 50.2692 52.1962 50.5351 51.9343 50.7274C51.6724 50.9197 51.3591 51.0298 51.0345 51.0435C50.8215 51.0576 50.608 51.0279 50.407 50.9562C50.206 50.8845 50.0218 50.7723 49.866 50.6265L44.4315 45.5625L44.3955 45.5295C44.1051 45.2575 43.7185 45.1122 43.3209 45.1252C42.9232 45.1383 42.5472 45.3088 42.2752 45.5992C42.0033 45.8896 41.8579 46.2762 41.871 46.6738C41.884 47.0715 42.0546 47.4475 42.345 47.7195L45.9795 51.1395C46.2669 51.4387 46.4296 51.8361 46.4349 52.251C46.4403 52.6659 46.2876 53.0673 46.008 53.3737C45.7284 53.6803 45.3426 53.869 44.929 53.9017C44.5155 53.9344 44.1048 53.8087 43.7805 53.55L40.161 50.145C40.0177 50.0097 39.8493 49.9039 39.6652 49.8336C39.4812 49.7634 39.285 49.7301 39.088 49.7358C38.8911 49.7413 38.6971 49.7856 38.5173 49.8661C38.3376 49.9467 38.1753 50.0617 38.04 50.205C37.9047 50.3482 37.7989 50.5167 37.7286 50.7007C37.6584 50.8848 37.6251 51.081 37.6308 51.2779C37.6363 51.4749 37.6806 51.6688 37.7611 51.8487C37.8417 52.0285 37.9567 52.1907 38.1 52.326L40.7355 54.831C41.056 55.1257 41.2471 55.5351 41.2671 55.9701C41.287 56.4049 41.1342 56.8302 40.842 57.153C40.6977 57.3121 40.5232 57.4413 40.3288 57.5326C40.1343 57.624 39.9237 57.6759 39.709 57.6855C39.4944 57.6949 39.2799 57.6618 39.0781 57.5878C38.8764 57.514 38.6913 57.4008 38.5335 57.255L36.4905 55.3905C36.7092 54.553 36.6841 53.6706 36.4185 52.8468C36.1527 52.023 35.6574 51.2923 34.9905 50.7405C34.3602 50.2147 33.6001 49.8682 32.79 49.737C32.8459 49.3788 32.8605 49.0155 32.8335 48.654C32.7481 47.6326 32.3233 46.6693 31.6269 45.9174C30.9304 45.1654 30.0024 44.6682 28.9905 44.505C29.0464 44.1478 29.061 43.7854 29.034 43.425C28.9732 42.7276 28.7548 42.0532 28.3953 41.4528C28.0357 40.8522 27.5443 40.3413 26.9584 39.9583C26.3724 39.5755 25.7071 39.3309 25.0126 39.2427C24.3183 39.1546 23.613 39.2256 22.95 39.45C22.6834 38.677 22.2159 37.9888 21.5953 37.4565C20.9748 36.9241 20.2237 36.5665 19.4191 36.4207C18.6145 36.2748 17.7858 36.3459 17.0178 36.6265C16.2498 36.9072 15.5704 37.3872 15.0495 38.0175L12.4845 41.064L9.44999 37.041C9.49049 36.9765 9.54749 36.93 9.58649 36.864L17.1 23.832L21.1815 22.4025C22.7809 21.8461 24.4872 21.666 26.1675 21.876L30.867 22.4625L27.0105 24.885C25.7893 25.6533 24.9 26.851 24.5178 28.2423C24.1356 29.6335 24.2881 31.1175 24.9453 32.4019C25.6026 33.6862 26.7169 34.678 28.0689 35.1819C29.4208 35.6857 30.9124 35.665 32.25 35.124L41.985 31.1715L54.8715 42.2715C55.1901 42.5637 55.3803 42.9702 55.4005 43.402C55.4208 43.8339 55.2694 44.2563 54.9795 44.577H54.9735ZM57.2115 40.413C57.102 40.2754 56.9844 40.1448 56.859 40.0215L43.245 28.3005C43.036 28.1206 42.7816 28.0018 42.5095 27.9571C42.2376 27.9124 41.9584 27.9435 41.703 28.047L31.125 32.3445C30.4821 32.6068 29.7642 32.6185 29.1132 32.3772C28.4622 32.136 27.9253 31.6591 27.6087 31.0413C27.292 30.4233 27.2188 29.7091 27.4032 29.0397C27.5877 28.3704 28.0165 27.7945 28.605 27.426L35.3055 23.226C37.0654 22.1212 39.1014 21.5352 41.1795 21.5355H46.1295C47.5348 21.5344 48.9273 21.8023 50.232 22.3245L55.161 24.297L61.419 35.136L57.2115 40.413ZM69 34.293C68.9496 34.4835 68.8618 34.6621 68.7418 34.8184C68.6218 34.9747 68.472 35.1055 68.301 35.2035L67.071 35.913C66.7264 36.1119 66.3171 36.1657 65.9328 36.0628C65.5485 35.9599 65.2209 35.7085 65.022 35.364L57.177 21.7785C56.9781 21.4339 56.9242 21.0246 57.0271 20.6403C57.13 20.256 57.3814 19.9284 57.726 19.7295L58.9575 19.0185C59.1852 18.8859 59.4439 18.816 59.7075 18.816C59.8396 18.8164 59.9713 18.8341 60.099 18.8685C60.2892 18.919 60.4675 19.0069 60.6235 19.1269C60.7795 19.2469 60.9102 19.3966 61.008 19.5675L68.85 33.15C68.9497 33.321 69.0142 33.5101 69.04 33.7063C69.0658 33.9027 69.0522 34.102 69 34.293Z" fill="white"/>
</g>
</g>
</g>
<defs>
<clipPath id="clip0_81_5893">
<rect width="72" height="72" fill="white"/>
</clipPath>
<clipPath id="clip1_81_5893">
<rect width="72" height="72" fill="white"/>
</clipPath>
</defs>
</svg>
