<svg width="80" height="79" viewBox="0 0 80 79" fill="none" xmlns="http://www.w3.org/2000/svg">
<rect width="80" height="79" fill="white"/>
<path d="M74.6112 13.6856C74.5985 13.6486 74.5892 13.6116 74.5719 13.5757C74.5164 13.4566 74.447 13.3445 74.351 13.2485L74.3476 13.2439L66.2561 5.15244C66.2561 5.15244 66.2527 5.15012 66.2503 5.14781C66.1532 5.05184 66.0399 4.98131 65.9208 4.92581C65.8884 4.91078 65.8549 4.90269 65.8214 4.88997C65.7173 4.85297 65.6109 4.831 65.5011 4.82522C65.478 4.82406 65.4595 4.8125 65.4375 4.8125H11.0938C7.90597 4.8125 5.3125 7.40597 5.3125 10.5938V68.4062C5.3125 71.594 7.90597 74.1875 11.0938 74.1875H68.9062C72.094 74.1875 74.6875 71.594 74.6875 68.4062V14.0625C74.6875 14.0371 74.6748 14.0162 74.6736 13.9908C74.6667 13.8856 74.6459 13.785 74.6112 13.6856ZM70.7401 12.9062H66.5938V8.75994L70.7401 12.9062ZM72.375 68.4062C72.375 70.3187 70.8187 71.875 68.9062 71.875H11.0938C9.18131 71.875 7.625 70.3187 7.625 68.4062V10.5938C7.625 8.68131 9.18131 7.125 11.0938 7.125H64.2812V14.0625C64.2812 14.7019 64.7993 15.2188 65.4375 15.2188H72.375V68.4062Z" fill="#DE1515"/>
<path d="M60.8125 45.2812C61.4507 45.2812 61.9688 44.7644 61.9688 44.125V38.3438V14.0625C61.9688 13.4231 61.4507 12.9062 60.8125 12.9062H55.0312H49.25H43.4688H37.6875H12.25C11.6118 12.9062 11.0938 13.4231 11.0938 14.0625V19.0055V24.1496V29.0938V44.125V66.0938C11.0938 66.7332 11.6118 67.25 12.25 67.25H33.0625C33.7007 67.25 34.2188 66.7332 34.2188 66.0938V59.1562V49.9062V45.2812H60.8125ZM33.0625 42.9688H13.4062V30.25H36.5312V38.3438C36.5312 38.9832 37.0493 39.5 37.6875 39.5H59.6562V42.9688H33.0625ZM36.5312 27.8554C32.992 27.3478 30.1846 24.5404 29.6758 21H36.5312V27.8554ZM59.6562 37.1875H38.8438V29.0938V19.8438V15.2188H42.3125V18.6875V30.25C42.3125 30.8894 42.8305 31.4062 43.4688 31.4062H55.0312C55.6695 31.4062 56.1875 30.8894 56.1875 30.25V18.6875V15.2188H59.6562V37.1875ZM49.25 19.8438H53.875V29.0938H44.625V19.8438H49.25ZM53.875 17.5312H50.4062V15.2188H53.875V17.5312ZM48.0938 15.2188V17.5312H44.625V15.2188H48.0938ZM36.5312 15.2188V18.6875H28.4375C27.7993 18.6875 27.2812 19.2043 27.2812 19.8438C27.2812 23.1113 28.7983 26.0285 31.1616 27.9375H13.4062V25.5175C13.9717 25.5845 14.5486 25.625 15.1406 25.625C18.8753 25.625 22.6562 24.2352 22.6562 21.5781C22.6562 18.4967 17.6 17.1578 13.4062 17.6434V15.2188H36.5312ZM13.4062 19.964C13.9636 19.8842 14.544 19.8438 15.1406 19.8438C18.5203 19.8438 20.3438 21.074 20.3438 21.5781C20.3438 22.0822 18.5203 23.3125 15.1406 23.3125C14.544 23.3125 13.9636 23.272 13.4062 23.1922V19.964ZM31.9062 57.9179C28.367 57.4103 25.5596 54.6029 25.0508 51.0625H31.9062V57.9179ZM31.9062 48.75H23.8125C23.1743 48.75 22.6562 49.2668 22.6562 49.9062C22.6562 55.2539 26.7112 59.6673 31.9062 60.2443V64.9375H13.4062V45.2812H31.9062V48.75Z" fill="#DE1515"/>
<path d="M63.125 54.5312H49.25V56.8438H63.125V54.5312Z" fill="#DE1515"/>
<path d="M68.9062 54.5312H65.4375V56.8438H68.9062V54.5312Z" fill="#DE1515"/>
<path d="M63.125 59.1562H49.25V61.4688H63.125V59.1562Z" fill="#DE1515"/>
<path d="M68.9062 59.1562H65.4375V61.4688H68.9062V59.1562Z" fill="#DE1515"/>
<path d="M63.125 63.7812H49.25V66.0938H63.125V63.7812Z" fill="#DE1515"/>
<path d="M68.9062 63.7812H65.4375V66.0938H68.9062V63.7812Z" fill="#DE1515"/>
<path d="M65.4375 49.9062H52.7188V52.2188H65.4375V49.9062Z" fill="#DE1515"/>
</svg>
