<svg width="64" height="64" viewBox="0 0 64 64" fill="none" xmlns="http://www.w3.org/2000/svg">
<g clip-path="url(#clip0_273_6943)">
<path d="M42.7201 -1.92712e-05C39.0901 0.244986 35.2051 2.40499 32.8001 5.31998C30.6951 7.88498 28.9301 11.65 29.6001 15.56C29.0001 15.375 28.4551 15.355 27.8001 15.12C26.0151 14.485 23.9751 13.8 21.4401 13.8C16.4051 13.8 11.2501 16.795 8.00009 21.8C3.27009 29.07 4.2201 41.865 11.4001 52.8C12.6651 54.72 14.1401 56.815 15.9601 58.48C17.7801 60.145 19.9801 61.415 22.5601 61.44C24.7651 61.465 26.3001 60.73 27.6801 60.12C29.0601 59.51 30.3451 58.97 32.7601 58.96C32.7751 58.96 32.7851 58.96 32.8001 58.96C35.2051 58.94 36.4501 59.47 37.8001 60.08C39.1501 60.69 40.6701 61.46 42.8801 61.44C45.5101 61.42 47.7451 59.98 49.6001 58.2C51.4551 56.42 52.9801 54.235 54.2401 52.32C56.0451 49.57 56.7701 48.07 58.1601 45C58.3051 44.68 58.3101 44.31 58.1701 43.985C58.0351 43.66 57.7701 43.405 57.4401 43.28C52.8901 41.56 50.2951 37.535 49.9201 33.28C49.5451 29.025 51.3451 24.645 55.8801 22.16C56.2151 21.98 56.4501 21.665 56.5301 21.295C56.6051 20.925 56.5151 20.535 56.2801 20.24C53.0251 16.195 48.4451 13.8 43.9601 13.8C41.1001 13.8 39.0001 14.475 37.2801 15.12C36.9951 15.23 36.7851 15.22 36.5201 15.32C38.2651 14.4 39.8051 13.125 40.9601 11.64C43.0601 8.94498 44.6801 5.10998 44.0801 1.07998C43.9801 0.419987 43.3851 -0.0500161 42.7201 -1.92712e-05ZM41.3601 3.03998C41.2751 5.62498 40.3901 8.15498 38.9201 10.04C37.3801 12.02 34.7901 13.39 32.2801 13.8C32.3251 11.315 33.3051 8.73999 34.8001 6.91998C36.3701 5.01999 38.9701 3.64998 41.3601 3.03998ZM21.4401 16.36C23.5051 16.36 25.1601 16.895 26.9201 17.52C28.6801 18.145 30.5351 18.88 32.7201 18.88C34.8551 18.88 36.5451 18.14 38.2001 17.52C39.8551 16.9 41.5051 16.36 43.9601 16.36C47.1651 16.36 50.6301 18.025 53.3601 20.92C48.9901 24.005 46.9451 28.815 47.3601 33.48C47.7751 38.195 50.6151 42.67 55.2801 45C54.2701 47.2 53.6051 48.655 52.1201 50.92C50.8951 52.785 49.4401 54.825 47.8401 56.36C46.2401 57.895 44.5451 58.865 42.8401 58.88C41.1951 58.895 40.2601 58.405 38.8401 57.76C37.4201 57.115 35.5851 56.375 32.7601 56.4C29.9401 56.415 28.0801 57.125 26.6401 57.76C25.2001 58.395 24.2551 58.895 22.6001 58.88C20.8501 58.865 19.2251 58.015 17.6801 56.6C16.1351 55.185 14.7401 53.255 13.5201 51.4C6.80009 41.16 6.2601 29.13 10.1201 23.2C12.9501 18.845 17.4451 16.36 21.4401 16.36Z" fill="#DE1515"/>
</g>
<defs>
<clipPath id="clip0_273_6943">
<rect width="64" height="64" fill="white"/>
</clipPath>
</defs>
</svg>
