<svg width="64" height="64" viewBox="0 0 64 64" fill="none" xmlns="http://www.w3.org/2000/svg">
<path d="M34.2133 5.81335C33.5185 5.49641 32.7637 5.3324 32 5.3324C31.2363 5.3324 30.4815 5.49641 29.7867 5.81335L6.93332 16.2133C6.46012 16.422 6.0578 16.7637 5.77535 17.197C5.49291 17.6302 5.34253 18.1362 5.34253 18.6533C5.34253 19.1705 5.49291 19.6765 5.77535 20.1097C6.0578 20.543 6.46012 20.8847 6.93332 21.0933L29.8133 31.52C30.5082 31.8369 31.2629 32.001 32.0267 32.001C32.7904 32.001 33.5451 31.8369 34.24 31.52L57.12 21.12C57.5932 20.9114 57.9955 20.5696 58.278 20.1364C58.5604 19.7032 58.7108 19.1972 58.7108 18.68C58.7108 18.1629 58.5604 17.6569 58.278 17.2236C57.9955 16.7904 57.5932 16.4487 57.12 16.24L34.2133 5.81335Z" stroke="#DE1515" stroke-width="1.5" stroke-linecap="round" stroke-linejoin="round"/>
<path d="M58.6666 47.0667L34.2133 58.16C33.5184 58.4769 32.7636 58.6409 31.9999 58.6409C31.2362 58.6409 30.4814 58.4769 29.7866 58.16L5.33325 47.0667" stroke="#DE1515" stroke-width="1.5" stroke-linecap="round" stroke-linejoin="round"/>
<path d="M58.6666 33.7333L34.2133 44.8266C33.5184 45.1435 32.7636 45.3076 31.9999 45.3076C31.2362 45.3076 30.4814 45.1435 29.7866 44.8266L5.33325 33.7333" stroke="#DE1515" stroke-width="1.5" stroke-linecap="round" stroke-linejoin="round"/>
</svg>
