<svg width="64" height="64" viewBox="0 0 64 64" fill="none" xmlns="http://www.w3.org/2000/svg">
<path d="M41.8853 56.7814C41.3852 57.2813 40.707 57.5621 39.9999 57.5621C39.2928 57.5621 38.6147 57.2813 38.1146 56.7814L33.8853 52.552C33.3853 52.052 33.1045 51.3738 33.1045 50.6667C33.1045 49.9596 33.3853 49.2815 33.8853 48.7814L48.7813 33.8854C49.2813 33.3855 49.9595 33.1046 50.6666 33.1046C51.3737 33.1046 52.0519 33.3855 52.5519 33.8854L56.7813 38.1147C57.2812 38.6148 57.562 39.2929 57.562 40C57.562 40.7071 57.2812 41.3853 56.7813 41.8854L41.8853 56.7814Z" stroke="#DE1515" stroke-width="1.5" stroke-linecap="round" stroke-linejoin="round"/>
<path d="M47.9999 34.6667L44.3333 16.3361C44.2335 15.8373 43.9933 15.3775 43.6408 15.0109C43.2883 14.6442 42.8383 14.386 42.3439 14.2667L8.6266 5.40806C8.18241 5.30066 7.71807 5.30922 7.27814 5.43291C6.8382 5.55661 6.43744 5.79128 6.1143 6.11442C5.79116 6.43756 5.55648 6.83833 5.43279 7.27826C5.3091 7.71819 5.30054 8.18253 5.40794 8.62672L14.2666 42.3441C14.3859 42.8385 14.6441 43.2884 15.0108 43.6409C15.3774 43.9934 15.8372 44.2337 16.3359 44.3334L34.6666 48.0001" stroke="#DE1515" stroke-width="1.5" stroke-linecap="round" stroke-linejoin="round"/>
<path d="M6.1333 6.1333L25.5626 25.5626" stroke="#DE1515" stroke-width="1.5" stroke-linecap="round" stroke-linejoin="round"/>
<path d="M29.3333 34.6667C32.2789 34.6667 34.6667 32.2789 34.6667 29.3333C34.6667 26.3878 32.2789 24 29.3333 24C26.3878 24 24 26.3878 24 29.3333C24 32.2789 26.3878 34.6667 29.3333 34.6667Z" stroke="#DE1515" stroke-width="1.5" stroke-linecap="round" stroke-linejoin="round"/>
</svg>
