<svg width="64" height="64" viewBox="0 0 64 64" fill="none" xmlns="http://www.w3.org/2000/svg">
<path d="M39.2001 16.8C38.7115 17.2985 38.4378 17.9686 38.4378 18.6667C38.4378 19.3647 38.7115 20.0348 39.2001 20.5333L43.4668 24.8C43.9652 25.2886 44.6354 25.5623 45.3334 25.5623C46.0314 25.5623 46.7016 25.2886 47.2001 24.8L57.2534 14.7467C58.5943 17.7098 59.0003 21.0113 58.4173 24.211C57.8343 27.4108 56.29 30.3569 53.9902 32.6567C51.6904 34.9566 48.7443 36.5009 45.5445 37.0839C42.3447 37.6669 39.0433 37.2609 36.0801 35.92L17.6534 54.3467C16.5926 55.4075 15.1537 56.0035 13.6534 56.0035C12.1531 56.0035 10.7143 55.4075 9.65344 54.3467C8.59257 53.2858 7.99658 51.8469 7.99658 50.3467C7.99658 48.8464 8.59257 47.4075 9.65344 46.3467L28.0801 27.92C26.7392 24.9568 26.3332 21.6554 26.9162 18.4556C27.4992 15.2558 29.0435 12.3097 31.3434 10.0099C33.6432 7.71009 36.5893 6.16577 39.789 5.58277C42.9888 4.99976 46.2903 5.40576 49.2534 6.74665L39.2268 16.7733L39.2001 16.8Z" stroke="#DE1515" stroke-width="1.5" stroke-linecap="round" stroke-linejoin="round"/>
</svg>
