<svg width="64" height="64" viewBox="0 0 64 64" fill="none" xmlns="http://www.w3.org/2000/svg">
<path d="M48.0001 5.33337H16.0001C13.0546 5.33337 10.6667 7.72119 10.6667 10.6667V53.3334C10.6667 56.2789 13.0546 58.6667 16.0001 58.6667H48.0001C50.9456 58.6667 53.3334 56.2789 53.3334 53.3334V10.6667C53.3334 7.72119 50.9456 5.33337 48.0001 5.33337Z" stroke="#DE1515" stroke-width="1.5" stroke-linecap="round" stroke-linejoin="round"/>
<path d="M24 58.6667V48H40V58.6667" stroke="#DE1515" stroke-width="1.5" stroke-linecap="round" stroke-linejoin="round"/>
<path d="M21.3333 16H21.3599" stroke="#DE1515" stroke-width="1.5" stroke-linecap="round" stroke-linejoin="round"/>
<path d="M42.6667 16H42.6934" stroke="#DE1515" stroke-width="1.5" stroke-linecap="round" stroke-linejoin="round"/>
<path d="M32 16H32.0267" stroke="#DE1515" stroke-width="1.5" stroke-linecap="round" stroke-linejoin="round"/>
<path d="M32 26.6666H32.0267" stroke="#DE1515" stroke-width="1.5" stroke-linecap="round" stroke-linejoin="round"/>
<path d="M32 37.3334H32.0267" stroke="#DE1515" stroke-width="1.5" stroke-linecap="round" stroke-linejoin="round"/>
<path d="M42.6667 26.6666H42.6934" stroke="#DE1515" stroke-width="1.5" stroke-linecap="round" stroke-linejoin="round"/>
<path d="M42.6667 37.3334H42.6934" stroke="#DE1515" stroke-width="1.5" stroke-linecap="round" stroke-linejoin="round"/>
<path d="M21.3333 26.6666H21.3599" stroke="#DE1515" stroke-width="1.5" stroke-linecap="round" stroke-linejoin="round"/>
<path d="M21.3333 37.3334H21.3599" stroke="#DE1515" stroke-width="1.5" stroke-linecap="round" stroke-linejoin="round"/>
</svg>
