<svg width="41" height="41" viewBox="0 0 41 41" fill="none" xmlns="http://www.w3.org/2000/svg">
<path fill-rule="evenodd" clip-rule="evenodd" d="M13.0385 19.7463C15.4969 22.7511 18.2489 25.5031 21.2536 27.9616L22.0281 28.5952C23.4188 29.733 25.4454 29.6319 26.7158 28.3615L28.7172 26.3601L24.9125 22.5554L22.059 25.4089L15.5796 18.9295L18.4427 16.0856L14.6399 12.2828L12.6386 14.2841C11.3681 15.5546 11.267 17.5812 12.4048 18.9718L13.0385 19.7463ZM20.2314 29.2108C17.1437 26.6844 14.3156 23.8564 11.7892 20.7685L11.1555 19.9941C9.49253 17.9615 9.64026 14.9996 11.4972 13.1427L14.6399 10L20.7292 16.0894L17.8663 18.9334L22.059 23.1261L24.9125 20.2727L31 26.3601L27.8573 29.5028C26.0003 31.3598 23.0385 31.5075 21.006 29.8446L20.2314 29.2108Z" fill="white"/>
</svg>
