<svg width="30" height="30" viewBox="0 0 30 30" fill="none" xmlns="http://www.w3.org/2000/svg">
<g clip-path="url(#clip0_255_2521)">
<path d="M24.9803 4.3773C22.9652 2.4838 20.453 1.20259 17.7371 0.683231C15.0211 0.163874 12.2135 0.427805 9.64192 1.44421C7.07035 2.46062 4.84096 4.18756 3.21401 6.42343C1.58707 8.65931 0.629698 11.3118 0.453676 14.0714C0.319933 16.062 0.599495 18.0588 1.27478 19.9361C1.95007 21.8134 3.00648 23.5307 4.37758 24.98C5.74267 26.4281 7.38877 27.5824 9.21523 28.3726C11.0417 29.1627 13.0101 29.572 15.0002 29.5754C15.2075 29.5754 15.4064 29.493 15.553 29.3464C15.6997 29.1997 15.782 29.0009 15.782 28.7935C15.782 28.5861 15.6997 28.3873 15.553 28.2406C15.4064 28.094 15.2075 28.0116 15.0002 28.0116C11.6211 28.0117 8.37455 26.6974 5.94727 24.3466C3.51998 21.9958 2.10237 18.793 1.99431 15.4157C1.88626 12.0384 3.09624 8.75146 5.36829 6.25032C7.64034 3.74919 10.7962 2.22998 14.1684 2.0141C15.9435 1.90058 17.7231 2.1522 19.3972 2.75343C21.0713 3.35466 22.6044 4.29272 23.9017 5.50968C25.1991 6.72664 26.2331 8.19666 26.9401 9.82894C27.647 11.4612 28.0118 13.2211 28.0119 14.9999C28.0183 17.0508 27.5346 19.0735 26.6011 20.8996C26.2573 21.5367 25.6811 22.0166 24.9923 22.2393C24.3035 22.4621 23.5554 22.4105 22.9037 22.0953L22.4891 21.899C22.7241 21.6627 22.9422 21.437 23.1015 21.2662C23.1504 21.2135 23.1876 21.1511 23.2107 21.083C23.2337 21.0149 23.2421 20.9427 23.2353 20.8711C23.2284 20.7995 23.2065 20.7302 23.1709 20.6678C23.1354 20.6053 23.087 20.551 23.029 20.5086L19.1396 18.0112C19.0768 17.9647 19.0053 17.9314 18.9294 17.9133C18.8534 17.8952 18.7746 17.8926 18.6976 17.9058C18.6207 17.9189 18.5472 17.9474 18.4815 17.9897C18.4159 18.032 18.3594 18.0871 18.3156 18.1517C18.0037 18.6123 17.292 19.6208 17.292 19.6208C17.292 19.6208 15.6271 20.5173 12.6816 17.5718C12.637 17.5272 12.6013 17.4858 12.5585 17.4418C12.5145 17.3989 12.473 17.3632 12.4284 17.3186C9.48293 14.3731 10.3794 12.7083 10.3794 12.7083C10.3794 12.7083 11.3879 11.9966 11.8485 11.6846C11.9132 11.6408 11.9683 11.5844 12.0105 11.5187C12.0528 11.4531 12.0814 11.3795 12.0945 11.3026C12.1076 11.2256 12.105 11.1468 12.0869 11.0708C12.0688 10.9949 12.0355 10.9234 11.989 10.8606L9.49168 6.97126C9.44924 6.91323 9.39499 6.86485 9.33251 6.82929C9.27003 6.79374 9.20073 6.77181 9.12917 6.76496C9.0576 6.75811 8.9854 6.76649 8.91731 6.78955C8.84922 6.81261 8.78678 6.84983 8.73411 6.89875C8.15568 7.43798 6.96183 8.6268 6.77918 9.00816C6.34091 9.95004 6.28047 11.0241 6.61031 12.0092C7.4603 14.5902 8.90489 16.9353 10.8276 18.8554C10.8817 18.9095 10.9365 18.9566 10.9908 19.0094C11.0436 19.0637 11.0908 19.1186 11.1448 19.1726C13.065 21.0953 15.4101 22.5399 17.991 23.3899C18.9761 23.7198 20.0502 23.6593 20.9921 23.221C21.084 23.1699 21.1709 23.1103 21.2519 23.0432L22.2343 23.5084C23.254 23.9954 24.4224 24.0698 25.4957 23.716C26.5689 23.3622 27.4641 22.6076 27.9943 21.6097C29.0405 19.5639 29.5826 17.2977 29.5756 14.9999C29.5722 13.0098 29.163 11.0414 28.3728 9.21495C27.5827 7.38849 26.4283 5.74239 24.9803 4.3773Z" fill="white"/>
</g>
<defs>
<clipPath id="clip0_255_2521">
<rect width="30" height="30" fill="white"/>
</clipPath>
</defs>
</svg>
