<svg width="159" height="60" viewBox="0 0 159 60" fill="none" xmlns="http://www.w3.org/2000/svg">
<g clip-path="url(#clip0_440_17)">
<path d="M117.02 49.2525L121.613 37.6117H134.877L128.582 19.9512L136.454 0L159 60H142.373L138.519 49.2525H117.02Z" fill="#3D3D3D"/>
<path d="M102.834 60L126.97 0H110.971L94.459 38.7726L82.7172 0H70.4165L57.8114 38.7726L48.9204 21.106L40.8741 45.947L49.0446 60H64.7925L76.1833 25.2301L87.0525 60H102.834Z" fill="#5A0FC8"/>
<path d="M15.1888 39.4014H25.0456C27.7372 39.4393 30.421 39.103 33.0204 38.4022L35.57 30.5307L42.694 8.53141C42.1465 7.66317 41.5229 6.8455 40.8307 6.08808C37.1787 2.02936 31.829 0 24.7816 0H0V60H15.1888V39.4014ZM28.2318 13.804C29.6603 15.2441 30.3746 17.1728 30.3746 19.5902C30.3746 22.0076 29.7473 23.9384 28.4927 25.3826C27.1159 26.9679 24.5798 27.7605 20.8843 27.7605H15.1888V11.6408H20.9278C24.3665 11.6408 26.8023 12.3619 28.2349 13.804H28.2318Z" fill="#3D3D3D"/>
</g>
<defs>
<clipPath id="clip0_440_17">
<rect width="159" height="60" fill="white"/>
</clipPath>
</defs>
</svg>
