<svg width="40" height="40" viewBox="0 0 40 40" fill="none" xmlns="http://www.w3.org/2000/svg">
<path d="M33.4121 17.4897H28.1601V8.97539C28.1601 8.87844 28.141 8.78243 28.1039 8.69286C28.0668 8.60328 28.0124 8.52189 27.9438 8.45334C27.8753 8.38478 27.7939 8.3304 27.7043 8.2933C27.6147 8.2562 27.5187 8.23711 27.4218 8.23711H25.2908V6.29248C25.2908 6.19552 25.2717 6.09952 25.2346 6.00994C25.1975 5.92036 25.1431 5.83897 25.0746 5.77041C25.006 5.70185 24.9246 5.64747 24.835 5.61037C24.7455 5.57327 24.6494 5.55419 24.5525 5.5542H15.447C15.2512 5.55422 15.0635 5.63201 14.925 5.77046C14.7866 5.90891 14.7088 6.09668 14.7087 6.29248V8.23711H12.5783C12.3826 8.23714 12.1948 8.31493 12.0563 8.45338C11.9179 8.59183 11.8401 8.7796 11.8401 8.97539V17.4897H6.58765C6.39185 17.4898 6.20408 17.5676 6.06563 17.706C5.92718 17.8445 5.84939 18.0322 5.84937 18.228V33.7078C5.8494 33.9036 5.9272 34.0914 6.06565 34.2298C6.2041 34.3682 6.39186 34.446 6.58765 34.446H33.4121C33.5091 34.446 33.6051 34.4269 33.6947 34.3898C33.7843 34.3527 33.8656 34.2984 33.9342 34.2298C34.0028 34.1612 34.0571 34.0799 34.0942 33.9903C34.1313 33.9007 34.1504 33.8047 34.1504 33.7077V18.2281C34.1504 18.1311 34.1313 18.0351 34.0943 17.9455C34.0572 17.8559 34.0028 17.7745 33.9342 17.706C33.8657 17.6374 33.7843 17.583 33.6947 17.5459C33.6051 17.5088 33.5091 17.4897 33.4121 17.4897ZM32.6739 18.9663V20.6222H28.1601V18.9663H32.6739ZM16.1853 7.03076H23.8142V8.23711H16.1853V7.03076ZM13.3163 9.71368H26.6835V32.9695H13.3163V9.71368ZM11.8398 18.9663V20.6222H7.32593V18.9663H11.8398ZM7.32593 22.0986H11.8401V32.9695H7.32593V22.0986ZM28.1601 32.9695V22.0986H32.6739V32.9695H28.1601Z" fill="white"/>
<path d="M18.708 18.7886H15.0781C14.8823 18.7886 14.6946 18.8664 14.5561 19.0049C14.4177 19.1433 14.3399 19.3311 14.3398 19.5269V23.1567C14.3399 23.3525 14.4177 23.5403 14.5561 23.6787C14.6946 23.8172 14.8823 23.895 15.0781 23.895H18.708C18.9038 23.895 19.0916 23.8172 19.2301 23.6788C19.3685 23.5403 19.4463 23.3525 19.4463 23.1567V19.5269C19.4463 19.3311 19.3685 19.1433 19.2301 19.0048C19.0916 18.8664 18.9038 18.7886 18.708 18.7886ZM17.9697 22.4185H15.8164V20.2651H17.9697V22.4185Z" fill="white"/>
<path d="M24.9219 18.7886H21.292C21.195 18.7886 21.099 18.8077 21.0095 18.8448C20.9199 18.8819 20.8385 18.9362 20.7699 19.0048C20.7014 19.0734 20.647 19.1547 20.6099 19.2443C20.5728 19.3339 20.5537 19.4299 20.5537 19.5269V23.1567C20.5537 23.2537 20.5728 23.3497 20.6099 23.4393C20.647 23.5288 20.7014 23.6102 20.7699 23.6788C20.8385 23.7474 20.9199 23.8017 21.0095 23.8388C21.099 23.8759 21.195 23.895 21.292 23.895H24.9219C25.1177 23.895 25.3055 23.8172 25.4439 23.6788C25.5824 23.5403 25.6602 23.3525 25.6602 23.1567V19.5269C25.6602 19.3311 25.5824 19.1433 25.4439 19.0048C25.3055 18.8664 25.1177 18.7886 24.9219 18.7886ZM24.1836 22.4185H22.0303V20.2651H24.1836V22.4185Z" fill="white"/>
<path d="M18.708 26.1719H15.0781C14.8823 26.1719 14.6946 26.2497 14.5561 26.3881C14.4177 26.5266 14.3399 26.7144 14.3398 26.9102V30.54C14.3399 30.7358 14.4177 30.9236 14.5561 31.062C14.6946 31.2005 14.8823 31.2783 15.0781 31.2783H18.708C18.9038 31.2783 19.0916 31.2005 19.2301 31.0621C19.3685 30.9236 19.4463 30.7358 19.4463 30.54V26.9102C19.4463 26.8132 19.4272 26.7172 19.3901 26.6276C19.353 26.538 19.2986 26.4567 19.2301 26.3881C19.1615 26.3195 19.0801 26.2652 18.9905 26.2281C18.901 26.191 18.805 26.1719 18.708 26.1719ZM17.9697 29.8018H15.8164V27.6484H17.9697V29.8018Z" fill="white"/>
<path d="M24.9219 26.1719H21.292C21.195 26.1719 21.099 26.191 21.0095 26.228C20.9199 26.2651 20.8385 26.3195 20.7699 26.3881C20.7014 26.4566 20.647 26.538 20.6099 26.6276C20.5728 26.7172 20.5537 26.8132 20.5537 26.9102V30.54C20.5537 30.637 20.5728 30.733 20.6099 30.8226C20.647 30.9122 20.7014 30.9935 20.7699 31.0621C20.8385 31.1307 20.9199 31.185 21.0095 31.2221C21.099 31.2592 21.195 31.2783 21.292 31.2783H24.9219C25.1177 31.2783 25.3055 31.2005 25.4439 31.0621C25.5824 30.9236 25.6602 30.7358 25.6602 30.54V26.9102C25.6602 26.8132 25.6411 26.7172 25.604 26.6276C25.5669 26.538 25.5125 26.4567 25.4439 26.3881C25.3754 26.3195 25.294 26.2652 25.2044 26.2281C25.1148 26.191 25.0188 26.1719 24.9219 26.1719ZM24.1836 29.8018H22.0303V27.6484H24.1836V29.8018Z" fill="white"/>
<path d="M18.708 11.4048H15.0781C14.8823 11.4048 14.6946 11.4826 14.5561 11.621C14.4177 11.7595 14.3399 11.9473 14.3398 12.1431V15.7729C14.3399 15.9687 14.4177 16.1565 14.5561 16.295C14.6946 16.4334 14.8823 16.5112 15.0781 16.5112H18.708C18.9038 16.5112 19.0916 16.4334 19.2301 16.295C19.3685 16.1565 19.4463 15.9688 19.4463 15.7729V12.1431C19.4463 11.9473 19.3685 11.7595 19.23 11.6211C19.0916 11.4826 18.9038 11.4048 18.708 11.4048ZM17.9697 15.0347H15.8164V12.8813H17.9697V15.0347Z" fill="white"/>
<path d="M24.9219 11.4048H21.292C21.195 11.4048 21.099 11.4239 21.0095 11.461C20.9199 11.4981 20.8385 11.5524 20.7699 11.621C20.7014 11.6896 20.647 11.7709 20.6099 11.8605C20.5728 11.9501 20.5537 12.0461 20.5537 12.1431V15.7729C20.5537 15.8699 20.5728 15.9659 20.6099 16.0555C20.647 16.1451 20.7014 16.2264 20.7699 16.295C20.8385 16.3636 20.9199 16.4179 21.0095 16.455C21.099 16.4921 21.195 16.5112 21.292 16.5112H24.9219C25.1177 16.5112 25.3055 16.4334 25.4439 16.295C25.5824 16.1565 25.6602 15.9688 25.6602 15.7729V12.1431C25.6601 11.9473 25.5823 11.7595 25.4439 11.6211C25.3054 11.4826 25.1177 11.4048 24.9219 11.4048ZM24.1836 15.0347H22.0303V12.8813H24.1836V15.0347Z" fill="white"/>
<path d="M10.3108 23.8394H8.83423V26.3264H10.3108V23.8394Z" fill="white"/>
<path d="M10.3108 28.6797H8.83423V31.1667H10.3108V28.6797Z" fill="white"/>
<path d="M31.165 23.8394H29.6885V26.3264H31.165V23.8394Z" fill="white"/>
<path d="M31.165 28.6797H29.6885V31.1667H31.165V28.6797Z" fill="white"/>
</svg>
