<?xml version="1.0" encoding="UTF-8"?>
<svg id="Layer_1" data-name="Layer 1" xmlns="http://www.w3.org/2000/svg" viewBox="0 0 48 48">
  <path d="M38.673,30.211c1.394-.888,2.327-2.438,2.327-4.211,0-2.757-2.243-5-5-5s-5,2.243-5,5c0,1.773,.935,3.325,2.331,4.213-1.43,.356-2.72,1.16-3.676,2.295-.814-.585-1.741-1.019-2.742-1.266,1.839-1.026,3.087-2.99,3.087-5.241,0-3.309-2.691-6-6-6s-6,2.691-6,6c0,2.251,1.248,4.215,3.087,5.241-1.002,.247-1.928,.681-2.742,1.266-.956-1.134-2.245-1.939-3.676-2.295,1.396-.888,2.331-2.439,2.331-4.213,0-2.757-2.243-5-5-5s-5,2.243-5,5c0,1.772,.933,3.322,2.327,4.211-3.053,.753-5.327,3.507-5.327,6.789v2c0,1.654,1.346,3,3,3H15c0,1.654,1.346,3,3,3h12c1.654,0,3-1.346,3-3h8c1.654,0,3-1.346,3-3v-2c0-3.282-2.274-6.037-5.327-6.789Zm-2.673-7.211c1.654,0,3,1.346,3,3s-1.346,3-3,3-3-1.346-3-3,1.346-3,3-3Zm-12-1c2.206,0,4,1.794,4,4s-1.794,4-4,4-4-1.794-4-4,1.794-4,4-4Zm-12,1c1.654,0,3,1.346,3,3s-1.346,3-3,3-3-1.346-3-3,1.346-3,3-3Zm-5,17c-.552,0-1-.449-1-1v-2c0-2.757,2.243-5,5-5h2c1.51,0,2.937,.7,3.878,1.861-1.17,1.391-1.878,3.183-1.878,5.139v1H7Zm24,2c0,.551-.448,1-1,1h-12c-.552,0-1-.449-1-1v-3c0-3.309,2.691-6,6-6h2c3.309,0,6,2.691,6,6v3Zm11-3c0,.551-.448,1-1,1h-8v-1c0-1.956-.708-3.748-1.878-5.139,.94-1.16,2.367-1.861,3.878-1.861h2c2.757,0,5,2.243,5,5v2Z"/>
  <path d="M33.605,14.636l-.054,1.971c-.018,.64,.28,1.247,.798,1.623,.52,.376,1.189,.474,1.792,.259l1.858-.661,1.858,.661c.212,.075,.432,.112,.65,.112,.404,0,.805-.126,1.142-.371,.518-.376,.815-.983,.798-1.622l-.054-1.972,1.203-1.564c.391-.508,.505-1.174,.307-1.783-.198-.608-.683-1.08-1.296-1.26l-1.893-.558-1.115-1.627c-.361-.528-.96-.844-1.601-.844s-1.239,.315-1.601,.843l-1.115,1.627-1.892,.558c-.614,.181-1.099,.652-1.297,1.26-.198,.609-.084,1.275,.307,1.784l1.203,1.563Zm2.586-3.348c.221-.065,.411-.204,.542-.394l1.217-1.92,1.316,1.92c.131,.189,.321,.329,.542,.394l2.203,.565-1.42,1.845c-.14,.182-.213,.407-.207,.637l.144,2.27-2.193-.78c-.217-.077-.453-.077-.67,0l-2.113,.838,.063-2.328c.006-.23-.067-.455-.207-.637l-1.45-1.751,2.233-.659Z"/>
  <path d="M5.605,14.636l-.054,1.971c-.018,.64,.28,1.247,.798,1.623,.52,.376,1.188,.474,1.792,.259l1.858-.661,1.858,.661c.212,.075,.432,.112,.65,.112,.404,0,.805-.126,1.142-.371,.518-.376,.815-.983,.798-1.622l-.054-1.972,1.203-1.564c.391-.508,.505-1.174,.307-1.783-.198-.608-.683-1.08-1.296-1.26l-1.893-.558-1.115-1.627c-.361-.528-.96-.844-1.601-.844s-1.239,.315-1.601,.843l-1.115,1.627-1.892,.558c-.614,.181-1.099,.652-1.297,1.26-.198,.609-.084,1.275,.307,1.784l1.203,1.563Zm2.586-3.348c.221-.065,.411-.204,.542-.394l1.217-1.92,1.316,1.92c.131,.189,.321,.329,.542,.394l2.203,.565-1.42,1.845c-.14,.182-.213,.407-.207,.637l.144,2.27-2.193-.78c-.217-.077-.453-.077-.67,0l-2.113,.838,.063-2.328c.006-.23-.067-.455-.207-.637l-1.45-1.751,2.233-.659Z"/>
  <path d="M18.929,11.898l-.067,2.438c-.019,.702,.31,1.367,.877,1.78,.369,.268,.808,.406,1.251,.406,.239,0,.48-.041,.713-.123l2.298-.817,2.298,.817c.662,.234,1.395,.128,1.964-.283,.567-.413,.896-1.078,.877-1.781l-.067-2.437,1.487-1.933c.428-.557,.554-1.288,.337-1.956s-.749-1.185-1.423-1.384l-2.339-.69-1.378-2.011c-.397-.579-1.054-.925-1.756-.925s-1.358,.346-1.756,.925l-1.378,2.011-2.34,.69c-.673,.199-1.205,.716-1.422,1.384s-.091,1.399,.337,1.956l1.487,1.933Zm.078-3.27c.021-.065,.069-.079,.085-.084l2.681-.79c.221-.065,.413-.204,.543-.394l1.579-2.305c.009-.014,.038-.056,.105-.056s.097,.042,.105,.056l1.579,2.305c.13,.189,.322,.329,.543,.394l2.68,.79c.017,.005,.065,.019,.086,.084,.021,.064-.01,.104-.021,.118l-1.704,2.214c-.14,.182-.213,.408-.207,.638l.077,2.792c0,.017,.002,.067-.053,.107-.055,.039-.103,.022-.118,.017l-2.633-.936c-.217-.077-.453-.077-.67,0l-2.633,.936c-.016,.006-.063,.022-.118-.017-.055-.04-.054-.091-.053-.107l.077-2.793c.006-.23-.067-.456-.207-.638l-1.704-2.214c-.011-.013-.041-.053-.021-.118Z"/>
</svg>