<?xml version="1.0" encoding="utf-8"?>
<!-- Generator: Adobe Illustrator 16.0.0, SVG Export Plug-In . SVG Version: 6.00 Build 0)  -->
<!DOCTYPE svg PUBLIC "-//W3C//DTD SVG 1.1//EN" "http://www.w3.org/Graphics/SVG/1.1/DTD/svg11.dtd">
<svg version="1.1" id="Layer_1" xmlns="http://www.w3.org/2000/svg" xmlns:xlink="http://www.w3.org/1999/xlink" x="0px" y="0px"
	 width="512px" height="512px" viewBox="0 0 512 512" enable-background="new 0 0 512 512" xml:space="preserve">
<g id="_x31_402_x2C__Internet_x2C__online_x2C__Seo_x2C__site">
	<g>
		<path d="M485.973,16.028H26.025c-5.522,0-10,4.478-10,10.001v459.948c0,5.523,4.478,9.996,10,9.996h459.947
			c5.523,0,10.002-4.473,10.002-9.996V26.029C495.975,20.505,491.496,16.028,485.973,16.028z M475.977,96.02H335.99V36.025h139.985
			L475.977,96.02L475.977,96.02z M315.992,36.025V96.02H36.027V36.025H315.992z M36.027,475.975V116.017h439.949v359.958H36.027z"/>
		<rect x="355.992" y="56.027" width="19.996" height="19.996"/>
		<rect x="395.984" y="56.027" width="19.998" height="19.996"/>
		<rect x="435.979" y="56.027" width="19.998" height="19.996"/>
		<rect x="166.009" y="415.984" width="19.997" height="19.998"/>
		<rect x="206.008" y="415.984" width="19.996" height="19.998"/>
		<rect x="246.001" y="415.984" width="19.997" height="19.998"/>
		<rect x="286" y="415.984" width="19.996" height="19.998"/>
		<rect x="325.994" y="415.984" width="19.996" height="19.998"/>
		<rect x="166.009" y="156.016" width="19.997" height="19.996"/>
		<rect x="206.008" y="156.016" width="19.996" height="19.996"/>
		<rect x="246.001" y="156.016" width="19.997" height="19.996"/>
		<rect x="286" y="156.016" width="19.996" height="19.996"/>
		<rect x="325.994" y="156.016" width="19.996" height="19.996"/>
		<path d="M359.814,313.467l-6.306-16.711l10.416-28.879h-13.213l-6.387,19.863l-6.217-19.863h-13.298l10.322,28.879l-6.123,16.711
			l-15.754-45.678c-7.662,0-16.701,0-30.188,0l-15.666,45.678l-6.305-16.711l10.416-28.879H258.3l-6.389,19.863l-6.216-19.863
			h-13.302l10.328,28.879l-6.129,16.711l-15.748-45.678c-7.667,0-16.701,0-30.193,0l-15.665,45.678l-6.3-16.711l10.416-28.879
			h-13.214L159.5,287.74l-6.216-19.863h-13.302l10.328,28.879l-6.129,16.711l-15.748-45.678h-15.49l24.764,62.129h11.988
			l9.889-24.324l9.805,24.324h12.076l24.324-61.031l24.328,61.031h11.993l9.888-24.324l9.801,24.324h12.076l24.328-61.031
			l24.324,61.031h11.987l9.896-24.324l9.799,24.324h12.078l24.762-62.129h-15.578L359.814,313.467z"/>
	</g>
</g>
<g id="Layer_1_1_">
</g>
</svg>
