<svg width="26" height="26" viewBox="0 0 26 26" fill="none" xmlns="http://www.w3.org/2000/svg">
<path fill-rule="evenodd" clip-rule="evenodd" d="M12.6423 0C15.996 0.001242 19.1439 1.30686 21.5108 3.67669C23.8781 6.04652 25.1808 9.19609 25.1787 12.5465C25.1758 19.4585 19.5513 25.0829 12.6419 25.0829H12.6368C10.5389 25.0821 8.47697 24.5558 6.64594 23.5568L0 25.3L1.77873 18.8034C0.681858 16.9025 0.104604 14.7456 0.105432 12.536C0.107916 5.62359 5.73234 0 12.6423 0ZM12.6385 22.9653H12.6427C18.3859 22.9653 23.0603 18.2909 23.0624 12.5448C23.0632 9.76042 21.9806 7.14251 20.0132 5.17302C18.0458 3.20353 15.4296 2.11798 12.6465 2.11715C6.89903 2.11715 2.22424 6.79112 2.22217 12.5364C2.22129 14.5055 2.77224 16.4227 3.81515 18.0818L4.06281 18.4763L3.01029 22.3215L6.95428 21.287L7.33493 21.5129C8.93463 22.4621 10.7686 22.9645 12.6385 22.9653ZM16.2173 14.142C16.5048 14.2466 18.0446 15.0042 18.358 15.161C18.4185 15.1914 18.4751 15.2188 18.5277 15.2442C18.7471 15.3502 18.8951 15.4219 18.9583 15.5275C19.0365 15.658 19.0365 16.2855 18.7754 17.0171C18.5144 17.7488 17.2632 18.4165 16.6612 18.5064C16.1212 18.5871 15.4384 18.6206 14.6879 18.3822C14.2328 18.2378 13.6497 18.0454 12.9021 17.7225C9.96429 16.4538 7.97925 13.606 7.60532 13.0696C7.57928 13.0322 7.56107 13.006 7.5509 12.9924L7.54971 12.9909C7.38852 12.7764 6.27164 11.2902 6.27164 9.75209C6.27164 8.30981 6.97981 7.5538 7.30623 7.2053C7.32877 7.1812 7.34951 7.15907 7.36805 7.13879C7.65546 6.82502 7.99471 6.74682 8.20346 6.74682C8.41221 6.74682 8.62137 6.74848 8.80376 6.75768C8.8263 6.75883 8.84976 6.75869 8.874 6.7585C9.05662 6.7574 9.28409 6.75607 9.50866 7.29523C9.59533 7.50347 9.72233 7.81264 9.85619 8.13846C10.1254 8.79368 10.4223 9.51634 10.4746 9.62113C10.5528 9.77799 10.6051 9.96084 10.5005 10.17C10.4846 10.2017 10.4699 10.2316 10.4559 10.2603C10.3776 10.4197 10.3199 10.5374 10.1872 10.6925C10.1351 10.7533 10.0813 10.8189 10.0274 10.8845C9.91944 11.016 9.81143 11.1475 9.71741 11.2413C9.5605 11.3974 9.39739 11.5668 9.58019 11.8805C9.763 12.1939 10.3917 13.2196 11.3229 14.0504C12.3236 14.9433 13.1935 15.3206 13.6347 15.5119C13.721 15.5493 13.7908 15.5796 13.8421 15.6053C14.155 15.7622 14.3378 15.7362 14.5206 15.5271C14.7034 15.3179 15.3037 14.6126 15.5125 14.2989C15.7212 13.9851 15.9304 14.0374 16.2173 14.142Z" fill="white"/>
</svg>
