<svg width="77" height="77" viewBox="0 0 77 77" fill="none" xmlns="http://www.w3.org/2000/svg">
<path d="M70.9844 2.40625H6.01562C5.05924 2.4091 4.14284 2.7903 3.46656 3.46656C2.7903 4.14284 2.4091 5.05924 2.40625 6.01562V56.5469C2.4091 57.5032 2.7903 58.4197 3.46656 59.0959C4.14284 59.7722 5.05924 60.1534 6.01562 60.1562H30.7519L28.0448 67.375H24.0625C23.1061 67.3779 22.1897 67.759 21.5134 68.4353C20.8372 69.1116 20.456 70.028 20.4531 70.9844V73.3906C20.4531 73.7097 20.5799 74.0158 20.8055 74.2414C21.0311 74.4669 21.3372 74.5938 21.6562 74.5938H55.3438C55.6628 74.5938 55.9689 74.4669 56.1945 74.2414C56.4201 74.0158 56.5469 73.7097 56.5469 73.3906V70.9844C56.544 70.028 56.1628 69.1116 55.4866 68.4353C54.8103 67.759 53.8939 67.3779 52.9375 67.375H48.9552L46.2481 60.1562H70.9844C71.9407 60.1534 72.8572 59.7722 73.5334 59.0959C74.2097 58.4197 74.5909 57.5032 74.5938 56.5469V6.01562C74.5909 5.05924 74.2097 4.14284 73.5334 3.46656C72.8572 2.7903 71.9407 2.4091 70.9844 2.40625ZM4.8125 6.01562C4.8125 5.69653 4.93926 5.39052 5.16488 5.16488C5.39052 4.93926 5.69653 4.8125 6.01562 4.8125H37.2367V26.4688H33.6394C33.5111 25.1285 32.9381 23.8695 32.0114 22.8927C31.0848 21.9159 29.8578 21.2774 28.5261 21.0788L26.3123 20.7659C26.0231 20.728 25.7576 20.5863 25.565 20.3672C25.3725 20.1481 25.2661 19.8665 25.2656 19.5748V19.2139C26.0112 18.6603 26.6171 17.9402 27.0348 17.1108C27.4527 16.2815 27.6708 15.3661 27.6719 14.4375V13.2344C27.9909 13.2344 28.297 13.1076 28.5226 12.882C28.7482 12.6564 28.875 12.3503 28.875 12.0312V10.8281C28.875 9.55177 28.368 8.32769 27.4654 7.42517C26.563 6.52266 25.3389 6.01562 24.0625 6.01562H13.2344C12.9153 6.01562 12.6092 6.14239 12.3836 6.36801C12.1581 6.59364 12.0312 6.89966 12.0312 7.21875V8.42188C12.0347 9.48611 12.3909 10.5192 13.0439 11.3595C13.697 12.1998 14.6101 12.7999 15.6406 13.0659V14.4375C15.6417 15.3661 15.8598 16.2815 16.2777 17.1108C16.6954 17.9402 17.3013 18.6603 18.0469 19.2139V19.5748C18.0469 19.8647 17.9421 20.1449 17.752 20.3636C17.5619 20.5825 17.2993 20.7254 17.0122 20.7659L14.7864 21.0788C13.4547 21.2774 12.2277 21.9159 11.3011 22.8927C10.3744 23.8695 9.80132 25.1285 9.67312 26.4688H4.8125V6.01562ZM27.2628 31.6903C25.5322 29.9625 23.2101 28.9562 20.7659 28.875H37.2367V50.5312H32.8333C32.2148 49.2229 31.265 48.0989 30.0781 47.2708V38.5C30.0825 37.2352 29.8359 35.982 29.3526 34.8131C28.8693 33.6442 28.159 32.5828 27.2628 31.6903ZM19.25 45.7188V45.5984C20.0441 45.7588 20.8622 45.7588 21.6562 45.5984V45.7188C21.6582 46.3563 21.9123 46.9672 22.3631 47.4182C22.814 47.869 23.425 48.1231 24.0625 48.125H24.2911C23.9143 48.8239 23.3625 49.4131 22.6899 49.8349C22.0171 50.2567 21.2463 50.4966 20.4531 50.5312C19.6599 50.4966 18.8892 50.2567 18.2164 49.8349C17.5437 49.4131 16.992 48.8239 16.6152 48.125H16.8438C17.4813 48.1231 18.0922 47.869 18.5432 47.4182C18.994 46.9672 19.2481 46.3563 19.25 45.7188ZM16.8438 39.7031V38.5H24.0625V39.7031C24.0625 40.6603 23.6822 41.5784 23.0053 42.2553C22.3284 42.9322 21.4103 43.3125 20.4531 43.3125C19.4959 43.3125 18.5778 42.9322 17.9009 42.2553C17.2241 41.5784 16.8438 40.6603 16.8438 39.7031ZM24.0625 45.7188V44.4795C24.8081 43.926 25.414 43.2058 25.8317 42.3765C26.2495 41.5472 26.4677 40.6317 26.4688 39.7031V37.2969C26.4688 36.9778 26.3419 36.6717 26.1164 36.4461C25.8908 36.2206 25.5847 36.0938 25.2656 36.0938H15.6406C15.3216 36.0938 15.0155 36.2206 14.7899 36.4461C14.5643 36.6717 14.4375 36.9778 14.4375 37.2969V39.7031C14.4386 40.6317 14.6567 41.5472 15.0746 42.3765C15.4923 43.2058 16.0982 43.926 16.8438 44.4795V45.7188H15.6406C14.8253 45.7222 14.0148 45.8438 13.2344 46.0797V38.8489C13.2365 37.8154 13.4465 36.793 13.8516 35.8423C14.2567 34.8916 14.8487 34.032 15.5925 33.3145C16.2577 32.6435 17.0539 32.1168 17.9315 31.7671C18.8092 31.4172 19.7494 31.2519 20.6938 31.2812C22.5646 31.3485 24.3368 32.138 25.6379 33.4841C26.9391 34.83 27.6681 36.6279 27.6719 38.5V46.0797C26.8913 45.8447 26.0809 45.7231 25.2656 45.7188H24.0625ZM15.4 50.5312H10.8402C11.005 50.3024 11.1903 50.089 11.3936 49.8936C11.7639 49.5162 12.185 49.1922 12.6448 48.9311C13.0762 48.6709 13.5419 48.4725 14.0284 48.3416C14.3705 49.1376 14.8331 49.8761 15.4 50.5312ZM18.0469 13.2344H25.2656V14.4375C25.2656 15.3947 24.8853 16.3128 24.2084 16.9897C23.5316 17.6666 22.6135 18.0469 21.6562 18.0469C20.699 18.0469 19.7809 17.6666 19.1041 16.9897C18.4272 16.3128 18.0469 15.3947 18.0469 14.4375V13.2344ZM16.8438 10.8281C16.2062 10.8262 15.5953 10.5721 15.1443 10.1213C14.6935 9.67039 14.4394 9.05947 14.4375 8.42188H24.0625C24.7 8.42378 25.311 8.6779 25.7619 9.12875C26.2127 9.57961 26.4668 10.1905 26.4688 10.8281H16.8438ZM23.8339 22.0292L21.6562 23.7377L19.4786 22.0292C19.9318 21.5512 20.2405 20.9548 20.3689 20.3087C21.2164 20.5012 22.0961 20.5012 22.9436 20.3087C23.072 20.9548 23.3807 21.5512 23.8339 22.0292ZM20.9103 26.2161C21.1245 26.38 21.3866 26.4689 21.6562 26.4689C21.9259 26.4689 22.188 26.38 22.4022 26.2161L26.2642 23.1963L28.1892 23.4609C28.951 23.5721 29.6574 23.9239 30.2049 24.4651C30.7526 25.0062 31.1129 25.7083 31.2331 26.4688H12.0794C12.1996 25.7083 12.5599 25.0062 13.1076 24.4651C13.6551 23.9239 14.3615 23.5721 15.1233 23.4609L17.0483 23.1963L20.9103 26.2161ZM26.8778 48.3416C27.3678 48.4788 27.8372 48.6811 28.2734 48.9431C28.9709 49.3429 29.5774 49.8839 30.0541 50.5312H25.5063C26.0732 49.8761 26.5358 49.1376 26.8778 48.3416ZM4.8125 28.875H20.4652C18.0104 28.8894 15.6581 29.8606 13.9081 31.582C12.9364 32.527 12.1634 33.6566 11.6344 34.9045C11.1055 36.1525 10.8314 37.4935 10.8281 38.8489V47.2587C9.6199 48.0782 8.6555 49.2089 8.03687 50.5312H4.8125V28.875ZM52.9375 69.7812C53.2566 69.7812 53.5626 69.9081 53.7882 70.1336C54.0138 70.3592 54.1406 70.6653 54.1406 70.9844V72.1875H22.8594V70.9844C22.8594 70.6653 22.9862 70.3592 23.2118 70.1336C23.4374 69.9081 23.7434 69.7812 24.0625 69.7812H52.9375ZM46.3925 67.375H30.6075L33.3145 60.1562H43.6855L46.3925 67.375ZM72.1875 56.5469C72.1875 56.8659 72.0607 57.172 71.8351 57.3976C71.6095 57.6232 71.3034 57.75 70.9844 57.75H6.01562C5.69653 57.75 5.39052 57.6232 5.16488 57.3976C4.93926 57.172 4.8125 56.8659 4.8125 56.5469V52.9375H72.1875V56.5469ZM66.3884 44.9728C66.678 45.1823 66.9167 45.4543 67.087 45.7686C67.2572 46.0828 67.3547 46.4312 67.372 46.7883C67.3893 47.1453 67.3261 47.5015 67.1871 47.8308C67.0481 48.1601 66.8368 48.4539 66.5689 48.6905C66.4245 48.522 66.2681 48.3536 66.1117 48.1972C65.2731 47.3383 64.2539 46.6766 63.128 46.2602C62.1585 45.9785 61.1628 45.7971 60.1562 45.7188V44.4795C60.9018 43.926 61.5077 43.2058 61.9254 42.3765C62.3433 41.5472 62.5614 40.6317 62.5625 39.7031V37.2969C62.5625 36.9778 62.4357 36.6717 62.2101 36.4461C61.9845 36.2206 61.6784 36.0938 61.3594 36.0938H61.1789C60.7323 36.0959 60.2943 35.9716 59.9153 35.7353C59.5363 35.499 59.2319 35.1602 59.0373 34.7583L58.8208 34.3492C58.7344 34.1805 58.6102 34.0341 58.4578 33.9214C58.3055 33.8087 58.1291 33.7327 57.9425 33.6995C57.7557 33.6686 57.5641 33.6832 57.384 33.7418C57.204 33.8004 57.0406 33.9014 56.9078 34.0364L56.2341 34.6981C55.789 35.1438 55.26 35.4965 54.6776 35.7362C54.0951 35.9757 53.471 36.0972 52.8412 36.0938H51.7344C51.4153 36.0938 51.1092 36.2206 50.8836 36.4461C50.6581 36.6717 50.5312 36.9778 50.5312 37.2969V39.7031C50.5323 40.6317 50.7505 41.5472 51.1683 42.3765C51.586 43.2058 52.1919 43.926 52.9375 44.4795V45.7188C51.9474 45.7947 50.9677 45.972 50.0139 46.2481C48.8743 46.6583 47.842 47.3205 46.9941 48.1852C46.8256 48.3416 46.6812 48.522 46.5248 48.6905C46.2569 48.4539 46.0456 48.1601 45.9067 47.8308C45.7676 47.5015 45.7044 47.1453 45.7218 46.7883C45.7391 46.4312 45.8365 46.0828 46.0068 45.7686C46.177 45.4543 46.4157 45.1823 46.7053 44.9728C47.5064 44.4159 48.1625 43.6754 48.6188 42.813C49.0751 41.9506 49.3183 40.9916 49.3281 40.0159V38.5C49.3281 36.5855 50.0886 34.7494 51.4425 33.3956C52.7963 32.0417 54.6323 31.2812 56.5469 31.2812C58.4614 31.2812 60.2975 32.0417 61.6513 33.3956C63.0051 34.7494 63.7656 36.5855 63.7656 38.5V40.0159C63.7755 40.9916 64.0186 41.9506 64.475 42.813C64.9312 43.6754 65.5874 44.4159 66.3884 44.9728ZM58.8448 47.728L56.5469 50.038L54.2489 47.728C54.5858 47.5122 54.8627 47.2151 55.0542 46.8638C55.2455 46.5126 55.3451 46.1188 55.3438 45.7188V45.5984C56.1378 45.7588 56.9559 45.7588 57.75 45.5984V45.7188C57.7487 46.1188 57.8483 46.5126 58.0396 46.8638C58.231 47.2151 58.508 47.5122 58.8448 47.728ZM56.5469 43.3125C55.5905 43.3096 54.6741 42.9285 53.9978 42.2522C53.3215 41.5759 52.9404 40.6595 52.9375 39.7031V38.5C54.6137 38.4794 56.2305 37.8753 57.5094 36.7916C58.1881 37.6057 59.1199 38.1691 60.1562 38.3917V39.7031C60.1534 40.6595 59.7722 41.5759 59.0959 42.2522C58.4197 42.9285 57.5032 43.3096 56.5469 43.3125ZM53.6473 50.5312H48.137C48.3049 50.301 48.4899 50.0838 48.6905 49.8816C49.305 49.2591 50.0541 48.7858 50.8802 48.498C51.0556 48.4235 51.2365 48.3631 51.4216 48.3175L53.6473 50.5312ZM64.9567 50.5312H59.4464L61.6722 48.3175C61.8732 48.3671 62.0702 48.4314 62.2617 48.51C63.0742 48.8039 63.8103 49.2768 64.4153 49.8936C64.6085 50.095 64.7894 50.3079 64.9567 50.5312ZM72.1875 50.5312H68.1209C68.6684 50.0589 69.1017 49.4688 69.3884 48.805C69.6753 48.1412 69.808 47.4212 69.7767 46.6988C69.7455 45.9765 69.5511 45.2706 69.208 44.634C68.8649 43.9976 68.3823 43.447 67.7961 43.0237C67.3043 42.6892 66.8999 42.2414 66.6173 41.7179C66.3345 41.1944 66.1819 40.6108 66.1719 40.0159V38.5C66.1719 35.9473 65.1578 33.4991 63.3528 31.694C61.5478 29.8891 59.0995 28.875 56.5469 28.875C53.9942 28.875 51.546 29.8891 49.7409 31.694C47.936 33.4991 46.9219 35.9473 46.9219 38.5V40.0159C46.9119 40.6108 46.7592 41.1944 46.4765 41.7179C46.1939 42.2414 45.7895 42.6892 45.2977 43.0237C44.7115 43.447 44.2288 43.9976 43.8858 44.634C43.5427 45.2706 43.3482 45.9765 43.3171 46.6988C43.2858 47.4212 43.4185 48.1412 43.7053 48.805C43.992 49.4688 44.4254 50.0589 44.9728 50.5312H39.643V28.875H72.1875V50.5312ZM60.1562 13.2344C60.1562 14.1916 59.7759 15.1097 59.0991 15.7866C58.4222 16.4634 57.5041 16.8438 56.5469 16.8438C55.5897 16.8438 54.6716 16.4634 53.9947 15.7866C53.3178 15.1097 52.9375 14.1916 52.9375 13.2344H60.1562ZM51.8908 10.8281C52.1599 9.79825 52.7629 8.88669 53.6055 8.23609C54.448 7.58549 55.4823 7.23256 56.5469 7.23256C57.6114 7.23256 58.6457 7.58549 59.4883 8.23609C60.3308 8.88669 60.9338 9.79825 61.203 10.8281H51.8908ZM59.7592 21.6202C58.8794 22.4176 57.7344 22.8593 56.5469 22.8593C55.3594 22.8593 54.2144 22.4176 53.3345 21.6202C53.8947 21.5245 54.4033 21.2344 54.7707 20.8009C55.1383 20.3675 55.3411 19.8182 55.3438 19.25V19.1297C56.1378 19.2901 56.9559 19.2901 57.75 19.1297V19.25C57.7526 19.8182 57.9555 20.3675 58.323 20.8009C58.6905 21.2344 59.199 21.5245 59.7592 21.6202ZM56.5469 25.2656C57.7725 25.2636 58.9776 24.9502 60.0488 24.3545C61.1201 23.759 62.0223 22.9008 62.6708 21.8608C63.6752 22.1452 64.5598 22.7486 65.1913 23.5797C65.8228 24.4109 66.1671 25.4249 66.1719 26.4688H46.9219C46.9267 25.4249 47.2709 24.4109 47.9024 23.5797C48.5339 22.7486 49.4186 22.1452 50.423 21.8608C51.0715 22.9008 51.9737 23.759 53.0449 24.3545C54.1162 24.9502 55.3213 25.2636 56.5469 25.2656ZM72.1875 26.4688H68.5781C68.5749 24.6781 67.9075 22.9524 66.7051 21.6256C65.5027 20.2988 63.8508 19.4651 62.0692 19.2861C61.8406 19.262 60.1562 19.25 60.1562 19.25V18.0108C60.9018 17.4572 61.5077 16.737 61.9254 15.9077C62.3433 15.0784 62.5614 14.1629 62.5625 13.2344C62.8816 13.2344 63.1876 13.1076 63.4132 12.882C63.6388 12.6564 63.7656 12.3503 63.7656 12.0312C63.7656 10.1167 63.0051 8.2806 61.6513 6.92682C60.2975 5.57304 58.4614 4.8125 56.5469 4.8125C54.6323 4.8125 52.7963 5.57304 51.4425 6.92682C50.0886 8.2806 49.3281 10.1167 49.3281 12.0312C49.3281 12.3503 49.4549 12.6564 49.6805 12.882C49.9061 13.1076 50.2122 13.2344 50.5312 13.2344C50.5323 14.1629 50.7505 15.0784 51.1683 15.9077C51.586 16.737 52.1919 17.4572 52.9375 18.0108V19.25C52.9375 19.25 51.2531 19.262 51.0245 19.2861C49.2429 19.4651 47.5911 20.2988 46.3887 21.6256C45.1862 22.9524 44.5189 24.6781 44.5156 26.4688H39.643V4.8125H70.9844C71.3034 4.8125 71.6095 4.93926 71.8351 5.16488C72.0607 5.39052 72.1875 5.69653 72.1875 6.01562V26.4688Z" fill="#DE1515"/>
<path d="M39.7031 54.1406H37.2969C36.9778 54.1406 36.6717 54.2674 36.4461 54.493C36.2206 54.7186 36.0938 55.0247 36.0938 55.3438C36.0938 55.6628 36.2206 55.9689 36.4461 56.1945C36.6717 56.4201 36.9778 56.5469 37.2969 56.5469H39.7031C40.0222 56.5469 40.3283 56.4201 40.5539 56.1945C40.7794 55.9689 40.9062 55.6628 40.9062 55.3438C40.9062 55.0247 40.7794 54.7186 40.5539 54.493C40.3283 54.2674 40.0222 54.1406 39.7031 54.1406Z" fill="#DE1515"/>
<path d="M7.21875 8.42188H8.42188C8.74097 8.42188 9.04698 8.29511 9.27262 8.06949C9.49824 7.84386 9.625 7.53784 9.625 7.21875C9.625 6.89966 9.49824 6.59364 9.27262 6.36801C9.04698 6.14239 8.74097 6.01562 8.42188 6.01562H7.21875C6.89966 6.01562 6.59364 6.14239 6.36801 6.36801C6.14239 6.59364 6.01562 6.89966 6.01562 7.21875C6.01562 7.53784 6.14239 7.84386 6.36801 8.06949C6.59364 8.29511 6.89966 8.42188 7.21875 8.42188Z" fill="#DE1515"/>
<path d="M42.1094 8.42188H43.3125C43.6316 8.42188 43.9376 8.29511 44.1632 8.06949C44.3888 7.84386 44.5156 7.53784 44.5156 7.21875C44.5156 6.89966 44.3888 6.59364 44.1632 6.36801C43.9376 6.14239 43.6316 6.01562 43.3125 6.01562H42.1094C41.7903 6.01562 41.4842 6.14239 41.2586 6.36801C41.0331 6.59364 40.9062 6.89966 40.9062 7.21875C40.9062 7.53784 41.0331 7.84386 41.2586 8.06949C41.4842 8.29511 41.7903 8.42188 42.1094 8.42188Z" fill="#DE1515"/>
<path d="M43.3125 30.0781H42.1094C41.7903 30.0781 41.4842 30.2049 41.2586 30.4305C41.0331 30.6561 40.9062 30.9622 40.9062 31.2812C40.9062 31.6003 41.0331 31.9064 41.2586 32.132C41.4842 32.3576 41.7903 32.4844 42.1094 32.4844H43.3125C43.6316 32.4844 43.9376 32.3576 44.1632 32.132C44.3888 31.9064 44.5156 31.6003 44.5156 31.2812C44.5156 30.9622 44.3888 30.6561 44.1632 30.4305C43.9376 30.2049 43.6316 30.0781 43.3125 30.0781Z" fill="#DE1515"/>
<path d="M8.42188 30.0781H7.21875C6.89966 30.0781 6.59364 30.2049 6.36801 30.4305C6.14239 30.6561 6.01562 30.9622 6.01562 31.2812C6.01562 31.6003 6.14239 31.9064 6.36801 32.132C6.59364 32.3576 6.89966 32.4844 7.21875 32.4844H8.42188C8.74097 32.4844 9.04698 32.3576 9.27262 32.132C9.49824 31.9064 9.625 31.6003 9.625 31.2812C9.625 30.9622 9.49824 30.6561 9.27262 30.4305C9.04698 30.2049 8.74097 30.0781 8.42188 30.0781Z" fill="#DE1515"/>
</svg>
