<svg width="77" height="77" viewBox="0 0 77 77" fill="none" xmlns="http://www.w3.org/2000/svg">
<path d="M74.5938 22.8594V8.42188C74.5918 6.82701 73.9574 5.29803 72.8297 4.1703C71.7019 3.04256 70.173 2.40816 68.5781 2.40625H8.42188C6.82701 2.40816 5.29803 3.04256 4.1703 4.1703C3.04256 5.29803 2.40816 6.82701 2.40625 8.42188V10.8281C2.40625 11.1472 2.53301 11.4532 2.75863 11.6789C2.98427 11.9045 3.29028 12.0312 3.60938 12.0312C3.92847 12.0312 4.23448 11.9045 4.46012 11.6789C4.68574 11.4532 4.8125 11.1472 4.8125 10.8281V8.42188C4.8125 7.46461 5.19277 6.54655 5.86966 5.86966C6.54655 5.19277 7.46461 4.8125 8.42188 4.8125H68.5781C69.5353 4.8125 70.4534 5.19277 71.1303 5.86966C71.8072 6.54655 72.1875 7.46461 72.1875 8.42188V22.8594C72.1875 23.8166 71.8072 24.7347 71.1303 25.4116C70.4534 26.0884 69.5353 26.4688 68.5781 26.4688H63.7656V15.7609C63.7656 14.7717 63.3727 13.8231 62.6732 13.1237C61.9738 12.4242 61.0252 12.0312 60.0359 12.0312H45.7188C45.3997 12.0312 45.0936 12.1581 44.868 12.3836C44.6424 12.6092 44.5156 12.9153 44.5156 13.2344C44.5156 13.5534 44.6424 13.8595 44.868 14.0851C45.0936 14.3107 45.3997 14.4375 45.7188 14.4375H60.0359C60.3869 14.4375 60.7235 14.5769 60.9717 14.8251C61.2199 15.0734 61.3594 15.41 61.3594 15.7609V26.4688H58.9531V18.0469C58.9531 17.7278 58.8263 17.4217 58.6007 17.1961C58.3751 16.9706 58.0691 16.8438 57.75 16.8438H19.25C18.9309 16.8438 18.6249 16.9706 18.3993 17.1961C18.1737 17.4217 18.0469 17.7278 18.0469 18.0469V26.4688H15.6406V15.7609C15.6406 15.41 15.7801 15.0734 16.0283 14.8251C16.2765 14.5769 16.6131 14.4375 16.9641 14.4375H32.4844C32.8034 14.4375 33.1095 14.3107 33.3351 14.0851C33.5607 13.8595 33.6875 13.5534 33.6875 13.2344C33.6875 12.9153 33.5607 12.6092 33.3351 12.3836C33.1095 12.1581 32.8034 12.0312 32.4844 12.0312H16.9641C15.9749 12.0312 15.0262 12.4242 14.3268 13.1237C13.6273 13.8231 13.2344 14.7717 13.2344 15.7609V26.4688H8.42188C7.46461 26.4688 6.54655 26.0884 5.86966 25.4116C5.19277 24.7347 4.8125 23.8166 4.8125 22.8594V20.4531C4.8125 20.1341 4.68574 19.828 4.46012 19.6024C4.23448 19.3768 3.92847 19.25 3.60938 19.25C3.29028 19.25 2.98427 19.3768 2.75863 19.6024C2.53301 19.828 2.40625 20.1341 2.40625 20.4531V22.8594C2.40816 24.4542 3.04256 25.9832 4.1703 27.111C5.29803 28.2387 6.82701 28.8731 8.42188 28.875V45.7188H7.21875C6.26148 45.7188 5.34343 46.0991 4.66654 46.7759C3.98965 47.4528 3.60938 48.3709 3.60938 49.3281C3.60938 50.2853 3.98965 51.2034 4.66654 51.8803C5.34343 52.5572 6.26148 52.9375 7.21875 52.9375H14.4375C14.7566 52.9375 15.0626 52.8107 15.2882 52.5851C15.5138 52.3595 15.6406 52.0534 15.6406 51.7344C15.6406 51.4153 15.5138 51.1092 15.2882 50.8836C15.0626 50.6581 14.7566 50.5312 14.4375 50.5312H7.21875C6.89966 50.5312 6.59364 50.4044 6.36801 50.1789C6.14239 49.9533 6.01562 49.6472 6.01562 49.3281C6.01562 49.0091 6.14239 48.703 6.36801 48.4774C6.59364 48.2518 6.89966 48.125 7.21875 48.125H14.4375C14.7566 48.125 15.0626 47.9982 15.2882 47.7726C15.5138 47.547 15.6406 47.2409 15.6406 46.9219V28.875H18.0469V58.4262L2.79366 72.5063C2.61573 72.6704 2.49146 72.8845 2.43707 73.1204C2.3827 73.3562 2.40074 73.6031 2.48886 73.8286C2.57696 74.054 2.73105 74.2476 2.93094 74.3842C3.13086 74.5207 3.36729 74.5938 3.60938 74.5938H73.3906C73.6327 74.5938 73.8691 74.5207 74.0691 74.3842C74.2689 74.2476 74.423 74.054 74.5111 73.8286C74.5993 73.6031 74.6173 73.3562 74.563 73.1204C74.5086 72.8845 74.3843 72.6704 74.2063 72.5063L68.9932 67.6938C68.7587 67.4774 68.4477 67.3628 68.1288 67.3756C67.8099 67.3884 67.509 67.5273 67.2926 67.7618C67.0761 67.9963 66.9616 68.3073 66.9744 68.6263C66.9871 68.9451 67.1261 69.246 67.3606 69.4624L70.313 72.1875H59.6148L50.8008 58.3083C50.6297 58.0387 50.3586 57.8483 50.0471 57.7786C49.7356 57.7091 49.4093 57.766 49.1398 57.9371C48.8703 58.1082 48.6799 58.3792 48.6102 58.6907C48.5407 59.0022 48.5976 59.3285 48.7687 59.598L56.7634 72.1875H46.5838L43.6229 63.3818C43.5725 63.2317 43.4931 63.0931 43.389 62.9736C43.2851 62.8543 43.1585 62.7566 43.0168 62.6861C42.8749 62.6156 42.7207 62.5737 42.5627 62.5627C42.4047 62.5519 42.2463 62.5722 42.0961 62.6227C41.946 62.6731 41.8074 62.7525 41.6879 62.8565C41.5686 62.9605 41.4709 63.0871 41.4004 63.2288C41.3299 63.3706 41.288 63.5249 41.2771 63.6828C41.2662 63.8408 41.2866 63.9993 41.337 64.1494L44.0452 72.1875H32.9548L35.657 64.1494C35.7115 63.9988 35.7352 63.8387 35.727 63.6786C35.7187 63.5186 35.6787 63.362 35.609 63.2176C35.5393 63.0733 35.4417 62.9444 35.3215 62.8384C35.2013 62.7324 35.0612 62.6514 34.9094 62.6003C34.7576 62.5493 34.5971 62.5289 34.4372 62.5407C34.2774 62.5524 34.1216 62.5959 33.9789 62.6687C33.8361 62.7416 33.7094 62.8421 33.606 62.9646C33.5027 63.0871 33.4249 63.2289 33.3771 63.3818L30.4162 72.1875H20.2366L28.2313 59.598C28.4024 59.3285 28.4593 59.0022 28.3898 58.6907C28.3201 58.3792 28.1297 58.1082 27.8602 57.9371C27.5907 57.766 27.2644 57.7091 26.9529 57.7786C26.6414 57.8483 26.3703 58.0387 26.1992 58.3083L17.3852 72.1875H6.68697L20.0657 59.8374C20.1878 59.7248 20.2853 59.588 20.3521 59.4358C20.4187 59.2836 20.4531 59.1193 20.4531 58.9531V19.25H56.5469V58.9531C56.5469 59.1193 56.5813 59.2836 56.6479 59.4358C56.7147 59.588 56.8122 59.7248 56.9343 59.8374L60.8444 63.4468C60.9603 63.5557 61.0965 63.6405 61.2453 63.6964C61.394 63.7524 61.5525 63.7783 61.7114 63.7726C61.8702 63.7669 62.0264 63.7299 62.1709 63.6636C62.3153 63.5972 62.4452 63.5029 62.5529 63.386C62.6607 63.2692 62.7443 63.1322 62.7988 62.9829C62.8533 62.8334 62.8777 62.6749 62.8705 62.5161C62.8633 62.3572 62.8248 62.2014 62.757 62.0577C62.6893 61.9138 62.5938 61.7849 62.4759 61.6782L58.9531 58.4262V28.875H61.3594V46.9219C61.3594 47.2409 61.4862 47.547 61.7118 47.7726C61.9374 47.9982 62.2434 48.125 62.5625 48.125H69.7812C70.1003 48.125 70.4064 48.2518 70.632 48.4774C70.8576 48.703 70.9844 49.0091 70.9844 49.3281C70.9844 49.6472 70.8576 49.9533 70.632 50.1789C70.4064 50.4044 70.1003 50.5312 69.7812 50.5312H62.5625C62.2434 50.5312 61.9374 50.6581 61.7118 50.8836C61.4862 51.1092 61.3594 51.4153 61.3594 51.7344C61.3594 52.0534 61.4862 52.3595 61.7118 52.5851C61.9374 52.8107 62.2434 52.9375 62.5625 52.9375H69.7812C70.7385 52.9375 71.6566 52.5572 72.3334 51.8803C73.0103 51.2034 73.3906 50.2853 73.3906 49.3281C73.3906 48.3709 73.0103 47.4528 72.3334 46.7759C71.6566 46.0991 70.7385 45.7188 69.7812 45.7188H68.5781V28.875C70.173 28.8731 71.7019 28.2387 72.8297 27.111C73.9574 25.9832 74.5918 24.4542 74.5938 22.8594ZM10.8281 45.7188V28.875H13.2344V45.7188H10.8281ZM66.1719 45.7188H63.7656V28.875H66.1719V45.7188Z" fill="#DE1515"/>
<path d="M61.3594 9.625C61.6784 9.625 61.9845 9.49824 62.2101 9.27262C62.4357 9.04698 62.5625 8.74097 62.5625 8.42188C62.5625 8.10278 62.4357 7.79677 62.2101 7.57113C61.9845 7.34551 61.6784 7.21875 61.3594 7.21875H54.1406C53.8216 7.21875 53.5155 7.34551 53.2899 7.57113C53.0643 7.79677 52.9375 8.10278 52.9375 8.42188C52.9375 8.74097 53.0643 9.04698 53.2899 9.27262C53.5155 9.49824 53.8216 9.625 54.1406 9.625H61.3594Z" fill="#DE1515"/>
<path d="M68.5781 15.6406C69.2426 15.6406 69.7812 15.102 69.7812 14.4375C69.7812 13.773 69.2426 13.2344 68.5781 13.2344C67.9136 13.2344 67.375 13.773 67.375 14.4375C67.375 15.102 67.9136 15.6406 68.5781 15.6406Z" fill="#DE1515"/>
<path d="M68.5781 20.4531C69.2426 20.4531 69.7812 19.9145 69.7812 19.25C69.7812 18.5855 69.2426 18.0469 68.5781 18.0469C67.9136 18.0469 67.375 18.5855 67.375 19.25C67.375 19.9145 67.9136 20.4531 68.5781 20.4531Z" fill="#DE1515"/>
<path d="M8.42188 15.6406C9.08634 15.6406 9.625 15.102 9.625 14.4375C9.625 13.773 9.08634 13.2344 8.42188 13.2344C7.75741 13.2344 7.21875 13.773 7.21875 14.4375C7.21875 15.102 7.75741 15.6406 8.42188 15.6406Z" fill="#DE1515"/>
<path d="M8.42188 20.4531C9.08634 20.4531 9.625 19.9145 9.625 19.25C9.625 18.5855 9.08634 18.0469 8.42188 18.0469C7.75741 18.0469 7.21875 18.5855 7.21875 19.25C7.21875 19.9145 7.75741 20.4531 8.42188 20.4531Z" fill="#DE1515"/>
<path d="M45.7188 44.5158C46.0378 44.5158 46.3439 44.3891 46.5695 44.1634C46.7951 43.9378 46.9219 43.6317 46.9219 43.3126V28.8751C46.9219 28.7004 46.8837 28.5277 46.8101 28.3692C46.7366 28.2107 46.6294 28.07 46.496 27.9572C46.3627 27.8443 46.2063 27.7618 46.0377 27.7154C45.8691 27.6691 45.6926 27.66 45.5202 27.6889L31.1814 30.0783H28.875C27.2795 30.0783 25.7494 30.7121 24.6214 31.8402C23.4932 32.9684 22.8594 34.4984 22.8594 36.0939C22.8594 37.6894 23.4932 39.2195 24.6214 40.3475C25.7494 41.4757 27.2795 42.1095 28.875 42.1095H31.1814L32.0669 42.2575L34.4322 49.3559C34.5665 49.8031 34.7893 50.2189 35.0872 50.5784C35.3852 50.938 35.7523 51.2341 36.1668 51.4493C36.5813 51.6644 37.0347 51.7941 37.5003 51.8306C37.9658 51.8672 38.4339 51.8101 38.8769 51.6624C39.3201 51.5147 39.7289 51.2796 40.0793 50.9711C40.4299 50.6625 40.7148 50.2867 40.9174 49.8659C41.12 49.4452 41.2361 48.9881 41.2588 48.5217C41.2815 48.0552 41.2103 47.589 41.0494 47.1506L39.8487 43.5533L45.5202 44.4977C45.5857 44.5097 45.6522 44.5158 45.7188 44.5158ZM25.2656 36.0939C25.2656 35.1367 25.6459 34.2186 26.3228 33.5417C26.9997 32.8648 27.9178 32.4845 28.875 32.4845H30.0781V39.7033H28.875C27.9178 39.7033 26.9997 39.323 26.3228 38.6461C25.6459 37.9692 25.2656 37.0512 25.2656 36.0939ZM37.1633 43.1069L38.7635 47.9074C38.8183 48.0694 38.8336 48.2423 38.8079 48.4115C38.7821 48.5806 38.7161 48.7411 38.6155 48.8795C38.4922 49.0289 38.3322 49.1438 38.1512 49.2129C37.9701 49.2819 37.7743 49.303 37.5827 49.2738C37.3912 49.2445 37.2106 49.1661 37.0584 49.0462C36.9062 48.9263 36.7877 48.7689 36.7146 48.5895L34.7535 42.7051L35.9566 42.906L37.1633 43.1069ZM44.5156 41.8917L32.4844 39.8873V32.3004L44.5156 30.296V41.8917Z" fill="#DE1515"/>
<path d="M52.9375 34.8906H50.5312C50.2122 34.8906 49.9061 35.0174 49.6805 35.243C49.4549 35.4686 49.3281 35.7747 49.3281 36.0938C49.3281 36.4128 49.4549 36.7189 49.6805 36.9445C49.9061 37.1701 50.2122 37.2969 50.5312 37.2969H52.9375C53.2566 37.2969 53.5626 37.1701 53.7882 36.9445C54.0138 36.7189 54.1406 36.4128 54.1406 36.0938C54.1406 35.7747 54.0138 35.4686 53.7882 35.243C53.5626 35.0174 53.2566 34.8906 52.9375 34.8906Z" fill="#DE1515"/>
<path d="M50.5313 31.2813C50.7175 31.2813 50.9011 31.238 51.0679 31.155L53.4741 29.9518C53.6155 29.8812 53.7416 29.7834 53.8453 29.6641C53.9489 29.5447 54.0279 29.4061 54.078 29.2562C54.128 29.1063 54.1481 28.948 54.1369 28.7902C54.1258 28.6326 54.0837 28.4786 54.0131 28.3372C53.9425 28.1959 53.8447 28.0697 53.7253 27.9661C53.606 27.8625 53.4674 27.7835 53.3175 27.7334C53.0146 27.6322 52.6841 27.6556 52.3985 27.7982L49.9923 29.0014C49.7494 29.1224 49.5546 29.322 49.4394 29.5677C49.3243 29.8135 49.2957 30.0909 49.3581 30.355C49.4205 30.6191 49.5703 30.8543 49.7834 31.0224C49.9964 31.1906 50.2598 31.2818 50.5313 31.2813Z" fill="#DE1515"/>
<path d="M51.0691 41.0268C50.7835 40.8841 50.453 40.8608 50.1501 40.9618C49.8473 41.063 49.5971 41.2802 49.4545 41.5658C49.3118 41.8514 49.2885 42.1819 49.3897 42.4847C49.4907 42.7874 49.7079 43.0377 49.9935 43.1804L52.3997 44.3835C52.6854 44.5261 53.0159 44.5494 53.3187 44.4484C53.4686 44.3983 53.6072 44.3193 53.7266 44.2157C53.8459 44.112 53.9437 43.9859 54.0143 43.8445C54.085 43.7031 54.1271 43.5491 54.1381 43.3915C54.1493 43.2338 54.1292 43.0755 54.0792 42.9256C54.0291 42.7757 53.9501 42.6371 53.8465 42.5177C53.7428 42.3984 53.6167 42.3005 53.4753 42.2299L51.0691 41.0268Z" fill="#DE1515"/>
</svg>
