<svg width="80" height="77" viewBox="0 0 80 77" fill="none" xmlns="http://www.w3.org/2000/svg">
<g clip-path="url(#clip0_255_2230)">
<path d="M55.3438 43.3125C56.0082 43.3125 56.5469 42.7738 56.5469 42.1094C56.5469 41.4449 56.0082 40.9062 55.3438 40.9062C54.6793 40.9062 54.1406 41.4449 54.1406 42.1094C54.1406 42.7738 54.6793 43.3125 55.3438 43.3125Z" fill="#DE1515"/>
<path d="M60.1562 43.3125C60.8207 43.3125 61.3594 42.7738 61.3594 42.1094C61.3594 41.4449 60.8207 40.9062 60.1562 40.9062C59.4918 40.9062 58.9531 41.4449 58.9531 42.1094C58.9531 42.7738 59.4918 43.3125 60.1562 43.3125Z" fill="#DE1515"/>
<path d="M55.1993 45.3699C54.9753 45.5953 54.8495 45.9002 54.8495 46.2181C54.8495 46.5359 54.9753 46.8409 55.1993 47.0663C55.8761 47.7422 56.7935 48.1219 57.75 48.1219C58.7065 48.1219 59.6238 47.7422 60.3006 47.0663C60.4977 46.8361 60.6007 46.5401 60.589 46.2373C60.5773 45.9345 60.4518 45.6472 60.2375 45.433C60.0232 45.2187 59.736 45.0932 59.4332 45.0815C59.1304 45.0698 58.8344 45.1728 58.6042 45.3699C58.4923 45.4826 58.3593 45.5721 58.2127 45.6332C58.0661 45.6943 57.9088 45.7258 57.75 45.7258C57.5911 45.7258 57.4339 45.6943 57.2873 45.6332C57.1407 45.5721 57.0076 45.4826 56.8958 45.3699C56.6703 45.1458 56.3654 45.02 56.0475 45.02C55.7297 45.02 55.4248 45.1458 55.1993 45.3699Z" fill="#DE1515"/>
<path d="M73.3906 67.3751H69.7812V56.547C69.7812 54.9515 69.1475 53.4214 68.0193 52.2933C66.8912 51.1651 65.3611 50.5313 63.7656 50.5313H63.6333C64.4356 49.7481 65.0733 48.8125 65.5093 47.7795C65.9452 46.7466 66.1705 45.6369 66.1719 44.5157V43.1923C67.5306 42.9149 68.7519 42.1766 69.6288 41.1023C70.5058 40.028 70.9847 38.6837 70.9844 37.297V34.8907C70.9844 33.2953 70.3506 31.7652 69.2224 30.637C68.0943 29.5089 66.5642 28.8751 64.9688 28.8751H45.7188C45.3997 28.8751 45.0936 29.0018 44.868 29.2275C44.6424 29.4531 44.5156 29.7591 44.5156 30.0782V37.297C44.5153 38.6837 44.9942 40.028 45.8712 41.1023C46.7481 42.1766 47.9694 42.9149 49.3281 43.1923V44.5157C49.3295 45.6369 49.5548 46.7466 49.9907 47.7795C50.4267 48.8125 51.0644 49.7481 51.8667 50.5313H51.7344C50.1389 50.5313 48.6088 51.1651 47.4807 52.2933C46.3525 53.4214 45.7188 54.9515 45.7188 56.547V62.5626H43.3125C42.3552 62.5626 41.4372 62.9429 40.7603 63.6197C40.0834 64.2966 39.7031 65.2147 39.7031 66.172V67.3751H36.0938V66.172C36.0938 65.2147 35.7135 64.2966 35.0366 63.6197C34.3597 62.9429 33.4416 62.5626 32.4844 62.5626H29.6209L28.4178 60.1563H36.0938C37.3701 60.1563 38.5942 59.6493 39.4967 58.7468C40.3992 57.8443 40.9062 56.6202 40.9062 55.3438V36.0938C40.9062 34.8175 40.3992 33.5934 39.4967 32.6909C38.5942 31.7884 37.3701 31.2813 36.0938 31.2813H25.2656V21.5721C25.6646 21.6245 26.0664 21.6526 26.4688 21.6563C27.8363 21.6531 29.1874 21.3585 30.4321 20.7921C31.6769 20.2258 32.7866 19.4007 33.6875 18.3718V25.2657C33.6875 25.5848 33.8143 25.8908 34.0399 26.1165C34.2655 26.3421 34.5715 26.4688 34.8906 26.4688H51.7344C52.0535 26.4688 52.3595 26.3421 52.5851 26.1165C52.8107 25.8908 52.9375 25.5848 52.9375 25.2657V8.42196C52.9375 8.10287 52.8107 7.79686 52.5851 7.57123C52.3595 7.3456 52.0535 7.21884 51.7344 7.21884H34.8064C33.7475 5.38284 32.1122 3.94769 30.1542 3.13613C28.1963 2.32457 26.0252 2.18198 23.9779 2.73048C21.9306 3.27898 20.1216 4.4879 18.8317 6.16963C17.5417 7.85136 16.8429 9.91186 16.8438 12.0313C16.8491 12.8432 16.9542 13.6513 17.1566 14.4376H9.625C9.30591 14.4376 8.99989 14.5643 8.77426 14.79C8.54863 15.0156 8.42188 15.3216 8.42188 15.6407V31.2813H7.21875C5.9424 31.2813 4.71832 31.7884 3.8158 32.6909C2.91328 33.5934 2.40625 34.8175 2.40625 36.0938V55.3438C2.40625 56.6202 2.91328 57.8443 3.8158 58.7468C4.71832 59.6493 5.9424 60.1563 7.21875 60.1563H14.8947L13.6916 62.5626H10.8281C9.87086 62.5626 8.9528 62.9429 8.27591 63.6197C7.59902 64.2966 7.21875 65.2147 7.21875 66.172V67.3751H3.60938C3.29029 67.3751 2.98427 67.5018 2.75864 67.7275C2.53301 67.9531 2.40625 68.2591 2.40625 68.5782V73.3907C2.40625 73.7098 2.53301 74.0158 2.75864 74.2414C2.98427 74.4671 3.29029 74.5938 3.60938 74.5938C3.92846 74.5938 4.23448 74.4671 4.46011 74.2414C4.68574 74.0158 4.8125 73.7098 4.8125 73.3907V69.7813H72.1875V73.3907C72.1875 73.7098 72.3143 74.0158 72.5399 74.2414C72.7655 74.4671 73.0715 74.5938 73.3906 74.5938C73.7097 74.5938 74.0157 74.4671 74.2414 74.2414C74.467 74.0158 74.5938 73.7098 74.5938 73.3907V68.5782C74.5938 68.2591 74.467 67.9531 74.2414 67.7275C74.0157 67.5018 73.7097 67.3751 73.3906 67.3751ZM67.375 56.547V67.3751H64.9688V58.9532C64.9688 58.6341 64.842 58.3281 64.6164 58.1025C64.3907 57.8768 64.0847 57.7501 63.7656 57.7501C63.4465 57.7501 63.1405 57.8768 62.9149 58.1025C62.6893 58.3281 62.5625 58.6341 62.5625 58.9532V67.3751H58.9531V58.087L62.0452 52.9376H63.7656C64.7229 52.9376 65.6409 53.3179 66.3178 53.9947C66.9947 54.6716 67.375 55.5897 67.375 56.547ZM59.2298 52.9376L57.75 55.416L56.2702 52.9376H59.2298ZM46.9219 37.297V31.2813H64.9688C65.926 31.2813 66.8441 31.6616 67.521 32.3385C68.1979 33.0154 68.5781 33.9334 68.5781 34.8907V37.297C68.576 38.0416 68.3437 38.7674 67.9129 39.3748C67.4821 39.9823 66.874 40.4416 66.1719 40.6898V37.297C66.1719 36.9779 66.0451 36.6719 65.8195 36.4462C65.5939 36.2206 65.2878 36.0938 64.9688 36.0938H58.4839C55.889 36.0995 53.351 35.3331 51.193 33.8921C51.0154 33.7772 50.8107 33.7112 50.5995 33.7006C50.3883 33.6901 50.178 33.7354 49.9898 33.832C49.7932 33.931 49.6276 34.0821 49.5109 34.2688C49.3942 34.4555 49.331 34.6706 49.3281 34.8907V40.6898C48.626 40.4416 48.0179 39.9823 47.5871 39.3748C47.1563 38.7674 46.924 38.0416 46.9219 37.297ZM51.7344 44.5157V36.9601C53.8393 37.9758 56.1467 38.5023 58.4839 38.5001H63.7656V44.5157C63.7656 46.1112 63.1318 47.6413 62.0037 48.7694C60.8755 49.8975 59.3454 50.5313 57.75 50.5313C56.1546 50.5313 54.6245 49.8975 53.4963 48.7694C52.3682 47.6413 51.7344 46.1112 51.7344 44.5157ZM48.125 56.547C48.125 55.5897 48.5053 54.6716 49.1822 53.9947C49.8591 53.3179 50.7771 52.9376 51.7344 52.9376H53.4548L56.5469 58.087V62.7791C56.1611 62.6391 55.7542 62.5658 55.3438 62.5626H52.9375V58.9532C52.9375 58.6341 52.8107 58.3281 52.5851 58.1025C52.3595 57.8768 52.0535 57.7501 51.7344 57.7501C51.4153 57.7501 51.1093 57.8768 50.8836 58.1025C50.658 58.3281 50.5312 58.6341 50.5312 58.9532V62.5626H48.125V56.547ZM42.5666 24.0626H36.8397L39.7031 18.3357L42.5666 24.0626ZM45.2616 24.0626L46.3203 21.9451L47.3791 24.0626H45.2616ZM45.7188 10.8282C45.7188 11.0662 45.6482 11.2988 45.516 11.4966C45.3838 11.6945 45.1959 11.8487 44.976 11.9398C44.7562 12.0308 44.5143 12.0546 44.2809 12.0082C44.0475 11.9618 43.8331 11.8472 43.6649 11.679C43.4966 11.5107 43.382 11.2963 43.3356 11.0629C43.2892 10.8295 43.313 10.5876 43.4041 10.3678C43.4951 10.148 43.6494 9.96005 43.8472 9.82785C44.0451 9.69565 44.2777 9.62509 44.5156 9.62509C44.8347 9.62509 45.1407 9.75185 45.3664 9.97748C45.592 10.2031 45.7188 10.5091 45.7188 10.8282ZM36.0938 9.62509H41.1228C40.9249 10.1703 40.8614 10.7551 40.9374 11.33C41.0135 11.905 41.2271 12.4532 41.5599 12.9281C41.8928 13.403 42.3352 13.7908 42.8497 14.0584C43.3642 14.3261 43.9357 14.4659 44.5156 14.4659C45.0956 14.4659 45.667 14.3261 46.1815 14.0584C46.696 13.7908 47.1384 13.403 47.4713 12.9281C47.8042 12.4532 48.0177 11.905 48.0938 11.33C48.1699 10.7551 48.1063 10.1703 47.9084 9.62509H50.5312V24.0626H50.0741L47.3911 18.7087C47.2901 18.5116 47.1367 18.3462 46.9478 18.2307C46.7589 18.1152 46.5417 18.0541 46.3203 18.0541C46.0989 18.0541 45.8817 18.1152 45.6928 18.2307C45.5039 18.3462 45.3505 18.5116 45.2495 18.7087L43.9141 21.3676L40.7739 15.0993C40.6729 14.9022 40.5196 14.7368 40.3306 14.6214C40.1417 14.5059 39.9246 14.4448 39.7031 14.4448C39.4817 14.4448 39.2646 14.5059 39.0756 14.6214C38.8867 14.7368 38.7333 14.9022 38.6323 15.0993L36.0938 20.1645V9.62509ZM26.4688 4.81259C27.8965 4.81259 29.2922 5.23596 30.4793 6.02917C31.6664 6.82237 32.5916 7.94979 33.138 9.26884C33.6844 10.5879 33.8273 12.0393 33.5488 13.4396C33.2703 14.8399 32.5827 16.1262 31.5732 17.1358C30.5636 18.1453 29.2774 18.8328 27.8771 19.1114C26.4768 19.3899 25.0253 19.247 23.7063 18.7006C22.3872 18.1542 21.2598 17.229 20.4666 16.0419C19.6734 14.8547 19.25 13.4591 19.25 12.0313C19.25 10.1168 20.0105 8.28069 21.3643 6.92691C22.7181 5.57313 24.5542 4.81259 26.4688 4.81259ZM10.8281 16.8438H18.1431C19.2193 18.6945 20.8775 20.137 22.8594 20.9465V31.2813H10.8281V16.8438ZM4.8125 55.3438V36.0938C4.8125 35.4557 5.06601 34.8436 5.51727 34.3924C5.96853 33.9411 6.58057 33.6876 7.21875 33.6876H36.0938C36.7319 33.6876 37.344 33.9411 37.7952 34.3924C38.2465 34.8436 38.5 35.4557 38.5 36.0938V55.3438C38.5 55.982 38.2465 56.5941 37.7952 57.0453C37.344 57.4966 36.7319 57.7501 36.0938 57.7501H27.6719V49.3282C27.6719 47.7328 27.0381 46.2027 25.9099 45.0745C24.7818 43.9464 23.2517 43.3126 21.6562 43.3126C20.0608 43.3126 18.5307 43.9464 17.4026 45.0745C16.2744 46.2027 15.6406 47.7328 15.6406 49.3282V57.7501H7.21875C6.58057 57.7501 5.96853 57.4966 5.51727 57.0453C5.06601 56.5941 4.8125 55.982 4.8125 55.3438ZM17.9145 59.4946C18.0004 59.327 18.0457 59.1415 18.0469 58.9532V49.3282C18.0469 48.3709 18.4271 47.4529 19.104 46.776C19.7809 46.0991 20.699 45.7188 21.6562 45.7188C22.6135 45.7188 23.5316 46.0991 24.2085 46.776C24.8854 47.4529 25.2656 48.3709 25.2656 49.3282V58.9532C25.2685 59.1284 25.3095 59.3008 25.3859 59.4585L26.9259 62.5626H16.3866L17.9145 59.4946ZM9.625 67.3751V66.172C9.625 65.8529 9.75176 65.5468 9.97739 65.3212C10.203 65.0956 10.509 64.9688 10.8281 64.9688H32.4844C32.8035 64.9688 33.1095 65.0956 33.3351 65.3212C33.5607 65.5468 33.6875 65.8529 33.6875 66.172V67.3751H9.625ZM42.1094 66.172C42.1094 65.8529 42.2361 65.5468 42.4618 65.3212C42.6874 65.0956 42.9934 64.9688 43.3125 64.9688H55.3438C55.6628 64.9688 55.9689 65.0956 56.1945 65.3212C56.4201 65.5468 56.5469 65.8529 56.5469 66.172V67.3751H42.1094V66.172Z" fill="#DE1515"/>
<path d="M23.4248 16.6633C23.6163 16.782 23.8372 16.8445 24.0625 16.8438C24.2508 16.8426 24.4363 16.7973 24.6039 16.7114L31.8227 13.1021C32.0197 13.0011 32.1851 12.8477 32.3006 12.6588C32.4161 12.4698 32.4772 12.2527 32.4772 12.0313C32.4772 11.8098 32.4161 11.5927 32.3006 11.4038C32.1851 11.2148 32.0197 11.0615 31.8227 10.9605L24.6039 7.35112C24.4208 7.25882 24.2171 7.21488 24.0121 7.22347C23.8072 7.23205 23.6079 7.29287 23.4331 7.40016C23.2583 7.50744 23.1139 7.65763 23.0135 7.83646C22.913 8.01528 22.86 8.21681 22.8594 8.4219V15.6406C22.859 15.8451 22.9107 16.0463 23.0096 16.2252C23.1086 16.4042 23.2515 16.5549 23.4248 16.6633ZM25.2656 10.371L28.5863 12.0313L25.2656 13.6916V10.371Z" fill="#DE1515"/>
<path d="M19.25 20.4531H14.4375C14.1184 20.4531 13.8124 20.5799 13.5868 20.8055C13.3611 21.0311 13.2344 21.3372 13.2344 21.6562C13.2344 21.9753 13.3611 22.2814 13.5868 22.507C13.8124 22.7326 14.1184 22.8594 14.4375 22.8594H19.25C19.5691 22.8594 19.8751 22.7326 20.1007 22.507C20.3264 22.2814 20.4531 21.9753 20.4531 21.6562C20.4531 21.3372 20.3264 21.0311 20.1007 20.8055C19.8751 20.5799 19.5691 20.4531 19.25 20.4531Z" fill="#DE1515"/>
<path d="M19.25 25.2656H14.4375C14.1184 25.2656 13.8124 25.3924 13.5868 25.618C13.3611 25.8436 13.2344 26.1497 13.2344 26.4688C13.2344 26.7878 13.3611 27.0939 13.5868 27.3195C13.8124 27.5451 14.1184 27.6719 14.4375 27.6719H19.25C19.5691 27.6719 19.8751 27.5451 20.1007 27.3195C20.3264 27.0939 20.4531 26.7878 20.4531 26.4688C20.4531 26.1497 20.3264 25.8436 20.1007 25.618C19.8751 25.3924 19.5691 25.2656 19.25 25.2656Z" fill="#DE1515"/>
<path d="M66.1719 14.4375C67.1291 14.4375 68.0472 14.0572 68.7241 13.3803C69.401 12.7035 69.7812 11.7854 69.7812 10.8281V6.01562C69.7812 5.05836 69.401 4.1403 68.7241 3.46341C68.0472 2.78652 67.1291 2.40625 66.1719 2.40625C65.2146 2.40625 64.2966 2.78652 63.6197 3.46341C62.9428 4.1403 62.5625 5.05836 62.5625 6.01562V10.8281C62.5625 11.7854 62.9428 12.7035 63.6197 13.3803C64.2966 14.0572 65.2146 14.4375 66.1719 14.4375ZM64.9688 6.01562C64.9688 5.69654 65.0955 5.39052 65.3211 5.16489C65.5468 4.93926 65.8528 4.8125 66.1719 4.8125C66.491 4.8125 66.797 4.93926 67.0226 5.16489C67.2482 5.39052 67.375 5.69654 67.375 6.01562V10.8281C67.375 11.1472 67.2482 11.4532 67.0226 11.6789C66.797 11.9045 66.491 12.0312 66.1719 12.0312C65.8528 12.0312 65.5468 11.9045 65.3211 11.6789C65.0955 11.4532 64.9688 11.1472 64.9688 10.8281V6.01562Z" fill="#DE1515"/>
<path d="M64.9688 19.1538V21.6562H61.3594C61.0403 21.6562 60.7343 21.783 60.5086 22.0086C60.283 22.2343 60.1562 22.5403 60.1562 22.8594C60.1562 23.1785 60.283 23.4845 60.5086 23.7101C60.7343 23.9357 61.0403 24.0625 61.3594 24.0625H70.9844C71.3035 24.0625 71.6095 23.9357 71.8351 23.7101C72.0607 23.4845 72.1875 23.1785 72.1875 22.8594C72.1875 22.5403 72.0607 22.2343 71.8351 22.0086C71.6095 21.783 71.3035 21.6562 70.9844 21.6562H67.375V19.1538C69.3777 18.8647 71.2094 17.8642 72.535 16.3354C73.8606 14.8066 74.5914 12.8516 74.5938 10.8281C74.5938 10.509 74.467 10.203 74.2414 9.97739C74.0157 9.75176 73.7097 9.625 73.3906 9.625C73.0715 9.625 72.7655 9.75176 72.5399 9.97739C72.3143 10.203 72.1875 10.509 72.1875 10.8281C72.1875 12.4236 71.5537 13.9537 70.4256 15.0818C69.2974 16.21 67.7673 16.8438 66.1719 16.8438C64.5764 16.8438 63.0463 16.21 61.9182 15.0818C60.79 13.9537 60.1562 12.4236 60.1562 10.8281C60.1562 10.509 60.0295 10.203 59.8039 9.97739C59.5782 9.75176 59.2722 9.625 58.9531 9.625C58.634 9.625 58.328 9.75176 58.1024 9.97739C57.8768 10.203 57.75 10.509 57.75 10.8281C57.7524 12.8516 58.4832 14.8066 59.8088 16.3354C61.1343 17.8642 62.966 18.8647 64.9688 19.1538Z" fill="#DE1515"/>
</g>
<defs>
<clipPath id="clip0_255_2230">
<rect width="80" height="77" fill="white"/>
</clipPath>
</defs>
</svg>
