<svg width="80" height="79" viewBox="0 0 80 79" fill="none" xmlns="http://www.w3.org/2000/svg">
<g clip-path="url(#clip0_255_2097)">
<path d="M70.0625 39.1875C69.6444 39.1911 69.2302 39.2691 68.8394 39.4179C68.794 38.2796 68.4424 37.1746 67.8217 36.2193C67.201 35.264 66.3342 34.4938 65.3125 33.9898C66.0748 33.131 66.4971 32.0233 66.5 30.875V27.3125C66.5 26.0527 65.9996 24.8445 65.1088 23.9537C64.218 23.0629 63.0098 22.5625 61.75 22.5625C60.4902 22.5625 59.282 23.0629 58.3912 23.9537C57.5004 24.8445 57 26.0527 57 27.3125V30.875C57.0021 31.5495 57.1487 32.2157 57.43 32.8288C57.7112 33.4419 58.1206 33.9876 58.6304 34.4292C57.8222 34.9803 57.1501 35.7082 56.6651 36.5578C56.1801 37.4073 55.8951 38.3562 55.8315 39.3324C55.8169 39.4815 55.8105 39.6314 55.8125 39.7812V40.375H49.875C49.4695 40.3792 49.0677 40.4535 48.6875 40.5947C48.6778 39.466 48.4118 38.3542 47.9097 37.3433C47.3558 36.2312 46.5291 35.2775 45.5068 34.5715C44.4844 33.8654 43.2998 33.43 42.0636 33.3058C42.5103 32.5735 42.7477 31.7328 42.75 30.875V27.3125C42.75 26.0527 42.2496 24.8445 41.3588 23.9537C40.468 23.0629 39.2598 22.5625 38 22.5625C36.7402 22.5625 35.532 23.0629 34.6412 23.9537C33.7504 24.8445 33.25 26.0527 33.25 27.3125V30.875C33.2539 31.7323 33.4925 32.5722 33.9399 33.3034C32.7037 33.4275 31.5191 33.8629 30.4967 34.569C29.4744 35.275 28.6477 36.2287 28.0939 37.3409C27.5898 38.3522 27.3226 39.4649 27.3125 40.5947C26.9323 40.4535 26.5305 40.3792 26.125 40.375H20.1875V39.7812C20.1898 39.6505 20.185 39.5196 20.1733 39.3894C20.1122 38.4041 19.8278 37.4456 19.3417 36.5865C18.8556 35.7274 18.1803 34.9901 17.3672 34.4304C17.8778 33.989 18.2878 33.4433 18.5695 32.8299C18.8512 32.2166 18.998 31.5499 19 30.875V27.3125C19 26.0527 18.4996 24.8445 17.6088 23.9537C16.718 23.0629 15.5098 22.5625 14.25 22.5625C12.9902 22.5625 11.782 23.0629 10.8912 23.9537C10.0004 24.8445 9.5 26.0527 9.5 27.3125V30.875C9.50315 32.0229 9.92544 33.1302 10.6875 33.9886C9.66597 34.4931 8.7993 35.2636 8.17865 36.219C7.558 37.1744 7.20633 38.2795 7.16063 39.4179C6.76981 39.2691 6.35565 39.1911 5.9375 39.1875C4.99267 39.1875 4.08653 39.5628 3.41843 40.2309C2.75033 40.899 2.375 41.8052 2.375 42.75V58.1875C2.375 59.1323 2.75033 60.0385 3.41843 60.7066C4.08653 61.3747 4.99267 61.75 5.9375 61.75H9.5V68.875H5.9375C5.62256 68.875 5.32051 69.0001 5.09781 69.2228C4.87511 69.4455 4.75 69.7476 4.75 70.0625V71.25H16.625V70.0625C16.625 69.7476 16.4999 69.4455 16.2772 69.2228C16.0545 69.0001 15.7524 68.875 15.4375 68.875H11.875V61.75H17.8125C18.218 61.7461 18.6197 61.6721 19 61.5315V72.4375C19 72.7524 19.1251 73.0545 19.3478 73.2772C19.5705 73.4999 19.8726 73.625 20.1875 73.625H28.5C28.8149 73.625 29.117 73.4999 29.3397 73.2772C29.5624 73.0545 29.6875 72.7524 29.6875 72.4375V70.0625C29.6875 69.1177 29.3122 68.2115 28.6441 67.5434C27.976 66.8753 27.0698 66.5 26.125 66.5V55.8125C26.1231 54.2384 25.497 52.7292 24.3839 51.6161C23.2708 50.503 21.7616 49.8769 20.1875 49.875V47.5H25.156C25.0154 47.8803 24.9414 48.282 24.9375 48.6875C24.9375 49.6323 25.3128 50.5385 25.9809 51.2066C26.649 51.8747 27.5552 52.25 28.5 52.25H32.0625V72.4375C32.0625 72.7524 32.1876 73.0545 32.4103 73.2772C32.633 73.4999 32.9351 73.625 33.25 73.625H42.75C43.0649 73.625 43.367 73.4999 43.5897 73.2772C43.8124 73.0545 43.9375 72.7524 43.9375 72.4375V52.25H47.5C48.4448 52.25 49.351 51.8747 50.0191 51.2066C50.6872 50.5385 51.0625 49.6323 51.0625 48.6875C51.0586 48.282 50.9846 47.8803 50.844 47.5H55.8125V49.875C54.2384 49.8769 52.7292 50.503 51.6161 51.6161C50.503 52.7292 49.8769 54.2384 49.875 55.8125V66.5C48.9302 66.5 48.024 66.8753 47.3559 67.5434C46.6878 68.2115 46.3125 69.1177 46.3125 70.0625V72.4375C46.3125 72.7524 46.4376 73.0545 46.6603 73.2772C46.883 73.4999 47.1851 73.625 47.5 73.625H55.8125C56.1274 73.625 56.4295 73.4999 56.6522 73.2772C56.8749 73.0545 57 72.7524 57 72.4375V61.5315C57.3803 61.6721 57.782 61.7461 58.1875 61.75H64.125V68.875H60.5625C60.2476 68.875 59.9455 69.0001 59.7228 69.2228C59.5001 69.4455 59.375 69.7476 59.375 70.0625V71.25H71.25V70.0625C71.25 69.7476 71.1249 69.4455 70.9022 69.2228C70.6795 69.0001 70.3774 68.875 70.0625 68.875H66.5V61.75H70.0625C71.0073 61.75 71.9135 61.3747 72.5816 60.7066C73.2497 60.0385 73.625 59.1323 73.625 58.1875V42.75C73.625 41.8052 73.2497 40.899 72.5816 40.2309C71.9135 39.5628 71.0073 39.1875 70.0625 39.1875ZM59.375 27.3125C59.375 26.6826 59.6252 26.0785 60.0706 25.6331C60.516 25.1877 61.1201 24.9375 61.75 24.9375C62.3799 24.9375 62.984 25.1877 63.4294 25.6331C63.8748 26.0785 64.125 26.6826 64.125 27.3125V30.875C64.125 31.5049 63.8748 32.109 63.4294 32.5544C62.984 32.9998 62.3799 33.25 61.75 33.25C61.1201 33.25 60.516 32.9998 60.0706 32.5544C59.6252 32.109 59.375 31.5049 59.375 30.875V27.3125ZM49.875 42.75H51.0625V45.125H48.6875V43.9375C48.6875 43.6226 48.8126 43.3205 49.0353 43.0978C49.258 42.8751 49.5601 42.75 49.875 42.75ZM35.625 27.3125C35.625 26.6826 35.8752 26.0785 36.3206 25.6331C36.766 25.1877 37.3701 24.9375 38 24.9375C38.6299 24.9375 39.234 25.1877 39.6794 25.6331C40.1248 26.0785 40.375 26.6826 40.375 27.3125V30.875C40.375 31.5049 40.1248 32.109 39.6794 32.5544C39.234 32.9998 38.6299 33.25 38 33.25C37.3701 33.25 36.766 32.9998 36.3206 32.5544C35.8752 32.109 35.625 31.5049 35.625 30.875V27.3125ZM29.6875 40.6553C29.6875 39.3211 30.2175 38.0417 31.1608 37.0983C32.1042 36.155 33.3836 35.625 34.7178 35.625H41.2822C42.2171 35.6217 43.1341 35.8804 43.9294 36.3718C44.7246 36.8631 45.3663 37.5675 45.7817 38.4049C46.1301 39.104 46.3118 39.8742 46.3125 40.6553V45.125H43.9375V41.5625H41.5625V45.125H34.4375V41.5625H32.0625V45.125H29.6875V40.6553ZM22.5625 42.75V45.125H15.4375C15.1226 45.125 14.8205 44.9999 14.5978 44.7772C14.3751 44.5545 14.25 44.2524 14.25 43.9375V39.7812C14.25 39.3088 14.4377 38.8558 14.7717 38.5217C15.1058 38.1877 15.5588 38 16.0312 38C16.5037 38 16.9567 38.1877 17.2908 38.5217C17.6248 38.8558 17.8125 39.3088 17.8125 39.7812V41.5625C17.8125 41.8774 17.9376 42.1795 18.1603 42.4022C18.383 42.6249 18.6851 42.75 19 42.75H22.5625ZM11.875 27.3125C11.875 26.6826 12.1252 26.0785 12.5706 25.6331C13.016 25.1877 13.6201 24.9375 14.25 24.9375C14.8799 24.9375 15.484 25.1877 15.9294 25.6331C16.3748 26.0785 16.625 26.6826 16.625 27.3125V30.875C16.625 31.5049 16.3748 32.109 15.9294 32.5544C15.484 32.9998 14.8799 33.25 14.25 33.25C13.6201 33.25 13.016 32.9998 12.5706 32.5544C12.1252 32.109 11.875 31.5049 11.875 30.875V27.3125ZM17.8125 59.375H5.9375C5.62256 59.375 5.32051 59.2499 5.09781 59.0272C4.87511 58.8045 4.75 58.5024 4.75 58.1875V42.75C4.75 42.4351 4.87511 42.133 5.09781 41.9103C5.32051 41.6876 5.62256 41.5625 5.9375 41.5625C6.25244 41.5625 6.55449 41.6876 6.77719 41.9103C6.99989 42.133 7.125 42.4351 7.125 42.75V55.8125C7.125 56.1274 7.25011 56.4295 7.47281 56.6522C7.69551 56.8749 7.99756 57 8.3125 57H17.8125C18.1274 57 18.4295 57.1251 18.6522 57.3478C18.8749 57.5705 19 57.8726 19 58.1875C19 58.5024 18.8749 58.8045 18.6522 59.0272C18.4295 59.2499 18.1274 59.375 17.8125 59.375ZM27.3125 70.0625V71.25H21.375V68.875H26.125C26.4399 68.875 26.742 69.0001 26.9647 69.2228C27.1874 69.4455 27.3125 69.7476 27.3125 70.0625ZM23.75 55.8125V66.5H21.375V58.1875C21.375 57.2427 20.9997 56.3365 20.3316 55.6684C19.6635 55.0003 18.7573 54.625 17.8125 54.625H9.5V52.25H20.1875C21.1323 52.25 22.0385 52.6253 22.7066 53.2934C23.3747 53.9615 23.75 54.8677 23.75 55.8125ZM17.8125 49.875H9.5V39.7812C9.49096 39.1315 9.6365 38.489 9.92462 37.9065C10.2127 37.3241 10.6352 36.8186 11.1571 36.4315C11.6791 36.0445 12.2855 35.787 12.9265 35.6805C13.5675 35.5739 14.2247 35.6212 14.8438 35.8186C13.9887 36.0723 13.2382 36.5948 12.7035 37.3085C12.1687 38.0223 11.8782 38.8894 11.875 39.7812V43.9375C11.875 44.8823 12.2503 45.7885 12.9184 46.4566C13.5865 47.1247 14.4927 47.5 15.4375 47.5H17.8125V49.875ZM24.9375 42.75H26.125C26.4399 42.75 26.742 42.8751 26.9647 43.0978C27.1874 43.3205 27.3125 43.6226 27.3125 43.9375V45.125H24.9375V42.75ZM41.5625 71.25H34.4375V52.25H41.5625V71.25ZM48.6875 48.6875C48.6875 49.0024 48.5624 49.3045 48.3397 49.5272C48.117 49.7499 47.8149 49.875 47.5 49.875H28.5C28.1851 49.875 27.883 49.7499 27.6603 49.5272C27.4376 49.3045 27.3125 49.0024 27.3125 48.6875C27.3125 48.3726 27.4376 48.0705 27.6603 47.8478C27.883 47.6251 28.1851 47.5 28.5 47.5H47.5C47.8149 47.5 48.117 47.6251 48.3397 47.8478C48.5624 48.0705 48.6875 48.3726 48.6875 48.6875ZM53.4375 42.75H57C57.3149 42.75 57.617 42.6249 57.8397 42.4022C58.0624 42.1795 58.1875 41.8774 58.1875 41.5625V39.7812C58.1875 39.3088 58.3752 38.8558 58.7092 38.5217C59.0433 38.1877 59.4963 38 59.9688 38C60.4412 38 60.8942 38.1877 61.2283 38.5217C61.5623 38.8558 61.75 39.3088 61.75 39.7812V43.9375C61.75 44.2524 61.6249 44.5545 61.4022 44.7772C61.1795 44.9999 60.8774 45.125 60.5625 45.125H53.4375V42.75ZM58.1875 47.5H60.5625C61.5073 47.5 62.4135 47.1247 63.0816 46.4566C63.7497 45.7885 64.125 44.8823 64.125 43.9375V39.7812C64.1222 38.8893 63.8318 38.022 63.297 37.3082C62.7622 36.5943 62.0115 36.0719 61.1562 35.8186C61.7751 35.6304 62.4294 35.5899 63.0667 35.7003C63.704 35.8106 64.3066 36.0688 64.8261 36.4541C65.3457 36.8393 65.7677 37.341 66.0584 37.9188C66.3491 38.4966 66.5003 39.1345 66.5 39.7812V49.875H58.1875V47.5ZM52.25 55.8125C52.25 54.8677 52.6253 53.9615 53.2934 53.2934C53.9615 52.6253 54.8677 52.25 55.8125 52.25H66.5V54.625H58.1875C57.2427 54.625 56.3365 55.0003 55.6684 55.6684C55.0003 56.3365 54.625 57.2427 54.625 58.1875V66.5H52.25V55.8125ZM54.625 71.25H48.6875V70.0625C48.6875 69.7476 48.8126 69.4455 49.0353 69.2228C49.258 69.0001 49.5601 68.875 49.875 68.875H54.625V71.25ZM71.25 58.1875C71.25 58.5024 71.1249 58.8045 70.9022 59.0272C70.6795 59.2499 70.3774 59.375 70.0625 59.375H58.1875C57.8726 59.375 57.5705 59.2499 57.3478 59.0272C57.1251 58.8045 57 58.5024 57 58.1875C57 57.8726 57.1251 57.5705 57.3478 57.3478C57.5705 57.1251 57.8726 57 58.1875 57H67.6875C68.0024 57 68.3045 56.8749 68.5272 56.6522C68.7499 56.4295 68.875 56.1274 68.875 55.8125V42.75C68.875 42.4351 69.0001 42.133 69.2228 41.9103C69.4455 41.6876 69.7476 41.5625 70.0625 41.5625C70.3774 41.5625 70.6795 41.6876 70.9022 41.9103C71.1249 42.133 71.25 42.4351 71.25 42.75V58.1875Z" fill="#DE1515"/>
<path d="M61.75 73.6251C62.0644 73.6205 62.3654 73.4975 62.5931 73.2807C62.6979 73.1652 62.7823 73.0327 62.8425 72.8888C62.9052 72.7466 62.9376 72.593 62.9376 72.4376C62.9376 72.2822 62.9052 72.1285 62.8425 71.9863C62.7823 71.8425 62.6979 71.7099 62.5931 71.5944C62.3635 71.3825 62.0625 71.2649 61.75 71.2649C61.4375 71.2649 61.1365 71.3825 60.9069 71.5944C60.7995 71.708 60.7149 71.841 60.6575 71.9863C60.5949 72.1285 60.5626 72.2822 60.5626 72.4376C60.5626 72.5929 60.5949 72.7466 60.6575 72.8888C60.7177 73.0327 60.8021 73.1652 60.9069 73.2807C61.1344 73.4977 61.4356 73.6207 61.75 73.6251Z" fill="#DE1515"/>
<path d="M69.1125 73.6013C69.1869 73.5882 69.2589 73.5642 69.3263 73.5301C69.4019 73.5039 69.4737 73.4679 69.54 73.4232L69.7182 73.2807C69.935 73.053 70.0579 72.7519 70.0625 72.4376C70.0607 72.2824 70.0284 72.1291 69.9675 71.9863C69.9073 71.8425 69.823 71.7099 69.7182 71.5944C69.4885 71.3825 69.1875 71.2649 68.875 71.2649C68.5626 71.2649 68.2616 71.3825 68.0319 71.5944C67.9271 71.7099 67.8428 71.8425 67.7825 71.9863C67.716 72.1272 67.6834 72.2818 67.6875 72.4376C67.686 72.594 67.7156 72.7491 67.7747 72.8939C67.8338 73.0387 67.9212 73.1702 68.0318 73.2808C68.1424 73.3914 68.2739 73.4788 68.4187 73.5379C68.5635 73.597 68.7187 73.6267 68.875 73.6251C68.9547 73.623 69.0341 73.615 69.1125 73.6013Z" fill="#DE1515"/>
<path d="M13.7987 73.5301C13.8695 73.5662 13.9457 73.5903 14.0244 73.6013C14.0988 73.6152 14.1743 73.6231 14.25 73.6251C14.5644 73.6205 14.8654 73.4975 15.0931 73.2807C15.2005 73.1672 15.2851 73.0341 15.3425 72.8888C15.4051 72.7466 15.4374 72.5929 15.4374 72.4376C15.4374 72.2822 15.4051 72.1285 15.3425 71.9863C15.2851 71.841 15.2005 71.708 15.0931 71.5944C14.8635 71.3825 14.5625 71.2649 14.25 71.2649C13.9375 71.2649 13.6365 71.3825 13.4069 71.5944C13.2995 71.708 13.2149 71.841 13.1575 71.9863C13.0967 72.1291 13.0644 72.2824 13.0625 72.4376C13.0665 72.752 13.1896 73.0533 13.4069 73.2807L13.5838 73.4232C13.6505 73.468 13.7228 73.5039 13.7987 73.5301Z" fill="#DE1515"/>
<path d="M7.12499 73.6251C7.43936 73.6205 7.74042 73.4975 7.96812 73.2807C8.07292 73.1652 8.15725 73.0327 8.21749 72.8888C8.28011 72.7466 8.31244 72.5929 8.31244 72.4376C8.31244 72.2822 8.28011 72.1285 8.21749 71.9863C8.16011 71.841 8.07547 71.708 7.96812 71.5944C7.73847 71.3825 7.43746 71.2649 7.12499 71.2649C6.81253 71.2649 6.51151 71.3825 6.28187 71.5944C6.17452 71.708 6.08988 71.841 6.03249 71.9863C5.96981 72.1285 5.93744 72.2822 5.93744 72.4376C5.93744 72.593 5.96981 72.7466 6.03249 72.8888C6.09273 73.0327 6.17707 73.1652 6.28187 73.2807C6.50943 73.4977 6.81058 73.6207 7.12499 73.6251Z" fill="#DE1515"/>
<path d="M27.3125 8.3125H24.9375V10.6875H27.3125V8.3125Z" fill="#DE1515"/>
<path d="M22.5625 8.3125H20.1875V10.6875H22.5625V8.3125Z" fill="#DE1515"/>
<path d="M17.8125 8.3125H15.4375V10.6875H17.8125V8.3125Z" fill="#DE1515"/>
<path d="M13.7346 20.0688C13.9363 20.166 14.1615 20.2042 14.384 20.179C14.6065 20.1538 14.8173 20.0662 14.9922 19.9263L20.6043 15.4375H27.3125C28.8872 15.4375 30.3974 14.812 31.5109 13.6985C32.6244 12.585 33.25 11.0747 33.25 9.50001C33.25 7.92529 32.6244 6.41506 31.5109 5.30156C30.3974 4.18807 28.8872 3.56251 27.3125 3.56251H15.4375C14.0742 3.55985 12.7516 4.02726 11.6928 4.88597C10.6339 5.74468 9.90342 6.94218 9.62448 8.27664C9.34554 9.6111 9.53518 11.0009 10.1614 12.2119C10.7877 13.4228 11.8123 14.3809 13.0625 14.9245V19C13.0627 19.2233 13.1259 19.4421 13.2448 19.6311C13.3636 19.8202 13.5334 19.9718 13.7346 20.0688ZM11.875 9.50001C11.875 8.55518 12.2503 7.64904 12.9184 6.98094C13.5865 6.31285 14.4927 5.93751 15.4375 5.93751H27.3125C28.2573 5.93751 29.1635 6.31285 29.8316 6.98094C30.4997 7.64904 30.875 8.55518 30.875 9.50001C30.875 10.4448 30.4997 11.351 29.8316 12.0191C29.1635 12.6872 28.2573 13.0625 27.3125 13.0625H20.1875C19.9177 13.0624 19.656 13.1541 19.4453 13.3226L15.4375 16.5288V14.0814C15.4375 13.8183 15.3502 13.5627 15.1892 13.3547C15.0282 13.1466 14.8027 12.9979 14.5481 12.9319C13.7852 12.7369 13.1088 12.294 12.6249 11.6728C12.1411 11.0517 11.8773 10.2874 11.875 9.50001Z" fill="#DE1515"/>
<path d="M51.0625 7.125H48.6875V9.5H51.0625V7.125Z" fill="#DE1515"/>
<path d="M55.8125 7.125H53.4375V9.5H55.8125V7.125Z" fill="#DE1515"/>
<path d="M39.1875 17.8125H36.8125V20.1875H39.1875V17.8125Z" fill="#DE1515"/>
<path d="M34.4375 17.8125H32.0625V20.1875H34.4375V17.8125Z" fill="#DE1515"/>
<path d="M43.9375 17.8125H41.5625V20.1875H43.9375V17.8125Z" fill="#DE1515"/>
<path d="M60.5625 7.125H58.1875V9.5H60.5625V7.125Z" fill="#DE1515"/>
<path d="M48.6875 14.25H55.3957L61.0078 18.74C61.1825 18.8798 61.3931 18.9675 61.6154 18.9928C61.8378 19.0182 62.0627 18.9802 62.2644 18.8833C62.4661 18.7863 62.6363 18.6344 62.7554 18.445C62.8745 18.2555 62.9376 18.0363 62.9375 17.8125V13.737C64.1877 13.1934 65.2123 12.2353 65.8386 11.0244C66.4648 9.81344 66.6545 8.42361 66.3755 7.08914C66.0966 5.75468 65.3661 4.55718 64.3072 3.69847C63.2483 2.83976 61.9258 2.37235 60.5625 2.37501H48.6875C47.1128 2.37501 45.6026 3.00057 44.4891 4.11407C43.3756 5.22756 42.75 6.73779 42.75 8.31251C42.75 9.88724 43.3756 11.3975 44.4891 12.511C45.6026 13.6245 47.1128 14.25 48.6875 14.25ZM48.6875 4.75001H60.5625C61.4282 4.74858 62.2646 5.06327 62.9147 5.63496C63.5648 6.20665 63.9838 6.99602 64.093 7.8548C64.2022 8.71358 63.9941 9.58269 63.5078 10.2989C63.0215 11.0151 62.2904 11.5291 61.4519 11.7444C61.1973 11.8104 60.9718 11.9591 60.8108 12.1672C60.6498 12.3752 60.5625 12.6308 60.5625 12.8939V15.3413L56.5547 12.1351C56.344 11.9666 56.0823 11.8749 55.8125 11.875H48.6875C47.7427 11.875 46.8365 11.4997 46.1684 10.8316C45.5003 10.1635 45.125 9.25735 45.125 8.31251C45.125 7.36768 45.5003 6.46154 46.1684 5.79344C46.8365 5.12535 47.7427 4.75001 48.6875 4.75001Z" fill="#DE1515"/>
</g>
<defs>
<clipPath id="clip0_255_2097">
<rect width="80" height="79" fill="white"/>
</clipPath>
</defs>
</svg>
