<?xml version="1.0" encoding="UTF-8" standalone="no"?> <svg width="48" height="48" viewBox="0 0 48 48" fill="none" xmlns="http://www.w3.org/2000/svg">
<path d="M41 6H10C8.6744 6.00159 7.40356 6.52888 6.46622 7.46622C5.52888 8.40356 5.00159 9.6744 5 11V13.83C5 14.0952 5.10536 14.3496 5.29289 14.5371C5.48043 14.7246 5.73478 14.83 6 14.83C6.26522 14.83 6.51957 14.7246 6.70711 14.5371C6.89464 14.3496 7 14.0952 7 13.83V11C7 10.2044 7.31607 9.44129 7.87868 8.87868C8.44129 8.31607 9.20435 8 10 8H41C41.7956 8 42.5587 8.31607 43.1213 8.87868C43.6839 9.44129 44 10.2044 44 11V34C44 34.7956 43.6839 35.5587 43.1213 36.1213C42.5587 36.6839 41.7956 37 41 37H30.17C29.9048 37 29.6504 37.1054 29.4629 37.2929C29.2754 37.4804 29.17 37.7348 29.17 38C29.17 38.2652 29.2754 38.5196 29.4629 38.7071C29.6504 38.8946 29.9048 39 30.17 39H41C42.3256 38.9984 43.5964 38.4711 44.5338 37.5338C45.4711 36.5964 45.9984 35.3256 46 34V11C45.9984 9.6744 45.4711 8.40356 44.5338 7.46622C43.5964 6.52888 42.3256 6.00159 41 6V6Z" fill="black"/>
<path d="M13 10C12.7348 10 12.4804 10.1054 12.2929 10.2929C12.1054 10.4804 12 10.7348 12 11V13H10C9.73478 13 9.48043 13.1054 9.29289 13.2929C9.10536 13.4804 9 13.7348 9 14C9 14.2652 9.10536 14.5196 9.29289 14.7071C9.48043 14.8946 9.73478 15 10 15H12V20.34C12 20.6052 12.1054 20.8596 12.2929 21.0471C12.4804 21.2346 12.7348 21.34 13 21.34C13.2652 21.34 13.5196 21.2346 13.7071 21.0471C13.8946 20.8596 14 20.6052 14 20.34V15H37V30H23.66C23.3948 30 23.1404 30.1054 22.9529 30.2929C22.7654 30.4804 22.66 30.7348 22.66 31C22.66 31.2652 22.7654 31.5196 22.9529 31.7071C23.1404 31.8946 23.3948 32 23.66 32H37V34C37 34.2652 37.1054 34.5196 37.2929 34.7071C37.4804 34.8946 37.7348 35 38 35C38.2652 35 38.5196 34.8946 38.7071 34.7071C38.8946 34.5196 39 34.2652 39 34V32H41C41.2652 32 41.5196 31.8946 41.7071 31.7071C41.8946 31.5196 42 31.2652 42 31C42 30.7348 41.8946 30.4804 41.7071 30.2929C41.5196 30.1054 41.2652 30 41 30H39V15H41C41.2652 15 41.5196 14.8946 41.7071 14.7071C41.8946 14.5196 42 14.2652 42 14C42 13.7348 41.8946 13.4804 41.7071 13.2929C41.5196 13.1054 41.2652 13 41 13H39V11C39 10.7348 38.8946 10.4804 38.7071 10.2929C38.5196 10.1054 38.2652 10 38 10C37.7348 10 37.4804 10.1054 37.2929 10.2929C37.1054 10.4804 37 10.7348 37 11V13H14V11C14 10.7348 13.8946 10.4804 13.7071 10.2929C13.5196 10.1054 13.2652 10 13 10Z" fill="black"/>
<path d="M5.414 17C5.1343 16.7204 4.77797 16.53 4.39006 16.4528C4.00216 16.3757 3.60009 16.4153 3.23469 16.5666C2.86929 16.718 2.55697 16.9743 2.3372 17.3031C2.11743 17.6319 2.00008 18.0185 2 18.414V39C2 39.7957 2.31607 40.5587 2.87868 41.1213C3.44129 41.6839 4.20435 42 5 42H25.586C25.9815 41.9999 26.3681 41.8826 26.6969 41.6628C27.0257 41.443 27.282 41.1307 27.4334 40.7653C27.5847 40.3999 27.6243 39.9978 27.5472 39.6099C27.47 39.222 27.2796 38.8657 27 38.586L5.414 17ZM25.586 40H5C4.73478 40 4.48043 39.8946 4.29289 39.7071C4.10536 39.5196 4 39.2652 4 39V18.414L7.016 21.428L6.309 22.135C6.21349 22.2272 6.13731 22.3376 6.0849 22.4596C6.03249 22.5816 6.0049 22.7128 6.00375 22.8456C6.0026 22.9784 6.0279 23.1101 6.07818 23.233C6.12846 23.3559 6.20271 23.4675 6.29661 23.5614C6.3905 23.6553 6.50215 23.7295 6.62505 23.7798C6.74794 23.8301 6.87962 23.8554 7.0124 23.8543C7.14518 23.8531 7.2764 23.8255 7.3984 23.7731C7.52041 23.7207 7.63075 23.6445 7.723 23.549L8.43 22.842L9.845 24.256L9.137 24.964C9.04149 25.0562 8.96531 25.1666 8.9129 25.2886C8.86049 25.4106 8.8329 25.5418 8.83175 25.6746C8.8306 25.8074 8.8559 25.9391 8.90618 26.062C8.95646 26.1849 9.03071 26.2965 9.12461 26.3904C9.2185 26.4843 9.33015 26.5585 9.45305 26.6088C9.57594 26.6591 9.70762 26.6844 9.8404 26.6833C9.97318 26.6821 10.1044 26.6545 10.2264 26.6021C10.3484 26.5497 10.4588 26.4735 10.551 26.378L11.259 25.67L12.674 27.084L11.965 27.792C11.8695 27.8842 11.7933 27.9946 11.7409 28.1166C11.6885 28.2386 11.6609 28.3698 11.6597 28.5026C11.6586 28.6354 11.6839 28.7671 11.7342 28.89C11.7845 29.0129 11.8587 29.1245 11.9526 29.2184C12.0465 29.3123 12.1581 29.3865 12.281 29.4368C12.4039 29.4871 12.5356 29.5124 12.6684 29.5113C12.8012 29.5101 12.9324 29.4825 13.0544 29.4301C13.1764 29.3777 13.2868 29.3015 13.379 29.206L14.088 28.497L15.5 29.911L14.791 30.62C14.6955 30.7122 14.6193 30.8226 14.5669 30.9446C14.5145 31.0666 14.4869 31.1978 14.4857 31.3306C14.4846 31.4634 14.5099 31.5951 14.5602 31.718C14.6105 31.8409 14.6847 31.9525 14.7786 32.0464C14.8725 32.1403 14.9841 32.2145 15.107 32.2648C15.2299 32.3151 15.3616 32.3404 15.4944 32.3393C15.6272 32.3381 15.7584 32.3105 15.8804 32.2581C16.0024 32.2057 16.1128 32.1295 16.205 32.034L16.914 31.325L18.329 32.739L17.619 33.449C17.4315 33.6366 17.3262 33.8911 17.3263 34.1564C17.3264 34.4216 17.4319 34.676 17.6195 34.8635C17.8071 35.051 18.0616 35.1563 18.3269 35.1562C18.5921 35.1561 18.8465 35.0506 19.034 34.863L19.744 34.153L21.158 35.567L20.448 36.277C20.3525 36.3692 20.2763 36.4796 20.2239 36.6016C20.1715 36.7236 20.1439 36.8548 20.1427 36.9876C20.1416 37.1204 20.1669 37.2521 20.2172 37.375C20.2675 37.4979 20.3417 37.6095 20.4356 37.7034C20.5295 37.7973 20.6411 37.8715 20.764 37.9218C20.8869 37.9721 21.0186 37.9974 21.1514 37.9963C21.2842 37.9951 21.4154 37.9675 21.5374 37.9151C21.6594 37.8627 21.7698 37.7865 21.862 37.691L22.573 36.981L25.6 40H25.586Z" fill="black"/>
<path d="M7.707 27.293C7.56715 27.1532 7.38898 27.058 7.19503 27.0194C7.00108 26.9808 6.80005 27.0007 6.61735 27.0763C6.43465 27.152 6.27848 27.2801 6.1686 27.4445C6.05871 27.609 6.00004 27.8022 6 28V37C6 37.2652 6.10536 37.5196 6.29289 37.7071C6.48043 37.8946 6.73478 38 7 38H16C16.1978 38 16.391 37.9413 16.5555 37.8314C16.7199 37.7215 16.848 37.5654 16.9237 37.3827C16.9993 37.2 17.0192 36.9989 16.9806 36.805C16.942 36.611 16.8468 36.4329 16.707 36.293L7.707 27.293ZM8 36V30.414L13.586 36H8Z" fill="black"/>
</svg>
