<svg width="80" height="79" viewBox="0 0 80 79" fill="none" xmlns="http://www.w3.org/2000/svg">
<rect width="80" height="79" fill="white"/>
<path d="M40.0001 5.76501C21.4013 5.76501 6.26514 20.9011 6.26514 39.5C6.26514 58.0989 21.4013 73.235 40.0001 73.235C58.599 73.235 73.7351 58.0989 73.7351 39.5C73.7351 20.9011 58.599 5.76501 40.0001 5.76501ZM9.65649 39.5C9.65649 35.1091 10.5846 30.9324 12.2982 27.1484L26.756 66.7736C16.6534 61.8829 9.65649 51.4947 9.65649 39.5ZM40.0001 69.8437C37.0372 69.8437 34.1456 69.4153 31.4325 68.5942L40.5356 42.1417L49.8529 67.6661C49.9243 67.8089 49.9957 67.9517 50.0671 68.0944C46.9256 69.2368 43.5343 69.8437 40.0001 69.8437ZM44.1769 25.292C45.9975 25.185 47.6396 25.0065 47.6396 25.0065C49.2817 24.828 49.0675 22.4005 47.4611 22.5076C47.4611 22.5076 42.5347 22.9003 39.3933 22.9003C36.4303 22.9003 31.3968 22.5076 31.3968 22.5076C29.7547 22.4005 29.5762 24.8994 31.2183 25.0065C31.2183 25.0065 32.7534 25.185 34.3955 25.292L39.1077 38.2506L32.4678 58.1703L21.437 25.3277C23.2576 25.2207 24.8997 25.0422 24.8997 25.0422C26.5418 24.8637 26.3276 22.4362 24.7212 22.5433C24.7212 22.5433 19.7948 22.936 16.6534 22.936C16.0822 22.936 15.4039 22.936 14.69 22.9003C20.1161 14.6539 29.4334 9.22776 40.0358 9.22776C47.9252 9.22776 55.1363 12.2621 60.5267 17.1885C60.3839 17.1885 60.2768 17.1528 60.134 17.1528C57.1711 17.1528 55.0292 19.7588 55.0292 22.5433C55.0292 25.0422 56.4571 27.1484 57.9921 29.6473C59.1345 31.6821 60.491 34.2523 60.491 38.0007C60.491 40.6067 59.4915 43.6053 58.1706 47.8177L55.1363 57.9204L44.1769 25.292ZM66.6312 24.9351C68.9872 29.2546 70.3438 34.2167 70.3438 39.5C70.3438 50.6736 64.2751 60.455 55.2791 65.7027L64.5606 38.9288C66.2742 34.6093 66.881 31.1466 66.881 28.0765C66.8096 26.9699 66.7382 25.9346 66.6312 24.9351Z" fill="#DE1515"/>
</svg>
