<svg width="18" height="17" viewBox="0 0 18 17" fill="none" xmlns="http://www.w3.org/2000/svg">
<g clip-path="url(#clip0_255_1525)">
<path d="M13.9253 3.55792L7.94854 2.91846C7.79097 2.90524 7.63448 2.95424 7.51257 3.05497C7.39067 3.15569 7.31304 3.30013 7.2963 3.45738C7.27957 3.61462 7.32505 3.77217 7.42302 3.8963C7.52099 4.02042 7.66366 4.10127 7.82049 4.12152L12.3123 4.60168L3.13293 12.035C3.06569 12.0829 3.00898 12.1441 2.96629 12.2148C2.9236 12.2855 2.89583 12.3641 2.88469 12.446C2.87355 12.5278 2.87927 12.611 2.90151 12.6906C2.92375 12.7701 2.96203 12.8442 3.014 12.9084C3.06597 12.9726 3.13052 13.0254 3.20369 13.0637C3.27686 13.102 3.35708 13.1249 3.43944 13.131C3.52179 13.1371 3.60452 13.1263 3.68254 13.0993C3.76055 13.0722 3.83221 13.0295 3.89308 12.9737L13.1094 5.51045L12.6085 10.0307C12.5951 10.1119 12.5984 10.195 12.6183 10.2749C12.6381 10.3548 12.674 10.4298 12.7238 10.4953C12.7737 10.5608 12.8363 10.6155 12.908 10.656C12.9797 10.6965 13.0589 10.7219 13.1407 10.7307C13.2225 10.7395 13.3053 10.7316 13.384 10.7073C13.4626 10.683 13.5355 10.6429 13.5981 10.5895C13.6608 10.5361 13.7119 10.4705 13.7483 10.3967C13.7847 10.3228 13.8056 10.2423 13.8098 10.1601L14.4626 4.22507C14.471 4.14595 14.4637 4.06594 14.4412 3.98964C14.4186 3.91333 14.3812 3.84223 14.3312 3.78039C14.2811 3.71855 14.2193 3.6672 14.1494 3.62927C14.0794 3.59134 14.0027 3.56758 13.9235 3.55934L13.9253 3.55792Z" fill="white" stroke="white"/>
</g>
<defs>
<clipPath id="clip0_255_1525">
<rect width="14.5039" height="9.67" fill="white" transform="translate(0 9.12769) rotate(-39)"/>
</clipPath>
</defs>
</svg>
