<svg width="26" height="26" viewBox="0 0 26 26" fill="none" xmlns="http://www.w3.org/2000/svg">
<path d="M19.2253 12.4199L13.6191 6.73326C13.3022 6.41313 12.7871 6.41313 12.4702 6.73326C12.1525 7.05338 12.1525 7.57338 12.4702 7.89351L17.5045 13.0001L12.4702 18.1066C12.1525 18.4268 12.1525 18.9468 12.4702 19.2669C12.7879 19.587 13.3022 19.587 13.6191 19.2669L19.2245 13.5802C19.5308 13.2723 19.5316 12.7287 19.2253 12.4199Z" fill="#DE1515"/>
<path d="M13.5378 12.4199L7.93239 6.73326C7.6147 6.41313 7.10039 6.41313 6.78351 6.73326C6.46582 7.05338 6.46582 7.57338 6.78351 7.89351L11.817 13.0001L6.7827 18.1066C6.46501 18.4268 6.46501 18.9468 6.7827 19.2669C7.10039 19.587 7.6147 19.587 7.93157 19.2669L13.537 13.5802C13.8433 13.2723 13.8441 12.7287 13.5378 12.4199Z" fill="#DE1515"/>
</svg>
