<svg width="1780" height="158" viewBox="0 0 1780 158" fill="none" xmlns="http://www.w3.org/2000/svg">
<path d="M-8.15392e-05 67.4974C-8.15392e-05 70.4429 2.38773 72.8307 5.33325 72.8307C8.27877 72.8307 10.6666 70.4429 10.6666 67.4974C10.6666 64.5518 8.27877 62.164 5.33325 62.164C2.38773 62.164 -8.15392e-05 64.5518 -8.15392e-05 67.4974ZM766.121 67.4974L766.528 68.4108L766.121 67.4974ZM1463.66 100.968L1463.12 101.813L1463.14 101.823L1463.16 101.833L1463.66 100.968ZM1779.33 100.968L1768.61 105.243L1777.67 112.395L1779.33 100.968ZM5.33325 67.4974L4.93001 68.4125C6.51834 69.1124 8.13802 69.8157 9.78859 70.522L10.182 69.6026L10.5754 68.6833C8.93127 67.9797 7.31815 67.2792 5.73649 66.5823L5.33325 67.4974ZM22.0365 74.5098L21.6645 75.438C24.9639 76.7604 28.3649 78.0895 31.8646 79.4223L32.2205 78.4878L32.5764 77.5532C29.0872 76.2244 25.697 74.8996 22.4085 73.5815L22.0365 74.5098ZM44.1982 82.9224L43.8594 83.8633C47.1777 85.0581 50.5723 86.2534 54.0414 87.4472L54.3668 86.5017L54.6922 85.5561C51.232 84.3653 47.8462 83.1731 44.537 81.9816L44.1982 82.9224ZM66.5437 90.584L66.2333 91.5346C69.6294 92.6439 73.0885 93.7498 76.6089 94.8508L76.9074 93.8964L77.2059 92.942C73.6934 91.8435 70.2423 90.7401 66.8542 89.6335L66.5437 90.584ZM89.1064 97.6169L88.8214 98.5754C92.2606 99.5981 95.7524 100.615 99.2956 101.624L99.5695 100.662L99.8435 99.7007C96.3077 98.6935 92.8233 97.6789 89.3914 96.6584L89.1064 97.6169ZM111.899 104.087L111.638 105.052C115.083 105.985 118.572 106.91 122.105 107.826L122.356 106.858L122.607 105.89C119.081 104.976 115.599 104.053 112.16 103.122L111.899 104.087ZM134.854 110.015L134.615 110.986C138.067 111.835 141.557 112.675 145.083 113.505L145.312 112.531L145.541 111.558C142.021 110.73 138.538 109.892 135.092 109.044L134.854 110.015ZM157.864 115.403L157.647 116.379C161.13 117.155 164.646 117.919 168.195 118.672L168.402 117.693L168.61 116.715C165.068 115.964 161.558 115.201 158.081 114.427L157.864 115.403ZM180.988 120.286L180.792 121.267C184.303 121.969 187.844 122.659 191.414 123.336L191.6 122.354L191.787 121.371C188.224 120.695 184.689 120.006 181.184 119.305L180.988 120.286ZM204.223 124.674L204.048 125.659C207.581 126.287 211.14 126.903 214.725 127.505L214.89 126.518L215.056 125.532C211.478 124.931 207.925 124.317 204.398 123.69L204.223 124.674ZM227.552 128.571L227.398 129.559C230.947 130.113 234.52 130.654 238.115 131.18L238.26 130.191L238.404 129.201C234.816 128.676 231.25 128.136 227.707 127.583L227.552 128.571ZM250.963 131.977L250.829 132.968C254.39 133.448 257.972 133.913 261.574 134.364L261.698 133.372L261.822 132.379C258.227 131.93 254.651 131.465 251.096 130.986L250.963 131.977ZM274.442 134.891L274.33 135.885C277.899 136.29 281.488 136.68 285.094 137.054L285.198 136.059L285.301 135.064C281.701 134.691 278.119 134.302 274.555 133.898L274.442 134.891ZM297.982 137.311L297.89 138.306C301.466 138.636 305.058 138.949 308.667 139.246L308.749 138.25L308.831 137.253C305.229 136.957 301.643 136.644 298.073 136.315L297.982 137.311ZM321.57 139.231L321.5 140.228C325.079 140.481 328.674 140.717 332.283 140.937L332.344 139.939L332.404 138.941C328.802 138.721 325.214 138.485 321.641 138.233L321.57 139.231ZM345.187 140.644L345.138 141.643C348.723 141.819 352.322 141.977 355.933 142.119L355.972 141.119L356.011 140.12C352.406 139.979 348.815 139.821 345.236 139.645L345.187 140.644ZM368.804 141.544L368.777 142.544C372.375 142.642 375.986 142.722 379.608 142.784L379.625 141.784L379.642 140.784C376.027 140.722 372.423 140.642 368.831 140.545L368.804 141.544ZM392.44 141.925L392.435 142.925C396.045 142.943 399.665 142.943 403.296 142.924L403.291 141.924L403.286 140.924C399.662 140.943 396.048 140.943 392.445 140.925L392.44 141.925ZM416.084 141.778L416.102 142.778C419.721 142.714 423.35 142.632 426.987 142.53L426.959 141.53L426.931 140.53C423.3 140.632 419.679 140.715 416.067 140.778L416.084 141.778ZM439.725 141.092L439.766 142.091C443.38 141.945 447.003 141.779 450.633 141.593L450.582 140.594L450.531 139.595C446.908 139.781 443.292 139.947 439.685 140.093L439.725 141.092ZM463.351 139.859L463.415 140.856C467.018 140.626 470.629 140.375 474.247 140.104L474.172 139.107L474.098 138.11C470.487 138.38 466.883 138.63 463.287 138.861L463.351 139.859ZM486.947 138.066L487.035 139.062C490.626 138.746 494.224 138.409 497.827 138.052L497.728 137.057L497.63 136.062C494.034 136.418 490.443 136.754 486.859 137.07L486.947 138.066ZM510.5 135.704L510.612 136.698C514.189 136.295 517.771 135.871 521.359 135.426L521.235 134.433L521.112 133.441C517.533 133.885 513.958 134.308 510.388 134.71L510.5 135.704ZM533.959 132.767L534.096 133.758C537.668 133.265 541.245 132.751 544.826 132.215L544.678 131.226L544.53 130.237C540.957 130.772 537.388 131.285 533.823 131.776L533.959 132.767ZM557.333 129.243L557.494 130.23C561.064 129.645 564.638 129.038 568.214 128.409L568.041 127.424L567.868 126.439C564.299 127.067 560.733 127.673 557.171 128.256L557.333 129.243ZM580.617 125.12L580.804 126.103C584.359 125.426 587.916 124.726 591.475 124.004L591.276 123.024L591.077 122.044C587.526 122.764 583.977 123.462 580.43 124.138L580.617 125.12ZM603.796 120.389L604.009 121.366C607.537 120.597 611.068 119.805 614.6 118.989L614.375 118.015L614.15 117.041C610.626 117.854 607.104 118.644 603.583 119.412L603.796 120.389ZM626.851 115.039L627.09 116.01C630.59 115.148 634.091 114.262 637.592 113.354L637.341 112.386L637.09 111.418C633.596 112.324 630.103 113.208 626.611 114.068L626.851 115.039ZM649.744 109.067L650.009 110.032C653.484 109.074 656.959 108.093 660.434 107.088L660.156 106.127L659.878 105.167C656.412 106.169 652.945 107.148 649.478 108.103L649.744 109.067ZM672.437 102.474L672.729 103.43C676.189 102.373 679.648 101.291 683.106 100.185L682.801 99.2321L682.496 98.2797C679.047 99.3834 675.596 100.463 672.145 101.518L672.437 102.474ZM694.948 95.2431L695.267 96.1908C698.696 95.0355 702.123 93.8557 705.549 92.651L705.218 91.7076L704.886 90.7643C701.468 91.966 698.049 93.143 694.628 94.2955L694.948 95.2431ZM717.257 87.3688L717.603 88.3069C720.989 87.0566 724.374 85.7815 727.756 84.4814L727.397 83.548L727.038 82.6145C723.664 83.9115 720.288 85.1834 716.91 86.4307L717.257 87.3688ZM739.345 78.8462L739.719 79.7738C743.059 78.4289 746.396 77.0591 749.73 75.6642L749.344 74.7417L748.958 73.8191C745.632 75.2106 742.303 76.577 738.972 77.9186L739.345 78.8462ZM761.139 69.6961L761.54 70.6124C763.203 69.8849 764.866 69.1511 766.528 68.4108L766.121 67.4974L765.714 66.5839C764.056 67.3223 762.398 68.0543 760.738 68.7799L761.139 69.6961ZM766.121 67.4974L766.528 68.4108C768.228 67.6537 769.927 66.9039 771.626 66.1616L771.226 65.2453L770.825 64.3289C769.122 65.0732 767.418 65.8248 765.714 66.5839L766.121 67.4974ZM783.28 60.0984L783.664 61.0213C787.057 59.6061 790.448 58.22 793.837 56.8627L793.465 55.9344L793.093 55.0061C789.696 56.3669 786.296 57.7566 782.895 59.1754L783.28 60.0984ZM805.702 51.1523L806.058 52.0868C809.507 50.7725 812.954 49.4877 816.397 48.2319L816.055 47.2924L815.712 46.3529C812.26 47.612 808.804 48.9002 805.346 50.2179L805.702 51.1523ZM828.373 42.9183L828.699 43.8635C832.201 42.6536 835.699 41.4734 839.193 40.3225L838.88 39.3727L838.567 38.4229C835.064 39.5769 831.557 40.7602 828.046 41.9732L828.373 42.9183ZM851.278 35.4054L851.574 36.3603C855.123 35.2579 858.668 34.1853 862.208 33.142L861.925 32.1828L861.642 31.2236C858.093 32.2696 854.539 33.3451 850.981 34.4504L851.278 35.4054ZM874.473 28.6012L874.739 29.5651C878.306 28.5799 881.868 27.6241 885.425 26.6973L885.173 25.7296L884.921 24.7619C881.355 25.6912 877.783 26.6495 874.207 27.6373L874.473 28.6012ZM897.865 22.5388L898.1 23.5107C901.682 22.643 905.257 21.8043 908.827 20.9941L908.606 20.0189L908.384 19.0437C904.805 19.856 901.22 20.6969 897.629 21.5669L897.865 22.5388ZM921.424 17.2253L921.629 18.2042C925.232 17.4514 928.828 16.7274 932.418 16.0315L932.228 15.0498L932.038 14.068C928.438 14.7658 924.832 15.4917 921.22 16.2464L921.424 17.2253ZM945.131 12.6635L945.305 13.6483C948.938 13.0087 952.564 12.3975 956.182 11.8144L956.022 10.8271L955.863 9.83987C952.236 10.4245 948.601 11.0373 944.958 11.6786L945.131 12.6635ZM968.964 8.8546L969.107 9.84443C972.766 9.31874 976.416 8.82133 980.057 8.35164L979.93 7.35986L979.802 6.36807C976.151 6.83899 972.491 7.3377 968.822 7.86476L968.964 8.8546ZM992.902 5.7986L993.013 6.79242C996.693 6.38117 1000.36 5.9979 1004.02 5.64201L1003.93 4.6467L1003.83 3.65139C1000.16 4.00821 996.481 4.39248 992.791 4.80479L992.902 5.7986ZM1016.92 3.49388L1017 4.49068C1020.7 4.19404 1024.38 3.92499 1028.06 3.68291L1027.99 2.68507L1027.93 1.68723C1024.24 1.92994 1020.55 2.19968 1016.84 2.49709L1016.92 3.49388ZM1041 1.93748L1041.05 2.93628C1044.76 2.75411 1048.46 2.59907 1052.14 2.47051L1052.11 1.47112L1052.07 0.471729C1048.38 0.60061 1044.67 0.756047 1040.95 0.938688L1041 1.93748ZM1065.14 1.12482L1065.16 2.12466C1068.87 2.05679 1072.57 2.01544 1076.25 1.99993L1076.25 0.999935L1076.24 -5.58496e-05C1072.55 0.0154994 1068.84 0.0569555 1065.12 0.124991L1065.14 1.12482ZM1089.29 1.05243L1089.28 2.05236C1092.99 2.09778 1096.68 2.16902 1100.36 2.26537L1100.39 1.26571L1100.41 0.266056C1096.73 0.16946 1093.02 0.0980405 1089.3 0.0525084L1089.29 1.05243ZM1113.43 1.71412L1113.39 2.71322C1117.09 2.87077 1120.78 3.05343 1124.45 3.26043L1124.51 2.26202L1124.57 1.26361C1120.89 1.05608 1117.19 0.872975 1113.48 0.715025L1113.43 1.71412ZM1137.54 3.10286L1137.47 4.10023C1141.17 4.36887 1144.85 4.66184 1148.51 4.97835L1148.59 3.98207L1148.68 2.98579C1145.01 2.66849 1141.32 2.37479 1137.61 2.10548L1137.54 3.10286ZM1161.59 5.21136L1161.49 6.20613C1165.18 6.58494 1168.85 6.98728 1172.5 7.4123L1172.62 6.41901L1172.73 5.42572C1169.07 4.99966 1165.4 4.59633 1161.7 4.21658L1161.59 5.21136ZM1185.57 8.03235L1185.44 9.02367C1189.12 9.51198 1192.78 10.023 1196.42 10.5557L1196.56 9.56626L1196.71 8.57682C1193.06 8.04277 1189.39 7.53055 1185.7 7.04104L1185.57 8.03235ZM1209.45 11.5589L1209.29 12.5459C1212.96 13.1433 1216.61 13.7625 1220.23 14.4025L1220.4 13.4178L1220.58 12.433C1216.94 11.7915 1213.29 11.1708 1209.61 10.5718L1209.45 11.5589ZM1233.2 15.7844L1233.01 16.7663C1236.68 17.473 1240.31 18.2004 1243.92 18.9475L1244.12 17.9683L1244.32 16.9891C1240.71 16.2402 1237.06 15.511 1233.39 14.8025L1233.2 15.7844ZM1256.86 20.7132L1256.64 21.6891C1260.28 22.5025 1263.88 23.3354 1267.46 24.1866L1267.69 23.2138L1267.92 22.241C1264.33 21.3877 1260.72 20.5528 1257.08 19.7373L1256.86 20.7132ZM1280.37 26.3406L1280.12 27.3095C1283.72 28.2277 1287.29 29.1639 1290.82 30.1168L1291.08 29.1513L1291.34 28.1858C1287.8 27.2306 1284.22 26.2921 1280.61 25.3716L1280.37 26.3406ZM1303.69 32.6644L1303.42 33.6255C1306.97 34.6466 1310.49 35.684 1313.97 36.7362L1314.26 35.779L1314.55 34.8218C1311.06 33.7669 1307.53 32.727 1303.97 31.7032L1303.69 32.6644ZM1326.8 39.6854L1326.49 40.6377C1330.03 41.7701 1333.52 42.9169 1336.96 44.0766L1337.28 43.1288L1337.6 42.181C1334.14 41.0183 1330.65 39.8685 1327.11 38.7332L1326.8 39.6854ZM1349.64 47.4055L1349.3 48.3477C1352.83 49.6015 1356.31 50.8676 1359.73 52.1441L1360.08 51.2071L1360.43 50.27C1356.99 48.99 1353.51 47.7205 1349.98 46.4634L1349.64 47.4055ZM1372.26 55.8706L1371.89 56.8012C1375.37 58.1688 1378.79 59.5456 1382.15 60.9296L1382.53 60.0049L1382.91 59.0802C1379.54 57.6922 1376.11 56.3114 1372.63 54.94L1372.26 55.8706ZM1394.61 65.1143L1394.21 66.0314C1397.64 67.5209 1401 69.0157 1404.29 70.5132L1404.7 69.6031L1405.12 68.6929C1401.82 67.1906 1398.45 65.6912 1395.01 64.1971L1394.61 65.1143ZM1416.51 75.1264L1416.07 76.0275C1419.47 77.6642 1422.79 79.3006 1426.02 80.9333L1426.47 80.0409L1426.92 79.1486C1423.68 77.5098 1420.35 75.8677 1416.94 74.2254L1416.51 75.1264ZM1438.09 86.0983L1437.61 86.979C1440.95 88.7749 1444.18 90.5613 1447.3 92.3339L1447.79 91.4646L1448.29 90.5954C1445.16 88.8148 1441.91 87.0208 1438.56 85.2176L1438.09 86.0983ZM1459.06 98.1087L1458.54 98.9616C1460.1 99.9182 1461.63 100.869 1463.12 101.813L1463.66 100.968L1464.19 100.123C1462.69 99.1732 1461.15 98.2174 1459.58 97.2557L1459.06 98.1087ZM1463.66 100.968L1463.16 101.833C1464.73 102.743 1466.35 103.661 1468.01 104.584L1468.49 103.711L1468.98 102.837C1467.33 101.918 1465.72 101.006 1464.16 100.102L1463.66 100.968ZM1480.21 109.975L1479.76 110.865C1483 112.532 1486.36 114.205 1489.82 115.875L1490.26 114.974L1490.69 114.073C1487.24 112.41 1483.9 110.745 1480.67 109.086L1480.21 109.975ZM1502.31 120.573L1501.9 121.486C1505.27 122.994 1508.72 124.49 1512.24 125.967L1512.63 125.045L1513.02 124.123C1509.51 122.652 1506.08 121.162 1502.72 119.661L1502.31 120.573ZM1524.93 130.008L1524.57 130.94C1528.03 132.281 1531.55 133.597 1535.11 134.882L1535.45 133.942L1535.79 133.001C1532.24 131.721 1528.74 130.41 1525.29 129.075L1524.93 130.008ZM1548 138.265L1547.68 139.215C1551.23 140.378 1554.81 141.507 1558.42 142.594L1558.71 141.637L1559 140.679C1555.4 139.597 1551.84 138.473 1548.31 137.315L1548 138.265ZM1571.48 145.263L1571.23 146.23C1574.84 147.195 1578.48 148.115 1582.15 148.983L1582.38 148.01L1582.61 147.037C1578.96 146.173 1575.34 145.258 1571.74 144.297L1571.48 145.263ZM1595.35 150.848L1595.15 151.828C1598.83 152.565 1602.53 153.245 1606.23 153.863L1606.39 152.877L1606.56 151.89C1602.88 151.276 1599.2 150.6 1595.54 149.867L1595.35 150.848ZM1619.53 154.797L1619.4 155.789C1623.14 156.256 1626.87 156.654 1630.61 156.978L1630.69 155.982L1630.78 154.985C1627.07 154.664 1623.36 154.268 1619.65 153.804L1619.53 154.797ZM1643.94 156.812L1643.9 157.811C1647.67 157.954 1651.43 158.014 1655.18 157.986L1655.17 156.986L1655.16 155.986C1651.45 156.014 1647.72 155.954 1643.98 155.813L1643.94 156.812ZM1668.44 156.504L1668.5 157.502C1672.27 157.251 1676.02 156.903 1679.74 156.451L1679.62 155.458L1679.5 154.465C1675.82 154.913 1672.11 155.258 1668.37 155.506L1668.44 156.504ZM1692.73 153.396L1692.92 154.377C1696.63 153.655 1700.3 152.818 1703.93 151.86L1703.67 150.893L1703.42 149.926C1699.83 150.873 1696.2 151.7 1692.54 152.414L1692.73 153.396ZM1716.35 146.974L1716.68 147.916C1720.23 146.648 1723.73 145.249 1727.18 143.712L1726.77 142.799L1726.36 141.886C1722.97 143.401 1719.51 144.781 1716.01 146.032L1716.35 146.974ZM1738.61 136.82L1739.1 137.69C1742.37 135.837 1745.57 133.843 1748.69 131.7L1748.13 130.875L1747.56 130.05C1744.48 132.161 1741.33 134.125 1738.12 135.95L1738.61 136.82ZM1758.67 122.843L1759.32 123.607C1762.16 121.2 1764.94 118.65 1767.63 115.949L1766.93 115.243L1766.22 114.537C1763.56 117.197 1760.83 119.709 1758.03 122.079L1758.67 122.843Z" fill="#111111" fill-opacity="0.4"/>
</svg>
